<svg width="135" height="162" viewBox="0 0 135 162" fill="none" xmlns="http://www.w3.org/2000/svg">
<circle cx="67.5" cy="67.5" r="58" stroke="#D1D1D1"/>
<circle cx="67.5" cy="154.5" r="7.5" fill="#159822"/>
<path d="M132.5 67.5C132.5 103.399 103.399 132.5 67.5 132.5C31.6015 132.5 2.5 103.399 2.5 67.5C2.5 31.6015 31.6015 2.5 67.5 2.5C103.399 2.5 132.5 31.6015 132.5 67.5ZM67.5 134.5C104.503 134.5 134.5 104.503 134.5 67.5C134.5 30.4969 104.503 0.5 67.5 0.5C30.4969 0.5 0.5 30.4969 0.5 67.5C0.5 104.503 30.4969 134.5 67.5 134.5Z" fill="#159822" stroke="#159822"/>
<path fill-rule="evenodd" clip-rule="evenodd" d="M66 148L66 134L69 134L69 148L66 148Z" fill="#159822"/>
<path d="M99.8096 90.1484H35.1902C32.3284 90.1484 30 92.4768 30 95.3387V103.886C30 104.501 30.4988 105 31.1139 105H103.886C104.501 105 105 104.501 105 103.886V95.3387C105 92.4768 102.672 90.1484 99.8096 90.1484ZM102.772 102.772H32.2277V95.3387C32.2277 93.7049 33.5568 92.376 35.1902 92.376H99.8095C101.443 92.376 102.772 93.7051 102.772 95.3387V102.772Z" fill="#159822"/>
<path d="M65.154 54.957H41.9322C37.2989 54.957 33.5293 58.7272 33.5293 63.3614V73.7781C33.5293 74.3932 34.0281 74.892 34.6432 74.892C35.2583 74.892 35.757 74.3932 35.757 73.7781V63.3614C35.757 59.9555 38.5273 57.1846 41.9322 57.1846H65.154C65.769 57.1846 66.2678 56.6858 66.2678 56.0708C66.2678 55.4557 65.769 54.957 65.154 54.957Z" fill="#159822"/>
<path d="M97.8021 56.4159C97.2942 56.0689 96.6009 56.1994 96.2542 56.7073C95.9073 57.2151 96.0377 57.9083 96.5456 58.2553C98.2345 59.409 99.2428 61.3177 99.2428 63.3609V84.6996C99.2428 85.7608 98.3792 86.6244 97.318 86.6244H37.6818C36.6206 86.6244 35.757 85.7608 35.757 84.6996V77.4906C35.757 76.8755 35.2583 76.3768 34.6432 76.3768C34.0281 76.3768 33.5293 76.8755 33.5293 77.4906V84.6996C33.5293 86.9894 35.3921 88.8522 37.6818 88.8522H97.318C99.6077 88.8522 101.471 86.9894 101.471 84.6997V63.361C101.471 60.5813 100.099 57.9851 97.8021 56.4159Z" fill="#159822"/>
<path d="M60.9408 30H38.1727C35.7431 30 33.7666 31.9765 33.7666 34.4061V42.8615C33.7666 45.2911 35.7431 47.2676 38.1727 47.2676H60.9408C63.3704 47.2676 65.3469 45.2909 65.3469 42.8615V34.4061C65.3469 31.9765 63.3704 30 60.9408 30ZM63.1191 42.8615C63.1191 44.0626 62.1419 45.0398 60.9408 45.0398H38.1727C36.9715 45.0398 35.9943 44.0626 35.9943 42.8615V34.4061C35.9943 33.2049 36.9715 32.2277 38.1727 32.2277H60.9408C62.1419 32.2277 63.1191 33.2049 63.1191 34.4061V42.8615Z" fill="#159822"/>
<path d="M59.7775 34.4551H39.3358C38.7207 34.4551 38.2219 34.9539 38.2219 35.5689V41.698C38.2219 42.3131 38.7207 42.8119 39.3358 42.8119H59.7775C60.3926 42.8119 60.8914 42.3131 60.8914 41.698V35.5689C60.8914 34.9537 60.3928 34.4551 59.7775 34.4551ZM58.6637 40.5841H40.4497V36.6828H58.6637V40.5841Z" fill="#159822"/>
<path d="M52.6756 47.7129C52.0605 47.7129 51.5618 48.2117 51.5618 48.8268V53.3971C51.5618 54.0122 52.0605 54.5109 52.6756 54.5109C53.2907 54.5109 53.7895 54.0122 53.7895 53.3971V48.8268C53.7895 48.2117 53.2909 47.7129 52.6756 47.7129Z" fill="#159822"/>
<path d="M46.4381 47.7129C45.823 47.7129 45.3242 48.2117 45.3242 48.8268V53.3971C45.3242 54.0122 45.823 54.5109 46.4381 54.5109C47.0532 54.5109 47.552 54.0122 47.552 53.3971V48.8268C47.552 48.2117 47.0533 47.7129 46.4381 47.7129Z" fill="#159822"/>
<path d="M93.9359 60.1884C94.551 60.1884 95.0498 59.6897 95.0498 59.0746V51.3503C95.0498 48.6898 92.8854 46.5254 90.2249 46.5254H72.1027C69.4423 46.5254 67.2778 48.6898 67.2778 51.3503V78.1968C67.2778 80.8572 69.4423 83.0217 72.1027 83.0217H90.2249C92.8854 83.0217 95.0498 80.8572 95.0498 78.1968V62.7876C95.0498 62.1726 94.551 61.6738 93.9359 61.6738C93.3208 61.6738 92.8221 62.1726 92.8221 62.7876V78.1966C92.8221 79.6288 91.6569 80.7938 90.2249 80.7938H72.1027C70.6706 80.7938 69.5056 79.6287 69.5056 78.1966V51.3503C69.5056 49.9181 70.6707 48.7531 72.1027 48.7531H90.2249C91.6571 48.7531 92.8221 49.9183 92.8221 51.3503V59.0746C92.8221 59.6897 93.3208 60.1884 93.9359 60.1884Z" fill="#159822"/>
<path d="M89.4805 50.9814H72.8468C72.2317 50.9814 71.7329 51.4802 71.7329 52.0953V62.9369C71.7329 63.552 72.2317 64.0508 72.8468 64.0508H89.4804C90.0955 64.0508 90.5942 63.552 90.5942 62.9369V52.0953C90.5944 51.4802 90.0956 50.9814 89.4805 50.9814ZM88.3666 61.823H73.9606V53.2092H88.3666V61.823Z" fill="#159822"/>
<path d="M75.817 67.3174H72.8468C72.2317 67.3174 71.7329 67.8162 71.7329 68.4312C71.7329 69.0463 72.2317 69.5451 72.8468 69.5451H75.817C76.4321 69.5451 76.9309 69.0463 76.9309 68.4312C76.9309 67.8162 76.4324 67.3174 75.817 67.3174Z" fill="#159822"/>
<path d="M89.4806 67.3174H86.5104C85.8953 67.3174 85.3965 67.8162 85.3965 68.4312C85.3965 69.0463 85.8953 69.5451 86.5104 69.5451H89.4806C90.0957 69.5451 90.5945 69.0463 90.5945 68.4312C90.5945 67.8162 90.0957 67.3174 89.4806 67.3174Z" fill="#159822"/>
<path d="M82.6489 67.3174H79.6788C79.0637 67.3174 78.5649 67.8162 78.5649 68.4312C78.5649 69.0463 79.0637 69.5451 79.6788 69.5451H82.6489C83.264 69.5451 83.7628 69.0463 83.7628 68.4312C83.7628 67.8162 83.2642 67.3174 82.6489 67.3174Z" fill="#159822"/>
<path d="M75.817 75.3369H72.8468C72.2317 75.3369 71.7329 75.8357 71.7329 76.4508C71.7329 77.0659 72.2317 77.5646 72.8468 77.5646H75.817C76.4321 77.5646 76.9309 77.0659 76.9309 76.4508C76.9309 75.8357 76.4324 75.3369 75.817 75.3369Z" fill="#159822"/>
<path d="M89.4806 75.3369H86.5104C85.8953 75.3369 85.3965 75.8357 85.3965 76.4508C85.3965 77.0659 85.8953 77.5646 86.5104 77.5646H89.4806C90.0957 77.5646 90.5945 77.0659 90.5945 76.4508C90.5945 75.8357 90.0957 75.3369 89.4806 75.3369Z" fill="#159822"/>
<path d="M82.6489 75.3369H79.6788C79.0637 75.3369 78.5649 75.8357 78.5649 76.4508C78.5649 77.0659 79.0637 77.5646 79.6788 77.5646H82.6489C83.264 77.5646 83.7628 77.0659 83.7628 76.4508C83.7628 75.8357 83.2642 75.3369 82.6489 75.3369Z" fill="#159822"/>
<path d="M75.817 71.3271H72.8468C72.2317 71.3271 71.7329 71.8259 71.7329 72.441C71.7329 73.0561 72.2317 73.5549 72.8468 73.5549H75.817C76.4321 73.5549 76.9309 73.0561 76.9309 72.441C76.9309 71.8259 76.4324 71.3271 75.817 71.3271Z" fill="#159822"/>
<path d="M89.4806 71.3271H86.5104C85.8953 71.3271 85.3965 71.8259 85.3965 72.441C85.3965 73.0561 85.8953 73.5549 86.5104 73.5549H89.4806C90.0957 73.5549 90.5945 73.0561 90.5945 72.441C90.5945 71.8259 90.0957 71.3271 89.4806 71.3271Z" fill="#159822"/>
<path d="M82.6489 71.3271H79.6788C79.0637 71.3271 78.5649 71.8259 78.5649 72.441C78.5649 73.0561 79.0637 73.5549 79.6788 73.5549H82.6489C83.264 73.5549 83.7628 73.0561 83.7628 72.441C83.7628 71.8259 83.2642 71.3271 82.6489 71.3271Z" fill="#159822"/>
<path d="M61.2628 61.6729H39.7281C39.113 61.6729 38.6143 62.1716 38.6143 62.7867C38.6143 63.4018 39.113 63.9006 39.7281 63.9006H41.9559V80.46C41.9559 80.8493 42.159 81.2102 42.4917 81.4122C42.8242 81.6141 43.2383 81.628 43.5836 81.4482L46.7827 79.7848L49.9817 81.4482C50.1427 81.532 50.3191 81.5739 50.4956 81.5739C50.6721 81.5739 50.8483 81.532 51.0095 81.4482L54.2085 79.7848L57.4076 81.4482C57.7529 81.6278 58.167 81.6142 58.4995 81.4122C58.8322 81.2102 59.0353 80.8491 59.0353 80.46V63.9006H61.2631C61.8782 63.9006 62.3769 63.4018 62.3769 62.7867C62.3769 62.1716 61.8779 61.6729 61.2628 61.6729ZM56.8073 78.6252L54.7221 77.5409C54.4 77.3733 54.0165 77.3733 53.6944 77.5409L50.4953 79.2044L47.2962 77.5409C47.1353 77.4571 46.9587 77.4152 46.7824 77.4152C46.606 77.4152 46.4296 77.4571 46.2685 77.5409L44.1833 78.6252V63.9006H56.807V78.6252H56.8073Z" fill="#159822"/>
<path d="M51.7577 66.1289H46.2628C45.6477 66.1289 45.1489 66.6277 45.1489 67.2428C45.1489 67.8579 45.6477 68.3567 46.2628 68.3567H51.7577C52.3728 68.3567 52.8716 67.8579 52.8716 67.2428C52.8716 66.6277 52.3728 66.1289 51.7577 66.1289Z" fill="#159822"/>
<path d="M53.9856 69.7676H46.2628C45.6477 69.7676 45.1489 70.2664 45.1489 70.8814C45.1489 71.4965 45.6477 71.9953 46.2628 71.9953H53.9856C54.6007 71.9953 55.0995 71.4965 55.0995 70.8814C55.0995 70.2662 54.6007 69.7676 53.9856 69.7676Z" fill="#159822"/>
</svg>
