<svg width="135" height="161" viewBox="0 0 135 161" fill="none" xmlns="http://www.w3.org/2000/svg">
<circle cx="67.5" cy="66.5" r="58.5" fill="#D1D1D1"/>
<circle cx="67.5" cy="153.5" r="7.5" fill="#159822"/>
<path fill-rule="evenodd" clip-rule="evenodd" d="M67.5 132C103.675 132 133 102.675 133 66.5C133 30.3253 103.675 1 67.5 1C31.3253 1 2 30.3253 2 66.5C2 102.675 31.3253 132 67.5 132ZM67.5 133C104.227 133 134 103.227 134 66.5C134 29.7731 104.227 0 67.5 0C30.7731 0 1 29.7731 1 66.5C1 103.227 30.7731 133 67.5 133Z" fill="#D1D1D1"/>
<path fill-rule="evenodd" clip-rule="evenodd" d="M2.97794 67C2.97794 102.635 31.8654 131.522 67.5 131.522C103.135 131.522 132.022 102.635 132.022 67H135C135 104.279 104.779 134.5 67.5 134.5C30.2208 134.5 0 104.279 0 67H2.97794Z" fill="#159822"/>
<path fill-rule="evenodd" clip-rule="evenodd" d="M66 147L66 133L69 133L69 147L66 147Z" fill="#159822"/>
<path d="M102.003 64.8984C101.236 57.1919 97.7934 49.9265 92.3076 44.4406C87.6195 39.7526 81.8814 36.7401 75.8436 35.4005V31.1658C78.3096 30.5522 80.1427 28.32 80.1427 25.6668C80.1427 22.5421 77.6006 20 74.4759 20H62.4756C59.3508 20 56.8088 22.5421 56.8088 25.6668C56.8088 28.3199 58.6418 30.5521 61.1077 31.1658V35.4124C55.0884 36.7576 49.3693 39.766 44.6945 44.4407C43.6715 45.4638 42.7281 46.537 41.8646 47.6523C41.8228 47.6491 41.7809 47.646 41.7383 47.646H29.8611C28.9408 47.646 28.1944 48.3922 28.1944 49.3127C28.1944 50.2332 28.9408 50.9794 29.8611 50.9794H39.5967C38.3747 53.0253 37.3893 55.1738 36.6393 57.3855H18.4997C17.5794 57.3855 16.833 58.1317 16.833 59.0522C16.833 59.9728 17.5794 60.719 18.4997 60.719H35.6975C35.2171 62.8275 34.9414 64.9734 34.8703 67.1253H27.4999C26.5796 67.1253 25.8332 67.8715 25.8332 68.792C25.8332 69.7125 26.5796 70.4587 27.4999 70.4587H34.9234C35.0641 72.6161 35.4109 74.7621 35.9641 76.865H25.1665C24.2462 76.865 23.4998 77.6112 23.4998 78.5317C23.4998 79.4522 24.2462 80.1984 25.1665 80.1984H37.0278C38.6629 84.5237 41.2181 88.5776 44.6945 92.054C50.1856 97.5452 57.4585 100.989 65.173 101.751C66.274 101.86 67.3759 101.914 68.4762 101.914C74.98 101.914 81.4012 100.031 86.8496 96.4833C87.621 95.9809 87.8392 94.9484 87.3368 94.1771C86.8345 93.4057 85.802 93.1875 85.0306 93.6899C73.1042 101.456 57.1316 99.777 47.0516 89.697C35.2243 77.8697 35.2243 58.6254 47.0516 46.798C58.8787 34.9709 78.1229 34.9709 89.9504 46.798C100.017 56.8649 101.705 72.8237 93.9648 84.7444C93.4635 85.5164 93.683 86.5487 94.4548 87.0499C95.2272 87.5513 96.2592 87.3317 96.7604 86.5597C100.896 80.1904 102.758 72.4977 102.003 64.8984ZM60.1422 25.667C60.1422 24.3803 61.1889 23.3336 62.4756 23.3336H74.4759C75.7626 23.3336 76.8092 24.3803 76.8092 25.667C76.8092 26.9537 75.7626 28.0004 74.4759 28.0004H74.1769H62.7744H62.4756C61.1889 28.0004 60.1422 26.9535 60.1422 25.667ZM64.4411 34.8393V31.3338H72.5101V34.8333C69.8307 34.5147 67.12 34.5167 64.4411 34.8393Z" fill="#159822"/>
<path d="M91.1296 89.208C90.6896 89.208 90.2612 89.3863 89.9514 89.6963C89.6397 90.0063 89.4629 90.4364 89.4629 90.8747C89.4629 91.313 89.6397 91.743 89.9514 92.053C90.2612 92.3647 90.6897 92.5414 91.1296 92.5414C91.5679 92.5414 91.9962 92.3647 92.3079 92.053C92.6179 91.743 92.7962 91.313 92.7962 90.8747C92.7962 90.4364 92.6181 90.0063 92.3079 89.6963C91.9962 89.3863 91.5677 89.208 91.1296 89.208Z" fill="#159822"/>
<path d="M68.5014 42.3906C54.2448 42.3906 42.646 53.9892 42.646 68.2461C42.646 82.5029 54.2448 94.1015 68.5014 94.1015C82.7581 94.1015 94.3569 82.5029 94.3569 68.2461C94.3569 53.9892 82.7581 42.3906 68.5014 42.3906ZM68.5014 90.7681C56.0826 90.7681 45.9794 80.6647 45.9794 68.2461C45.9794 55.8274 56.0826 45.724 68.5014 45.724C80.9202 45.724 91.0235 55.8274 91.0235 68.2461C91.0235 80.6647 80.9202 90.7681 68.5014 90.7681Z" fill="#159822"/>
<path d="M79.0439 55.3475L70.7887 63.6025C70.0984 63.2612 69.3219 63.0684 68.501 63.0684C67.68 63.0684 66.9036 63.2612 66.2133 63.6025L62.5187 59.908C61.8677 59.2571 60.8127 59.2571 60.1615 59.908C59.5106 60.5588 59.5106 61.6142 60.1615 62.265L63.8561 65.9596C63.5146 66.6499 63.3219 67.4265 63.3219 68.2473C63.3219 71.103 65.6451 73.4264 68.501 73.4264C71.3569 73.4264 73.6801 71.103 73.6801 68.2473C73.6801 67.4265 73.4873 66.6499 73.1459 65.9596L81.1588 57.9467L81.401 57.7046C82.0518 57.0537 82.0518 55.9984 81.401 55.3475C80.7501 54.6967 79.6951 54.6967 79.0439 55.3475ZM68.501 70.0932C67.4833 70.0932 66.6553 69.2652 66.6553 68.2475C66.6553 67.2298 67.4833 66.4018 68.501 66.4018C69.5187 66.4018 70.3467 67.2298 70.3467 68.2475C70.3467 69.2652 69.5187 70.0932 68.501 70.0932Z" fill="#159822"/>
<path d="M86.3217 66.6006H84.7775C83.8572 66.6006 83.1108 67.3468 83.1108 68.2673C83.1108 69.1878 83.8572 69.9339 84.7775 69.9339H86.3217C87.242 69.9339 87.9884 69.1878 87.9884 68.2673C87.9884 67.3468 87.242 66.6006 86.3217 66.6006Z" fill="#159822"/>
<path d="M52.2249 66.5596H50.6808C49.7605 66.5596 49.0142 67.3057 49.0142 68.2262C49.0142 69.1468 49.7605 69.8929 50.6808 69.8929H52.2249C53.1452 69.8929 53.8915 69.1468 53.8915 68.2262C53.8915 67.3057 53.1452 66.5596 52.2249 66.5596Z" fill="#159822"/>
<path d="M68.5212 53.6371C69.4415 53.6371 70.1879 52.891 70.1879 51.9705V50.4264C70.1879 49.5059 69.4415 48.7598 68.5212 48.7598C67.6008 48.7598 66.8545 49.5059 66.8545 50.4264V51.9705C66.8545 52.891 67.6008 53.6371 68.5212 53.6371Z" fill="#159822"/>
<path d="M68.4806 82.8564C67.5603 82.8564 66.814 83.6026 66.814 84.5231V86.0671C66.814 86.9876 67.5603 87.7338 68.4806 87.7338C69.401 87.7338 70.1473 86.9876 70.1473 86.0671V84.5231C70.1473 83.6026 69.401 82.8564 68.4806 82.8564Z" fill="#159822"/>
<path d="M18.4997 76.8652C18.0614 76.8652 17.6313 77.0436 17.3213 77.3536C17.0113 77.6636 16.833 78.0936 16.833 78.5319C16.833 78.9719 17.0112 79.4003 17.3213 79.7103C17.6315 80.0203 18.0614 80.1986 18.4997 80.1986C18.938 80.1986 19.368 80.0203 19.6779 79.7103C19.9879 79.4003 20.1664 78.9703 20.1664 78.5319C20.1664 78.0936 19.988 77.6636 19.6779 77.3536C19.368 77.0436 18.938 76.8652 18.4997 76.8652Z" fill="#159822"/>
</svg>
