<svg width="135" height="162" viewBox="0 0 135 162" fill="none" xmlns="http://www.w3.org/2000/svg">
<circle cx="67.5" cy="67.5" r="58" stroke="#D1D1D1"/>
<circle cx="67.5" cy="154.5" r="7.5" fill="#159822"/>
<path d="M132.5 67.5C132.5 103.399 103.399 132.5 67.5 132.5C31.6015 132.5 2.5 103.399 2.5 67.5C2.5 31.6015 31.6015 2.5 67.5 2.5C103.399 2.5 132.5 31.6015 132.5 67.5ZM67.5 134.5C104.503 134.5 134.5 104.503 134.5 67.5C134.5 30.4969 104.503 0.5 67.5 0.5C30.4969 0.5 0.5 30.4969 0.5 67.5C0.5 104.503 30.4969 134.5 67.5 134.5Z" fill="#159822" stroke="#159822"/>
<path fill-rule="evenodd" clip-rule="evenodd" d="M66 148L66 134L69 134L69 148L66 148Z" fill="#159822"/>
<path d="M98.5781 53.9531H32.4219C32.1194 53.9531 31.8292 54.0733 31.6153 54.2872C31.4014 54.5011 31.2812 54.7912 31.2812 55.0938C31.2812 55.3963 31.4014 55.6864 31.6153 55.9003C31.8292 56.1142 32.1194 56.2344 32.4219 56.2344H98.5781C98.8806 56.2344 99.1708 56.1142 99.3847 55.9003C99.5986 55.6864 99.7188 55.3963 99.7188 55.0938C99.7188 54.7912 99.5986 54.5011 99.3847 54.2872C99.1708 54.0733 98.8806 53.9531 98.5781 53.9531Z" fill="#159822"/>
<path d="M98.5781 32.2812H84.8906C84.5881 32.2812 84.298 32.4014 84.0841 32.6153C83.8702 32.8292 83.75 33.1194 83.75 33.4219V49.3906H81.4688V48.5192C81.4681 46.6657 81.0387 44.8375 80.2141 43.1776C79.5429 41.8356 79.1915 40.3563 79.1875 38.8558V33.4219C79.1875 33.1194 79.0673 32.8292 78.8534 32.6153C78.6395 32.4014 78.3494 32.2812 78.0469 32.2812H73.4844C73.1819 32.2812 72.8917 32.4014 72.6778 32.6153C72.4639 32.8292 72.3438 33.1194 72.3438 33.4219V38.8558C72.3397 40.3563 71.9884 41.8356 71.3172 43.1776C71.2727 43.2689 71.2408 43.3658 71.2031 43.4582C71.1598 43.3658 71.1278 43.2689 71.0891 43.1776C70.4179 41.8356 70.0665 40.3563 70.0625 38.8558V33.4219C70.0625 33.1194 69.9423 32.8292 69.7284 32.6153C69.5145 32.4014 69.2244 32.2812 68.9219 32.2812H64.3594C64.0569 32.2812 63.7667 32.4014 63.5528 32.6153C63.3389 32.8292 63.2188 33.1194 63.2188 33.4219V38.8558C63.2165 40.3559 62.8671 41.8351 62.1979 43.1776C61.3713 44.8371 60.9399 46.6653 60.9375 48.5192V49.3906H49.5312V41.8785C49.5301 41.5169 49.6008 41.1587 49.7393 40.8246C49.8777 40.4906 50.0811 40.1874 50.3377 39.9326C50.8068 39.466 51.1787 38.9111 51.4319 38.2998C51.685 37.6886 51.8144 37.0331 51.8125 36.3715V34.5625H54.0938V36.3715C54.0918 37.0331 54.2212 37.6886 54.4744 38.2998C54.7275 38.9111 55.0994 39.466 55.5686 39.9326C55.8251 40.1874 56.0285 40.4906 56.167 40.8246C56.3054 41.1587 56.3761 41.5169 56.375 41.8785V45.9688C56.375 46.2713 56.4952 46.5614 56.7091 46.7753C56.923 46.9892 57.2131 47.1094 57.5156 47.1094C57.8181 47.1094 58.1083 46.9892 58.3222 46.7753C58.5361 46.5614 58.6562 46.2713 58.6562 45.9688V41.8785C58.6582 41.2169 58.5288 40.5614 58.2756 39.9502C58.0225 39.3389 57.6506 38.784 57.1814 38.3174C56.9249 38.0626 56.7215 37.7594 56.583 37.4254C56.4446 37.0913 56.3739 36.7331 56.375 36.3715V33.4219C56.375 33.1194 56.2548 32.8292 56.0409 32.6153C55.827 32.4014 55.5369 32.2812 55.2344 32.2812H50.6719C50.3694 32.2812 50.0792 32.4014 49.8653 32.6153C49.6514 32.8292 49.5312 33.1194 49.5312 33.4219V36.3715C49.5324 36.7331 49.4617 37.0913 49.3232 37.4254C49.1848 37.7594 48.9814 38.0626 48.7248 38.3174C48.6066 38.4474 48.495 38.5833 48.3906 38.7246C48.2862 38.5833 48.1747 38.4474 48.0564 38.3174C47.7999 38.0626 47.5965 37.7594 47.458 37.4254C47.3196 37.0913 47.2489 36.7331 47.25 36.3715V33.4219C47.25 33.1194 47.1298 32.8292 46.9159 32.6153C46.702 32.4014 46.4119 32.2812 46.1094 32.2812H41.5469C41.2444 32.2812 40.9542 32.4014 40.7403 32.6153C40.5264 32.8292 40.4062 33.1194 40.4062 33.4219V36.3715C40.4074 36.7331 40.3367 37.0913 40.1982 37.4254C40.0598 37.7594 39.8564 38.0626 39.5998 38.3174C39.1307 38.784 38.7588 39.3389 38.5056 39.9502C38.2525 40.5614 38.1231 41.2169 38.125 41.8785V49.3906H32.4219C32.1194 49.3906 31.8292 49.5108 31.6153 49.7247C31.4014 49.9386 31.2812 50.2287 31.2812 50.5312C31.2812 50.8338 31.4014 51.1239 31.6153 51.3378C31.8292 51.5517 32.1194 51.6719 32.4219 51.6719H98.5781C98.8806 51.6719 99.1708 51.5517 99.3847 51.3378C99.5986 51.1239 99.7188 50.8338 99.7188 50.5312C99.7188 50.2287 99.5986 49.9386 99.3847 49.7247C99.1708 49.5108 98.8806 49.3906 98.5781 49.3906H86.0312V45.9688H97.4375C97.4375 46.2713 97.5577 46.5614 97.7716 46.7753C97.9855 46.9892 98.2756 47.1094 98.5781 47.1094C98.8806 47.1094 99.1708 46.9892 99.3847 46.7753C99.5986 46.5614 99.7188 46.2713 99.7188 45.9688V33.4219C99.7188 33.1194 99.5986 32.8292 99.3847 32.6153C99.1708 32.4014 98.8806 32.2812 98.5781 32.2812ZM76.9062 34.5625V37.9844H74.625V34.5625H76.9062ZM41.2127 39.9326C41.6818 39.466 42.0537 38.9111 42.3069 38.2998C42.56 37.6886 42.6894 37.0331 42.6875 36.3715V34.5625H44.9688V36.3715C44.9668 37.0331 45.0962 37.6886 45.3494 38.2998C45.6025 38.9111 45.9744 39.466 46.4436 39.9326C46.7001 40.1874 46.9035 40.4906 47.042 40.8246C47.1804 41.1587 47.2511 41.5169 47.25 41.8785V43.6875H40.4062V41.8785C40.4051 41.5169 40.4758 41.1587 40.6143 40.8246C40.7527 40.4906 40.9561 40.1874 41.2127 39.9326ZM40.4062 45.9688H47.25V49.3906H40.4062V45.9688ZM63.2188 48.5192C63.221 47.0191 63.5704 45.5399 64.2396 44.1974C65.0662 42.5379 65.4976 40.7097 65.5 38.8558V34.5625H67.7812V38.8558C67.7819 40.7093 68.2113 42.5375 69.0359 44.1974C69.7071 45.5394 70.0585 47.0187 70.0625 48.5192V49.3906H63.2188V48.5192ZM72.3438 49.3906V48.5192C72.3478 47.0187 72.6991 45.5394 73.3703 44.1974C73.982 42.9634 74.377 41.6334 74.5383 40.2656H76.9929C77.156 41.6338 77.553 42.9637 78.1666 44.1974C78.8378 45.5394 79.1892 47.0187 79.1932 48.5192V49.3906H72.3438ZM97.4375 34.5625V36.8438H86.0312V34.5625H97.4375ZM86.0312 43.6875V39.125H97.4375V43.6875H86.0312Z" fill="#159822"/>
<path d="M98.5781 80.1875H32.4219C32.1194 80.1875 31.8292 80.3077 31.6153 80.5216C31.4014 80.7355 31.2812 81.0256 31.2812 81.3281C31.2812 81.6306 31.4014 81.9208 31.6153 82.1347C31.8292 82.3486 32.1194 82.4688 32.4219 82.4688H97.4375V98.4375H81.4688V85.8906C81.4688 85.5881 81.3486 85.298 81.1347 85.0841C80.9208 84.8702 80.6306 84.75 80.3281 84.75C80.0256 84.75 79.7355 84.8702 79.5216 85.0841C79.3077 85.298 79.1875 85.5881 79.1875 85.8906V98.4375H76.9062V90.4531C76.9062 90.1506 76.7861 89.8605 76.5722 89.6466C76.3583 89.4327 76.0681 89.3125 75.7656 89.3125H58.6562C58.3537 89.3125 58.0636 89.4327 57.8497 89.6466C57.6358 89.8605 57.5156 90.1506 57.5156 90.4531V98.4375H54.0938V85.8906C54.0938 85.5881 53.9736 85.298 53.7597 85.0841C53.5458 84.8702 53.2556 84.75 52.9531 84.75H34.7031C34.4006 84.75 34.1105 84.8702 33.8966 85.0841C33.6827 85.298 33.5625 85.5881 33.5625 85.8906V98.4375H32.4219C32.1194 98.4375 31.8292 98.5577 31.6153 98.7716C31.4014 98.9855 31.2812 99.2756 31.2812 99.5781C31.2812 99.8806 31.4014 100.171 31.6153 100.385C31.8292 100.599 32.1194 100.719 32.4219 100.719H98.5781C98.8806 100.719 99.1708 100.599 99.3847 100.385C99.5986 100.171 99.7188 99.8806 99.7188 99.5781V81.3281C99.7188 81.0256 99.5986 80.7355 99.3847 80.5216C99.1708 80.3077 98.8806 80.1875 98.5781 80.1875ZM74.625 93.875H71.2031V91.5938H74.625V93.875ZM68.9219 93.875H65.5V91.5938H68.9219V93.875ZM63.2188 91.5938V93.875H59.7969V91.5938H63.2188ZM51.8125 89.7482C51.3899 89.2539 50.8651 88.857 50.2744 88.5848C49.6837 88.3127 49.041 88.1718 48.3906 88.1718C47.7402 88.1718 47.0976 88.3127 46.5069 88.5848C45.9161 88.857 45.3914 89.2539 44.9688 89.7482V87.0312H51.8125V89.7482ZM50.6719 92.7344C50.6719 93.1856 50.5381 93.6266 50.2874 94.0018C50.0367 94.3769 49.6805 94.6693 49.2636 94.842C48.8468 95.0146 48.3881 95.0598 47.9456 94.9718C47.5031 94.8838 47.0966 94.6665 46.7775 94.3475C46.4585 94.0284 46.2412 93.6219 46.1532 93.1794C46.0652 92.7369 46.1104 92.2782 46.283 91.8614C46.4557 91.4445 46.7481 91.0883 47.1232 90.8376C47.4984 90.5869 47.9394 90.4531 48.3906 90.4531C48.9956 90.4531 49.5759 90.6935 50.0037 91.1213C50.4315 91.5491 50.6719 92.1293 50.6719 92.7344ZM35.8438 91.5938H42.6875V93.875H35.8438V91.5938ZM42.6875 87.0312V89.3125H35.8438V87.0312H42.6875ZM35.8438 96.1562H42.6875V98.4375H35.8438V96.1562ZM44.9688 98.4375V95.7205C45.3914 96.2149 45.9161 96.6118 46.5069 96.8839C47.0976 97.156 47.7402 97.297 48.3906 97.297C49.041 97.297 49.6837 97.156 50.2744 96.8839C50.8651 96.6118 51.3899 96.2149 51.8125 95.7205V98.4375H44.9688ZM59.7969 96.1562H63.2188V98.4375H59.7969V96.1562ZM65.5 96.1562H68.9219V98.4375H65.5V96.1562ZM71.2031 98.4375V96.1562H74.625V98.4375H71.2031Z" fill="#159822"/>
<path d="M94.0156 93.875C94.3181 93.875 94.6083 93.7548 94.8222 93.5409C95.0361 93.327 95.1562 93.0369 95.1562 92.7344V88.1719C95.1562 87.8694 95.0361 87.5792 94.8222 87.3653C94.6083 87.1514 94.3181 87.0312 94.0156 87.0312H84.8906C84.5881 87.0312 84.298 87.1514 84.0841 87.3653C83.8702 87.5792 83.75 87.8694 83.75 88.1719V92.7344C83.75 93.0369 83.8702 93.327 84.0841 93.5409C84.298 93.7548 84.5881 93.875 84.8906 93.875H94.0156ZM86.0312 89.3125H92.875V91.5938H86.0312V89.3125Z" fill="#159822"/>
<path d="M97.4375 63.288V59.6562C97.4375 59.3537 97.3173 59.0636 97.1034 58.8497C96.8895 58.6358 96.5994 58.5156 96.2969 58.5156H91.7344C91.4319 58.5156 91.1417 58.6358 90.9278 58.8497C90.7139 59.0636 90.5938 59.3537 90.5938 59.6562V63.288C89.9289 63.5231 89.3529 63.9578 88.9445 64.5328C88.5362 65.1077 88.3154 65.7948 88.3125 66.5V74.4844C88.3163 74.8738 88.3873 75.2597 88.5224 75.625H84.8906V68.7812C85.1931 68.7812 85.4833 68.6611 85.6972 68.4472C85.9111 68.2333 86.0312 67.9431 86.0312 67.6406C86.0312 67.3381 85.9111 67.048 85.6972 66.8341C85.4833 66.6202 85.1931 66.5 84.8906 66.5H75.7656C75.4631 66.5 75.173 66.6202 74.9591 66.8341C74.7452 67.048 74.625 67.3381 74.625 67.6406C74.625 67.9431 74.7452 68.2333 74.9591 68.4472C75.173 68.6611 75.4631 68.7812 75.7656 68.7812V75.625H72.3438V65.3594C72.3438 65.0569 72.2236 64.7667 72.0097 64.5528C71.7958 64.3389 71.5056 64.2188 71.2031 64.2188H57.5156C57.2131 64.2188 56.923 64.3389 56.7091 64.5528C56.4952 64.7667 56.375 65.0569 56.375 65.3594V75.625H54.0938V74.4844C54.0938 74.1819 53.9736 73.8917 53.7597 73.6778C53.5458 73.4639 53.2556 73.3438 52.9531 73.3438C52.6506 73.3438 52.3605 73.4639 52.1466 73.6778C51.9327 73.8917 51.8125 74.1819 51.8125 74.4844V75.625H44.9688V68.1128C44.9676 67.7513 45.0383 67.393 45.1768 67.059C45.3152 66.725 45.5186 66.4217 45.7752 66.1669C46.2443 65.7004 46.6162 65.1455 46.8694 64.5342C47.1225 63.9229 47.2519 63.2675 47.25 62.6059V60.7969H49.5312V62.6059C49.5293 63.2675 49.6587 63.9229 49.9119 64.5342C50.165 65.1455 50.5369 65.7004 51.0061 66.1669C51.2626 66.4217 51.466 66.725 51.6045 67.059C51.7429 67.393 51.8136 67.7513 51.8125 68.1128V69.9219C51.8125 70.2244 51.9327 70.5145 52.1466 70.7284C52.3605 70.9423 52.6506 71.0625 52.9531 71.0625C53.2556 71.0625 53.5458 70.9423 53.7597 70.7284C53.9736 70.5145 54.0938 70.2244 54.0938 69.9219V68.1128C54.0957 67.4512 53.9663 66.7958 53.7131 66.1846C53.46 65.5733 53.0881 65.0183 52.6189 64.5518C52.3624 64.297 52.159 63.9938 52.0205 63.6597C51.8821 63.3257 51.8114 62.9675 51.8125 62.6059V59.6562C51.8125 59.3537 51.6923 59.0636 51.4784 58.8497C51.2645 58.6358 50.9744 58.5156 50.6719 58.5156H46.1094C45.8069 58.5156 45.5167 58.6358 45.3028 58.8497C45.0889 59.0636 44.9688 59.3537 44.9688 59.6562V62.6059C44.9699 62.9675 44.8992 63.3257 44.7607 63.6597C44.6223 63.9938 44.4189 64.297 44.1623 64.5518C44.0441 64.6818 43.9325 64.8177 43.8281 64.959C43.7237 64.8177 43.6122 64.6818 43.4939 64.5518C43.2374 64.297 43.034 63.9938 42.8955 63.6597C42.7571 63.3257 42.6864 62.9675 42.6875 62.6059V59.6562C42.6875 59.3537 42.5673 59.0636 42.3534 58.8497C42.1395 58.6358 41.8494 58.5156 41.5469 58.5156H36.9844C36.6819 58.5156 36.3917 58.6358 36.1778 58.8497C35.9639 59.0636 35.8438 59.3537 35.8438 59.6562V62.6059C35.8449 62.9675 35.7742 63.3257 35.6357 63.6597C35.4973 63.9938 35.2939 64.297 35.0373 64.5518C34.5682 65.0183 34.1963 65.5733 33.9431 66.1846C33.69 66.7958 33.5606 67.4512 33.5625 68.1128V75.625H32.4219C32.1194 75.625 31.8292 75.7452 31.6153 75.9591C31.4014 76.173 31.2812 76.4631 31.2812 76.7656C31.2812 77.0681 31.4014 77.3583 31.6153 77.5722C31.8292 77.7861 32.1194 77.9062 32.4219 77.9062H98.5781C98.8044 77.906 99.0255 77.8384 99.2133 77.7121C99.4011 77.5859 99.5471 77.4066 99.6327 77.1971C99.7183 76.9876 99.7396 76.7574 99.694 76.5358C99.6484 76.3141 99.5379 76.111 99.3766 75.9524C99.5996 75.495 99.7166 74.9932 99.7188 74.4844V66.5C99.7158 65.7948 99.4951 65.1077 99.0867 64.5328C98.6784 63.9578 98.1024 63.5231 97.4375 63.288ZM36.6502 66.1669C37.1193 65.7004 37.4912 65.1455 37.7444 64.5342C37.9975 63.9229 38.1269 63.2675 38.125 62.6059V60.7969H40.4062V62.6059C40.4043 63.2675 40.5337 63.9229 40.7869 64.5342C41.04 65.1455 41.4119 65.7004 41.8811 66.1669C42.1376 66.4217 42.341 66.725 42.4795 67.059C42.6179 67.393 42.6886 67.7513 42.6875 68.1128V69.9219H35.8438V68.1128C35.8426 67.7513 35.9133 67.393 36.0518 67.059C36.1902 66.725 36.3936 66.4217 36.6502 66.1669ZM35.8438 72.2031H42.6875V75.625H35.8438V72.2031ZM92.875 60.7969H95.1562V63.0781H92.875V60.7969ZM91.7344 65.3594H96.2969C96.5994 65.3594 96.8895 65.4795 97.1034 65.6935C97.3173 65.9074 97.4375 66.1975 97.4375 66.5V69.9219H90.5938V66.5C90.5938 66.1975 90.7139 65.9074 90.9278 65.6935C91.1417 65.4795 91.4319 65.3594 91.7344 65.3594ZM70.0625 71.0625H65.5V66.5H70.0625V71.0625ZM63.2188 66.5V68.7812H58.6562V66.5H63.2188ZM58.6562 71.0625H63.2188V75.625H58.6562V71.0625ZM65.5 75.625V73.3438H70.0625V75.625H65.5ZM78.0469 75.625V68.7812H82.6094V75.625H78.0469ZM91.7344 75.625C91.4319 75.625 91.1417 75.5048 90.9278 75.2909C90.7139 75.077 90.5938 74.7869 90.5938 74.4844V72.2031H97.4375V74.4844C97.4375 74.7869 97.3173 75.077 97.1034 75.2909C96.8895 75.5048 96.5994 75.625 96.2969 75.625H91.7344Z" fill="#159822"/>
</svg>
