<svg width="135" height="161" viewBox="0 0 135 161" fill="none" xmlns="http://www.w3.org/2000/svg">
<circle cx="67.5" cy="66.5" r="58.5" fill="#D1D1D1"/>
<circle cx="67.5" cy="153.5" r="7.5" fill="#159822"/>
<path fill-rule="evenodd" clip-rule="evenodd" d="M67.5 132C103.675 132 133 102.675 133 66.5C133 30.3253 103.675 1 67.5 1C31.3253 1 2 30.3253 2 66.5C2 102.675 31.3253 132 67.5 132ZM67.5 133C104.227 133 134 103.227 134 66.5C134 29.7731 104.227 0 67.5 0C30.7731 0 1 29.7731 1 66.5C1 103.227 30.7731 133 67.5 133Z" fill="#D1D1D1"/>
<path fill-rule="evenodd" clip-rule="evenodd" d="M2.97794 67C2.97794 102.635 31.8654 131.522 67.5 131.522C103.135 131.522 132.022 102.635 132.022 67H135C135 104.279 104.779 134.5 67.5 134.5C30.2208 134.5 0 104.279 0 67H2.97794Z" fill="#159822"/>
<path fill-rule="evenodd" clip-rule="evenodd" d="M66 147L66 133L69 133L69 147L66 147Z" fill="#159822"/>
<path d="M101.631 43.7296C101.631 43.721 101.629 43.7124 101.629 43.7037C101.628 43.6694 101.626 43.6356 101.622 43.6022C101.621 43.5899 101.618 43.5776 101.617 43.5653C101.612 43.5344 101.606 43.504 101.599 43.4742C101.596 43.4624 101.593 43.4507 101.59 43.4389C101.581 43.4065 101.571 43.3747 101.559 43.3434C101.557 43.3374 101.556 43.3312 101.554 43.3254L98.4291 35.3269C98.1141 34.5209 97.3513 34 96.4859 34H90.7969C90.1767 34 89.6741 34.5027 89.6741 35.1228C89.6741 35.7429 90.1767 36.2456 90.7969 36.2456H96.3772L98.8637 42.6111H75.3553L73.8824 36.2456H82.5645C83.1846 36.2456 83.6872 35.7429 83.6872 35.1228C83.6872 34.5027 83.1846 34 82.5645 34H72.4701H61.1567H37.1407C36.2751 34 35.5125 34.5209 35.1975 35.3272L32.073 43.3254C32.0707 43.3314 32.0695 43.3375 32.0672 43.3434C32.0555 43.3746 32.0454 43.4063 32.0364 43.4389C32.0332 43.4507 32.0301 43.4624 32.0274 43.4742C32.0203 43.5042 32.0146 43.5346 32.01 43.5653C32.0082 43.5776 32.0059 43.5899 32.0043 43.6022C32.0005 43.6356 31.9984 43.6694 31.9974 43.7037C31.9973 43.7123 31.9962 43.7209 31.9961 43.7296C31.9961 43.731 31.9959 43.7324 31.9959 43.7338V60.2293C31.9959 60.8494 32.4986 61.3521 33.1187 61.3521C33.7388 61.3521 34.2415 60.8494 34.2415 60.2293V44.8567H58.0414V61.9232C58.0414 62.5907 58.4345 63.1988 59.0431 63.4727C59.266 63.573 59.5033 63.6219 59.739 63.6219C60.1469 63.6219 60.5503 63.4754 60.8667 63.195L66.8133 57.9267L72.7599 63.1948C73.2592 63.6376 73.9751 63.7465 74.5838 63.4727C75.1922 63.1987 75.5854 62.5907 75.5854 61.9232V44.8567H99.3851V95.2176C99.3851 96.0233 98.7295 96.6789 97.9238 96.6789H77.3366C77.3366 96.6662 77.3351 96.6534 77.3349 96.6407C77.3337 96.5399 77.33 96.4393 77.3214 96.3395C79.2544 96.852 81.3199 95.8585 82.0945 93.9588C82.5019 92.9595 82.496 91.8614 82.0775 90.8668C82.038 90.7732 81.9945 90.6822 81.9488 90.5927C81.9403 90.5763 81.9322 90.5597 81.9237 90.5434C81.8787 90.458 81.8308 90.3746 81.7803 90.2934C81.7705 90.2776 81.7603 90.2622 81.7504 90.2465C81.6969 90.1632 81.6415 90.0813 81.5823 90.0025C81.5813 90.001 81.58 89.9996 81.579 89.9982C81.5203 89.9203 81.4583 89.8454 81.3942 89.7722C81.3825 89.7588 81.371 89.7453 81.3592 89.7319C81.2958 89.6613 81.2299 89.5929 81.1617 89.527C81.1483 89.5141 81.1348 89.5017 81.1213 89.4891C81.0499 89.422 80.9768 89.3567 80.9006 89.2951C80.898 89.2932 80.8954 89.2912 80.8928 89.2892C80.8178 89.2288 80.74 89.1717 80.6606 89.1167C80.6463 89.1067 80.6322 89.0966 80.6176 89.0867C80.5382 89.0333 80.4568 88.9828 80.3732 88.9347C80.3663 88.9307 80.36 88.9261 80.353 88.9221C80.8275 88.5115 81.2021 87.9918 81.446 87.3937C81.8534 86.3944 81.8474 85.2963 81.4289 84.3016C81.0628 83.4313 80.4192 82.7313 79.5948 82.297C79.477 82.235 79.3555 82.1783 79.2306 82.1275L61.7557 75.002L69.89 72.4843C71.8252 71.8852 72.9152 69.8212 72.3196 67.8835C72.0974 67.1602 71.6568 66.5502 71.0876 66.1043C70.2406 65.4407 69.1086 65.1411 67.986 65.3768C67.9806 65.3781 67.9754 65.379 67.97 65.3804C67.9078 65.3944 61.6721 66.7965 55.1594 68.0664C54.8705 68.1228 54.589 68.1771 54.3115 68.2306C54.0894 68.2733 53.8704 68.3154 53.6556 68.3562C53.5938 68.368 53.5319 68.3797 53.4707 68.3914C53.0913 68.4634 52.7238 68.5324 52.3666 68.5987C52.2229 68.6254 52.0803 68.6518 51.9401 68.6776C43.7612 70.1844 41.4635 70.2114 40.8259 70.1251C40.8234 70.1248 40.8213 70.1245 40.8188 70.124C40.8091 70.1226 40.7996 70.1213 40.7907 70.1199C40.7843 70.1188 40.7783 70.1177 40.7723 70.1168C40.768 70.116 40.7634 70.1153 40.7592 70.1147C40.7194 70.1074 40.6884 70.0999 40.6645 70.0927L40.4805 70.0177L40.7098 69.4555C40.9352 68.9026 40.9318 68.2951 40.7004 67.7448C40.6425 67.6072 40.572 67.4773 40.4903 67.3563C40.2452 66.9934 39.8986 66.7108 39.4839 66.5417L33.4533 64.0828C32.9006 63.8572 32.2929 63.8608 31.7427 64.0922C31.1922 64.3236 30.7651 64.7556 30.5397 65.3084L23.1655 83.3939C22.7001 84.5351 23.2501 85.842 24.3913 86.3075L30.4221 88.7665C30.6974 88.8788 30.9823 88.9319 31.2629 88.9319C32.1449 88.9319 32.9825 88.4064 33.3355 87.5407L33.391 87.4048L34.7815 87.9716C34.7822 87.9719 34.783 87.9724 34.7839 87.9727C36.1139 88.515 37.3393 89.2887 38.3998 90.2489C38.5927 90.4235 38.7801 90.6042 38.9618 90.7908C39.1435 90.9774 39.3191 91.17 39.4888 91.3681C39.5736 91.4672 39.657 91.5678 39.7386 91.6696C41.284 93.5966 43.31 95.1083 45.5972 96.0409L47.1615 96.6787H35.7029C34.8972 96.6787 34.2416 96.0231 34.2416 95.2175V92.3765C34.2416 91.7563 33.739 91.2537 33.1188 91.2537C32.4987 91.2537 31.9961 91.7563 31.9961 92.3765V95.2175C31.9961 97.2614 33.6588 98.9243 35.7029 98.9243H52.6688L67.1327 104.822C67.6306 105.025 68.1457 105.121 68.653 105.121C70.2469 105.121 71.7609 104.171 72.399 102.606C72.6607 101.965 72.7447 101.294 72.6742 100.649C73.4266 100.757 74.2066 100.658 74.9136 100.353C75.6322 100.042 76.2278 99.5478 76.6507 98.9242H97.924C99.9679 98.9242 101.631 97.2614 101.631 95.2173V43.7339C101.631 43.7324 101.631 43.7312 101.631 43.7296ZM62.0492 36.2456H71.5774L73.0503 42.6111H60.5763L62.0492 36.2456ZM58.2714 42.6111H34.7629L37.2494 36.2456H59.7444L58.2714 42.6111ZM73.3401 60.7086H73.34L67.9399 55.9247C67.6188 55.6403 67.2161 55.4981 66.8136 55.4981C66.4109 55.4981 66.0081 55.6403 65.687 55.9247L60.2871 60.7086V44.8567H73.3401V60.7086ZM31.2601 86.6831L25.2487 84.2321L32.6151 66.1662L38.6265 68.6174L31.2601 86.6831ZM76.1172 93.459L74.8286 92.9335C74.8279 92.9332 74.8273 92.933 74.8267 92.9327C74.8263 92.9326 74.8258 92.9323 74.8253 92.9321C74.8252 92.9321 74.825 92.932 74.8249 92.932L61.4045 87.4599C60.8305 87.2259 60.1752 87.5014 59.9409 88.0758C59.7067 88.65 59.9824 89.3053 60.5568 89.5395L73.9774 95.0117C74.0335 95.0346 74.0877 95.0599 74.1401 95.0877C74.1548 95.0955 74.1685 95.1051 74.1829 95.1132C74.2198 95.1341 74.2568 95.155 74.2917 95.1782C74.3084 95.1894 74.3238 95.2023 74.34 95.2139C74.3709 95.2361 74.4024 95.2579 74.4316 95.2818C74.4492 95.2963 74.4652 95.3124 74.4822 95.3274C74.5084 95.3506 74.5351 95.3731 74.5596 95.3976C74.5767 95.4145 74.5919 95.4331 74.6082 95.4506C74.6308 95.4749 74.6539 95.4987 74.6751 95.5242C74.6913 95.5437 74.7054 95.5644 74.7207 95.5845C74.7399 95.6097 74.7599 95.6344 74.7776 95.6605C74.7925 95.6824 74.8052 95.7054 74.819 95.7277C74.835 95.7535 74.8519 95.7788 74.8665 95.8054C74.8797 95.8293 74.8908 95.8544 74.9029 95.8788C74.9158 95.905 74.9298 95.9308 74.9414 95.9577C74.9526 95.9835 74.9617 96.0102 74.9717 96.0365C74.9818 96.0631 74.9929 96.0892 75.0018 96.1162C75.0107 96.1434 75.0175 96.1712 75.025 96.1987C75.0325 96.2259 75.041 96.2526 75.0472 96.2801C75.0535 96.3079 75.0575 96.3361 75.0626 96.3641C75.0677 96.392 75.0735 96.4197 75.0772 96.4479C75.0809 96.4762 75.0823 96.5047 75.0846 96.5332C75.0869 96.5617 75.0902 96.5901 75.0912 96.6187C75.0921 96.6468 75.0907 96.6752 75.0904 96.7035C75.0901 96.7327 75.0906 96.7618 75.0887 96.7912C75.087 96.819 75.0829 96.8468 75.0798 96.8746C75.0766 96.9045 75.0741 96.9344 75.0692 96.9642C75.0648 96.9916 75.0578 97.0188 75.0522 97.0461C75.0457 97.0764 75.0403 97.1066 75.0322 97.1367C75.0251 97.1633 75.0156 97.1897 75.0072 97.2161C74.9976 97.2462 74.9889 97.2763 74.9777 97.306C74.9682 97.3264 74.9588 97.347 74.95 97.3677C74.948 97.3724 74.947 97.3774 74.9451 97.382C74.7697 97.7869 74.446 98.1087 74.0232 98.2913C73.5579 98.492 73.0251 98.4991 72.5613 98.3099L70.1835 97.3404C70.1725 97.3359 70.1612 97.3328 70.1502 97.3287C70.139 97.3236 70.1284 97.3178 70.117 97.3132L59.2015 92.8624C58.627 92.6283 57.972 92.9039 57.7379 93.4782C57.5037 94.0525 57.7794 94.7078 58.3536 94.942L69.2691 99.3927C69.2808 99.3975 69.2926 99.4009 69.3044 99.4052C69.315 99.4098 69.3249 99.4155 69.3358 99.4198C70.2519 99.7934 70.6934 100.843 70.3199 101.759C69.9462 102.675 68.8975 103.117 67.9809 102.743L53.3152 96.7629C53.3146 96.7626 53.314 96.7623 53.3134 96.762L46.4455 93.9615C45.2366 93.4686 44.1139 92.7844 43.1229 91.9426C42.5283 91.4375 41.9811 90.8759 41.4909 90.2647C41.0079 89.6625 40.478 89.1009 39.908 88.5847C38.6537 87.4493 37.2047 86.5345 35.6323 85.8931C35.6321 85.8931 35.632 85.893 35.6318 85.893L34.2395 85.3254L37.0126 78.5243L39.6332 72.0973L39.8266 72.1761C40.0085 72.2503 40.2681 72.3556 40.9665 72.382C41.8392 72.4215 43.2828 72.3304 45.869 71.9651C47.6282 71.7166 49.7861 71.3572 52.3052 70.8937C52.3672 70.8824 52.4288 70.871 52.4915 70.8595C52.6093 70.8377 52.7283 70.8156 52.8478 70.7935C52.9407 70.7763 53.034 70.7587 53.1282 70.7411C53.2354 70.721 53.343 70.7008 53.4515 70.6804C53.5665 70.6588 53.6829 70.6368 53.7999 70.6145C53.8936 70.5967 53.9871 70.5791 54.0817 70.5611C54.2244 70.5339 54.3695 70.5061 54.5151 70.4782C54.5901 70.4637 54.6642 70.4496 54.7398 70.4352C54.9628 70.3922 55.1887 70.3485 55.4188 70.3039C61.909 69.0415 68.1734 67.6364 68.4549 67.5731C68.483 67.5673 68.5111 67.5639 68.5392 67.5598C69.2604 67.453 69.967 67.8701 70.1738 68.5431C70.2465 68.7796 70.2549 69.0209 70.2092 69.2479C70.1086 69.7475 69.7455 70.1785 69.2266 70.339L58.0951 73.7843C57.6419 73.9247 57.3259 74.3343 57.3054 74.8082C57.2849 75.282 57.5641 75.7177 58.0033 75.8968L78.3834 84.2069C78.8272 84.3878 79.174 84.7307 79.3598 85.1726C79.5456 85.6144 79.5484 86.1022 79.3673 86.5458C79.1863 86.9897 78.8435 87.3364 78.4016 87.5223C78.1808 87.615 77.9484 87.662 77.7158 87.6634C77.7124 87.6634 77.709 87.6629 77.7056 87.6629C77.651 87.6629 77.5964 87.6608 77.5419 87.6557C77.5258 87.6542 77.5098 87.6508 77.4937 87.649C77.4521 87.6439 77.4105 87.6391 77.3692 87.6312C77.343 87.6261 77.3172 87.6184 77.2913 87.6123C77.2603 87.6049 77.2291 87.5986 77.1984 87.5895C77.1666 87.5802 77.1354 87.5677 77.1041 87.5565C77.0792 87.5476 77.0539 87.5402 77.0293 87.5303L63.6074 82.0574C63.0332 81.8232 62.378 82.0989 62.1438 82.6733C61.9096 83.2475 62.1853 83.9028 62.7597 84.137L79.0318 90.7719C79.1428 90.8171 79.2477 90.8725 79.3455 90.937C79.639 91.1305 79.8689 91.4062 80.0082 91.7376C80.1708 92.1242 80.1933 92.5459 80.075 92.9426C80.0581 92.9992 80.0383 93.0554 80.0157 93.1109C79.9924 93.1682 79.9664 93.2236 79.938 93.2771C79.8718 93.4014 79.7912 93.5139 79.7012 93.6163C79.6453 93.6799 79.5856 93.7392 79.522 93.7935C79.5118 93.8021 79.5026 93.812 79.4923 93.8202C79.0826 94.1553 78.5348 94.2994 77.9996 94.1913C77.891 94.1693 77.783 94.1381 77.6768 94.0948L76.1172 93.459Z" fill="#159822"/>
</svg>
