<svg width="135" height="161" viewBox="0 0 135 161" fill="none" xmlns="http://www.w3.org/2000/svg">
<circle cx="67.5" cy="66.5" r="58.5" fill="#D1D1D1"/>
<circle cx="67.5" cy="153.5" r="7.5" fill="#159822"/>
<path fill-rule="evenodd" clip-rule="evenodd" d="M67.5 132C103.675 132 133 102.675 133 66.5C133 30.3253 103.675 1 67.5 1C31.3253 1 2 30.3253 2 66.5C2 102.675 31.3253 132 67.5 132ZM67.5 133C104.227 133 134 103.227 134 66.5C134 29.7731 104.227 0 67.5 0C30.7731 0 1 29.7731 1 66.5C1 103.227 30.7731 133 67.5 133Z" fill="#D1D1D1"/>
<path fill-rule="evenodd" clip-rule="evenodd" d="M2.97794 67C2.97794 102.635 31.8654 131.522 67.5 131.522C103.135 131.522 132.022 102.635 132.022 67H135C135 104.279 104.779 134.5 67.5 134.5C30.2208 134.5 0 104.279 0 67H2.97794Z" fill="#159822"/>
<path fill-rule="evenodd" clip-rule="evenodd" d="M66 147L66 133L69 133L69 147L66 147Z" fill="#159822"/>
<path d="M81.7335 88.5313C79.5608 86.3585 76.0256 86.3585 73.8528 88.5313L72.5135 89.8706V84.9626C72.5135 84.2507 71.9363 83.6736 71.2245 83.6736C70.5126 83.6736 69.9354 84.2507 69.9354 84.9626V92.9825C69.9354 93.5038 70.2495 93.9738 70.7312 94.1734C71.2128 94.3729 71.7674 94.2627 72.1359 93.8939L75.6759 90.3539C76.8434 89.1866 78.7432 89.1864 79.9013 90.3445C79.9043 90.3476 79.9116 90.355 79.9147 90.3581C81.0806 91.524 81.082 93.4226 79.9174 94.5901L67.1912 107.35C67.1324 107.409 67.0652 107.422 67.0192 107.422H67.019C66.9729 107.422 66.9059 107.409 66.8471 107.35L54.0857 94.589C52.9182 93.4214 52.9182 91.5216 54.0857 90.3539C55.2532 89.1864 57.1531 89.1864 58.3206 90.3539L61.8645 93.8979C62.2333 94.2667 62.7879 94.3769 63.2692 94.1773C63.7509 93.9778 64.0649 93.5077 64.0649 92.9864V70.224C64.0649 69.5121 63.4878 68.935 62.7759 68.935H40.0172C39.4958 68.935 39.0259 69.249 38.8264 69.7307C38.6268 70.2125 38.7372 70.7667 39.1058 71.1354L42.6458 74.6754C43.8133 75.8429 43.8133 77.7427 42.6418 78.9144C41.4757 80.0803 39.5773 80.0817 38.4097 78.9171L25.6497 66.1909C25.5904 66.1321 25.578 66.0649 25.578 66.0189C25.578 65.9728 25.5904 65.9056 25.6494 65.8467L32.5525 58.9436C33.0559 58.4402 33.0559 57.6239 32.5525 57.1207C32.0491 56.6173 31.2329 56.6173 30.7296 57.1207L23.8263 64.0238C23.2929 64.5573 22.9995 65.2663 23 66.0208C23.0005 66.7751 23.2949 67.4837 23.8289 68.0165L36.589 80.7427C38.7617 82.9096 42.2947 82.9072 44.4685 80.7334C46.6412 78.5606 46.6412 75.0255 44.4685 72.8527L43.1291 71.5133H61.4867V89.8749L60.1432 88.5314C57.9705 86.3587 54.4353 86.3588 52.2625 88.5314C50.0898 90.704 50.0898 94.2394 52.2625 96.4121L65.024 109.173C65.5569 109.707 66.2654 110 67.0188 110H67.0207C67.7751 110 68.4838 109.705 69.0166 109.171L81.7428 96.4109C83.9097 94.2382 83.9073 90.7052 81.7469 88.5448C81.7439 88.5416 81.7366 88.5344 81.7335 88.5313Z" fill="#159822"/>
<path d="M110.174 64.0241L97.4123 51.2627C96.3598 50.2102 94.9605 49.6305 93.4719 49.6305C91.9833 49.6305 90.584 50.2102 89.5315 51.2627C87.3587 53.4353 87.3587 56.9706 89.5315 59.1434L90.8748 60.4867H72.5134V42.1291L73.8528 43.4685C76.0255 45.6412 79.5609 45.6412 81.7374 43.4645C83.9072 41.2947 83.9095 37.7617 81.7427 35.589L69.0167 22.8289C68.4839 22.2949 67.7753 22.0005 67.021 22C67.0203 22 67.0198 22 67.0191 22C66.2654 22 65.557 22.2936 65.0242 22.8263L52.2626 35.5879C50.0898 37.7607 50.0898 41.2959 52.2626 43.4686C54.4355 45.6414 57.9705 45.6414 60.1433 43.4686L61.4868 42.1253V60.4869H43.1252L44.4685 59.1436C46.6413 56.9708 46.6413 53.4356 44.4685 51.2627C42.2956 49.0899 38.7604 49.0903 36.5877 51.2627L34.9293 52.9211C34.4259 53.4245 34.4259 54.2407 34.9293 54.7439C35.4327 55.2473 36.2489 55.2473 36.7521 54.7439L38.4105 53.0855C38.9761 52.5199 39.7282 52.2083 40.5279 52.2083C41.3276 52.2083 42.0797 52.5199 42.6454 53.0855C43.8129 54.253 43.8129 56.1529 42.6454 57.3204L39.1014 60.8643C38.7328 61.233 38.6224 61.7874 38.822 62.269C39.0215 62.7508 39.4916 63.0648 40.0128 63.0648H62.7753C63.4872 63.0648 64.0643 62.4876 64.0643 61.7757V39.0133C64.0643 38.4918 63.7503 38.0219 63.2686 37.8224C62.7872 37.623 62.2325 37.733 61.8639 38.1019L58.32 41.6458C57.1523 42.8133 55.2526 42.8131 54.0851 41.6458C52.9176 40.4783 52.9176 38.5785 54.0851 37.4109L66.8465 24.6495C66.9055 24.5907 66.9725 24.5782 67.0186 24.5782H67.0187C67.0648 24.5782 67.132 24.5906 67.1908 24.6497L79.917 37.4097C81.0814 38.5773 81.0802 40.4757 79.9101 41.6458C78.7426 42.8133 76.8427 42.8133 75.6752 41.6458L72.1353 38.1058C71.7666 37.737 71.2122 37.6266 70.7306 37.8264C70.2488 38.0259 69.9348 38.496 69.9348 39.0172V61.7757C69.9348 62.4876 70.512 63.0648 71.2238 63.0648H93.987C94.5083 63.0648 94.9783 62.7508 95.1779 62.269C95.3774 61.7873 95.2671 61.233 94.8984 60.8643L91.3545 57.3204C90.187 56.1529 90.187 54.253 91.3545 53.0854C92.5218 51.918 94.4216 51.9179 95.5895 53.0854L108.351 65.8468C108.41 65.9057 108.422 65.9729 108.422 66.019C108.422 66.0651 108.41 66.1323 108.351 66.191L95.5907 78.9172C94.4232 80.0816 92.5247 80.0804 91.3547 78.9104C90.1871 77.7429 90.1871 75.843 91.3547 74.6755L94.8946 71.1355C95.2633 70.7669 95.3736 70.2124 95.1741 69.7309C94.9746 69.2491 94.5045 68.9351 93.9832 68.9351H71.2244C70.5125 68.9351 69.9354 69.5122 69.9354 70.2241V79.0045C69.9354 79.7164 70.5125 80.2936 71.2244 80.2936C71.9362 80.2936 72.5134 79.7164 72.5134 79.0045V71.5131H90.871L89.5316 72.8525C87.3589 75.0253 87.3589 78.5604 89.5356 80.7372C90.6215 81.8232 92.0485 82.3663 93.476 82.3661C94.9007 82.3661 96.3258 81.8249 97.4111 80.7425L110.171 68.0163C110.705 67.4835 111 66.7749 111 66.0206C111.001 65.2666 110.707 64.5574 110.174 64.0241Z" fill="#159822"/>
</svg>
