<svg width="135" height="161" viewBox="0 0 135 161" fill="none" xmlns="http://www.w3.org/2000/svg">
<circle cx="67.5" cy="66.5" r="58.5" fill="#D1D1D1"/>
<circle cx="67.5" cy="153.5" r="7.5" fill="#159822"/>
<path fill-rule="evenodd" clip-rule="evenodd" d="M67.5 132C103.675 132 133 102.675 133 66.5C133 30.3253 103.675 1 67.5 1C31.3253 1 2 30.3253 2 66.5C2 102.675 31.3253 132 67.5 132ZM67.5 133C104.227 133 134 103.227 134 66.5C134 29.7731 104.227 0 67.5 0C30.7731 0 1 29.7731 1 66.5C1 103.227 30.7731 133 67.5 133Z" fill="#D1D1D1"/>
<path fill-rule="evenodd" clip-rule="evenodd" d="M2.97794 67C2.97794 102.635 31.8654 131.522 67.5 131.522C103.135 131.522 132.022 102.635 132.022 67H135C135 104.279 104.779 134.5 67.5 134.5C30.2208 134.5 0 104.279 0 67H2.97794Z" fill="#159822"/>
<path fill-rule="evenodd" clip-rule="evenodd" d="M66 147L66 133L69 133L69 147L66 147Z" fill="#159822"/>
<path d="M103.874 93.8749H102.672V67.9296C102.67 66.084 101.936 64.3147 100.631 63.0097C99.3258 61.7047 97.5565 60.9707 95.7109 60.9686H91.3933C92.623 60.4687 93.7901 59.8268 94.8707 59.0559L99.6105 55.6704C99.7505 55.5704 99.8688 55.443 99.9579 55.2958C100.047 55.1486 100.105 54.9848 100.129 54.8144C100.153 54.644 100.141 54.4705 100.096 54.3046C100.05 54.1387 99.9711 53.9838 99.8636 53.8495C98.5009 52.1479 97.402 50.251 96.6038 48.2225C97.6796 48.0025 98.6353 47.3907 99.2856 46.5059C99.9358 45.6211 100.234 44.5264 100.123 43.434C100.012 42.3416 99.4988 41.3294 98.6836 40.5938C97.8684 39.8583 96.809 39.4517 95.7109 39.453H95.0781V38.1874H100.141C100.476 38.1874 100.798 38.054 101.036 37.8167C101.273 37.5793 101.406 37.2574 101.406 36.9217C101.406 36.5861 101.273 36.2642 101.036 36.0268C100.798 35.7895 100.476 35.6561 100.141 35.6561H96.2718C95.9453 32.7655 94.5252 30.1093 92.3027 28.2323C90.0802 26.3553 87.2238 25.3997 84.3193 25.5616C81.4148 25.7235 78.6822 26.9905 76.6821 29.1028C74.6819 31.2152 73.5658 34.0127 73.5625 36.9217C73.5625 37.2574 73.6958 37.5793 73.9332 37.8167C74.1705 38.054 74.4925 38.1874 74.8281 38.1874V39.453H74.1953C73.0976 39.4523 72.0387 39.8592 71.224 40.5948C70.4092 41.3304 69.8966 42.3423 69.7855 43.4343C69.6744 44.5264 69.9727 45.6208 70.6227 46.5054C71.2726 47.39 72.2278 48.0018 73.3032 48.2222C72.5045 50.2507 71.4054 52.1477 70.0428 53.8495C69.9354 53.9838 69.8565 54.1386 69.811 54.3045C69.7654 54.4703 69.7541 54.6437 69.7778 54.8141C69.8015 54.9844 69.8597 55.1481 69.9487 55.2953C70.0378 55.4424 70.1559 55.5698 70.2959 55.6698L75.0355 59.0553C76.1162 59.8264 77.2832 60.4685 78.513 60.9686H74.1953C72.3498 60.9707 70.5804 61.7047 69.2755 63.0097C67.9705 64.3147 67.2364 66.084 67.2344 67.9296V81.96L66.8637 81.5893C66.7462 81.4718 66.6066 81.3785 66.4531 81.3149C66.2995 81.2513 66.135 81.2186 65.9688 81.2186H50.7812V78.6874H60.2734C61.1123 78.6864 61.9165 78.3527 62.5097 77.7596C63.1029 77.1664 63.4365 76.3622 63.4375 75.5233V56.5389C63.4365 55.7001 63.1029 54.8958 62.5097 54.3027C61.9165 53.7095 61.1123 53.3758 60.2734 53.3749H33.6953C32.8564 53.3758 32.0522 53.7095 31.459 54.3027C30.8659 54.8958 30.5322 55.7001 30.5312 56.5389V75.5233C30.5322 76.3622 30.8659 77.1664 31.459 77.7596C32.0522 78.3527 32.8564 78.6864 33.6953 78.6874H43.1875V81.2186H31.7969C31.4612 81.2186 31.1393 81.352 30.9019 81.5893C30.6646 81.8267 30.5312 82.1486 30.5312 82.4842V100.203C30.5312 100.539 30.6646 100.861 30.9019 101.098C31.1393 101.335 31.4612 101.469 31.7969 101.469H103.874C104.21 101.469 104.532 101.335 104.769 101.098C105.007 100.861 105.14 100.539 105.14 100.203V95.1405C105.14 94.8048 105.007 94.4829 104.769 94.2456C104.532 94.0082 104.21 93.8749 103.874 93.8749ZM96.3438 63.5449C97.3975 63.6985 98.3608 64.2259 99.0579 65.0309C99.755 65.8359 100.139 66.8647 100.141 67.9296V76.1561H97.4479C97.9511 73.8652 97.5559 71.4684 96.3438 69.4603V63.5449ZM96.3438 78.9856L96.4931 78.6867H100.141V93.8742H96.3438V78.9856ZM93.8125 63.4999V66.0311H91.2812V63.4999H93.8125ZM95.7109 41.9842C96.2062 41.9841 96.6819 42.1777 97.0364 42.5236C97.3909 42.8695 97.5961 43.3404 97.6081 43.8355C97.6202 44.3307 97.4381 44.8109 97.1008 45.1736C96.7635 45.5363 96.2977 45.7528 95.803 45.7767C95.4751 44.5341 95.2576 43.2651 95.153 41.9842H95.7109ZM97.081 54.3666L93.3996 56.9961C92.4037 57.7074 91.3218 58.2898 90.1797 58.7296C90.0832 58.1824 90.0296 57.6285 90.0193 57.073C91.2308 56.3707 92.2839 55.4253 93.1126 54.2964C93.9412 53.1675 94.5274 51.8794 94.8343 50.5131C95.4631 51.864 96.2152 53.154 97.081 54.3666ZM88.75 63.4999V66.0311H81.1562V63.4999H88.75ZM81.7732 60.9686C81.7976 60.8928 81.8212 60.8171 81.844 60.7414C81.8465 60.7332 81.8487 60.7245 81.8512 60.7163V60.7144V60.7115C81.9303 60.4557 82.0023 60.1895 82.0658 59.9205C82.2076 59.3218 82.3071 58.7139 82.3635 58.1012C84.0608 58.5506 85.8458 58.5506 87.5431 58.1012C87.6249 58.9871 87.796 59.8625 88.0539 60.7141V60.7155C88.0558 60.7212 88.0571 60.727 88.059 60.7327C88.0827 60.8115 88.1072 60.8902 88.1325 60.9689L81.7732 60.9686ZM84.9531 55.9061C82.9398 55.9038 81.0096 55.1031 79.586 53.6795C78.1624 52.2558 77.3616 50.3257 77.3594 48.3124V39.4672C81.8414 42.552 87.1095 44.2961 92.5469 44.4954V48.3124C92.5446 50.3257 91.7438 52.2558 90.3202 53.6795C88.8966 55.1031 86.9664 55.9038 84.9531 55.9061ZM80.036 38.1874H92.5469V41.964C88.1239 41.7861 83.8187 40.4865 80.036 38.1874ZM84.9531 28.0624C87.0828 28.0651 89.1405 28.8337 90.7505 30.2278C92.3605 31.622 93.4153 33.5487 93.7225 35.6561H76.1838C76.4909 33.5487 77.5458 31.622 79.1557 30.2278C80.7657 28.8337 82.8234 28.0651 84.9531 28.0624ZM72.2969 43.8827C72.2972 43.3793 72.4973 42.8966 72.8533 42.5406C73.2092 42.1847 73.6919 41.9846 74.1953 41.9842H74.7533C74.6487 43.265 74.4311 44.534 74.1032 45.7765C73.6167 45.7527 73.158 45.5429 72.8218 45.1904C72.4856 44.8379 72.2977 44.3698 72.2969 43.8827ZM76.5065 56.9961L72.8248 54.3663C73.6906 53.1524 74.4427 51.8611 75.0713 50.509C75.3778 51.8763 75.964 53.1653 76.793 54.2951C77.6219 55.4248 78.6756 56.3708 79.8879 57.0735C79.8783 57.6291 79.8254 58.183 79.7297 58.7304C78.5864 58.2907 77.5034 57.708 76.5065 56.9961ZM76.0938 63.4999H78.625V66.0311H76.0938V63.4999ZM75.8811 70.5301C76.0198 70.3222 76.0937 70.0779 76.0938 69.828V68.5624H93.8125V69.828C93.8125 70.0779 93.8865 70.3222 94.0251 70.5301C94.6688 71.4985 95.0457 72.6195 95.118 73.78C95.1902 74.9405 94.9551 76.0996 94.4365 77.1403L93.946 78.1212C93.8581 78.2969 93.8124 78.4908 93.8125 78.6874V93.8749H76.0938V78.6874C76.0938 78.4909 76.048 78.297 75.9601 78.1213L75.4696 77.1404C74.951 76.0997 74.7159 74.9406 74.7882 73.78C74.8604 72.6195 75.2374 71.4985 75.8811 70.5301ZM69.7656 67.9296C69.767 66.8647 70.1513 65.8359 70.8484 65.0309C71.5454 64.2259 72.5088 63.6985 73.5625 63.5449V69.4603C72.3503 71.4684 71.9551 73.8652 72.4584 76.1561H69.7656V67.9296ZM69.7656 78.6874H73.4132L73.5625 78.9862V88.2886L69.7656 84.4917V78.6874ZM63.4375 83.7499H65.4446L73.5625 91.8677V93.8749H63.4375V83.7499ZM40.6562 71.0936V60.9686H53.3125V71.0936H40.6562ZM48.25 73.6249V81.2186H45.7188V73.6249H48.25ZM33.6953 76.1561C33.5275 76.1561 33.3665 76.0894 33.2478 75.9708C33.1292 75.8521 33.0625 75.6911 33.0625 75.5233V56.5389C33.0625 56.3711 33.1292 56.2101 33.2478 56.0915C33.3665 55.9728 33.5275 55.9061 33.6953 55.9061H60.2734C60.4413 55.9061 60.6022 55.9728 60.7209 56.0915C60.8396 56.2101 60.9062 56.3711 60.9062 56.5389V75.5233C60.9062 75.6911 60.8396 75.8521 60.7209 75.9708C60.6022 76.0894 60.4413 76.1561 60.2734 76.1561H50.7812V73.6249H54.5781C54.9138 73.6249 55.2357 73.4915 55.4731 73.2542C55.7104 73.0168 55.8438 72.6949 55.8438 72.3592V59.703C55.8438 59.3673 55.7104 59.0454 55.4731 58.8081C55.2357 58.5707 54.9138 58.4374 54.5781 58.4374H39.3906C39.055 58.4374 38.733 58.5707 38.4957 58.8081C38.2583 59.0454 38.125 59.3673 38.125 59.703V72.3592C38.125 72.6949 38.2583 73.0168 38.4957 73.2542C38.733 73.4915 39.055 73.6249 39.3906 73.6249H43.1875V76.1561H33.6953ZM33.0625 91.3436H43.1875V88.8124H33.0625V83.7499H60.9062V88.8124H45.7188V91.3436H60.9062V93.8749H33.0625V91.3436ZM102.609 98.9374H33.0625V96.4061H102.609V98.9374Z" fill="#159822"/>
<path d="M81.1562 47.0469C81.8552 47.0469 82.4219 46.4802 82.4219 45.7812C82.4219 45.0823 81.8552 44.5156 81.1562 44.5156C80.4573 44.5156 79.8906 45.0823 79.8906 45.7812C79.8906 46.4802 80.4573 47.0469 81.1562 47.0469Z" fill="#159822"/>
<path d="M88.75 47.0469C89.449 47.0469 90.0156 46.4802 90.0156 45.7812C90.0156 45.0823 89.449 44.5156 88.75 44.5156C88.051 44.5156 87.4844 45.0823 87.4844 45.7812C87.4844 46.4802 88.051 47.0469 88.75 47.0469Z" fill="#159822"/>
<path d="M86.5896 49.9481C86.1552 50.3814 85.5667 50.6248 84.9531 50.6248C84.3396 50.6248 83.751 50.3814 83.3167 49.9481C83.1996 49.8284 83.06 49.7331 82.9059 49.6678C82.7518 49.6024 82.5862 49.5683 82.4188 49.5674C82.2514 49.5665 82.0855 49.5988 81.9307 49.6624C81.7759 49.7261 81.6352 49.8198 81.5169 49.9382C81.3985 50.0565 81.3048 50.1972 81.2412 50.3521C81.1776 50.5069 81.1453 50.6728 81.1463 50.8402C81.1472 51.0076 81.1814 51.1731 81.2467 51.3272C81.3121 51.4813 81.4074 51.621 81.5271 51.738C82.4364 52.6453 83.6686 53.1548 84.9531 53.1548C86.2377 53.1548 87.4698 52.6453 88.3792 51.738C88.4989 51.621 88.5942 51.4813 88.6595 51.3272C88.7249 51.1731 88.759 51.0076 88.76 50.8402C88.761 50.6728 88.7287 50.5069 88.6651 50.3521C88.6015 50.1972 88.5078 50.0565 88.3894 49.9382C88.2711 49.8198 88.1304 49.7261 87.9756 49.6624C87.8207 49.5988 87.6548 49.5665 87.4874 49.5674C87.32 49.5683 87.1545 49.6024 87.0004 49.6678C86.8463 49.7331 86.7066 49.8284 86.5896 49.9481Z" fill="#159822"/>
<path d="M79.8906 88.8125H90.0156C90.3513 88.8125 90.6732 88.6792 90.9106 88.4418C91.1479 88.2045 91.2812 87.8825 91.2812 87.5469V77.4219C91.2812 77.0862 91.1479 76.7643 90.9106 76.5269C90.6732 76.2896 90.3513 76.1562 90.0156 76.1562H79.8906C79.555 76.1562 79.233 76.2896 78.9957 76.5269C78.7583 76.7643 78.625 77.0862 78.625 77.4219V87.5469C78.625 87.8825 78.7583 88.2045 78.9957 88.4418C79.233 88.6792 79.555 88.8125 79.8906 88.8125ZM81.1562 78.6875H88.75V81.2188H81.1562V78.6875ZM81.1562 83.75H88.75V86.2812H81.1562V83.75Z" fill="#159822"/>
</svg>
