<svg width="135" height="162" viewBox="0 0 135 162" fill="none" xmlns="http://www.w3.org/2000/svg">
<circle cx="67.5" cy="67.5" r="58" stroke="#D1D1D1"/>
<circle cx="67.5" cy="154.5" r="7.5" fill="#159822"/>
<path d="M132.5 67.5C132.5 103.399 103.399 132.5 67.5 132.5C31.6015 132.5 2.5 103.399 2.5 67.5C2.5 31.6015 31.6015 2.5 67.5 2.5C103.399 2.5 132.5 31.6015 132.5 67.5ZM67.5 134.5C104.503 134.5 134.5 104.503 134.5 67.5C134.5 30.4969 104.503 0.5 67.5 0.5C30.4969 0.5 0.5 30.4969 0.5 67.5C0.5 104.503 30.4969 134.5 67.5 134.5Z" fill="#159822" stroke="#159822"/>
<path fill-rule="evenodd" clip-rule="evenodd" d="M66 148L66 134L69 134L69 148L66 148Z" fill="#159822"/>
<path d="M67.4297 59.2812C67.4297 59.0183 67.6433 58.8047 67.9062 58.8047C68.1692 58.8047 68.3828 59.0183 68.3828 59.2812C68.3828 59.5442 68.1692 59.7578 67.9062 59.7578C67.6433 59.7578 67.4297 59.5442 67.4297 59.2812Z" fill="#159822" stroke="#159822"/>
<path d="M43.9922 63.6853V64.1471V69.0469C43.9922 76.4254 47.9921 82.8952 53.9753 86.3656L53.976 86.3659L54.0158 86.3888C54.0169 86.3894 54.0179 86.3901 54.019 86.3907L43.9922 63.6853ZM43.9922 63.6853L43.5319 63.6486M43.9922 63.6853L43.5319 63.6486M43.5319 63.6486C41.279 63.4692 39.5 61.5788 39.5 59.2812V53.4219C39.5 53.1587 39.7134 52.9453 39.9766 52.9453H88.0234C88.2866 52.9453 88.5 53.1587 88.5 53.4219V59.2812C88.5 61.5788 86.721 63.4693 84.4681 63.6486L84.0078 63.6853V64.1471V69.0469C84.0078 72.6221 83.0533 76.1305 81.2483 79.1927C79.496 82.1652 76.9908 84.6499 74.0043 86.3774L74.0071 86.3823M43.5319 63.6486L74.0071 86.3823M74.0071 86.3823L74.0037 86.3778C71.0988 88.0649 67.6323 89.0547 64 89.0547C60.4951 89.0547 57.0489 88.1356 54.0312 86.3977L54.0304 86.3971L54.0209 86.3918L54.019 86.3906L74.0071 86.3823ZM73.0262 85.8312L73.2891 85.6896V85.391V76.8594C73.2891 71.7369 69.1224 67.5703 64 67.5703C58.8776 67.5703 54.7109 71.7369 54.7109 76.8594V85.391V85.6896L54.9738 85.8312C57.7342 87.318 60.842 88.1016 64 88.1016C67.1581 88.1016 70.2659 87.318 73.0262 85.8312ZM74.2422 84.175V85.145L75.0323 84.5823C80.0201 81.0295 83.0547 75.2298 83.0547 69.0469V64.1641V63.6641H82.5547H45.4453H44.9453V64.1641V69.0469C44.9453 75.2298 47.9799 81.0295 52.9677 84.5823L53.7578 85.145V84.175V76.8594C53.7578 71.2123 58.3529 66.6172 64 66.6172C69.6471 66.6172 74.2422 71.2123 74.2422 76.8594V84.175ZM87.0469 58.8047H87.5469V58.3047V54.3984V53.8984H87.0469H40.9531H40.4531V54.3984V59.2812C40.4531 61.1728 41.9912 62.7109 43.8828 62.7109H43.9121H43.9419H43.9724H44.0035H44.0352H44.0675H44.1004H44.1338H44.1679H44.2026H44.2378H44.2737H44.3101H44.3471H44.3847H44.4229H44.4616H44.5009H44.5408H44.5812H44.6222H44.6638H44.7059H44.7486H44.7918H44.8356H44.8799H44.9248H44.9702H45.0162H45.0627H45.1098H45.1573H45.2054H45.2541H45.3032H45.3529H45.4032H45.4539H45.5051H45.5569H45.6092H45.662H45.7153H45.7691H45.8234H45.8782H45.9335H45.9893H46.0455H46.1023H46.1596H46.2173H46.2756H46.3343H46.3935H46.4531H46.5133H46.5739H46.635H46.6965H46.7585H46.821H46.8839H46.9473H47.0111H47.0754H47.1401H47.2053H47.2709H47.337H47.4035H47.4705H47.5378H47.6056H47.6739H47.7425H47.8116H47.8811H47.951H48.0214H48.0921H48.1633H48.2349H48.3069H48.3792H48.452H48.5252H48.5988H48.6728H48.7471H48.8219H48.8971H48.9726H49.0485H49.1248H49.2015H49.2785H49.3559H49.4337H49.5119H49.5904H49.6693H49.7485H49.8281H49.9081H49.9884H50.069H50.15H50.2314H50.3131H50.3951H50.4775H50.5602H50.6432H50.7266H50.8103H50.8943H50.9787H51.0634H51.1483H51.2336H51.3193H51.4052H51.4914H51.578H51.6648H51.752H51.8394H51.9271H52.0152H52.1035H52.1921H52.281H52.3702H52.4597H52.5494H52.6394H52.7297H52.8203H52.9111H53.0023H53.0936H53.1852H53.2771H53.3693H53.4617H53.5543H53.6472H53.7404H53.8338H53.9274H54.0213H54.1154H54.2098H54.3043H54.3991H54.4942H54.5894H54.6849H54.7806H54.8766H54.9727H55.069H55.1656H55.2624H55.3594H55.4565H55.5539H55.6515H55.7493H55.8472H55.9454H56.0437H56.1422H56.2409H56.3398H56.4389H56.5382H56.6376H56.7372H56.8369H56.9369H57.0369H57.1372H57.2376H57.3382H57.4389H57.5398H57.6408H57.7419H57.8432H57.9447H58.0463H58.148H58.2499H58.3519H58.454H58.5562H58.6586H58.7611H58.8637H58.9664H59.0693H59.1722H59.2753H59.3785H59.4818H59.5851H59.6886H59.7922H59.8959H59.9996H60.1035H60.2074H60.3114H60.4156H60.5197H60.624H60.7284H60.8328H60.9373H61.0418H61.1464H61.2511H61.3558H61.4606H61.5655H61.6704H61.7754H61.8804H61.9854H62.0905H62.1957H62.3008H62.406H62.5113H62.6166H62.7219H62.8272H62.9326H63.0379H63.1433H63.2487H63.3542H63.4596H63.565H63.6705H63.7759H63.8814H63.9868H64.0923H64.1977H64.3032H64.4086H64.514H64.6194H64.7248H64.8301H64.9355H65.0408H65.1461H65.2513H65.3565H65.4617H65.5669H65.672H65.777H65.8821H65.987H66.0919H66.1968H66.3016H66.4064H66.5111H66.6157H66.7203H66.8248H66.9292H67.0336H67.1378H67.2421H67.3462H67.4502H67.5542H67.6581H67.7618H67.8655H67.9691H68.0726H68.176H68.2793H68.3825H68.4856H68.5886H68.6915H68.7942H68.8969H68.9994H69.1018H69.2041H69.3062H69.4082H69.5101H69.6119H69.7135H69.815H69.9163H70.0175H70.1186H70.2195H70.3202H70.4208H70.5213H70.6216H70.7217H70.8217H70.9214H71.0211H71.1205H71.2198H71.3189H71.4179H71.5166H71.6152H71.7136H71.8118H71.9098H72.0076H72.1052H72.2026H72.2998H72.3969H72.4937H72.5903H72.6867H72.7829H72.8788H72.9746H73.0701H73.1654H73.2605H73.3554H73.45H73.5444H73.6386H73.7325H73.8262H73.9197H74.0129H74.1058H74.1985H74.291H74.3832H74.4751H74.5668H74.6583H74.7494H74.8403H74.9309H75.0213H75.1114H75.2012H75.2907H75.38H75.4689H75.5576H75.646H75.7341H75.8219H75.9094H75.9966H76.0836H76.1702H76.2565H76.3425H76.4282H76.5135H76.5986H76.6833H76.7677H76.8518H76.9356H77.0191H77.1022H77.185H77.2674H77.3495H77.4313H77.5127H77.5938H77.6745H77.7549H77.835H77.9146H77.994H78.0729H78.1515H78.2298H78.3076H78.3851H78.4623H78.539H78.6154H78.6914H78.767H78.8422H78.9171H78.9916H79.0656H79.1393H79.2126H79.2854H79.3579H79.43H79.5017H79.5729H79.6438H79.7142H79.7842H79.8538H79.923H79.9917H80.0601H80.128H80.1954H80.2625H80.3291H80.3953H80.461H80.5263H80.5911H80.6555H80.7194H80.7829H80.8459H80.9085H80.9706H81.0323H81.0934H81.1542H81.2144H81.2742H81.3335H81.3923H81.4506H81.5085H81.5659H81.6227H81.6791H81.735H81.7905H81.8454H81.8998H81.9537H82.0071H82.06H82.1124H82.1643H82.2156H82.2665H82.3168H82.3666H82.4159H82.4647H82.5129H82.5606H82.6078H82.6544H82.7005H82.746H82.791H82.8355H82.8794H82.9228H82.9656H83.0078H83.0495H83.0906H83.1312H83.1712H83.2106H83.2495H83.2878H83.3255H83.3626H83.3992H83.4351H83.4705H83.5053H83.5395H83.5732H83.6062H83.6386H83.6704H83.7016H83.7323H83.7623H83.7917H83.8204H83.8486H83.8762H83.9031H83.9294H83.9551H83.9801H84.0046H84.0284H84.0515H84.0741H84.0959H84.1172C85.6119 62.7109 86.8796 61.7418 87.3501 60.4152L87.5868 59.748H86.8789H71.8125C71.5427 59.748 71.3359 59.5379 71.3359 59.2812C71.3359 59.0181 71.5493 58.8047 71.8125 58.8047H87.0469Z" fill="#159822" stroke="#159822"/>
<path d="M57.6641 76.8594C57.6641 73.3662 60.5068 70.5234 64 70.5234C67.4932 70.5234 70.3359 73.3662 70.3359 76.8594C70.3359 80.3526 67.4932 83.1953 64 83.1953C60.5068 83.1953 57.6641 80.3526 57.6641 76.8594ZM58.6172 76.8594C58.6172 79.8279 61.0315 82.2422 64 82.2422C66.9685 82.2422 69.3828 79.8279 69.3828 76.8594C69.3828 73.8908 66.9685 71.4766 64 71.4766C61.0315 71.4766 58.6172 73.8908 58.6172 76.8594Z" fill="#159822" stroke="#159822"/>
<path d="M61.5703 76.8594C61.5703 75.5201 62.6607 74.4297 64 74.4297C65.3393 74.4297 66.4297 75.5201 66.4297 76.8594C66.4297 78.1987 65.3393 79.2891 64 79.2891C62.6607 79.2891 61.5703 78.1987 61.5703 76.8594ZM62.5234 76.8594C62.5234 77.674 63.1854 78.3359 64 78.3359C64.8146 78.3359 65.4766 77.674 65.4766 76.8594C65.4766 76.0448 64.8146 75.3828 64 75.3828C63.1854 75.3828 62.5234 76.0448 62.5234 76.8594Z" fill="#159822" stroke="#159822"/>
<line x1="30" y1="53" x2="88" y2="53" stroke="#159822" stroke-width="2" stroke-linecap="round"/>
<line x1="30" y1="36" x2="104" y2="36" stroke="#159822" stroke-width="2" stroke-linecap="round"/>
<line x1="88" y1="99" x2="88" y2="53" stroke="#159822" stroke-width="2" stroke-linecap="round"/>
<line x1="104" y1="99" x2="104" y2="37" stroke="#159822" stroke-width="2" stroke-linecap="round"/>
<line x1="87.7998" y1="52.912" x2="104.386" y2="36.3262" stroke="#159822" stroke-width="2" stroke-linecap="round"/>
</svg>
