<svg width="135" height="162" viewBox="0 0 135 162" fill="none" xmlns="http://www.w3.org/2000/svg">
<circle cx="67.5" cy="67.5" r="58" stroke="#D1D1D1"/>
<circle cx="67.5" cy="154.5" r="7.5" fill="#159822"/>
<path d="M132.5 67.5C132.5 103.399 103.399 132.5 67.5 132.5C31.6015 132.5 2.5 103.399 2.5 67.5C2.5 31.6015 31.6015 2.5 67.5 2.5C103.399 2.5 132.5 31.6015 132.5 67.5ZM67.5 134.5C104.503 134.5 134.5 104.503 134.5 67.5C134.5 30.4969 104.503 0.5 67.5 0.5C30.4969 0.5 0.5 30.4969 0.5 67.5C0.5 104.503 30.4969 134.5 67.5 134.5Z" fill="#159822" stroke="#159822"/>
<path fill-rule="evenodd" clip-rule="evenodd" d="M66 148L66 134L69 134L69 148L66 148Z" fill="#159822"/>
<path d="M32.5 101.5L54.8713 80.4949" stroke="#159822" stroke-width="2" stroke-linecap="round" stroke-linejoin="round"/>
<path d="M101.371 101.005L78.9998 79.9997" stroke="#159822" stroke-width="2" stroke-linecap="round" stroke-linejoin="round"/>
<path d="M32.5 32L54.8713 53.0051" stroke="#159822" stroke-width="2" stroke-linecap="round" stroke-linejoin="round"/>
<path d="M101.371 31.4951L78.9998 52.5003" stroke="#159822" stroke-width="2" stroke-linecap="round" stroke-linejoin="round"/>
<rect x="55.0674" y="52.5518" width="23.7274" height="27.4793" stroke="#159822" stroke-width="2"/>
<rect x="60" y="58" width="14" height="22" stroke="#159822" stroke-width="2"/>
<path d="M47.2098 106L59.5848 84H74.4152L86.7902 106H47.2098Z" stroke="#159822" stroke-width="2"/>
<path d="M44.4918 90.0653L34.1641 99.6996V44.5626L44.4918 53.0942V90.0653Z" stroke="#159822" stroke-width="2" stroke-linecap="round"/>
<path d="M41.0073 69.2393V75.1351" stroke="#159822" stroke-width="2" stroke-linecap="round"/>
<path d="M96.4824 69.2393V75.1351" stroke="#159822" stroke-width="2" stroke-linecap="round"/>
<path d="M70.6831 69.2393L70.6831 72.1872" stroke="#159822" stroke-width="2" stroke-linecap="round"/>
<path d="M89.3705 89.4402L99.6982 99.0944V44.5626L89.3705 53.0942V89.4402Z" stroke="#159822" stroke-width="2"/>
<mask id="path-17-inside-1" fill="white">
<path d="M73.899 27.9677C73.899 28.8827 73.7188 29.7888 73.3687 30.6342C73.0185 31.4796 72.5052 32.2477 71.8582 32.8947C71.2112 33.5417 70.4431 34.055 69.5977 34.4052C68.7523 34.7553 67.8462 34.9355 66.9312 34.9355C66.0162 34.9355 65.1101 34.7553 64.2647 34.4052C63.4194 34.055 62.6512 33.5417 62.0042 32.8947C61.3572 32.2477 60.8439 31.4796 60.4938 30.6342C60.1436 29.7888 59.9634 28.8827 59.9634 27.9677L66.9312 27.9677H73.899Z"/>
</mask>
<path d="M73.899 27.9677C73.899 28.8827 73.7188 29.7888 73.3687 30.6342C73.0185 31.4796 72.5052 32.2477 71.8582 32.8947C71.2112 33.5417 70.4431 34.055 69.5977 34.4052C68.7523 34.7553 67.8462 34.9355 66.9312 34.9355C66.0162 34.9355 65.1101 34.7553 64.2647 34.4052C63.4194 34.055 62.6512 33.5417 62.0042 32.8947C61.3572 32.2477 60.8439 31.4796 60.4938 30.6342C60.1436 29.7888 59.9634 28.8827 59.9634 27.9677L66.9312 27.9677H73.899Z" stroke="#159822" stroke-width="4" mask="url(#path-17-inside-1)"/>
<mask id="path-18-inside-2" fill="white">
<path d="M72.291 42.4399C72.291 43.1438 72.1524 43.8408 71.883 44.4911C71.6137 45.1414 71.2189 45.7322 70.7212 46.2299C70.2235 46.7276 69.6326 47.1224 68.9823 47.3918C68.332 47.6612 67.635 47.7998 66.9312 47.7998C66.2273 47.7998 65.5303 47.6612 64.88 47.3918C64.2297 47.1224 63.6389 46.7276 63.1412 46.2299C62.6434 45.7322 62.2486 45.1414 61.9793 44.4911C61.7099 43.8408 61.5713 43.1438 61.5713 42.4399L66.9312 42.4399H72.291Z"/>
</mask>
<path d="M72.291 42.4399C72.291 43.1438 72.1524 43.8408 71.883 44.4911C71.6137 45.1414 71.2189 45.7322 70.7212 46.2299C70.2235 46.7276 69.6326 47.1224 68.9823 47.3918C68.332 47.6612 67.635 47.7998 66.9312 47.7998C66.2273 47.7998 65.5303 47.6612 64.88 47.3918C64.2297 47.1224 63.6389 46.7276 63.1412 46.2299C62.6434 45.7322 62.2486 45.1414 61.9793 44.4911C61.7099 43.8408 61.5713 43.1438 61.5713 42.4399L66.9312 42.4399H72.291Z" stroke="#159822" stroke-width="4" mask="url(#path-18-inside-2)"/>
</svg>
