<svg width="135" height="161" viewBox="0 0 135 161" fill="none" xmlns="http://www.w3.org/2000/svg">
<circle cx="67.5" cy="66.5" r="58.5" fill="#D1D1D1"/>
<circle cx="67.5" cy="153.5" r="7.5" fill="#159822"/>
<path fill-rule="evenodd" clip-rule="evenodd" d="M67.5 132C103.675 132 133 102.675 133 66.5C133 30.3253 103.675 1 67.5 1C31.3253 1 2 30.3253 2 66.5C2 102.675 31.3253 132 67.5 132ZM67.5 133C104.227 133 134 103.227 134 66.5C134 29.7731 104.227 0 67.5 0C30.7731 0 1 29.7731 1 66.5C1 103.227 30.7731 133 67.5 133Z" fill="#D1D1D1"/>
<path fill-rule="evenodd" clip-rule="evenodd" d="M2.97794 67C2.97794 102.635 31.8654 131.522 67.5 131.522C103.135 131.522 132.022 102.635 132.022 67H135C135 104.279 104.779 134.5 67.5 134.5C30.2208 134.5 0 104.279 0 67H2.97794Z" fill="#159822"/>
<path fill-rule="evenodd" clip-rule="evenodd" d="M66 147L66 133L69 133L69 147L66 147Z" fill="#159822"/>
<path d="M75.3125 96.25C74.6555 96.25 74.125 95.7195 74.125 95.0625C74.125 91.133 77.3205 87.9375 81.25 87.9375C81.907 87.9375 82.4375 88.468 82.4375 89.125C82.4375 89.782 81.907 90.3125 81.25 90.3125C78.6303 90.3125 76.5 92.4428 76.5 95.0625C76.5 95.7195 75.9695 96.25 75.3125 96.25Z" fill="#159822"/>
<path d="M84.8125 90.3125H81.25C80.593 90.3125 80.0625 89.782 80.0625 89.125C80.0625 88.468 80.593 87.9375 81.25 87.9375H84.8125C85.4695 87.9375 86 88.468 86 89.125C86 89.782 85.4695 90.3125 84.8125 90.3125Z" fill="#159822"/>
<path d="M75.3125 99.8125C74.6555 99.8125 74.125 99.282 74.125 98.625V95.0625C74.125 94.4055 74.6555 93.875 75.3125 93.875C75.9695 93.875 76.5 94.4055 76.5 95.0625V98.625C76.5 99.282 75.9695 99.8125 75.3125 99.8125Z" fill="#159822"/>
<path d="M76.5 101C75.1902 101 74.125 99.935 74.125 98.6252C74.125 97.9949 74.6213 97.5397 75.251 97.5055C75.9039 97.4841 76.4298 97.9995 76.5 98.624C77.1552 98.624 77.6875 99.1557 77.6875 99.8115C77.6875 100.468 77.157 101 76.5 101Z" fill="#159822"/>
<path d="M103.812 96.25C103.156 96.25 102.625 95.7195 102.625 95.0625C102.625 92.4428 100.495 90.3125 97.875 90.3125C97.218 90.3125 96.6875 89.782 96.6875 89.125C96.6875 88.468 97.218 87.9375 97.875 87.9375C101.805 87.9375 105 91.133 105 95.0625C105 95.7195 104.469 96.25 103.812 96.25Z" fill="#159822"/>
<path d="M97.875 90.3125H94.3125C93.6555 90.3125 93.125 89.782 93.125 89.125C93.125 88.468 93.6555 87.9375 94.3125 87.9375H97.875C98.532 87.9375 99.0625 88.468 99.0625 89.125C99.0625 89.782 98.532 90.3125 97.875 90.3125Z" fill="#159822"/>
<path d="M103.812 99.8125C103.156 99.8125 102.625 99.282 102.625 98.625V95.0625C102.625 94.4055 103.156 93.875 103.812 93.875C104.469 93.875 105 94.4055 105 95.0625V98.625C105 99.282 104.469 99.8125 103.812 99.8125Z" fill="#159822"/>
<path d="M102.625 101C101.968 101 101.438 100.469 101.438 99.8125C101.438 99.1555 101.968 98.625 102.625 98.625C102.625 97.968 103.156 97.4375 103.812 97.4375C104.469 97.4375 105 97.968 105 98.625C105 99.9348 103.935 101 102.625 101Z" fill="#159822"/>
<path d="M102.625 101H76.5C75.843 101 75.3125 100.469 75.3125 99.8125C75.3125 99.1555 75.843 98.625 76.5 98.625H102.625C103.282 98.625 103.812 99.1555 103.812 99.8125C103.812 100.469 103.282 101 102.625 101Z" fill="#159822"/>
<path d="M84.8125 90.3127C84.1555 90.3127 83.625 89.7822 83.625 89.1252V84.4512C83.625 83.7948 84.1555 83.2637 84.8125 83.2637C85.4695 83.2637 86 83.7948 86 84.4512V89.1252C86 89.7822 85.4695 90.3127 84.8125 90.3127Z" fill="#159822"/>
<path d="M94.3125 90.3127C93.6555 90.3127 93.125 89.7822 93.125 89.1252V84.4512C93.125 83.7948 93.6555 83.2637 94.3125 83.2637C94.9695 83.2637 95.5 83.7948 95.5 84.4512V89.1252C95.5 89.7822 94.9695 90.3127 94.3125 90.3127Z" fill="#159822"/>
<path d="M89.5613 86.7506C83.0133 86.7506 77.6875 81.4248 77.6875 74.8779C77.6875 74.2216 78.218 73.6904 78.875 73.6904C79.532 73.6904 80.0625 74.2216 80.0625 74.8779C80.0625 80.115 84.3231 84.3756 89.5613 84.3756C94.8007 84.3756 99.0625 80.115 99.0625 74.8779C99.0625 74.2216 99.593 73.6904 100.25 73.6904C100.907 73.6904 101.438 74.2216 101.438 74.8779C101.438 81.4248 96.1106 86.7506 89.5613 86.7506Z" fill="#159822"/>
<path d="M78.875 76.1228C78.218 76.1228 77.6875 75.5923 77.6875 74.9353V67.75C77.6875 67.093 78.218 66.5625 78.875 66.5625C79.532 66.5625 80.0625 67.093 80.0625 67.75V74.9353C80.0625 75.5923 79.532 76.1228 78.875 76.1228Z" fill="#159822"/>
<path d="M100.25 76.0648C99.593 76.0648 99.0625 75.5343 99.0625 74.8773V67.75C99.0625 67.093 99.593 66.5625 100.25 66.5625C100.907 66.5625 101.438 67.093 101.438 67.75V74.8773C101.438 75.5343 100.907 76.0648 100.25 76.0648Z" fill="#159822"/>
<path d="M100.25 68.9363C99.593 68.9363 99.0625 68.4052 99.0625 67.7488C99.0625 65.7861 97.4639 64.1875 95.5 64.1875C94.843 64.1875 94.3125 63.657 94.3125 63C94.3125 62.343 94.843 61.8125 95.5 61.8125C98.7737 61.8125 101.438 64.4751 101.438 67.7488C101.438 68.4052 100.907 68.9363 100.25 68.9363Z" fill="#159822"/>
<path d="M95.5 64.1875C94.843 64.1875 94.3125 63.657 94.3125 63V58.25C94.3125 57.593 94.843 57.0625 95.5 57.0625C96.157 57.0625 96.6875 57.593 96.6875 58.25V63C96.6875 63.657 96.157 64.1875 95.5 64.1875Z" fill="#159822"/>
<path d="M95.5 59.4375H88.375C87.718 59.4375 87.1875 58.907 87.1875 58.25C87.1875 57.593 87.718 57.0625 88.375 57.0625H95.5C96.157 57.0625 96.6875 57.593 96.6875 58.25C96.6875 58.907 96.157 59.4375 95.5 59.4375Z" fill="#159822"/>
<path d="M78.875 68.9375C78.218 68.9375 77.6875 68.407 77.6875 67.75C77.6875 61.8566 82.4816 57.0625 88.375 57.0625C89.032 57.0625 89.5625 57.593 89.5625 58.25C89.5625 58.907 89.032 59.4375 88.375 59.4375C83.7926 59.4375 80.0625 63.1676 80.0625 67.75C80.0625 68.407 79.532 68.9375 78.875 68.9375Z" fill="#159822"/>
<path d="M100.249 72.53C100.021 72.53 99.789 72.4639 99.5849 72.3271L96.0224 69.9225C95.4785 69.5543 95.3359 68.8168 95.7018 68.2729C96.07 67.729 96.8063 67.5875 97.3514 67.9522L100.914 70.3568C101.458 70.725 101.6 71.4625 101.235 72.0064C101.005 72.3474 100.63 72.53 100.249 72.53Z" fill="#159822"/>
<path d="M90.1563 71.3123C85.8673 71.3123 82.2155 70.1155 82.0636 70.0645C81.4426 69.8563 81.1051 69.1854 81.3104 68.5633C81.5174 67.9423 82.1894 67.6013 82.8115 67.8089C82.8463 67.8223 86.265 68.9373 90.1563 68.9373C93.9304 68.9373 96.1414 67.8826 96.164 67.8721C96.749 67.5868 97.4628 67.8269 97.7516 68.4148C98.0403 69.0016 97.8026 69.709 97.2181 70.0013C97.1091 70.0535 94.5335 71.3123 90.1563 71.3123Z" fill="#159822"/>
<path d="M78.8762 72.5294C78.4953 72.5294 78.1195 72.3467 77.8905 72.0069C77.5235 71.4631 77.6673 70.7255 78.2112 70.3573L81.7737 67.9527C82.3187 67.5869 83.0551 67.7295 83.4233 68.2734C83.7903 68.8173 83.6465 69.5548 83.1026 69.923L79.5401 72.3276C79.336 72.4644 79.1041 72.5294 78.8762 72.5294Z" fill="#159822"/>
<path d="M87.1862 91.4989C87.0082 91.4989 86.8261 91.4583 86.6568 91.3742L84.2818 90.1867C83.695 89.8933 83.4573 89.1795 83.7507 88.5933C84.0452 88.0065 84.7579 87.7711 85.3447 88.0622L87.7196 89.2497C88.3059 89.5431 88.5436 90.2569 88.2502 90.8436C88.0415 91.2588 87.6222 91.4989 87.1862 91.4989Z" fill="#159822"/>
<path d="M87.1887 91.5C86.7527 91.5 86.3335 91.26 86.1247 90.8431C85.8313 90.2569 86.0691 89.5431 86.6553 89.2497L89.0303 88.0622C89.6159 87.7711 90.3297 88.0065 90.6242 88.5927C90.9176 89.1795 90.6799 89.8933 90.0931 90.1867L87.7181 91.3742C87.5488 91.4594 87.3667 91.5 87.1887 91.5Z" fill="#159822"/>
<path d="M91.9387 91.5C91.5027 91.5 91.0835 91.26 90.8747 90.8431C90.5813 90.2569 90.8191 89.5431 91.4053 89.2497L93.7803 88.0622C94.3682 87.7711 95.0797 88.0065 95.3742 88.5927C95.6676 89.1795 95.4299 89.8933 94.8431 90.1867L92.4681 91.3742C92.2988 91.4594 92.1167 91.5 91.9387 91.5Z" fill="#159822"/>
<path d="M91.9362 91.4989C91.7582 91.4989 91.5761 91.4583 91.4068 91.3742L89.0318 90.1867C88.445 89.8933 88.2073 89.1795 88.5007 88.5933C88.7952 88.0065 89.509 87.7711 90.0947 88.0622L92.4697 89.2497C93.0559 89.5431 93.2936 90.2569 93.0002 90.8436C92.7915 91.2588 92.3722 91.4989 91.9362 91.4989Z" fill="#159822"/>
<path d="M33.75 76.0146C33.093 76.0146 32.5625 75.484 32.5625 74.8271V69.6973C32.5625 69.0403 33.093 68.5098 33.75 68.5098C34.407 68.5098 34.9375 69.0403 34.9375 69.6973V74.8271C34.9375 75.484 34.407 76.0146 33.75 76.0146Z" fill="#159822"/>
<path d="M55.125 76.0627C54.468 76.0627 53.9375 75.5321 53.9375 74.8752V69.5303C53.9375 68.8733 54.468 68.3428 55.125 68.3428C55.782 68.3428 56.3125 68.8733 56.3125 69.5303V74.8752C56.3125 75.5321 55.782 76.0627 55.125 76.0627Z" fill="#159822"/>
<path d="M55.125 70.7176C54.468 70.7176 53.9375 70.1865 53.9375 69.5301C53.9375 63.9654 49.4096 59.4375 43.8426 59.4375C38.2779 59.4375 33.75 63.9654 33.75 69.5301C33.75 70.1865 33.2195 70.7176 32.5625 70.7176C31.9055 70.7176 31.375 70.1865 31.375 69.5301C31.375 62.6556 36.9681 57.0625 43.8426 57.0625C50.7183 57.0625 56.3125 62.6556 56.3125 69.5301C56.3125 70.1865 55.782 70.7176 55.125 70.7176Z" fill="#159822"/>
<path d="M55.1261 72.5002C54.7689 72.5002 54.4158 72.3402 54.1821 72.0346C51.2609 68.2193 49.9464 68.6125 46.4349 69.6585C43.4117 70.559 39.2728 71.7923 32.3774 70.7022C31.7298 70.6001 31.2868 69.9925 31.3906 69.3436C31.4926 68.6965 32.098 68.2489 32.7491 68.3573C39.1082 69.3581 42.9519 68.217 45.7565 67.382C49.475 66.2775 52.1562 65.4785 56.0689 70.5897C56.4678 71.1098 56.3692 71.8555 55.848 72.2544C55.6317 72.4208 55.3777 72.5002 55.1261 72.5002Z" fill="#159822"/>
<path d="M49.2124 68.9704C48.9822 68.9704 48.748 68.9031 48.5439 68.764C48.0023 68.3934 47.8631 67.6536 48.2325 67.112L51.77 61.9347C52.1417 61.3931 52.8793 61.2568 53.422 61.6233C53.9636 61.9938 54.1027 62.7337 53.7334 63.2752L50.1958 68.4526C49.9627 68.79 49.591 68.9704 49.2124 68.9704Z" fill="#159822"/>
<path d="M30.1875 96.25C29.5305 96.25 29 95.7195 29 95.0625C29 91.133 32.1955 87.9375 36.125 87.9375C36.782 87.9375 37.3125 88.468 37.3125 89.125C37.3125 89.782 36.782 90.3125 36.125 90.3125C33.5053 90.3125 31.375 92.4428 31.375 95.0625C31.375 95.7195 30.8445 96.25 30.1875 96.25Z" fill="#159822"/>
<path d="M39.6875 90.3125H36.125C35.468 90.3125 34.9375 89.782 34.9375 89.125C34.9375 88.468 35.468 87.9375 36.125 87.9375H39.6875C40.3445 87.9375 40.875 88.468 40.875 89.125C40.875 89.782 40.3445 90.3125 39.6875 90.3125Z" fill="#159822"/>
<path d="M30.1875 99.8125C29.5305 99.8125 29 99.282 29 98.625V95.0625C29 94.4055 29.5305 93.875 30.1875 93.875C30.8445 93.875 31.375 94.4055 31.375 95.0625V98.625C31.375 99.282 30.8445 99.8125 30.1875 99.8125Z" fill="#159822"/>
<path d="M31.375 101C30.0652 101 29 99.935 29 98.6252C29 97.9949 29.4963 97.5397 30.126 97.5055C30.7946 97.4841 31.3037 97.9995 31.375 98.624C32.0302 98.624 32.5625 99.1557 32.5625 99.8115C32.5625 100.468 32.032 101 31.375 101Z" fill="#159822"/>
<path d="M58.6875 96.25C58.0305 96.25 57.5 95.7195 57.5 95.0625C57.5 92.4428 55.3697 90.3125 52.75 90.3125C52.093 90.3125 51.5625 89.782 51.5625 89.125C51.5625 88.468 52.093 87.9375 52.75 87.9375C56.6795 87.9375 59.875 91.133 59.875 95.0625C59.875 95.7195 59.3445 96.25 58.6875 96.25Z" fill="#159822"/>
<path d="M52.75 90.3125H49.1875C48.5305 90.3125 48 89.782 48 89.125C48 88.468 48.5305 87.9375 49.1875 87.9375H52.75C53.407 87.9375 53.9375 88.468 53.9375 89.125C53.9375 89.782 53.407 90.3125 52.75 90.3125Z" fill="#159822"/>
<path d="M58.6875 99.8125C58.0305 99.8125 57.5 99.282 57.5 98.625V95.0625C57.5 94.4055 58.0305 93.875 58.6875 93.875C59.3445 93.875 59.875 94.4055 59.875 95.0625V98.625C59.875 99.282 59.3445 99.8125 58.6875 99.8125Z" fill="#159822"/>
<path d="M57.5 101C56.843 101 56.3125 100.469 56.3125 99.8125C56.3125 99.1555 56.843 98.625 57.5 98.625C57.5 97.968 58.0305 97.4375 58.6875 97.4375C59.3445 97.4375 59.875 97.968 59.875 98.625C59.875 99.9348 58.8098 101 57.5 101Z" fill="#159822"/>
<path d="M57.5 101H31.375C30.718 101 30.1875 100.469 30.1875 99.8125C30.1875 99.1555 30.718 98.625 31.375 98.625H57.5C58.157 98.625 58.6875 99.1555 58.6875 99.8125C58.6875 100.469 58.157 101 57.5 101Z" fill="#159822"/>
<path d="M39.6875 90.3127C39.0305 90.3127 38.5 89.7822 38.5 89.1252V84.4512C38.5 83.7948 39.0305 83.2637 39.6875 83.2637C40.3445 83.2637 40.875 83.7948 40.875 84.4512V89.1252C40.875 89.7822 40.3445 90.3127 39.6875 90.3127Z" fill="#159822"/>
<path d="M49.1875 90.3127C48.5305 90.3127 48 89.7822 48 89.1252V84.4512C48 83.7948 48.5305 83.2637 49.1875 83.2637C49.8445 83.2637 50.375 83.7948 50.375 84.4512V89.1252C50.375 89.7822 49.8445 90.3127 49.1875 90.3127Z" fill="#159822"/>
<path d="M44.4363 86.7506C37.8883 86.7506 32.5625 81.4248 32.5625 74.8779C32.5625 74.2216 33.093 73.6904 33.75 73.6904C34.407 73.6904 34.9375 74.2216 34.9375 74.8779C34.9375 80.115 39.1981 84.3756 44.4363 84.3756C49.6757 84.3756 53.9375 80.115 53.9375 74.8779C53.9375 74.2216 54.468 73.6904 55.125 73.6904C55.782 73.6904 56.3125 74.2216 56.3125 74.8779C56.3125 81.4248 50.9856 86.7506 44.4363 86.7506Z" fill="#159822"/>
<path d="M42.0612 91.4989C41.8832 91.4989 41.7011 91.4583 41.5318 91.3742L39.1568 90.1867C38.57 89.8933 38.3323 89.1795 38.6257 88.5933C38.9202 88.0065 39.6329 87.7711 40.2197 88.0622L42.5947 89.2497C43.1809 89.5431 43.4186 90.2569 43.1252 90.8436C42.9165 91.2588 42.4972 91.4989 42.0612 91.4989Z" fill="#159822"/>
<path d="M42.0637 91.5C41.6277 91.5 41.2085 91.26 40.9997 90.8431C40.7063 90.2569 40.9441 89.5431 41.5303 89.2497L43.9053 88.0622C44.4909 87.7711 45.2047 88.0065 45.4992 88.5927C45.7926 89.1795 45.5549 89.8933 44.9681 90.1867L42.5931 91.3742C42.4238 91.4594 42.2417 91.5 42.0637 91.5Z" fill="#159822"/>
<path d="M46.8137 91.5C46.3777 91.5 45.9585 91.26 45.7497 90.8431C45.4563 90.2569 45.6941 89.5431 46.2803 89.2497L48.6553 88.0622C49.2432 87.7711 49.9547 88.0065 50.2492 88.5927C50.5426 89.1795 50.3049 89.8933 49.7181 90.1867L47.3431 91.3742C47.1738 91.4594 46.9917 91.5 46.8137 91.5Z" fill="#159822"/>
<path d="M46.8112 91.4989C46.6332 91.4989 46.4511 91.4583 46.2818 91.3742L43.9068 90.1867C43.32 89.8933 43.0823 89.1795 43.3757 88.5933C43.6702 88.0065 44.384 87.7711 44.9697 88.0622L47.3447 89.2497C47.9309 89.5431 48.1686 90.2569 47.8752 90.8436C47.6665 91.2588 47.2472 91.4989 46.8112 91.4989Z" fill="#159822"/>
<path d="M87.1875 49.9375C87.0379 49.9375 86.8883 49.9102 86.7468 49.8534L81.0221 47.5625H69.375C68.718 47.5625 68.1875 47.032 68.1875 46.375C68.1875 45.718 68.718 45.1875 69.375 45.1875H81.25C81.4008 45.1875 81.5504 45.2159 81.6907 45.2716L86.0012 46.996V46.3738C86.0012 45.718 86.5334 45.1875 87.1887 45.1875H89.5625V27.375H65.8125V30.9363C65.8125 31.5927 65.282 32.1238 64.625 32.1238C63.968 32.1238 63.4375 31.5927 63.4375 30.9363V26.1875C63.4375 25.5305 63.968 25 64.625 25H90.75C91.407 25 91.9375 25.5305 91.9375 26.1875V46.375C91.9375 47.032 91.407 47.5625 90.75 47.5625H88.3762L88.375 48.7512C88.375 49.1443 88.179 49.5136 87.8537 49.7334C87.6543 49.8673 87.4212 49.9375 87.1875 49.9375Z" fill="#159822"/>
<path d="M46.8125 54.6875C46.5788 54.6875 46.3457 54.6173 46.1463 54.4834C45.821 54.2636 45.625 53.8943 45.625 53.5012L45.6238 52.3125H43.25C42.593 52.3125 42.0625 51.782 42.0625 51.125V30.9375C42.0625 30.2805 42.593 29.75 43.25 29.75H69.375C70.032 29.75 70.5625 30.2805 70.5625 30.9375V51.125C70.5625 51.782 70.032 52.3125 69.375 52.3125H52.9779L47.2532 54.6034C47.1117 54.6602 46.9621 54.6875 46.8125 54.6875ZM44.4375 49.9375H46.8113C47.4666 49.9375 47.9988 50.468 47.9988 51.1238V51.746L52.3093 50.0216C52.4496 49.9659 52.5992 49.9375 52.75 49.9375H68.1875V32.125H44.4375V49.9375Z" fill="#159822"/>
<path d="M62.2488 66.5625C62.0493 66.5625 61.8464 66.5126 61.6608 66.4059C61.092 66.0807 60.8937 65.3547 61.219 64.7859L65.969 56.4734C66.2931 55.9046 67.0191 55.7039 67.5891 56.0316C68.1579 56.3568 68.3562 57.0828 68.0309 57.6516L63.2809 65.9641C63.0623 66.3474 62.6622 66.5625 62.2488 66.5625Z" fill="#159822"/>
<path d="M69.3739 64.1873C69.1663 64.1873 68.9547 64.1328 68.7633 64.0174C68.2009 63.6805 68.0188 62.9511 68.3563 62.3881L71.9188 56.4506C72.2557 55.8881 72.9839 55.7061 73.5481 56.0435C74.1106 56.3804 74.2926 57.1098 73.9552 57.6729L70.3927 63.6104C70.1706 63.982 69.7774 64.1873 69.3739 64.1873Z" fill="#159822"/>
<path d="M65.8125 66.5625H62.25C61.593 66.5625 61.0625 66.032 61.0625 65.375C61.0625 64.718 61.593 64.1875 62.25 64.1875H65.8125C66.4695 64.1875 67 64.718 67 65.375C67 66.032 66.4695 66.5625 65.8125 66.5625Z" fill="#159822"/>
<path d="M63.4385 74.8749C63.3295 74.8749 63.2199 74.8592 63.112 74.8297C62.4812 74.6493 62.1159 73.9912 62.2951 73.3621L64.6701 65.0496C64.8504 64.4176 65.512 64.0604 66.1376 64.2326C66.7685 64.413 67.1338 65.0711 66.9546 65.7002L64.5796 74.0127C64.43 74.5351 63.9551 74.8749 63.4385 74.8749Z" fill="#159822"/>
<path d="M74.125 64.1875H69.375C68.718 64.1875 68.1875 63.657 68.1875 63C68.1875 62.343 68.718 61.8125 69.375 61.8125H74.125C74.782 61.8125 75.3125 62.343 75.3125 63C75.3125 63.657 74.782 64.1875 74.125 64.1875Z" fill="#159822"/>
<path d="M63.4374 74.8754C63.1336 74.8754 62.8292 74.7589 62.5978 74.5275C62.1334 74.0631 62.1334 73.3128 62.5978 72.8483L73.2853 62.1608C73.7498 61.6964 74.5001 61.6964 74.9645 62.1608C75.429 62.6253 75.429 63.3756 74.9645 63.84L64.277 74.5275C64.0457 74.7589 63.7413 74.8754 63.4374 74.8754Z" fill="#159822"/>
<path d="M56.3125 44C55.6555 44 55.125 43.4695 55.125 42.8125V35.6875C55.125 35.0305 55.6555 34.5 56.3125 34.5C56.9695 34.5 57.5 35.0305 57.5 35.6875V42.8125C57.5 43.4695 56.9695 44 56.3125 44Z" fill="#159822"/>
<path d="M56.3478 47.5625C55.6915 47.5625 55.1545 47.032 55.1545 46.375C55.1545 45.718 55.6793 45.1875 56.3351 45.1875H56.3478C57.0036 45.1875 57.5353 45.718 57.5353 46.375C57.5353 47.032 57.0036 47.5625 56.3478 47.5625Z" fill="#159822"/>
<path d="M77.6875 39.25C77.0305 39.25 76.5 38.7195 76.5 38.0625V30.9375C76.5 30.2805 77.0305 29.75 77.6875 29.75C78.3445 29.75 78.875 30.2805 78.875 30.9375V38.0625C78.875 38.7195 78.3445 39.25 77.6875 39.25Z" fill="#159822"/>
<path d="M77.7228 42.8125C77.0665 42.8125 76.5295 42.282 76.5295 41.625C76.5295 40.968 77.0543 40.4375 77.7101 40.4375H77.7228C78.3786 40.4375 78.9103 40.968 78.9103 41.625C78.9103 42.282 78.3786 42.8125 77.7228 42.8125Z" fill="#159822"/>
</svg>
