<svg width="135" height="162" viewBox="0 0 135 162" fill="none" xmlns="http://www.w3.org/2000/svg">
<circle cx="67.5" cy="67.5" r="58" stroke="#D1D1D1"/>
<circle cx="67.5" cy="154.5" r="7.5" fill="#159822"/>
<path d="M132.5 67.5C132.5 103.399 103.399 132.5 67.5 132.5C31.6015 132.5 2.5 103.399 2.5 67.5C2.5 31.6015 31.6015 2.5 67.5 2.5C103.399 2.5 132.5 31.6015 132.5 67.5ZM67.5 134.5C104.503 134.5 134.5 104.503 134.5 67.5C134.5 30.4969 104.503 0.5 67.5 0.5C30.4969 0.5 0.5 30.4969 0.5 67.5C0.5 104.503 30.4969 134.5 67.5 134.5Z" fill="#159822" stroke="#159822"/>
<path fill-rule="evenodd" clip-rule="evenodd" d="M66 148L66 134L69 134L69 148L66 148Z" fill="#159822"/>
<g clip-path="url(#clip0)">
<path d="M105.7 104.4H30.2999C29.581 104.4 29 104.983 29 105.7C29 106.418 29.581 107 30.2999 107H105.7C106.419 107 107 106.418 107 105.701C107 104.983 106.419 104.4 105.7 104.4Z" fill="#159822"/>
<path d="M67.9999 29H34.1999C33.4809 29 32.8999 29.5824 32.8999 30.2999V105.7C32.8999 106.417 33.4809 107 34.1999 107H67.9999C68.7188 107 69.2998 106.417 69.2998 105.7V30.2999C69.2998 29.5824 68.7188 29 67.9999 29ZM66.6999 104.4H35.5V31.6001H66.6999V104.4Z" fill="#159822"/>
<path d="M62.8 34.2002H39.4C38.6811 34.2002 38.1001 34.7826 38.1001 35.5001V105.7C38.1001 106.418 38.6811 107 39.4 107H62.8C63.519 107 64.1 106.418 64.1 105.7V35.5001C64.1 34.7826 63.519 34.2002 62.8 34.2002ZM61.4999 104.4H40.7V36.8002H61.4999V104.4Z" fill="#159822"/>
<path d="M101.8 29H68.0001C67.2812 29 66.7002 29.5824 66.7002 30.2999V105.7C66.7002 106.417 67.2812 107 68.0001 107H101.8C102.519 107 103.1 106.417 103.1 105.7V30.2999C103.1 29.5824 102.519 29 101.8 29ZM100.5 104.4H69.3001V31.6001H100.5V104.4Z" fill="#159822"/>
<path d="M96.5999 34.2002H73.1999C72.4809 34.2002 71.8999 34.7826 71.8999 35.5001V105.7C71.8999 106.418 72.4809 107 73.1999 107H96.5999C97.3188 107 97.8998 106.418 97.8998 105.7V35.5001C97.9 34.7826 97.3188 34.2002 96.5999 34.2002ZM95.2999 104.4H74.5V36.8002H95.2999V104.4Z" fill="#159822"/>
<path d="M78.4 61.5C77.6811 61.5 77.1001 62.0824 77.1001 62.7999V78.3999C77.1001 79.1175 77.6811 79.6999 78.4 79.6999C79.119 79.6999 79.7 79.1175 79.7 78.3999V62.7999C79.7 62.0824 79.119 61.5 78.4 61.5Z" fill="#159822"/>
<path d="M57.6 61.5C56.8811 61.5 56.3 62.0824 56.3 62.7999V78.3999C56.3 79.1175 56.8811 79.6999 57.6 79.6999C58.3189 79.6999 58.9 79.1175 58.9 78.3999V62.7999C58.9001 62.0824 58.3189 61.5 57.6 61.5Z" fill="#159822"/>
</g>
<defs>
<clipPath id="clip0">
<rect width="78" height="78" fill="white" transform="translate(29 29)"/>
</clipPath>
</defs>
</svg>
