<svg width="135" height="162" viewBox="0 0 135 162" fill="none" xmlns="http://www.w3.org/2000/svg">
<circle cx="67.5" cy="67.5" r="58" stroke="#D1D1D1"/>
<circle cx="67.5" cy="154.5" r="7.5" fill="#159822"/>
<path d="M132.5 67.5C132.5 103.399 103.399 132.5 67.5 132.5C31.6015 132.5 2.5 103.399 2.5 67.5C2.5 31.6015 31.6015 2.5 67.5 2.5C103.399 2.5 132.5 31.6015 132.5 67.5ZM67.5 134.5C104.503 134.5 134.5 104.503 134.5 67.5C134.5 30.4969 104.503 0.5 67.5 0.5C30.4969 0.5 0.5 30.4969 0.5 67.5C0.5 104.503 30.4969 134.5 67.5 134.5Z" fill="#159822" stroke="#159822"/>
<path fill-rule="evenodd" clip-rule="evenodd" d="M66 148L66 134L69 134L69 148L66 148Z" fill="#159822"/>
<path d="M103.725 97.6891H93.8336V35.0519C93.8332 34.7399 93.718 34.439 93.51 34.2065C93.302 33.9739 93.0158 33.826 92.7057 33.791L59.3068 30.008C59.129 29.9879 58.9489 30.0056 58.7784 30.0599C58.6078 30.1143 58.4507 30.204 58.3173 30.3233C58.1838 30.4426 58.0771 30.5887 58.004 30.7521C57.931 30.9155 57.8933 31.0925 57.8934 31.2714V33.7692H43.4326C43.2648 33.7692 43.0985 33.8024 42.9436 33.8671C42.7886 33.9317 42.648 34.0263 42.5299 34.1456C42.4117 34.2649 42.3184 34.4064 42.2552 34.562C42.1921 34.7175 42.1604 34.8841 42.162 35.0519V97.6891H32.2706C30.5765 97.6891 30.5765 100.23 32.2706 100.23H57.8934V102.728C57.8934 103.065 58.0273 103.388 58.2656 103.627C58.5038 103.865 58.827 103.999 59.164 103.999C59.2124 104.002 59.2609 104.002 59.3092 103.999L92.6356 100.23H103.727C105.422 100.23 105.422 97.6891 103.727 97.6891H103.725ZM44.7032 36.3105H57.8934V39.5779H49.2411C49.0733 39.5779 48.907 39.6111 48.7521 39.6758C48.5971 39.7404 48.4565 39.835 48.3384 39.9543C48.2202 40.0736 48.1269 40.2151 48.0638 40.3707C48.0006 40.5262 47.9689 40.6928 47.9705 40.8606V97.6891H44.7032V36.3105ZM50.5118 97.6867V42.1192H57.8934V97.6891L50.5118 97.6867ZM60.4346 32.6922L91.2923 36.1774V97.8222L60.4346 101.307V32.6922Z" fill="#159822"/>
<path d="M65.9123 63.2202C65.1646 63.2202 64.4337 63.4419 63.812 63.8573C63.1903 64.2728 62.7057 64.8632 62.4196 65.554C62.1335 66.2448 62.0586 67.005 62.2045 67.7384C62.3503 68.4717 62.7104 69.1454 63.2391 69.6741C63.7678 70.2028 64.4414 70.5629 65.1748 70.7087C65.9081 70.8546 66.6682 70.7798 67.359 70.4936C68.0498 70.2075 68.6403 69.7229 69.0557 69.1012C69.4711 68.4795 69.6928 67.7485 69.6928 67.0008C69.6928 65.9979 69.2946 65.036 68.5857 64.3267C67.8767 63.6173 66.9152 63.2184 65.9123 63.2178V63.2202ZM65.9123 68.2424C65.6666 68.2429 65.4264 68.1705 65.2219 68.0344C65.0174 67.8982 64.8578 67.7045 64.7635 67.4776C64.6692 67.2508 64.6442 67.0011 64.6919 66.76C64.7395 66.519 64.8575 66.2976 65.0311 66.1237C65.2046 65.9498 65.4259 65.8313 65.6668 65.7832C65.9077 65.7351 66.1575 65.7595 66.3845 65.8534C66.6115 65.9473 66.8055 66.1065 66.9421 66.3107C67.0786 66.515 67.1515 66.7551 67.1515 67.0008C67.1509 67.3293 67.0201 67.6441 66.7878 67.8763C66.5556 68.1086 66.2408 68.2394 65.9123 68.24V68.2424Z" fill="#159822"/>
</svg>
