<svg width="135" height="161" viewBox="0 0 135 161" fill="none" xmlns="http://www.w3.org/2000/svg">
<circle cx="67.5" cy="66.5" r="58.5" fill="#D1D1D1"/>
<circle cx="67.5" cy="153.5" r="7.5" fill="#159822"/>
<path fill-rule="evenodd" clip-rule="evenodd" d="M67.5 132C103.675 132 133 102.675 133 66.5C133 30.3253 103.675 1 67.5 1C31.3253 1 2 30.3253 2 66.5C2 102.675 31.3253 132 67.5 132ZM67.5 133C104.227 133 134 103.227 134 66.5C134 29.7731 104.227 0 67.5 0C30.7731 0 1 29.7731 1 66.5C1 103.227 30.7731 133 67.5 133Z" fill="#D1D1D1"/>
<path fill-rule="evenodd" clip-rule="evenodd" d="M2.97794 67C2.97794 102.635 31.8654 131.522 67.5 131.522C103.135 131.522 132.022 102.635 132.022 67H135C135 104.279 104.779 134.5 67.5 134.5C30.2208 134.5 0 104.279 0 67H2.97794Z" fill="#159822"/>
<path fill-rule="evenodd" clip-rule="evenodd" d="M66 147L66 133L69 133L69 147L66 147Z" fill="#159822"/>
<path fill-rule="evenodd" clip-rule="evenodd" d="M92.283 69.941L98.158 62.972C101.445 59.0699 103.248 54.132 103.248 49.03C103.252 44.2596 101.364 39.6824 97.998 36.3023C94.6318 32.9222 90.0623 31.0154 85.292 31H81.292C78.8455 31.098 76.4216 31.508 74.079 32.22C62.806 35.456 59.561 46.461 59.428 46.928L59.063 48.214L60.39 48.324C60.576 48.34 61.877 48.446 63.773 48.478V51.619L59.014 61.219L63.773 63.611V71.739H72.545V81.319L61.58 97.835V101.468H63.773V98.495L74.238 82.732C76.7418 82.6746 79.2331 82.361 81.673 81.796L84.387 89.975L74.738 95.897V101.468H76.931V97.133L85.7 91.748L94.472 97.132V101.468H96.665V95.898L86.617 89.731L83.805 81.262C86.2347 80.5773 88.6037 79.6933 90.888 78.619L101.055 91.019V101.468H103.248V90.227L92.283 76.851V69.941ZM90.09 76.557C85.2837 78.8766 80.0665 80.2238 74.738 80.521V71.74H76.286L80.891 68.216L79.56 66.466L75.544 69.538H65.966V62.251L61.952 60.235L65.966 52.141V48.479C70.912 48.392 77.866 47.672 81.318 44.586V50.819H83.51C84.0923 50.8209 84.65 51.0535 85.0611 51.4658C85.4722 51.8782 85.703 52.4367 85.703 53.019V56.567C85.6855 57.0125 85.5605 57.4472 85.3389 57.8341C85.1173 58.2209 84.8055 58.5485 84.43 58.789C83.8054 59.2337 83.2964 59.8216 82.9456 60.5035C82.5949 61.1853 82.4126 61.9412 82.414 62.708V64.597L90.09 70.105V76.557ZM84.607 63.465V62.71C84.606 62.2957 84.704 61.8871 84.8929 61.5183C85.0819 61.1496 85.3562 60.8313 85.693 60.59C86.3577 60.1475 86.9051 59.5504 87.2883 58.8499C87.6714 58.1494 87.8789 57.3664 87.893 56.568V53.021C87.893 51.8565 87.4314 50.7394 86.6092 49.9147C85.7871 49.0899 84.6715 48.6247 83.507 48.621V39.805H81.317C81.3326 40.7138 81.0273 41.5989 80.455 42.305C77.447 46.143 67.199 46.472 62.018 46.222C63.209 43.364 66.783 36.605 74.679 34.335C76.839 33.6773 79.074 33.2976 81.33 33.205H85.292C89.4793 33.2182 93.4904 34.8917 96.4454 37.8584C99.4005 40.8251 101.058 44.8427 101.055 49.03C101.055 53.6108 99.436 58.0443 96.485 61.548L91.002 68.048L84.607 63.465ZM38.723 51.175V43.532H32V70.768H38.723V63.125C40.449 62.534 41.742 60.084 41.742 57.151C41.742 54.218 40.449 51.767 38.723 51.175ZM36.53 68.567H34.191V45.734H36.53V68.567ZM42.723 53.695L43.823 54.795L46.146 52.437L45.046 51.337L42.723 53.695ZM52.014 44.266L53.114 45.366L55.442 43.005L54.342 41.905L52.014 44.266ZM60.087 38.291L58.987 37.191L56.66 39.551L57.76 40.651L60.087 38.291ZM47.369 48.98L48.469 50.08L50.8 47.72L49.7 46.62L47.369 48.98ZM47.369 65.32L49.692 67.677L50.792 66.577L48.469 64.219L47.369 65.32ZM42.723 60.605L45.046 62.962L46.146 61.862L43.828 59.505L42.723 60.605ZM56.66 74.749L58.983 77.105L60.088 76.005L57.765 73.647L56.66 74.749ZM52.015 70.035L54.338 72.392L55.443 71.292L53.12 68.934L52.015 70.035Z" fill="#159822"/>
</svg>
