<svg width="135" height="162" viewBox="0 0 135 162" fill="none" xmlns="http://www.w3.org/2000/svg">
<circle cx="67.5" cy="67.5" r="58" stroke="#D1D1D1"/>
<circle cx="67.5" cy="154.5" r="7.5" fill="#159822"/>
<path d="M132.5 67.5C132.5 103.399 103.399 132.5 67.5 132.5C31.6015 132.5 2.5 103.399 2.5 67.5C2.5 31.6015 31.6015 2.5 67.5 2.5C103.399 2.5 132.5 31.6015 132.5 67.5ZM67.5 134.5C104.503 134.5 134.5 104.503 134.5 67.5C134.5 30.4969 104.503 0.5 67.5 0.5C30.4969 0.5 0.5 30.4969 0.5 67.5C0.5 104.503 30.4969 134.5 67.5 134.5Z" fill="#159822" stroke="#159822"/>
<path fill-rule="evenodd" clip-rule="evenodd" d="M66 148L66 134L69 134L69 148L66 148Z" fill="#159822"/>
<path d="M87.4232 43.9846L82.9844 25.1755C82.8398 24.5631 82.2259 24.1843 81.6141 24.3285C81.0018 24.4729 80.6226 25.0865 80.767 25.6988L85.2059 44.5079C85.3298 45.0322 85.7974 45.3855 86.3136 45.3855C86.4001 45.3855 86.4881 45.3757 86.576 45.3549C87.1884 45.2105 87.5677 44.5968 87.4232 43.9846Z" fill="#159822"/>
<path d="M100.549 99.5988L88.2891 47.6492C88.1445 47.0368 87.5298 46.6578 86.9188 46.8021C86.3065 46.9466 85.9272 47.5602 86.0717 48.1725L98.3315 100.122C98.4553 100.646 98.923 101 99.4391 101C99.5257 101 99.6137 100.99 99.7017 100.969C100.314 100.825 100.693 100.211 100.549 99.5988Z" fill="#159822"/>
<path d="M38.5726 91.3333C37.9613 91.1892 37.3467 91.568 37.2023 92.1804L35.4516 99.5988C35.3071 100.211 35.6864 100.825 36.2987 100.969C36.3866 100.99 36.4745 101 36.5612 101C37.0774 101 37.5453 100.646 37.6689 100.122L39.4195 92.7037C39.5641 92.0914 39.1849 91.4778 38.5726 91.3333Z" fill="#159822"/>
<path d="M54.3859 24.3276C53.7747 24.1831 53.1601 24.5622 53.0155 25.1746L38.3354 87.38C38.1909 87.9922 38.5702 88.6059 39.1825 88.7503C39.2704 88.7711 39.3583 88.7809 39.445 88.7809C39.9613 88.7809 40.4291 88.4274 40.5528 87.9033L55.2329 25.6979C55.3774 25.0857 54.9981 24.472 54.3859 24.3276Z" fill="#159822"/>
<path d="M106.762 99.5498L85.7199 25.1264C85.5487 24.5208 84.9186 24.1691 84.3139 24.3401C83.7085 24.5112 83.3565 25.1408 83.5276 25.7462L104.57 100.17C104.712 100.671 105.168 100.999 105.665 100.999C105.768 100.999 105.872 100.985 105.976 100.956C106.581 100.785 106.933 100.155 106.762 99.5498Z" fill="#159822"/>
<path d="M51.6848 24.3411C51.0798 24.1701 50.4498 24.5218 50.2789 25.1273L29.2366 99.5507C29.0655 100.156 29.4173 100.786 30.0228 100.957C30.1264 100.986 30.2307 101 30.3334 101C30.8301 101 31.287 100.672 31.4289 100.171L52.4711 25.7473C52.6421 25.1416 52.2901 24.5122 51.6848 24.3411Z" fill="#159822"/>
<path d="M70.9475 25.4011C70.9282 24.7723 70.4072 24.2767 69.7739 24.2975C69.145 24.3168 68.6508 24.8423 68.6703 25.4711L68.8043 29.83H67.1927L67.3267 25.4711C67.3461 24.8423 66.8521 24.3168 66.2231 24.2975C65.6019 24.2783 65.0688 24.7723 65.0495 25.4011L64.8795 30.9343C64.8699 31.2423 64.9856 31.5411 65.2002 31.7624C65.4149 31.9836 65.7098 32.1085 66.0182 32.1085H69.9793C70.2875 32.1085 70.5826 31.9836 70.7971 31.7624C71.0118 31.5411 71.1274 31.2423 71.1179 30.9343L70.9475 25.4011Z" fill="#159822"/>
<path d="M71.2064 33.7964C71.1876 33.1813 70.6834 32.6924 70.0678 32.6924H65.9305C65.3149 32.6924 64.8109 33.1813 64.792 33.7964L64.4927 43.511C64.4832 43.819 64.5988 44.1178 64.8133 44.3391C65.028 44.5603 65.3231 44.6853 65.6313 44.6853H70.367C70.6752 44.6853 70.9704 44.5604 71.185 44.3391C71.3995 44.1178 71.5152 43.819 71.5056 43.511L71.2064 33.7964ZM66.806 42.407L67.035 34.9707H68.9632L69.1922 42.407H66.806Z" fill="#159822"/>
<path d="M71.6189 47.1626C71.6001 46.5475 71.0958 46.0586 70.4804 46.0586H65.5199C64.9044 46.0586 64.4002 46.5475 64.3813 47.1626L64.0396 58.2501C64.0301 58.5581 64.1457 58.8569 64.3602 59.0782C64.5749 59.2994 64.8699 59.4245 65.1782 59.4245H70.8222C71.1304 59.4245 71.4255 59.2996 71.6402 59.0782C71.8547 58.8569 71.9703 58.5581 71.9608 58.2501L71.6189 47.1626ZM66.3528 57.1461L66.6245 48.3368H69.3759L69.6476 57.1461H66.3528Z" fill="#159822"/>
<path d="M72.1186 63.403C72.0998 62.7877 71.5956 62.2988 70.98 62.2988H65.0201C64.4045 62.2988 63.9004 62.7877 63.8815 63.4028L63.4654 76.9312C63.4558 77.2392 63.5715 77.538 63.7861 77.7593C64.0006 77.9806 64.2956 78.1055 64.6038 78.1055H71.3961C71.7043 78.1055 71.9994 77.9806 72.2139 77.7595C72.4286 77.5382 72.5442 77.2394 72.5347 76.9314L72.1186 63.403ZM65.7785 75.8272L66.1247 64.5772H69.8754L70.2212 75.8272H65.7785Z" fill="#159822"/>
<path d="M72.7352 83.4497C72.7161 82.8344 72.2119 82.3457 71.5963 82.3457H64.4032C63.7876 82.3457 63.2836 82.8346 63.2646 83.4497L62.7603 99.8244C62.7409 100.453 63.2349 100.979 63.8639 100.998C64.4876 101.017 65.0182 100.523 65.0375 99.8946L65.5078 84.6241H70.4917L70.9621 99.8946C70.981 100.512 71.487 100.999 72.1 100.999C72.1119 100.999 72.1237 100.998 72.1355 100.998C72.7644 100.979 73.2586 100.453 73.2391 99.8244L72.7352 83.4497Z" fill="#159822"/>
</svg>
