<svg width="135" height="162" viewBox="0 0 135 162" fill="none" xmlns="http://www.w3.org/2000/svg">
<circle cx="67.5" cy="67.5" r="58" stroke="#D1D1D1"/>
<circle cx="67.5" cy="154.5" r="7.5" fill="#159822"/>
<path d="M132.5 67.5C132.5 103.399 103.399 132.5 67.5 132.5C31.6015 132.5 2.5 103.399 2.5 67.5C2.5 31.6015 31.6015 2.5 67.5 2.5C103.399 2.5 132.5 31.6015 132.5 67.5ZM67.5 134.5C104.503 134.5 134.5 104.503 134.5 67.5C134.5 30.4969 104.503 0.5 67.5 0.5C30.4969 0.5 0.5 30.4969 0.5 67.5C0.5 104.503 30.4969 134.5 67.5 134.5Z" fill="#159822" stroke="#159822"/>
<path fill-rule="evenodd" clip-rule="evenodd" d="M66 148L66 134L69 134L69 148L66 148Z" fill="#159822"/>
<path d="M63.5971 62.6308C64.0235 62.6308 64.4323 62.8002 64.7338 63.1016C65.0352 63.4031 65.2046 63.8119 65.2046 64.2383C65.2046 64.6646 65.0352 65.0734 64.7338 65.3749C64.4323 65.6763 64.0235 65.8457 63.5971 65.8457H58.1026C57.6762 65.8457 57.2674 65.6763 56.9659 65.3749C56.6645 65.0734 56.4951 64.6646 56.4951 64.2383C56.4951 63.8119 56.6645 63.4031 56.9659 63.1016C57.2674 62.8002 57.6762 62.6308 58.1026 62.6308H63.5971Z" fill="#159822"/>
<path d="M96.392 109.477H72.6852V112.535C72.6852 112.782 72.6285 113.025 72.5196 113.245C72.4107 113.466 72.2524 113.659 72.057 113.809C71.8616 113.959 71.6344 114.062 71.3928 114.111C71.1512 114.159 70.9018 114.151 70.6638 114.087L38.5441 105.521C38.202 105.43 37.8995 105.229 37.6836 104.948C37.4678 104.668 37.3507 104.323 37.3506 103.969V98.7769C37.3506 98.3505 37.5199 97.9417 37.8214 97.6402C38.1228 97.3388 38.5317 97.1694 38.958 97.1694C39.3843 97.1694 39.7932 97.3388 40.0947 97.6402C40.3961 97.9417 40.5655 98.3505 40.5655 98.7769V102.734L69.4721 110.443V24.5562L40.5655 30.3364V93.3605C40.5655 93.7868 40.3961 94.1957 40.0947 94.4971C39.7932 94.7986 39.3843 94.9679 38.958 94.9679C38.5317 94.9679 38.1228 94.7986 37.8214 94.4971C37.5199 94.1957 37.3506 93.7868 37.3506 93.3605V29.0192C37.3505 28.6477 37.4792 28.2877 37.7148 28.0004C37.9503 27.7132 38.2781 27.5164 38.6424 27.4436L70.7639 21.0193C70.9971 20.9724 71.2378 20.9779 71.4686 21.0354C71.6994 21.0928 71.9146 21.2009 72.0986 21.3516C72.2826 21.5024 72.4308 21.6921 72.5326 21.9071C72.6343 22.1221 72.6871 22.357 72.687 22.5949V25.6533H87.4987C87.9251 25.6533 88.3339 25.8227 88.6354 26.1241C88.9368 26.4256 89.1062 26.8344 89.1062 27.2607C89.1062 27.6871 88.9368 28.0959 88.6354 28.3974C88.3339 28.6988 87.9251 28.8682 87.4987 28.8682H72.6852V33.4531H88.5922C89.0183 33.4531 89.4269 33.6223 89.7282 33.9236C90.0295 34.2249 90.1987 34.6335 90.1987 35.0596V100.069C90.1987 100.495 90.0295 100.903 89.7282 101.205C89.4269 101.506 89.0183 101.675 88.5922 101.675H72.6852V106.262H94.7854V28.8682H92.493C92.0667 28.8682 91.6578 28.6988 91.3564 28.3974C91.0549 28.0959 90.8856 27.6871 90.8856 27.2607C90.8856 26.8344 91.0549 26.4256 91.3564 26.1241C91.6578 25.8227 92.0667 25.6533 92.493 25.6533H96.3938C96.8199 25.6533 97.2285 25.8226 97.5298 26.1238C97.8311 26.4251 98.0003 26.8338 98.0003 27.2598V107.859C98.0018 108.071 97.9612 108.282 97.881 108.478C97.8008 108.674 97.6825 108.853 97.533 109.003C97.3835 109.153 97.2057 109.273 97.0099 109.354C96.814 109.435 96.604 109.477 96.392 109.477ZM86.9857 98.4621V36.668H72.6852V98.4621H86.9857Z" fill="#159822"/>
</svg>
