<svg width="135" height="161" viewBox="0 0 135 161" fill="none" xmlns="http://www.w3.org/2000/svg">
<circle cx="67.5" cy="66.5" r="58.5" fill="#D1D1D1"/>
<circle cx="67.5" cy="153.5" r="7.5" fill="#159822"/>
<path fill-rule="evenodd" clip-rule="evenodd" d="M67.5 132C103.675 132 133 102.675 133 66.5C133 30.3253 103.675 1 67.5 1C31.3253 1 2 30.3253 2 66.5C2 102.675 31.3253 132 67.5 132ZM67.5 133C104.227 133 134 103.227 134 66.5C134 29.7731 104.227 0 67.5 0C30.7731 0 1 29.7731 1 66.5C1 103.227 30.7731 133 67.5 133Z" fill="#D1D1D1"/>
<path fill-rule="evenodd" clip-rule="evenodd" d="M2.97794 67C2.97794 102.635 31.8654 131.522 67.5 131.522C103.135 131.522 132.022 102.635 132.022 67H135C135 104.279 104.779 134.5 67.5 134.5C30.2208 134.5 0 104.279 0 67H2.97794Z" fill="#159822"/>
<path fill-rule="evenodd" clip-rule="evenodd" d="M66 147L66 133L69 133L69 147L66 147Z" fill="#159822"/>
<path fill-rule="evenodd" clip-rule="evenodd" d="M81.5745 90.072C80.4441 93.8332 77.9954 97.0607 74.6776 99.1623C71.3598 101.264 67.3955 102.099 63.5119 101.513C59.6284 100.928 56.0861 98.9622 53.535 95.9762C50.9839 92.9901 49.5952 89.1843 49.6235 85.257V30.639H82.2905V77.71H84.9145V28H47.0005V85.257C46.9678 89.8841 48.6298 94.3631 51.6729 97.849C54.7159 101.335 58.9295 103.586 63.5187 104.179C68.1078 104.771 72.7551 103.663 76.5836 101.065C80.4121 98.4659 83.157 94.5557 84.3005 90.072H81.5745ZM103.159 88.53H66.4005C65.1701 88.53 63.9902 88.0412 63.1202 87.1713C62.2502 86.3013 61.7615 85.1213 61.7615 83.891C61.7615 82.6607 62.2502 81.4807 63.1202 80.6107C63.9902 79.7408 65.1701 79.252 66.4005 79.252H103.16V88.53H103.159ZM66.3995 81.893C65.869 81.893 65.3603 82.1037 64.9853 82.4788C64.6102 82.8539 64.3995 83.3626 64.3995 83.893C64.3995 84.4234 64.6102 84.9321 64.9853 85.3072C65.3603 85.6823 65.869 85.893 66.3995 85.893H100.537V81.893H66.4005H66.3995ZM78.9055 69.703H53.0075V33.844H78.9075V69.703H78.9055ZM55.6305 67.063H76.2835V36.484H55.6305V67.063ZM64.4175 64.843H58.5985V61.539H64.4175V64.839V64.843ZM73.5505 64.843H67.7325V61.539H73.5515V64.839L73.5505 64.843ZM64.4175 57.354H58.5985V54.054H64.4175V57.354ZM73.5505 57.354H67.7325V54.054H73.5515V57.354H73.5505ZM64.4175 49.865H58.5985V46.565H64.4175V49.865ZM73.5505 49.865H67.7325V46.565H73.5515V49.865H73.5505ZM73.5505 42.672H58.5985V39.372H73.5505V42.672Z" fill="#099B17"/>
</svg>
