<svg width="135" height="162" viewBox="0 0 135 162" fill="none" xmlns="http://www.w3.org/2000/svg">
<circle cx="67.5" cy="67.5" r="58" stroke="#D1D1D1"/>
<circle cx="67.5" cy="154.5" r="7.5" fill="#159822"/>
<path d="M132.5 67.5C132.5 103.399 103.399 132.5 67.5 132.5C31.6015 132.5 2.5 103.399 2.5 67.5C2.5 31.6015 31.6015 2.5 67.5 2.5C103.399 2.5 132.5 31.6015 132.5 67.5ZM67.5 134.5C104.503 134.5 134.5 104.503 134.5 67.5C134.5 30.4969 104.503 0.5 67.5 0.5C30.4969 0.5 0.5 30.4969 0.5 67.5C0.5 104.503 30.4969 134.5 67.5 134.5Z" fill="#159822" stroke="#159822"/>
<path fill-rule="evenodd" clip-rule="evenodd" d="M66 148L66 134L69 134L69 148L66 148Z" fill="#159822"/>
<path d="M33.2 100.601H36.8V103.001H39.2001V100.601H75.2004V103.001H77.6004V100.601H81.2004C81.5187 100.601 81.8239 100.474 82.049 100.249C82.274 100.024 82.4004 99.7191 82.4004 99.4009V80.2007C82.4004 79.8825 82.274 79.5772 82.049 79.3522C81.8239 79.1271 81.5187 79.0007 81.2004 79.0007H77.6004V65.8006C77.6004 65.4823 77.474 65.1771 77.2489 64.9521C77.0239 64.727 76.7186 64.6006 76.4004 64.6006H38.0001C37.6818 64.6006 37.3766 64.727 37.1515 64.9521C36.9265 65.1771 36.8 65.4823 36.8 65.8006V79.0007H33.2C32.8817 79.0007 32.5765 79.1271 32.3515 79.3522C32.1264 79.5772 32 79.8825 32 80.2007V99.4009C32 99.7191 32.1264 100.024 32.3515 100.249C32.5765 100.474 32.8817 100.601 33.2 100.601ZM68.0003 98.2009H46.4001V88.6008H68.0003V98.2009ZM80.0004 81.4007V98.2009H70.4003V81.4007H80.0004ZM39.2001 67.0006H75.2004V79.0007H69.2003C68.8821 79.0007 68.5768 79.1271 68.3518 79.3522C68.1267 79.5772 68.0003 79.8825 68.0003 80.2007V86.2008H46.4001V80.2007C46.4001 79.8825 46.2737 79.5772 46.0486 79.3522C45.8236 79.1271 45.5184 79.0007 45.2001 79.0007H39.2001V67.0006ZM34.4 81.4007H44.0001V98.2009H34.4V81.4007Z" fill="#159822"/>
<path d="M81.2001 55.0002H90.8001V95.8006H86.0001C85.6818 95.8006 85.3766 95.927 85.1516 96.1521C84.9265 96.3771 84.8001 96.6823 84.8001 97.0006V101.801C84.8001 102.119 84.9265 102.424 85.1516 102.649C85.3766 102.874 85.6818 103.001 86.0001 103.001H98.0002C98.3185 103.001 98.6237 102.874 98.8487 102.649C99.0738 102.424 99.2002 102.119 99.2002 101.801V97.0006C99.2002 96.6823 99.0738 96.3771 98.8487 96.1521C98.6237 95.927 98.3185 95.8006 98.0002 95.8006H93.2002V55.0002H102.8C102.97 55.0027 103.137 54.9688 103.292 54.9007C103.447 54.8326 103.586 54.732 103.699 54.6056C103.811 54.4793 103.895 54.3302 103.945 54.1684C103.995 54.0067 104.01 53.8361 103.988 53.6682L101.588 32.068C101.556 31.7752 101.417 31.5046 101.198 31.3076C100.979 31.1107 100.695 31.0012 100.4 31H83.6001C83.3034 30.9982 83.0166 31.1064 82.795 31.3036C82.5734 31.5008 82.4327 31.7732 82.4001 32.068L80 53.6682C79.9781 53.8371 79.993 54.0088 80.0437 54.1714C80.0944 54.334 80.1797 54.4837 80.2937 54.6102C80.4077 54.7368 80.5477 54.8372 80.7042 54.9045C80.8606 54.9718 81.0298 55.0045 81.2001 55.0002ZM96.8002 98.2006V100.601H87.2001V98.2006H96.8002ZM84.6801 33.4H99.3202L101.45 52.6002H82.5501L84.6801 33.4Z" fill="#159822"/>
<path d="M41.6004 59.8008H72.8007C73.1189 59.8008 73.4242 59.6744 73.6492 59.4494C73.8743 59.2243 74.0007 58.9191 74.0007 58.6008V39.4006C74.0007 39.0824 73.8743 38.7772 73.6492 38.5521C73.4242 38.3271 73.1189 38.2006 72.8007 38.2006H64.8926L58.0525 31.3561C57.8275 31.1312 57.5224 31.0049 57.2043 31.0049C56.8862 31.0049 56.581 31.1312 56.356 31.3561L49.5085 38.2006H41.6004C41.2821 38.2006 40.9769 38.3271 40.7519 38.5521C40.5268 38.7772 40.4004 39.0824 40.4004 39.4006V58.6008C40.4004 58.9191 40.5268 59.2243 40.7519 59.4494C40.9769 59.6744 41.2821 59.8008 41.6004 59.8008ZM57.2005 33.9001L61.5086 38.2006H52.8925L57.2005 33.9001ZM42.8004 40.6007H71.6007V57.4008H42.8004V40.6007Z" fill="#159822"/>
<path d="M45.2002 55.0001H69.2004V43H45.2002V55.0001ZM47.6002 45.4H66.8004V52.6001H47.6002V45.4Z" fill="#159822"/>
</svg>
