<svg width="135" height="161" viewBox="0 0 135 161" fill="none" xmlns="http://www.w3.org/2000/svg">
<circle cx="67.5" cy="66.5" r="58.5" fill="#D1D1D1"/>
<circle cx="67.5" cy="153.5" r="7.5" fill="#159822"/>
<path fill-rule="evenodd" clip-rule="evenodd" d="M67.5 132C103.675 132 133 102.675 133 66.5C133 30.3253 103.675 1 67.5 1C31.3253 1 2 30.3253 2 66.5C2 102.675 31.3253 132 67.5 132ZM67.5 133C104.227 133 134 103.227 134 66.5C134 29.7731 104.227 0 67.5 0C30.7731 0 1 29.7731 1 66.5C1 103.227 30.7731 133 67.5 133Z" fill="#D1D1D1"/>
<path fill-rule="evenodd" clip-rule="evenodd" d="M2.97794 67C2.97794 102.635 31.8654 131.522 67.5 131.522C103.135 131.522 132.022 102.635 132.022 67H135C135 104.279 104.779 134.5 67.5 134.5C30.2208 134.5 0 104.279 0 67H2.97794Z" fill="#159822"/>
<path fill-rule="evenodd" clip-rule="evenodd" d="M66 147L66 133L69 133L69 147L66 147Z" fill="#159822"/>
<path fill-rule="evenodd" clip-rule="evenodd" d="M73.3352 98.0896C72.9802 97.9486 72.5841 97.9524 72.232 98.1003C71.8799 98.2482 71.5999 98.5284 71.4522 98.8806C71.3193 99.1853 71.0996 99.4441 70.8206 99.6248C70.5416 99.8054 70.2155 99.9 69.8832 99.8966H64.5932C64.2608 99.9 63.9347 99.8054 63.6557 99.6248C63.3767 99.4441 63.1571 99.1853 63.0242 98.8806C62.8762 98.5286 62.5962 98.2486 62.2441 98.1007C61.8921 97.9528 61.4961 97.9488 61.1412 98.0896C60.966 98.1566 60.8059 98.2579 60.6703 98.3874C60.5346 98.517 60.4262 98.6723 60.3512 98.8443C60.2763 99.0162 60.2364 99.2014 60.2338 99.3889C60.2312 99.5765 60.266 99.7626 60.3362 99.9366C60.6858 100.774 61.2779 101.489 62.0364 101.988C62.795 102.487 63.6853 102.747 64.5932 102.737H69.8842C70.792 102.747 71.6824 102.487 72.4409 101.988C73.1994 101.489 73.7915 100.774 74.1412 99.9366C74.2113 99.7626 74.2461 99.5763 74.2434 99.3887C74.2407 99.2011 74.2007 99.016 74.1257 98.844C74.0506 98.672 73.9421 98.5168 73.8064 98.3872C73.6706 98.2577 73.5104 98.1565 73.3352 98.0896ZM90.3432 90.7686C90.1449 89.7803 89.736 88.8463 89.1443 88.0302C88.5526 87.2142 87.7919 86.5352 86.9142 86.0396C87.2414 85.7782 87.5452 85.4887 87.8222 85.1746C88.4977 84.4091 88.9969 83.5047 89.2848 82.5251C89.5727 81.5456 89.6421 80.5149 89.4882 79.5056C88.9774 76.1882 87.5355 73.0839 85.3302 70.5536C83.6737 68.6517 81.6413 67.1135 79.3612 66.0356C82.2447 63.0427 83.8575 59.0496 83.8612 54.8936C83.8337 51.3179 82.6374 47.8494 80.4547 45.0171C78.2721 42.1848 75.2228 40.1442 71.7722 39.2066C72.7209 38.1025 73.2415 36.6943 73.2392 35.2386C73.2228 33.8368 72.6517 32.4985 71.6509 31.5168C70.6501 30.5351 69.301 29.9899 67.8992 30.0006C66.762 29.9828 65.6539 30.3603 64.7642 31.0686C64.316 31.4314 63.9551 31.8902 63.7081 32.4112C63.4611 32.9322 63.3343 33.502 63.3372 34.0786C63.3372 34.4632 63.4899 34.832 63.7619 35.1039C64.0338 35.3758 64.4026 35.5286 64.7872 35.5286C65.1717 35.5286 65.5405 35.3758 65.8125 35.1039C66.0844 34.832 66.2372 34.4632 66.2372 34.0786C66.2346 33.9175 66.2694 33.758 66.3388 33.6126C66.4082 33.4672 66.5103 33.3399 66.6372 33.2406C67.0013 32.9655 67.4491 32.8243 67.9052 32.8406C68.5474 32.835 69.1657 33.0847 69.624 33.5347C70.0822 33.9847 70.3431 34.5983 70.3492 35.2406C70.3496 35.6825 70.2614 36.1199 70.0896 36.5271C69.9178 36.9342 69.666 37.3026 69.3492 37.6106C68.705 38.2434 67.8371 38.5963 66.9342 38.5926C66.8982 38.5926 66.8642 38.5926 66.8292 38.5986C62.5377 38.67 58.4435 40.4134 55.4179 43.4576C52.3923 46.5019 50.6742 50.6068 50.6292 54.8986C50.6329 59.0546 52.2457 63.0477 55.1292 66.0406C52.8489 67.1183 50.8165 68.6566 49.1602 70.5586C46.9549 73.0896 45.5134 76.1946 45.0032 79.5126C44.8492 80.5219 44.9187 81.5526 45.2065 82.5321C45.4944 83.5117 45.9937 84.4161 46.6692 85.1816C46.946 85.4959 47.2498 85.7854 47.5772 86.0466C46.6968 86.5395 45.9332 87.2165 45.3383 88.0314C44.7434 88.8463 44.3314 89.7799 44.1302 90.7686C43.9358 91.7556 43.9593 92.7731 44.1991 93.75C44.4388 94.7269 44.889 95.6397 45.5182 96.4246L48.6182 100.313C49.5926 101.51 50.9583 102.324 52.4746 102.613C53.9908 102.901 55.5602 102.645 56.9062 101.89C58.2376 101.142 59.2511 99.9344 59.7574 98.4937C60.2637 97.0529 60.228 95.477 59.6572 94.0606L57.7802 89.4846C57.6548 89.1808 57.5077 88.8864 57.3402 88.6036H67.9622C68.339 88.6036 68.7005 88.4539 68.967 88.1874C69.2334 87.9209 69.3832 87.5595 69.3832 87.1826C69.3832 86.8057 69.2334 86.4443 68.967 86.1778C68.7005 85.9113 68.339 85.7616 67.9622 85.7616H54.5872V82.7686C54.589 82.5813 54.6651 82.4023 54.7988 82.2711C54.9325 82.1398 55.1128 82.067 55.3002 82.0686H79.1762C79.3635 82.067 79.5438 82.1398 79.6775 82.2711C79.8112 82.4023 79.8873 82.5813 79.8892 82.7686V85.9586C78.4486 86.7287 77.3201 87.975 76.6962 89.4846L74.8152 94.0626C74.2444 95.4792 74.2089 97.0551 74.7153 98.4959C75.2218 99.9367 76.2356 101.144 77.5672 101.892C78.9131 102.647 80.4825 102.903 81.9988 102.615C83.515 102.326 84.8807 101.512 85.8552 100.315L88.9552 96.4266C89.5847 95.6415 90.035 94.7284 90.2748 93.7511C90.5145 92.7738 90.5379 91.7559 90.3432 90.7686ZM53.5142 54.8946C53.5828 51.3 55.0589 47.8758 57.6253 45.3579C60.1916 42.8401 63.6434 41.4296 67.2387 41.4296C70.8339 41.4296 74.2857 42.8401 76.852 45.3579C79.4184 47.8758 80.8945 51.3 80.9632 54.8946C80.8945 58.4892 79.4184 61.9134 76.852 64.4313C74.2857 66.9491 70.8339 68.3596 67.2387 68.3596C63.6434 68.3596 60.1916 66.9491 57.6253 64.4313C55.0589 61.9134 53.5828 58.4892 53.5142 54.8946ZM55.0952 90.5466L56.9762 95.1246C57.29 95.9038 57.3095 96.7705 57.0308 97.563C56.7522 98.3554 56.1946 99.0193 55.4622 99.4306C54.7227 99.8473 53.8598 99.9893 53.0258 99.8316C52.1918 99.6739 51.4404 99.2266 50.9042 98.5686L47.8042 94.6806C47.4298 94.2139 47.1619 93.671 47.0193 93.0899C46.8766 92.5089 46.8626 91.9036 46.9782 91.3166C47.0961 90.7258 47.3406 90.1675 47.6948 89.6802C48.049 89.1929 48.5046 88.7881 49.0302 88.4936C49.5594 88.1947 50.1457 88.0108 50.7509 87.9538C51.356 87.8967 51.9664 87.9679 52.5422 88.1626C53.1133 88.3545 53.6367 88.6666 54.0771 89.0778C54.5175 89.4891 54.8646 89.9899 55.0952 90.5466ZM79.1862 76.3846C78.8059 76.3811 78.4398 76.5287 78.1683 76.795C77.8968 77.0612 77.7421 77.4244 77.7382 77.8046V79.2256H56.7482V77.8056C56.7482 77.421 56.5954 77.0522 56.3235 76.7803C56.0515 76.5084 55.6827 76.3556 55.2982 76.3556C54.9136 76.3556 54.5448 76.5084 54.2729 76.7803C54.0009 77.0522 53.8482 77.421 53.8482 77.8056V79.5246C53.2111 79.7955 52.6673 80.2471 52.284 80.8236C51.9006 81.4001 51.6945 82.0763 51.6912 82.7686V84.7686C50.5944 84.6635 49.5787 84.1451 48.8502 83.3186C48.4454 82.8606 48.146 82.3195 47.9733 81.7332C47.8005 81.1469 47.7585 80.5299 47.8502 79.9256C48.2614 77.2732 49.3739 74.7789 51.0727 72.7008C52.7714 70.6226 54.9946 69.0362 57.5122 68.1056C60.3561 70.1158 63.7531 71.1951 67.2357 71.1951C70.7183 71.1951 74.1153 70.1158 76.9592 68.1056C79.4768 69.0361 81.7 70.6225 83.3988 72.7007C85.0975 74.7788 86.21 77.2732 86.6212 79.9256C86.7129 80.5299 86.6708 81.1469 86.4981 81.7332C86.3253 82.3195 86.0259 82.8606 85.6212 83.3186C84.8925 84.145 83.8769 84.6634 82.7802 84.7686V82.7686C82.7766 82.0779 82.5712 81.4033 82.1892 80.8278C81.8072 80.2523 81.2653 79.801 80.6302 79.5296V77.8056C80.6265 77.4259 80.4724 77.0631 80.2017 76.7968C79.9311 76.5304 79.5659 76.3822 79.1862 76.3846ZM86.6742 94.6756L83.5732 98.5686C83.0376 99.2274 82.2865 99.6757 81.4525 99.8343C80.6184 99.993 79.7552 99.8517 79.0152 99.4356C78.2825 99.0243 77.7247 98.3602 77.4461 97.5676C77.1674 96.7749 77.187 95.9079 77.5012 95.1286L79.3822 90.5496C79.6132 89.9924 79.9611 89.4912 80.4024 89.0799C80.8436 88.6686 81.368 88.3568 81.9402 88.1656C82.516 87.9711 83.1263 87.9001 83.7314 87.9572C84.3365 88.0142 84.9228 88.198 85.4522 88.4966C85.9763 88.7911 86.4307 89.1954 86.7842 89.6817C87.1377 90.1681 87.3819 90.7251 87.5002 91.3146C87.6153 91.9013 87.601 92.5061 87.4583 93.0868C87.3157 93.6674 87.048 94.21 86.6742 94.6766V94.6756ZM74.7382 86.1756C74.4642 85.9085 74.0967 85.7591 73.7142 85.7591C73.3316 85.7591 72.9641 85.9085 72.6902 86.1756C72.5559 86.3061 72.4492 86.4622 72.3763 86.6346C72.3034 86.8071 72.2659 86.9924 72.2659 87.1796C72.2659 87.3668 72.3034 87.5521 72.3763 87.7246C72.4492 87.897 72.5559 88.0531 72.6902 88.1836C72.9641 88.4507 73.3316 88.6001 73.7142 88.6001C74.0967 88.6001 74.4642 88.4507 74.7382 88.1836C74.8721 88.0532 74.9786 87.8972 75.0513 87.7249C75.124 87.5527 75.1614 87.3676 75.1614 87.1806C75.1614 86.9936 75.124 86.8085 75.0513 86.6363C74.9786 86.464 74.8721 86.3081 74.7382 86.1776V86.1756ZM71.2302 59.7466C70.9304 59.509 70.5497 59.3979 70.1692 59.4369C69.7886 59.476 69.4384 59.6621 69.1932 59.9556C68.9542 60.2424 68.6552 60.4731 68.3171 60.6314C67.9791 60.7898 67.6104 60.8718 67.2372 60.8718C66.8639 60.8718 66.4952 60.7898 66.1572 60.6314C65.8192 60.4731 65.5201 60.2424 65.2812 59.9556C65.0359 59.6621 64.6857 59.476 64.3052 59.4369C63.9246 59.3979 63.5439 59.509 63.2442 59.7466C63.0963 59.8621 62.9732 60.0062 62.8821 60.1702C62.7911 60.3343 62.7339 60.5149 62.714 60.7015C62.6942 60.8881 62.712 61.0767 62.7665 61.2562C62.821 61.4358 62.911 61.6025 63.0312 61.7466C63.5452 62.3629 64.1883 62.8587 64.9152 63.1989C65.642 63.5391 66.4347 63.7155 67.2372 63.7155C68.0397 63.7155 68.8324 63.5391 69.5592 63.1989C70.286 62.8587 70.9291 62.3629 71.4432 61.7466C71.5633 61.6025 71.6534 61.4358 71.7078 61.2562C71.7623 61.0767 71.7801 60.8881 71.7603 60.7015C71.7404 60.5149 71.6832 60.3343 71.5922 60.1702C71.5011 60.0062 71.378 59.8621 71.2302 59.7466ZM63.5782 53.8906C62.9398 53.2711 62.0852 52.9246 61.1957 52.9246C60.3061 52.9246 59.4515 53.2711 58.8132 53.8906C58.6787 54.0211 58.5719 54.1772 58.4989 54.3498C58.4259 54.5223 58.3883 54.7078 58.3883 54.8951C58.3883 55.0824 58.4259 55.2679 58.4989 55.4404C58.5719 55.613 58.6787 55.7691 58.8132 55.8996C59.0872 56.1664 59.4546 56.3157 59.8372 56.3157C60.2197 56.3157 60.5871 56.1664 60.8612 55.8996C60.9507 55.8126 61.0707 55.7639 61.1957 55.7639C61.3206 55.7639 61.4406 55.8126 61.5302 55.8996C61.8044 56.1662 62.1717 56.3153 62.5542 56.3153C62.9366 56.3153 63.304 56.1662 63.5782 55.8996C63.7128 55.7692 63.8199 55.613 63.893 55.4404C63.9662 55.2678 64.0039 55.0823 64.004 54.8948C64.0041 54.7074 63.9665 54.5218 63.8936 54.3491C63.8206 54.1764 63.7137 54.0202 63.5792 53.8896L63.5782 53.8906ZM75.6622 53.8906C75.0238 53.2711 74.1692 52.9246 73.2797 52.9246C72.3901 52.9246 71.5355 53.2711 70.8972 53.8906C70.7627 54.0211 70.6559 54.1772 70.5829 54.3498C70.5099 54.5223 70.4723 54.7078 70.4723 54.8951C70.4723 55.0824 70.5099 55.2679 70.5829 55.4404C70.6559 55.613 70.7627 55.7691 70.8972 55.8996C71.1712 56.1664 71.5386 56.3157 71.9212 56.3157C72.3037 56.3157 72.6711 56.1664 72.9452 55.8996C73.0347 55.8126 73.1547 55.7639 73.2797 55.7639C73.4046 55.7639 73.5246 55.8126 73.6142 55.8996C73.8882 56.1664 74.2556 56.3157 74.6382 56.3157C75.0207 56.3157 75.3881 56.1664 75.6622 55.8996C75.7968 55.7692 75.9039 55.613 75.977 55.4404C76.0502 55.2678 76.0879 55.0823 76.088 54.8948C76.0881 54.7074 76.0505 54.5218 75.9776 54.3491C75.9046 54.1764 75.7977 54.0202 75.6632 53.8896L75.6622 53.8906Z" fill="#159822"/>
</svg>
