<svg width="135" height="162" viewBox="0 0 135 162" fill="none" xmlns="http://www.w3.org/2000/svg">
<circle cx="67.5" cy="67.5" r="58" stroke="#D1D1D1"/>
<circle cx="67.5" cy="154.5" r="7.5" fill="#159822"/>
<path d="M132.5 67.5C132.5 103.399 103.399 132.5 67.5 132.5C31.6015 132.5 2.5 103.399 2.5 67.5C2.5 31.6015 31.6015 2.5 67.5 2.5C103.399 2.5 132.5 31.6015 132.5 67.5ZM67.5 134.5C104.503 134.5 134.5 104.503 134.5 67.5C134.5 30.4969 104.503 0.5 67.5 0.5C30.4969 0.5 0.5 30.4969 0.5 67.5C0.5 104.503 30.4969 134.5 67.5 134.5Z" fill="#159822" stroke="#159822"/>
<path fill-rule="evenodd" clip-rule="evenodd" d="M66 148L66 134L69 134L69 148L66 148Z" fill="#159822"/>
<path d="M97.5919 75.6758H80.956C80.286 75.6758 79.7432 76.2188 79.7432 76.8886V91.4975C79.7432 92.1674 80.2862 92.7103 80.956 92.7103H97.592C98.262 92.7103 98.8048 92.1672 98.8048 91.4975V76.8886C98.8047 76.2188 98.262 75.6758 97.5919 75.6758ZM96.3791 90.2847H82.1686V82.5406H96.3791V90.2847ZM96.3792 80.1152H82.1688V78.1014H96.3792V80.1152Z" fill="#159822"/>
<path d="M107.699 93.8995H102.197V83.5242C102.197 82.8544 101.654 82.3114 100.984 82.3114C100.314 82.3114 99.7712 82.8544 99.7712 83.5242V93.8995H80.9556C80.2858 93.8995 79.7428 94.4426 79.7428 95.1123V100.975H77.927V76.8895C77.927 76.2197 77.384 75.6767 76.7142 75.6767H62.1054C61.4356 75.6767 60.8926 76.2197 60.8926 76.8895V100.975H59.8071V95.1123C59.8071 94.4426 59.2641 93.8995 58.5943 93.8995H57.8987V73.064L78.8344 53.0762L99.771 73.0651V77.8643C99.771 78.5341 100.314 79.0771 100.984 79.0771C101.654 79.0771 102.197 78.5341 102.197 77.8643V75.3809L103.215 76.3532C103.662 76.78 104.359 76.8022 104.832 76.4049L108.332 73.4672C108.494 73.3308 108.629 73.1613 108.706 72.9638C108.892 72.4875 108.764 71.9699 108.415 71.6377L102.432 65.9399V50.264C102.432 49.5942 101.889 49.0512 101.22 49.0512H90.1452C89.4754 49.0512 88.9324 49.5942 88.9324 50.264V53.083L81.4184 45.9271L79.6602 44.2938C79.195 43.8615 78.4752 43.8615 78.0093 44.2938L76.2401 45.9376L63.2485 58.3103C63.1572 49.0896 60.0847 40.5328 55.1138 35.5258C54.6211 35.0296 53.808 35.0616 53.347 35.5877C52.9255 36.0682 52.9521 36.7906 53.4026 37.2441C58.0057 41.8751 60.8275 49.9736 60.8275 58.7327C60.8275 59.3789 60.808 60.0247 60.7776 60.6633L49.2542 71.6378C48.9055 71.9701 48.7772 72.4875 48.963 72.9639C49.0401 73.1613 49.1753 73.331 49.3376 73.4673L52.8372 76.4051C53.0633 76.595 53.3402 76.6891 53.6167 76.6891C53.9191 76.6891 54.2206 76.5766 54.4543 76.3535L55.4737 75.3804V77.7327C52.6042 81.8029 48.9571 84.04 45.1712 84.04C41.0951 84.04 37.2224 81.4808 34.2664 76.834C31.2024 72.0169 29.5148 65.5885 29.5148 58.7328C29.5148 51.8771 31.2024 45.4488 34.2666 40.6318C37.2223 35.985 41.0951 33.4258 45.1714 33.4258C46.5871 33.4258 47.9837 33.7345 49.3362 34.3447C49.9018 34.5999 50.5691 34.3725 50.8758 33.8328V33.8326C51.2288 33.2111 50.9706 32.4199 50.319 32.1267C48.6573 31.3784 46.9311 31 45.1714 31C40.2363 31 35.6366 33.9581 32.2201 39.3296C28.911 44.5305 27.0889 51.4213 27.0889 58.7323C27.0889 66.0433 28.911 72.934 32.2196 78.1354C34.5224 81.7559 37.3632 84.278 40.4814 85.5387V93.8994H36.7913V92.0948C36.7913 91.4306 36.2794 90.8516 35.6157 90.8317C34.929 90.811 34.3657 91.3617 34.3657 92.044V93.8995H32.8956V92.095C32.8956 91.4308 32.3837 90.8518 31.72 90.8318C31.0333 90.8114 30.47 91.3619 30.47 92.0441V93.8997H28.3017C27.6319 93.8997 27.0889 94.4427 27.0889 95.1125V102.188C27.0889 102.858 27.6319 103.401 28.3017 103.401H58.5945C58.5956 103.401 58.5966 103.401 58.5975 103.401H62.1054H76.7142H80.9524C80.9535 103.401 80.9545 103.401 80.9554 103.401H107.699C108.368 103.401 108.912 102.858 108.912 102.188V95.1125C108.912 94.4424 108.369 93.8995 107.699 93.8995ZM91.3578 51.4765H100.007V63.6297L91.3578 55.3929V51.4765ZM53.5646 73.8486L51.909 72.4588L77.9018 47.7042L78.8348 46.8375L79.7567 47.6938L105.761 72.4588L104.105 73.8488L79.6722 50.5221C79.4379 50.2984 79.1365 50.1865 78.8348 50.1865C78.5334 50.1865 78.2316 50.2984 77.9974 50.5221L53.5646 73.8486ZM49.8605 85.5346C51.8676 84.7202 53.7636 83.3816 55.4734 81.5673V93.8995H53.8798V92.044C53.8798 91.3742 53.3369 90.8312 52.667 90.8312C51.997 90.8312 51.4542 91.3742 51.4542 92.044V93.8995H49.8605V85.5346ZM42.907 86.2541C43.6516 86.3937 44.4072 86.4648 45.1709 86.4648C45.9337 86.4648 46.6893 86.3921 47.4348 86.2512V93.8994H42.907V86.2541ZM57.3817 100.975H56.686V100.975H29.5145V96.3251H41.6802C41.6848 96.3251 41.6896 96.3258 41.6942 96.3258H48.6476C48.6522 96.3258 48.657 96.3251 48.6616 96.3251H57.3818V100.975H57.3817ZM75.5016 100.975H63.3183V78.1023H75.5016V100.975ZM106.486 100.975H100.984V100.975H82.1684V96.3251H106.486V100.975Z" fill="#159822"/>
<path d="M73.8363 88.2441H71.7157C71.0458 88.2441 70.5029 88.7872 70.5029 89.4569C70.5029 90.1267 71.0458 90.6697 71.7157 90.6697H73.8363C74.5062 90.6697 75.049 90.1267 75.049 89.4569C75.049 88.7872 74.5062 88.2441 73.8363 88.2441Z" fill="#159822"/>
<path d="M78.8347 60.3242C75.925 60.3242 73.5576 62.6916 73.5576 65.6013C73.5576 68.5113 75.925 70.8784 78.8347 70.8784C81.7445 70.8784 84.112 68.5111 84.112 65.6013C84.1121 62.6915 81.7447 60.3242 78.8347 60.3242ZM78.8347 68.4528C77.2623 68.4528 75.9832 67.1735 75.9832 65.6013C75.9832 64.0291 77.2623 62.7498 78.8347 62.7498C80.4071 62.7498 81.6864 64.0291 81.6864 65.6013C81.6865 67.1737 80.4072 68.4528 78.8347 68.4528Z" fill="#159822"/>
</svg>
