<svg width="135" height="161" viewBox="0 0 135 161" fill="none" xmlns="http://www.w3.org/2000/svg">
<circle cx="67.5" cy="66.5" r="58.5" fill="#D1D1D1"/>
<circle cx="67.5" cy="153.5" r="7.5" fill="#159822"/>
<path fill-rule="evenodd" clip-rule="evenodd" d="M67.5 132C103.675 132 133 102.675 133 66.5C133 30.3253 103.675 1 67.5 1C31.3253 1 2 30.3253 2 66.5C2 102.675 31.3253 132 67.5 132ZM67.5 133C104.227 133 134 103.227 134 66.5C134 29.7731 104.227 0 67.5 0C30.7731 0 1 29.7731 1 66.5C1 103.227 30.7731 133 67.5 133Z" fill="#D1D1D1"/>
<path fill-rule="evenodd" clip-rule="evenodd" d="M2.97794 67C2.97794 102.635 31.8654 131.522 67.5 131.522C103.135 131.522 132.022 102.635 132.022 67H135C135 104.279 104.779 134.5 67.5 134.5C30.2208 134.5 0 104.279 0 67H2.97794Z" fill="#159822"/>
<path fill-rule="evenodd" clip-rule="evenodd" d="M66 147L66 133L69 133L69 147L66 147Z" fill="#159822"/>
<path fill-rule="evenodd" clip-rule="evenodd" d="M72.1167 78.4257C71.8467 78.5867 71.6487 78.6987 71.4577 78.8197C70.5237 79.4127 70.0077 79.4367 69.6407 78.8997C69.2537 78.3347 69.4857 77.8797 70.4827 77.2357L73.2827 75.4267C70.6627 71.9107 68.4937 68.1357 65.6417 64.8637L65.3947 64.9897C65.3817 65.2347 65.3577 65.4797 65.3567 65.7257C65.3567 67.7037 65.3297 69.6817 65.3757 71.6587C65.4008 72.1035 65.5578 72.5306 65.8267 72.8857C67.8827 75.5567 68.9937 78.4547 68.0647 81.8567C67.9134 82.4541 67.6727 83.0252 67.3507 83.5507C66.9373 84.226 66.7395 85.0112 66.7837 85.8017C66.8047 91.3767 66.7957 96.9517 66.7947 102.526C66.7947 103.866 66.5777 104.078 65.2257 104.078H47.9037C46.6257 104.078 46.3967 103.851 46.3947 102.544C46.3947 99.1277 46.4077 95.7107 46.3757 92.2937C46.3638 91.8711 46.2138 91.4641 45.9487 91.1347C44.8057 89.8177 43.6227 88.5347 42.4157 87.2737C42.0882 86.8487 41.6056 86.5709 41.0736 86.5012C40.5416 86.4315 40.0037 86.5755 39.5777 86.9017C37.7606 88.0242 36.159 89.4629 34.8487 91.1497C34.7265 91.2435 34.634 91.3707 34.5823 91.5159C34.5305 91.661 34.5219 91.818 34.5572 91.968C34.5926 92.118 34.6706 92.2546 34.7817 92.3613C34.8929 92.468 35.0325 92.5404 35.1837 92.5697C37.2087 93.4187 39.2487 94.2397 41.3217 94.9607C42.3847 95.3307 42.6537 95.7017 42.1677 96.7457C41.9617 97.1877 41.7327 97.6197 41.5557 98.0727C41.3835 98.4755 41.3029 98.9116 41.3199 99.3493C41.3368 99.7871 41.4507 100.216 41.6535 100.604C41.8563 100.992 42.1428 101.331 42.4924 101.595C42.8419 101.859 43.2458 102.042 43.6747 102.131C43.7997 102.161 43.9247 102.188 44.0497 102.215C44.1796 102.225 44.3056 102.264 44.4185 102.329C44.5313 102.394 44.6282 102.483 44.7021 102.59C44.7759 102.698 44.8248 102.82 44.8451 102.949C44.8655 103.077 44.8568 103.209 44.8197 103.334C44.798 103.455 44.7514 103.571 44.683 103.674C44.6146 103.777 44.5257 103.864 44.422 103.931C44.3182 103.998 44.2018 104.043 44.08 104.063C43.9581 104.083 43.8335 104.078 43.7137 104.048C43.0764 103.964 42.4619 103.756 41.9054 103.434C41.3489 103.113 40.8615 102.684 40.4712 102.174C40.0809 101.663 39.7954 101.08 39.6311 100.459C39.4667 99.8373 39.4269 99.1896 39.5137 98.5527C39.6624 97.8983 39.845 97.2521 40.0607 96.6167C39.8377 96.5427 39.5767 96.4787 39.3327 96.3747C37.6387 95.6547 35.9177 94.9887 34.2647 94.1827C33.9496 94.0464 33.6644 93.8493 33.4255 93.6027C33.1866 93.3561 32.9986 93.0648 32.8724 92.7455C32.7462 92.4262 32.6842 92.0851 32.6899 91.7418C32.6956 91.3985 32.769 91.0597 32.9057 90.7447C32.9195 90.6002 32.8996 90.4545 32.8475 90.319C32.7955 90.1834 32.7127 90.0619 32.6057 89.9637C31.4596 89.1627 30.6147 88.0009 30.2057 86.6637C29.9954 85.9448 29.9456 85.1885 30.0598 84.4482C30.174 83.7079 30.4495 83.0018 30.8667 82.3797C34.7667 76.6524 38.6861 70.9381 42.6247 65.2367C43.8304 63.5414 45.6496 62.383 47.6957 62.0077C47.922 61.9955 48.14 61.9184 48.3237 61.7857C48.6738 61.3894 49.1191 61.0888 49.6176 60.9124C50.1161 60.736 50.6513 60.6897 51.1727 60.7777C51.4987 60.7947 51.8257 60.7777 52.2297 60.7777C52.2297 60.2217 52.2627 59.7377 52.2127 59.2607C52.1537 59.0551 52.0316 58.8733 51.8637 58.7407C50.9097 57.8217 49.9637 56.8907 48.9687 56.0207C48.6637 55.7892 48.2927 55.6609 47.9097 55.6547C46.9913 55.6848 46.0885 55.4123 45.3401 54.8791C44.5917 54.3459 44.0393 53.5816 43.7677 52.7037C43.5084 51.8209 43.556 50.8762 43.9027 50.0239C44.2494 49.1715 44.8748 48.4619 45.6767 48.0107C45.8497 47.9107 46.0287 47.8217 46.0327 47.8197C45.3683 46.2284 44.8006 44.5985 44.3327 42.9387C44.2765 42.3826 44.0972 41.8459 43.8078 41.3677C43.5185 40.8895 43.1263 40.4816 42.6597 40.1737C41.9318 39.6289 41.4113 38.8522 41.1839 37.9719C40.9565 37.0915 41.0358 36.16 41.4087 35.3307C41.7393 34.458 42.3568 33.7237 43.1598 33.2483C43.9628 32.773 44.9037 32.5848 45.8277 32.7147C46.1536 32.8007 46.4997 32.7617 46.7984 32.6056C47.097 32.4494 47.3264 32.1873 47.4417 31.8707C46.7987 31.3163 46.0406 30.9117 45.2221 30.686C44.4037 30.4604 43.5453 30.4193 42.7091 30.5658C41.8728 30.7123 41.0795 31.0427 40.3865 31.5331C39.6935 32.0235 39.118 32.6618 38.7017 33.4017C37.7022 35.2055 37.1193 37.2102 36.9957 39.2687C36.7617 41.9547 36.5957 44.6477 36.3717 47.3307C36.2733 48.0328 36.1357 48.7289 35.9597 49.4157C37.6571 49.3595 39.2778 48.6955 40.5267 47.5447C41.2361 46.8428 41.8876 46.0847 42.4747 45.2777C42.5328 45.1497 42.6165 45.035 42.7208 44.9407C42.825 44.8465 42.9476 44.7747 43.0808 44.7299C43.214 44.685 43.355 44.6681 43.495 44.6801C43.6351 44.6921 43.7711 44.7328 43.8947 44.7997C44.0119 44.88 44.1102 44.9848 44.1827 45.107C44.2552 45.2291 44.3001 45.3656 44.3144 45.5069C44.3287 45.6482 44.3119 45.7909 44.2654 45.9251C44.2188 46.0593 44.1435 46.1817 44.0447 46.2837C43.0459 48.0242 41.5464 49.4239 39.7414 50.3008C37.9364 51.1777 35.9093 51.4913 33.9237 51.2007C33.6412 51.2064 33.3621 51.1374 33.1147 51.0007C32.8355 50.8015 32.645 50.5012 32.5837 50.1637C32.6056 49.9955 32.6677 49.835 32.7646 49.6957C32.8616 49.5565 32.9906 49.4426 33.1407 49.3637C33.5685 49.2121 33.935 48.9249 34.1845 48.5459C34.4339 48.1668 34.5527 47.7165 34.5227 47.2637C34.7407 44.5757 34.9117 41.8847 35.1367 39.1977C35.2821 36.9633 35.8914 34.7837 36.9257 32.7977C37.442 31.781 38.1789 30.8924 39.0826 30.197C39.9864 29.5016 41.034 29.0169 42.1491 28.7784C43.2642 28.5398 44.4184 28.5534 45.5276 28.8182C46.6367 29.083 47.6727 29.5922 48.5597 30.3087C48.6787 30.3997 48.8027 30.4857 48.9507 30.5937C50.5816 29.3738 52.4714 28.5458 54.4737 28.1737C56.1279 27.8961 57.8208 27.9517 59.4531 28.3373C61.0855 28.7228 62.6244 29.4306 63.9794 30.419C65.3345 31.4075 66.4785 32.6566 67.3442 34.0932C68.2099 35.5298 68.7799 37.1248 69.0207 38.7847C69.291 40.8535 69.063 42.9569 68.3557 44.9197C68.0347 45.8197 67.5847 46.1377 66.9997 45.9257C66.4147 45.7137 66.2867 45.1807 66.6087 44.2947C67.1427 42.8849 67.3709 41.3777 67.278 39.873C67.185 38.3683 66.7732 36.9006 66.0698 35.5672C65.3664 34.2338 64.3876 33.0652 63.1981 32.1389C62.0087 31.2127 60.6358 30.55 59.1707 30.1947C57.1991 29.6312 55.1026 29.6811 53.16 30.3379C51.2175 30.9948 49.5209 32.2273 48.2957 33.8717C45.5087 37.3437 45.1747 41.2367 47.0207 45.3007C47.0753 45.4165 47.1378 45.5285 47.2077 45.6357C47.2327 45.6757 47.2827 45.6997 47.2487 45.6727C47.5103 44.4303 47.8374 43.2026 48.2287 41.9947C48.7044 40.7288 49.4266 39.5699 50.3536 38.5853C51.2806 37.6006 52.3938 36.8098 53.6287 36.2587C54.5837 35.8037 55.0287 36.0197 55.3167 37.0587C55.8905 39.304 56.9444 41.3981 58.4057 43.1967C59.6025 44.6944 61.276 45.7372 63.1477 46.1517C63.4556 46.182 63.7506 46.2904 64.0047 46.4667C64.8797 47.1363 65.8975 47.5949 66.9787 47.8067C67.7367 48.0446 68.3979 48.52 68.8647 49.1627C69.3315 49.8055 69.5791 50.5814 69.5707 51.3757C69.6247 52.1388 69.4537 52.901 69.0788 53.5679C68.7039 54.2348 68.1417 54.7771 67.4617 55.1277C67.3569 55.2296 67.2302 55.3063 67.0913 55.352C66.9523 55.3977 66.8048 55.4111 66.66 55.3913C66.5151 55.3714 66.3766 55.3189 66.2551 55.2375C66.1335 55.1562 66.0321 55.0483 65.9585 54.922C65.8849 54.7956 65.841 54.6542 65.8302 54.5083C65.8194 54.3625 65.8419 54.2161 65.8961 54.0803C65.9503 53.9445 66.0347 53.8228 66.1429 53.7244C66.2512 53.6261 66.3804 53.5537 66.5207 53.5127C66.938 53.305 67.2771 52.9682 67.4877 52.5524C67.6983 52.1366 67.7691 51.664 67.6897 51.2047C67.6253 50.7428 67.4072 50.3161 67.0707 49.9932C66.7342 49.6703 66.2989 49.4701 65.8347 49.4247C65.7727 50.3887 65.7767 51.3607 65.6347 52.3127C65.4945 53.4912 65.1034 54.6259 64.4877 55.6405C63.8721 56.6551 63.0462 57.5261 62.0657 58.1947C61.6114 58.4294 61.2584 58.8218 61.0728 59.2983C60.8872 59.7748 60.8819 60.3026 61.0577 60.7827H62.6507C63.1674 60.7576 63.6799 60.8861 64.1236 61.152C64.5673 61.4179 64.9223 61.8093 65.1437 62.2767C65.2744 62.5164 65.468 62.7159 65.7037 62.8537C66.8943 63.5226 67.9144 64.4572 68.6847 65.5847C70.8147 68.6674 72.9511 71.7454 75.0937 74.8187C75.7217 75.7247 75.6447 76.1097 74.7407 76.7057C74.4037 76.9277 74.0687 77.1527 73.6767 77.4127C74.3317 78.5727 74.9107 79.7177 75.6187 80.7757C75.9432 81.0729 76.3667 81.2387 76.8067 81.2407C77.3397 81.2967 77.3757 80.8177 77.4867 80.4067C77.6327 79.8039 77.9378 79.2514 78.3701 78.8067C78.8025 78.362 79.3463 78.0415 79.9447 77.8787C80.8747 77.5917 81.8037 77.2917 82.7517 77.0787C82.9224 77.0741 83.0897 77.0305 83.2408 76.9512C83.392 76.8719 83.5229 76.759 83.6237 76.6213C83.7245 76.4835 83.7924 76.3245 83.8222 76.1564C83.852 75.9884 83.843 75.8157 83.7957 75.6517C83.7414 75.2185 83.759 74.7792 83.8477 74.3517C84.2127 72.4427 85.7637 71.4867 88.0387 71.7817V41.4877C86.6287 41.2387 86.6107 41.2407 86.3257 42.5567C85.8765 44.4115 85.8697 46.3458 86.3057 48.2037C86.3693 48.3308 86.4038 48.4704 86.4067 48.6124C86.4095 48.7544 86.3807 48.8953 86.3223 49.0248C86.2638 49.1543 86.1773 49.2691 86.0689 49.361C85.9605 49.4528 85.8331 49.5193 85.6957 49.5557C85.5575 49.5911 85.4131 49.5947 85.2733 49.5662C85.1334 49.5378 85.0019 49.478 84.8885 49.3913C84.7752 49.3047 84.6829 49.1935 84.6187 49.0661C84.5544 48.9387 84.5199 48.7984 84.5177 48.6557C83.846 45.8642 84.0399 42.9343 85.0737 40.2557C85.1863 40.0698 85.3386 39.9111 85.5198 39.7911C85.701 39.6711 85.9066 39.5927 86.1217 39.5617C86.9154 39.4962 87.7127 39.4858 88.5077 39.5307C89.7077 39.5307 89.9567 39.7747 89.9567 40.9617C89.9567 48.4631 89.9567 55.9631 89.9567 63.4617V71.2117C90.7978 71.157 91.6417 71.1637 92.4817 71.2317C93.482 71.3823 94.3959 71.8845 95.0592 72.6483C95.7225 73.412 96.0918 74.3872 96.1007 75.3987C96.1347 76.9654 96.1364 78.5321 96.1058 80.0987C96.1156 80.8884 95.9011 81.6647 95.4872 82.3374C95.0734 83.0101 94.4771 83.5515 93.7677 83.8987C93.5734 83.9792 93.4107 84.1211 93.3047 84.3028C93.1987 84.4845 93.1551 84.6959 93.1807 84.9047C93.1981 90.8134 93.2017 96.7221 93.1917 102.631C93.1917 103.844 92.9677 104.068 91.7627 104.07C90.9927 104.07 90.2231 104.07 89.4537 104.07C88.3837 104.07 88.1057 103.787 88.1057 102.689C88.1057 96.3177 88.1137 89.9477 88.0887 83.5767C88.0313 83.0044 87.9092 82.4405 87.7247 81.8957C87.5467 81.1577 87.3567 80.4217 87.2187 79.8727C86.3387 79.4207 85.5277 78.9917 84.7017 78.5917C84.5244 78.5129 84.3257 78.4964 84.1377 78.5447C82.9324 78.8934 81.7324 79.2567 80.5377 79.6347C80.106 79.7348 79.731 80.0006 79.4936 80.3748C79.2561 80.749 79.1754 81.2015 79.2687 81.6347C79.5274 83.6714 79.7964 85.7071 80.0757 87.7417C80.1877 88.5677 80.5337 88.7137 81.1847 88.2037C82.5177 87.1587 83.8357 86.0947 85.1637 85.0427C85.8057 84.5347 86.3427 84.5127 86.7157 84.9687C86.8054 85.0876 86.8674 85.225 86.8971 85.371C86.9269 85.5169 86.9237 85.6676 86.8877 85.8121C86.8518 85.9566 86.784 86.0913 86.6894 86.2063C86.5948 86.3213 86.4757 86.4137 86.3407 86.4767C85.1017 87.4767 83.8507 88.4577 82.6077 89.4507C81.0537 90.6927 80.1657 90.6937 78.6247 89.4087C78.0657 89.7207 77.4937 90.0547 76.9097 90.3627C75.8468 90.96 74.6028 91.1499 73.4101 90.8968C72.2174 90.6438 71.1576 89.9652 70.4287 88.9877C69.7347 88.0971 69.0504 87.1971 68.3757 86.2877C68.2714 86.1963 68.1884 86.083 68.1329 85.9559C68.0774 85.8288 68.0507 85.6909 68.0546 85.5523C68.0585 85.4136 68.093 85.2775 68.1556 85.1537C68.2183 85.0299 68.3075 84.9215 68.4169 84.8361C68.5262 84.7508 68.6531 84.6907 68.7884 84.6601C68.9238 84.6295 69.0642 84.6292 69.1996 84.6591C69.3351 84.6891 69.4622 84.7486 69.572 84.8334C69.6818 84.9182 69.7715 85.0262 69.8347 85.1497C70.5177 86.0497 71.1967 86.9497 71.8997 87.8367C72.362 88.4807 73.05 88.9268 73.8265 89.0862C74.6031 89.2456 75.4112 89.1065 76.0897 88.6967C76.5017 88.4381 76.9288 88.2043 77.3687 87.9967C77.5085 87.9566 77.6385 87.8881 77.7506 87.7955C77.8626 87.7028 77.9544 87.5881 78.0201 87.4584C78.0858 87.3286 78.124 87.1868 78.1324 87.0416C78.1408 86.8965 78.1191 86.7511 78.0687 86.6147C77.8687 85.4787 77.7357 84.3297 77.5737 83.1867C77.5501 83.1467 77.5204 83.1106 77.4857 83.0797C77.2247 83.0967 76.9267 83.1257 76.6277 83.1297C76.0724 83.159 75.5202 83.0291 75.0362 82.7552C74.5522 82.4813 74.1566 82.0749 73.8957 81.5837C73.3087 80.5637 72.7397 79.5307 72.1167 78.4257ZM64.8957 86.1427C64.5587 86.2347 64.3417 86.3047 64.1187 86.3527C63.8701 86.4137 63.6175 86.4575 63.3627 86.4837C63.225 86.5194 63.0812 86.5247 62.9412 86.4992C62.8013 86.4736 62.6686 86.4179 62.5524 86.3358C62.4361 86.2538 62.3392 86.1474 62.2683 86.0241C62.1974 85.9007 62.1542 85.7634 62.1417 85.6217C62.1478 85.3535 62.257 85.098 62.4466 84.9083C62.6362 84.7185 62.8916 84.6091 63.1597 84.6027C63.8747 84.4536 64.5371 84.1167 65.0787 83.6267C66.0071 82.5767 66.5274 81.2282 66.5447 79.8267C66.5662 77.5922 65.7035 75.4399 64.1447 73.8387C63.9273 73.6082 63.7576 73.3369 63.6455 73.0405C63.5335 72.7441 63.4812 72.4284 63.4917 72.1117C63.5207 69.2867 63.5007 66.4627 63.5057 63.6377C63.5057 63.1687 63.4587 62.7077 62.8897 62.6587C62.2667 62.6047 61.6347 62.6457 60.9677 62.6457C60.9677 63.0377 60.9677 63.3187 60.9677 63.5997C60.9677 65.4997 61.0027 67.3997 60.9557 69.2997C60.9574 69.8762 60.8446 70.4472 60.6239 70.9798C60.4033 71.5123 60.0791 71.9958 59.6702 72.4021C59.2613 72.8084 58.7758 73.1295 58.2419 73.3468C57.7079 73.5641 57.1362 73.6733 56.5598 73.668C55.9833 73.6627 55.4137 73.5431 54.8838 73.316C54.354 73.0889 53.8745 72.7589 53.4731 72.3452C53.0717 71.9314 52.7565 71.4421 52.5456 70.9056C52.3348 70.3691 52.2325 69.796 52.2447 69.2197C52.2207 67.3197 52.2447 65.4197 52.2397 63.5197C52.2397 63.2467 52.2397 62.9727 52.2397 62.6307C51.7157 62.6307 51.2857 62.6307 50.8557 62.6307C49.8387 62.6357 49.6977 62.7707 49.6957 63.7897C49.6957 66.3057 49.6517 68.8237 49.7147 71.3377C49.7518 71.8793 49.6794 72.4228 49.5019 72.9358C49.3245 73.4488 49.0455 73.9208 48.6817 74.3237C47.2986 75.8438 46.5712 77.8483 46.6577 79.9017C46.7857 82.7807 48.1507 84.2947 50.9797 84.6477C51.1034 84.6476 51.2258 84.6724 51.3397 84.7206C51.4536 84.7688 51.5566 84.8394 51.6427 84.9282C51.7287 85.017 51.796 85.1223 51.8406 85.2376C51.8851 85.353 51.906 85.4761 51.9019 85.5997C51.8979 85.7233 51.8691 85.8449 51.8171 85.9571C51.7652 86.0693 51.6912 86.1699 51.5995 86.253C51.5079 86.336 51.4005 86.3997 51.2837 86.4404C51.1669 86.4811 51.0431 86.4979 50.9197 86.4897C50.5614 86.4949 50.2033 86.4678 49.8497 86.4087C49.3357 86.3267 48.8267 86.2087 48.3077 86.1027V102.183H64.8957V86.1427ZM53.6787 38.3307C52.5759 38.9318 51.6255 39.7775 50.9004 40.803C50.1752 41.8286 49.6947 43.0066 49.4957 44.2467C49.2691 46.5159 49.2023 48.7982 49.2957 51.0767C49.3229 52.6011 49.8316 54.0779 50.7491 55.2955C51.6666 56.5132 52.9459 57.4094 54.4037 57.8557C55.8331 58.3033 57.3652 58.3024 58.794 57.8531C60.2228 57.4038 61.4798 56.5278 62.3957 55.3427C63.6863 53.5233 64.2214 51.2744 63.8887 49.0687C63.8574 48.7967 63.7374 48.5427 63.5472 48.3457C63.3571 48.1487 63.1074 48.0197 62.8367 47.9787C62.3427 47.8477 61.8417 47.7297 61.3637 47.5517C58.2347 46.3887 56.2947 44.0037 54.8637 41.1217C54.4237 40.2307 54.0847 39.2947 53.6787 38.3307ZM44.7787 79.0307C45.0365 76.6636 46.0137 74.4323 47.5787 72.6377C47.744 72.3861 47.8249 72.0884 47.8097 71.7877C47.8297 69.4017 47.8267 67.0147 47.8247 64.6287C47.8247 64.4127 47.7907 64.1987 47.7667 63.9217C46.1779 64.2974 44.7929 65.2666 43.8957 66.6307C42.3571 68.8707 40.8201 71.1117 39.2847 73.3537C39.0137 73.7537 38.7517 74.1537 38.4547 74.5947L44.7787 79.0307ZM37.3847 76.1207C35.6727 78.6317 33.9847 81.0477 32.3777 83.5207C32.0651 84.0771 31.9034 84.7055 31.9087 85.3437C31.8627 87.0497 33.0647 87.9827 34.1797 88.8157C35.5897 87.6837 36.9677 86.5867 38.3277 85.4667C38.3898 85.3933 38.4359 85.3076 38.4629 85.2153C38.4899 85.123 38.4974 85.0261 38.4847 84.9307C38.429 84.3804 38.5001 83.8246 38.6927 83.3061C38.8853 82.7876 39.1942 82.3202 39.5957 81.9397C40.3907 81.1067 41.1447 80.2397 41.9557 79.3397L37.3847 76.1207ZM94.2577 77.7697H94.2637C94.2637 77.0257 94.2807 76.2807 94.2637 75.5367C94.2665 74.8625 94.0014 74.2149 93.5266 73.7362C93.0519 73.2575 92.4064 72.987 91.7322 72.9842C91.0581 72.9814 90.4104 73.2466 89.9317 73.7213C89.453 74.1961 89.1825 74.8415 89.1797 75.5157C89.1517 77.0551 89.1517 78.5947 89.1797 80.1347C89.1899 80.7992 89.4603 81.4332 89.9328 81.9006C90.4054 82.3679 91.0424 82.6312 91.7069 82.6339C92.3715 82.6367 93.0107 82.3786 93.4871 81.9153C93.9635 81.4519 94.2391 80.8201 94.2547 80.1557C94.2777 79.3577 94.2537 78.5617 94.2537 77.7657L94.2577 77.7697ZM90.0227 84.1827V102.183H91.2877V84.4527L90.0227 84.1827ZM46.4087 88.6227C46.2687 86.6227 46.8487 84.6617 45.5397 82.9647C45.4299 82.8212 45.359 82.6517 45.3337 82.4727C45.2027 81.3667 44.3237 80.9627 43.5337 80.4727C41.6787 82.0617 40.3827 83.7507 40.3707 84.6417C43.3277 84.4117 44.4357 87.0037 46.4087 88.6227ZM59.0797 59.9127H54.0957C54.0957 60.7957 54.0507 61.7447 54.1067 62.6877C54.1435 63.3229 54.4192 63.9207 54.8785 64.361C55.3377 64.8014 55.9466 65.0517 56.5827 65.0617C57.2062 65.0642 57.8076 64.8317 58.2674 64.4107C58.7271 63.9897 59.0115 63.4109 59.0637 62.7897C59.1467 61.8307 59.0797 60.8487 59.0797 59.9127ZM59.0797 66.1667C58.3396 66.6543 57.4742 66.917 56.5879 66.9232C55.7017 66.9295 54.8326 66.6789 54.0857 66.2017C54.0857 66.6017 54.0857 66.8807 54.0857 67.1587C54.0857 67.9277 54.0497 68.7007 54.1047 69.4657C54.1468 70.1001 54.4267 70.6953 54.8885 71.1322C55.3503 71.5692 55.96 71.8158 56.5957 71.8227C57.2187 71.8234 57.819 71.5892 58.2769 71.1667C58.7347 70.7443 59.0164 70.1647 59.0657 69.5437C59.1487 68.4787 59.0817 67.4027 59.0817 66.1657L59.0797 66.1667ZM47.3307 49.4177C46.7675 49.4976 46.2579 49.7949 45.9112 50.2459C45.5645 50.697 45.4081 51.2659 45.4757 51.8307C45.5361 52.369 45.8021 52.8632 46.2182 53.21C46.6343 53.5568 47.1684 53.7294 47.7087 53.6917L47.3307 49.4177ZM87.5027 73.6407C87.2484 73.5275 86.9637 73.5021 86.6934 73.5686C86.4231 73.635 86.1826 73.7895 86.0097 74.0077C85.7403 74.4956 85.5972 75.0432 85.5935 75.6005C85.5898 76.1579 85.7257 76.7073 85.9887 77.1987C86.3677 77.4716 86.7831 77.6901 87.2227 77.8477C87.3217 76.3497 87.4077 75.0607 87.5027 73.6407ZM44.0347 38.8407L45.4017 34.6057C44.8874 34.5668 44.3755 34.7086 43.9545 35.0068C43.5335 35.3049 43.2298 35.7406 43.0957 36.2387C42.9276 36.7147 42.9292 37.2343 43.1003 37.7092C43.2715 38.1842 43.6016 38.5854 44.0347 38.8447V38.8407ZM100.526 59.1307C101.135 59.4755 101.842 59.606 102.533 59.5014C103.225 59.3968 103.862 59.0631 104.342 58.5537C104.813 58.0395 105.107 57.387 105.179 56.6929C105.251 55.9988 105.098 55.2999 104.742 54.6997C104.233 53.8126 103.853 52.8573 103.615 51.8627C103.251 49.9239 103.044 47.9588 102.997 45.9867C102.905 43.7512 103.351 41.5264 104.297 39.4987C105.532 36.9987 103.897 34.6777 101.111 34.6707C96.4108 34.6607 91.7197 34.6707 87.0237 34.6707C84.7657 34.6707 82.5077 34.6477 80.2497 34.6797C79.7723 34.6665 79.2978 34.7592 78.8603 34.9511C78.4229 35.143 78.0334 35.4294 77.7198 35.7898C77.4063 36.1501 77.1764 36.5754 77.0467 37.0352C76.917 37.4949 76.8907 37.9776 76.9697 38.4487C77.0397 39.0227 77.3017 39.5727 77.4267 40.1427C77.5184 40.4425 77.5236 40.7621 77.4417 41.0647C76.3505 43.5877 75.6602 46.2656 75.3957 49.0017C75.1377 52.0917 75.5857 55.0017 77.6957 57.4467C77.9248 57.7342 78.2086 57.9733 78.5308 58.1503C78.8529 58.3272 79.207 58.4385 79.5725 58.4775C79.938 58.5166 80.3076 58.4827 80.6599 58.3779C81.0121 58.273 81.3401 58.0993 81.6247 57.8667C81.7627 57.7667 81.8947 57.6567 82.0247 57.5517L81.9837 57.7597C83.0347 58.2027 84.0607 58.7227 85.1427 59.0597C86.1517 59.3787 86.7087 59.0957 86.8327 58.4447C86.9477 57.8447 86.5697 57.5017 85.5417 57.2677C84.7486 57.1638 84.0074 56.8156 83.4211 56.2714C82.8348 55.7272 82.4324 55.014 82.2697 54.2307C82.0947 53.4037 81.9277 52.5747 81.8017 51.7387C81.8135 51.5983 81.7957 51.4569 81.7494 51.3238C81.7032 51.1906 81.6295 51.0687 81.5332 50.9658C81.4369 50.8629 81.3201 50.7813 81.1903 50.7264C81.0605 50.6714 80.9207 50.6443 80.7797 50.6467C80.6367 50.658 80.4982 50.7018 80.3746 50.7748C80.2511 50.8477 80.1458 50.9479 80.0669 51.0677C79.9879 51.1874 79.9373 51.3236 79.9189 51.4659C79.9005 51.6082 79.9148 51.7528 79.9607 51.8887C80.1607 53.0737 80.4227 54.2507 80.7317 55.4117C80.8467 55.8417 80.9067 56.2297 80.4737 56.3777C80.0843 56.49 79.6711 56.49 79.2817 56.3777C79.0417 56.2296 78.8491 56.0159 78.7267 55.7617C77.4741 53.8844 76.944 51.6168 77.2347 49.3787C77.4623 46.9487 78.0389 44.5642 78.9467 42.2987C78.9699 42.1506 79.0229 42.0087 79.1026 41.8817C79.1822 41.7547 79.2868 41.6451 79.4101 41.5598C79.5333 41.4744 79.6726 41.4149 79.8195 41.385C79.9665 41.3551 80.1179 41.3553 80.2647 41.3857C80.8279 41.4253 81.393 41.4297 81.9567 41.3987C82.0897 41.42 82.2257 41.4124 82.3555 41.3764C82.4853 41.3404 82.6058 41.2768 82.7089 41.1901C82.8119 41.1034 82.895 40.9955 82.9527 40.8737C83.0103 40.752 83.041 40.6193 83.0427 40.4846C83.0445 40.3499 83.0172 40.2165 82.9627 40.0933C82.9083 39.9701 82.828 39.8601 82.7272 39.7707C82.6264 39.6814 82.5076 39.6147 82.3788 39.5754C82.25 39.5361 82.1142 39.5249 81.9807 39.5427C81.2367 39.5277 80.4917 39.5097 79.7487 39.5427C79.5725 39.5675 79.3935 39.5242 79.248 39.4216C79.1026 39.3191 79.0016 39.165 78.9657 38.9907C78.5267 37.7407 78.8797 36.4957 80.6087 36.5057C87.4087 36.5447 94.2087 36.5217 101.009 36.5237C101.24 36.5171 101.471 36.5322 101.699 36.5687C102.043 36.6305 102.351 36.8218 102.559 37.1033C102.767 37.3848 102.86 37.7352 102.818 38.0827C102.696 39.1477 102.341 39.5307 101.465 39.5307C101.08 39.5127 100.695 39.5244 100.313 39.5657C100.196 39.5681 100.081 39.5961 99.9755 39.6479C99.8704 39.6996 99.778 39.7738 99.7048 39.8652C99.6315 39.9565 99.5792 40.0629 99.5516 40.1767C99.5239 40.2905 99.5216 40.4089 99.5447 40.5237C99.7065 40.8947 100.004 41.1896 100.377 41.3477C100.757 41.445 101.152 41.4761 101.543 41.4397C101.489 41.8267 101.443 42.1267 101.405 42.4277C100.84 47.0017 100.857 51.4997 103.156 55.6967C103.313 55.9368 103.382 56.2241 103.35 56.5093C103.319 56.7945 103.189 57.0599 102.983 57.2597C102.791 57.4716 102.532 57.6112 102.25 57.6552C101.967 57.6993 101.678 57.6451 101.431 57.5017C100.351 57.0062 99.4451 56.1976 98.8307 55.1807C97.8948 53.5224 97.3333 51.6792 97.1857 49.7807C97.2003 49.6393 97.183 49.4965 97.135 49.3627C97.0869 49.2289 97.0095 49.1076 96.9083 49.0078C96.8071 48.908 96.6848 48.8321 96.5504 48.7859C96.416 48.7397 96.2729 48.7242 96.1317 48.7407C95.9958 48.7534 95.8643 48.7961 95.7468 48.8656C95.6293 48.9352 95.5286 49.03 95.4521 49.1431C95.3756 49.2563 95.3251 49.3849 95.3043 49.5199C95.2835 49.6549 95.2929 49.7928 95.3317 49.9237C95.4943 52.0271 96.1009 54.072 97.1117 55.9237C97.2516 56.0718 97.3454 56.2573 97.3817 56.4577C97.418 56.6581 97.3953 56.8648 97.3162 57.0525C97.2372 57.2402 97.1052 57.4008 96.9364 57.5149C96.7677 57.6289 96.5694 57.6914 96.3657 57.6947C95.8974 57.7743 95.4169 57.7434 94.9626 57.6045C94.5082 57.4656 94.0926 57.2226 93.7487 56.8947C93.557 56.7703 93.4027 56.5961 93.3025 56.3907C93.2022 56.1852 93.1598 55.9564 93.1797 55.7287C93.2027 51.2287 93.1927 46.7377 93.1937 42.2427C93.1937 41.9927 93.2147 41.7427 93.2287 41.4537H95.6768C95.6028 42.0477 95.5307 42.5767 95.4717 43.1077C95.4128 43.6387 95.3457 44.1787 95.3167 44.7167C95.2793 44.8538 95.2724 44.9974 95.2965 45.1374C95.3206 45.2774 95.375 45.4104 95.4561 45.5271C95.5371 45.6438 95.6427 45.7413 95.7655 45.8128C95.8883 45.8842 96.0253 45.9279 96.1667 45.9407C96.3079 45.9338 96.4462 45.8986 96.5734 45.8372C96.7007 45.7758 96.8143 45.6895 96.9076 45.5834C97.0009 45.4772 97.0719 45.3534 97.1164 45.2193C97.1609 45.0852 97.178 44.9436 97.1667 44.8027C97.3288 43.5027 97.4997 42.2077 97.6987 40.9157C97.7689 40.7469 97.7919 40.5623 97.7653 40.3815C97.7386 40.2006 97.6634 40.0304 97.5476 39.889C97.4318 39.7477 97.2797 39.6404 97.1077 39.5787C96.9356 39.517 96.75 39.5032 96.5707 39.5387C95.3687 39.5207 94.1627 39.5307 92.9567 39.5307C91.5667 39.5307 91.3367 39.7567 91.3367 41.1307C91.3367 50.4301 91.3367 59.7301 91.3367 69.0307C91.2902 69.2561 91.3078 69.4899 91.3877 69.7057C91.6046 70.0444 91.9367 70.293 92.3227 70.4057C92.6922 70.2531 92.9912 69.9677 93.1607 69.6057C93.2339 69.36 93.2462 69.1002 93.1967 68.8487C93.1967 65.8174 93.1967 62.7861 93.1967 59.7547C93.1967 59.4857 93.2207 59.2167 93.2387 58.8377C95.3387 60.0167 97.2387 60.0147 98.8627 58.1647C99.4647 58.5107 99.9767 58.8577 100.526 59.1307ZM81.1757 46.6307C81.0344 46.6323 80.8949 46.663 80.7659 46.7208C80.6369 46.7787 80.5212 46.8625 80.4259 46.967C80.3307 47.0715 80.258 47.1944 80.2124 47.3282C80.1668 47.4621 80.1492 47.6038 80.1607 47.7447C80.1497 47.8718 80.1651 47.9997 80.2061 48.1205C80.2471 48.2412 80.3127 48.3521 80.3989 48.4461C80.485 48.5402 80.5897 48.6153 80.7064 48.6667C80.8231 48.7181 80.9492 48.7447 81.0767 48.7447C81.2218 48.731 81.3628 48.6886 81.4913 48.6199C81.6199 48.5513 81.7336 48.4577 81.8257 48.3448C81.9178 48.2318 81.9865 48.1017 82.0279 47.962C82.0693 47.8222 82.0825 47.6756 82.0667 47.5307C82.0617 47.2951 81.9665 47.0705 81.8008 46.903C81.635 46.7356 81.4113 46.6381 81.1757 46.6307ZM54.9657 85.5937C54.9817 86.2037 55.3897 86.5017 56.2177 86.5037C57.0687 86.5037 57.5177 86.1717 57.4987 85.5417C57.4847 84.9417 57.0737 84.6497 56.2427 84.6477C55.3647 84.6467 54.9497 84.9547 54.9657 85.5937ZM58.5757 49.6157C58.5647 49.7395 58.5807 49.8641 58.6226 49.9811C58.6645 50.098 58.7313 50.2045 58.8185 50.293C58.9056 50.3816 59.0109 50.4502 59.1272 50.494C59.2434 50.5378 59.3678 50.5558 59.4917 50.5467C59.6088 50.5562 59.7265 50.5409 59.8372 50.5017C59.9479 50.4625 60.049 50.4004 60.134 50.3194C60.219 50.2384 60.2859 50.1403 60.3303 50.0316C60.3747 49.9229 60.3957 49.8061 60.3917 49.6887C60.4072 49.5691 60.3973 49.4476 60.3628 49.332C60.3283 49.2164 60.2698 49.1094 60.1913 49.0179C60.1128 48.9263 60.0159 48.8523 59.9069 48.8006C59.7979 48.7489 59.6793 48.7207 59.5587 48.7177C59.4333 48.7026 59.3061 48.7146 59.1858 48.7531C59.0655 48.7916 58.9549 48.8557 58.8616 48.9408C58.7682 49.026 58.6944 49.1303 58.6451 49.2466C58.5957 49.3629 58.5721 49.4884 58.5757 49.6147V49.6157ZM53.6957 50.5497C53.8194 50.5601 53.9438 50.5434 54.0602 50.5006C54.1767 50.4578 54.2823 50.3901 54.3698 50.3021C54.4573 50.2142 54.5245 50.1081 54.5666 49.9915C54.6087 49.8748 54.6248 49.7503 54.6137 49.6267C54.6222 49.51 54.6061 49.3928 54.5662 49.2827C54.5264 49.1727 54.4638 49.0723 54.3826 48.988C54.3014 48.9037 54.2033 48.8376 54.0948 48.7937C53.9862 48.7499 53.8697 48.7295 53.7527 48.7337C53.6317 48.7194 53.5089 48.731 53.3927 48.7677C53.2764 48.8045 53.1694 48.8656 53.0785 48.9469C52.9877 49.0283 52.9153 49.128 52.866 49.2396C52.8167 49.3511 52.7918 49.4718 52.7927 49.5937C52.7816 49.7175 52.7969 49.8423 52.8377 49.9598C52.8784 50.0772 52.9436 50.1847 53.0289 50.2751C53.1143 50.3655 53.2179 50.4367 53.3328 50.484C53.4478 50.5314 53.5715 50.5538 53.6957 50.5497Z" fill="#159822"/>
</svg>
