<svg width="135" height="163" viewBox="0 0 135 163" fill="none" xmlns="http://www.w3.org/2000/svg">
<circle cx="67.5" cy="68.5" r="58" stroke="#D1D1D1"/>
<circle cx="67.5" cy="155.498" r="7.5" fill="#159822"/>
<path d="M132.5 68.498C132.5 104.397 103.399 133.498 67.5 133.498C31.6015 133.498 2.5 104.397 2.5 68.498C2.5 32.5995 31.6015 3.49805 67.5 3.49805C103.399 3.49805 132.5 32.5995 132.5 68.498ZM67.5 135.498C104.503 135.498 134.5 105.501 134.5 68.498C134.5 31.495 104.503 1.49805 67.5 1.49805C30.4969 1.49805 0.5 31.495 0.5 68.498C0.5 105.501 30.4969 135.498 67.5 135.498Z" fill="#159822" stroke="#159822"/>
<path fill-rule="evenodd" clip-rule="evenodd" d="M66 148.998L66 134.998L69 134.998L69 148.998L66 148.998Z" fill="#159822"/>
<path d="M36 60.5559V105.321C36 106.4 36.4288 107.436 37.1919 108.199C37.9551 108.962 38.9903 109.391 40.0696 109.391H94.3305C95.4098 109.391 96.4449 108.962 97.2081 108.199C97.9713 107.436 98.4 106.4 98.4 105.321V60.5559C98.4 59.4766 97.9713 58.4415 97.2081 57.6783C96.4449 56.9151 95.4098 56.4863 94.3305 56.4863H40.0696C38.9903 56.4863 37.9551 56.9151 37.1919 57.6783C36.4288 58.4415 36 59.4766 36 60.5559ZM95.687 60.5559V105.321C95.687 105.681 95.5441 106.026 95.2897 106.28C95.0353 106.535 94.6902 106.678 94.3305 106.678H40.0696C39.7098 106.678 39.3648 106.535 39.1104 106.28C38.856 106.026 38.713 105.681 38.713 105.321V60.5559C38.713 60.1961 38.856 59.8511 39.1104 59.5967C39.3648 59.3423 39.7098 59.1994 40.0696 59.1994H94.3305C94.6902 59.1994 95.0353 59.3423 95.2897 59.5967C95.5441 59.8511 95.687 60.1961 95.687 60.5559Z" fill="#159822"/>
<path d="M54.1988 28.7944C53.69 28.2858 53 28 52.2806 28C51.5611 28 50.8711 28.2858 50.3624 28.7944L40.8667 38.2901C40.488 38.6689 40.2299 39.1513 40.1249 39.6765C40.0199 40.2018 40.0727 40.7463 40.2767 41.2416C40.4807 41.7369 40.8268 42.1607 41.2712 42.4596C41.7157 42.7585 42.2387 42.9192 42.7743 42.9213H45.4958V51.0605C45.4958 51.78 45.7817 52.4701 46.2905 52.9789C46.7993 53.4877 47.4893 53.7735 48.2089 53.7735H56.348C57.0676 53.7735 57.7576 53.4877 58.2664 52.9789C58.7752 52.4701 59.0611 51.78 59.0611 51.0605V42.9213H61.7741C62.3106 42.9213 62.8351 42.7621 63.2812 42.464C63.7273 42.1659 64.0749 41.7422 64.2803 41.2465C64.4856 40.7508 64.5393 40.2053 64.4346 39.6791C64.33 39.1529 64.0717 38.6695 63.6923 38.2901L54.1988 28.7944ZM61.7826 40.2083H57.7045C57.3448 40.2083 56.9997 40.3512 56.7453 40.6056C56.4909 40.86 56.348 41.205 56.348 41.5648V51.0605H48.2089V41.5648C48.2089 41.205 48.066 40.86 47.8116 40.6056C47.5572 40.3512 47.2121 40.2083 46.8524 40.2083H42.7828L52.2785 30.7126L61.7805 40.2083H61.7826Z" fill="#159822"/>
<path d="M86.1909 28H78.0518C77.3323 28 76.6422 28.2858 76.1334 28.7946C75.6246 29.3034 75.3388 29.9935 75.3388 30.713V38.8522H72.6257C72.0892 38.8523 71.5647 39.0114 71.1187 39.3095C70.6726 39.6077 70.3249 40.0313 70.1196 40.527C69.9143 41.0227 69.8605 41.5682 69.9652 42.0944C70.0698 42.6206 70.3282 43.104 70.7075 43.4834L80.2032 52.9791C80.455 53.2312 80.754 53.4312 81.0831 53.5677C81.4123 53.7041 81.7651 53.7744 82.1214 53.7744C82.4777 53.7744 82.8305 53.7041 83.1596 53.5677C83.4888 53.4312 83.7878 53.2312 84.0396 52.9791L93.5352 43.4834C93.9146 43.104 94.1729 42.6206 94.2776 42.0944C94.3822 41.5682 94.3285 41.0227 94.1232 40.527C93.9179 40.0313 93.5702 39.6077 93.1241 39.3095C92.678 39.0114 92.1536 38.8523 91.617 38.8522H88.904V30.713C88.904 29.9935 88.6182 29.3034 88.1094 28.7946C87.6006 28.2858 86.9105 28 86.1909 28V28ZM91.617 41.5652L82.1214 51.0609L72.6257 41.5652H76.6953C76.8734 41.5652 77.0498 41.5301 77.2144 41.462C77.379 41.3938 77.5285 41.2939 77.6545 41.1679C77.7805 41.0419 77.8804 40.8924 77.9486 40.7278C78.0167 40.5632 78.0518 40.3868 78.0518 40.2087V30.713H86.1909V40.2087C86.1909 40.5685 86.3339 40.9135 86.5883 41.1679C86.8427 41.4223 87.1877 41.5652 87.5475 41.5652H91.617Z" fill="#159822"/>
<path d="M45.4953 87.6871C45.9585 87.6821 46.4174 87.5975 46.8519 87.437V101.252C46.8569 102.33 47.2873 103.362 48.0494 104.124C48.8115 104.886 49.8437 105.317 50.9214 105.322C51.9261 105.318 52.8933 104.94 53.6345 104.262C54.3727 104.945 55.3418 105.324 56.3475 105.322C57.4268 105.322 58.462 104.893 59.2251 104.13C59.9883 103.367 60.4171 102.332 60.4171 101.252V87.437C61.0291 87.6637 61.687 87.7383 62.3343 87.6544C62.9815 87.5704 63.5986 87.3304 64.1325 86.955C64.6664 86.5796 65.1011 86.0801 65.3991 85.4994C65.6971 84.9188 65.8495 84.2744 65.8432 83.6218V78.1914C65.8432 76.3926 65.1286 74.6674 63.8566 73.3954C62.5846 72.1234 60.8594 71.4088 59.0606 71.4088H59.0245C59.9224 70.2417 60.4117 68.8118 60.4171 67.3393C60.4171 65.5404 59.7025 63.8152 58.4305 62.5432C57.1585 61.2712 55.4333 60.5566 53.6345 60.5566C51.8356 60.5566 50.1104 61.2712 48.8384 62.5432C47.5665 63.8152 46.8519 65.5404 46.8519 67.3393C46.8573 68.8118 47.3466 70.2417 48.2444 71.4088H48.2084C46.4095 71.4088 44.6843 72.1234 43.4124 73.3954C42.1404 74.6674 41.4258 76.3926 41.4258 78.1914V83.6175C41.4258 84.6968 41.8545 85.7319 42.6177 86.4951C43.3809 87.2583 44.416 87.6871 45.4953 87.6871ZM49.5649 67.3393C49.5649 66.5344 49.8036 65.7476 50.2508 65.0783C50.6979 64.4091 51.3335 63.8875 52.0771 63.5795C52.8207 63.2714 53.639 63.1909 54.4284 63.3479C55.2178 63.5049 55.943 63.8925 56.5121 64.4616C57.0812 65.0308 57.4688 65.7559 57.6259 66.5453C57.7829 67.3347 57.7023 68.153 57.3943 68.8966C57.0863 69.6402 56.5646 70.2758 55.8954 70.723C55.2262 71.1701 54.4394 71.4088 53.6345 71.4088C52.5552 71.4088 51.5201 70.9801 50.7569 70.2169C49.9937 69.4537 49.5649 68.4186 49.5649 67.3393ZM44.1388 78.1914C44.1388 77.1121 44.5676 76.077 45.3308 75.3138C46.094 74.5506 47.1291 74.1219 48.2084 74.1219H59.0606C59.5953 74.1207 60.125 74.2252 60.6192 74.4294C61.1135 74.6335 61.5626 74.9332 61.9407 75.3113C62.3188 75.6894 62.6185 76.1385 62.8226 76.6327C63.0268 77.127 63.1313 77.6567 63.1301 78.1914V83.6175C63.1301 83.7957 63.095 83.9721 63.0269 84.1366C62.9587 84.3012 62.8588 84.4508 62.7328 84.5767C62.6069 84.7027 62.4573 84.8026 62.2927 84.8708C62.1282 84.939 61.9518 84.974 61.7736 84.974C61.5955 84.974 61.4191 84.939 61.2545 84.8708C61.0899 84.8026 60.9404 84.7027 60.8144 84.5767C60.6884 84.4508 60.5885 84.3012 60.5203 84.1366C60.4522 83.9721 60.4171 83.7957 60.4171 83.6175V78.1914C60.4171 77.8317 60.2742 77.4866 60.0198 77.2322C59.7654 76.9778 59.4203 76.8349 59.0606 76.8349C58.7008 76.8349 58.3558 76.9778 58.1014 77.2322C57.847 77.4866 57.704 77.8317 57.704 78.1914V101.252C57.704 101.43 57.669 101.607 57.6008 101.771C57.5326 101.936 57.4327 102.086 57.3067 102.212C57.1808 102.337 57.0312 102.437 56.8666 102.506C56.7021 102.574 56.5257 102.609 56.3475 102.609C56.166 102.608 55.9864 102.57 55.8201 102.497C55.6539 102.425 55.5044 102.318 55.381 102.185C55.2561 102.062 55.1573 101.916 55.0903 101.754C55.0233 101.592 54.9895 101.419 54.991 101.244V87.6786C54.991 87.5005 54.9559 87.3241 54.8877 87.1595C54.8196 86.9949 54.7197 86.8454 54.5937 86.7194C54.4677 86.5934 54.3182 86.4935 54.1536 86.4253C53.989 86.3572 53.8126 86.3221 53.6345 86.3221C53.4563 86.3221 53.2799 86.3572 53.1154 86.4253C52.9508 86.4935 52.8012 86.5934 52.6753 86.7194C52.5493 86.8454 52.4494 86.9949 52.3812 87.1595C52.313 87.3241 52.278 87.5005 52.278 87.6786V101.244C52.278 101.604 52.135 101.949 51.8806 102.203C51.6262 102.457 51.2812 102.6 50.9214 102.6C50.7402 102.6 50.561 102.562 50.3951 102.489C50.2292 102.416 50.0801 102.309 49.957 102.176C49.8318 102.054 49.7326 101.908 49.6656 101.746C49.5986 101.584 49.565 101.41 49.567 101.235V78.1914C49.567 77.8317 49.4241 77.4866 49.1697 77.2322C48.9153 76.9778 48.5703 76.8349 48.2105 76.8349C47.8507 76.8349 47.5057 76.9778 47.2513 77.2322C46.9969 77.4866 46.854 77.8317 46.854 78.1914V83.6175C46.854 83.7957 46.8189 83.9721 46.7507 84.1366C46.6826 84.3012 46.5826 84.4508 46.4567 84.5767C46.3307 84.7027 46.1812 84.8026 46.0166 84.8708C45.852 84.939 45.6756 84.974 45.4975 84.974C45.3193 84.974 45.1429 84.939 44.9783 84.8708C44.8138 84.8026 44.6642 84.7027 44.5383 84.5767C44.4123 84.4508 44.3124 84.3012 44.2442 84.1366C44.176 83.9721 44.1409 83.7957 44.1409 83.6175L44.1388 78.1914Z" fill="#159822"/>
<path d="M72.6262 87.6871C73.0894 87.6821 73.5482 87.5975 73.9827 87.437V101.252C73.9877 102.33 74.4181 103.362 75.1802 104.124C75.9423 104.886 76.9745 105.317 78.0523 105.322C79.0569 105.318 80.0241 104.94 80.7653 104.262C81.5036 104.945 82.4727 105.324 83.4784 105.322C84.5577 105.322 85.5928 104.893 86.356 104.13C87.1192 103.367 87.548 102.332 87.548 101.252V87.437C88.16 87.6637 88.8179 87.7383 89.4651 87.6544C90.1124 87.5704 90.7295 87.3304 91.2634 86.955C91.7973 86.5796 92.2319 86.0801 92.5299 85.4994C92.8279 84.9188 92.9803 84.2744 92.974 83.6218V78.1914C92.974 76.3926 92.2594 74.6674 90.9875 73.3954C89.7155 72.1234 87.9903 71.4088 86.1914 71.4088H86.1554C87.0532 70.2417 87.5425 68.8118 87.548 67.3393C87.548 65.5404 86.8334 63.8152 85.5614 62.5432C84.2894 61.2712 82.5642 60.5566 80.7653 60.5566C78.9665 60.5566 77.2413 61.2712 75.9693 62.5432C74.6973 63.8152 73.9827 65.5404 73.9827 67.3393C73.9881 68.8118 74.4774 70.2417 75.3753 71.4088H75.3393C73.5404 71.4088 71.8152 72.1234 70.5432 73.3954C69.2712 74.6674 68.5566 76.3926 68.5566 78.1914V83.6175C68.5566 84.6968 68.9854 85.7319 69.7486 86.4951C70.5118 87.2583 71.5469 87.6871 72.6262 87.6871ZM76.6958 67.3393C76.6958 66.5344 76.9345 65.7476 77.3816 65.0783C77.8288 64.4091 78.4644 63.8875 79.208 63.5795C79.9516 63.2714 80.7699 63.1909 81.5593 63.3479C82.3487 63.5049 83.0738 63.8925 83.643 64.4616C84.2121 65.0308 84.5997 65.7559 84.7567 66.5453C84.9137 67.3347 84.8331 68.153 84.5251 68.8966C84.2171 69.6402 83.6955 70.2758 83.0263 70.723C82.357 71.1701 81.5702 71.4088 80.7653 71.4088C79.686 71.4088 78.6509 70.9801 77.8877 70.2169C77.1245 69.4537 76.6958 68.4186 76.6958 67.3393ZM71.2697 78.1914C71.2697 77.1121 71.6984 76.077 72.4616 75.3138C73.2248 74.5506 74.2599 74.1219 75.3393 74.1219H86.1914C86.7262 74.1207 87.2559 74.2252 87.7501 74.4294C88.2444 74.6335 88.6934 74.9332 89.0715 75.3113C89.4497 75.6894 89.7494 76.1385 89.9535 76.6327C90.1576 77.127 90.2621 77.6567 90.261 78.1914V83.6175C90.261 83.9773 90.1181 84.3223 89.8637 84.5767C89.6093 84.8311 89.2642 84.974 88.9045 84.974C88.5447 84.974 88.1997 84.8311 87.9453 84.5767C87.6909 84.3223 87.548 83.9773 87.548 83.6175V78.1914C87.548 77.8317 87.405 77.4866 87.1506 77.2322C86.8962 76.9778 86.5512 76.8349 86.1914 76.8349C85.8317 76.8349 85.4866 76.9778 85.2322 77.2322C84.9778 77.4866 84.8349 77.8317 84.8349 78.1914V101.252C84.8349 101.612 84.692 101.957 84.4376 102.212C84.1832 102.466 83.8382 102.609 83.4784 102.609C83.2968 102.608 83.1173 102.57 82.951 102.497C82.7847 102.425 82.6352 102.318 82.5119 102.185C82.387 102.062 82.2881 101.916 82.2211 101.754C82.1541 101.592 82.1204 101.419 82.1219 101.244V87.6786C82.1219 87.3188 81.9789 86.9738 81.7245 86.7194C81.4701 86.465 81.1251 86.3221 80.7653 86.3221C80.4056 86.3221 80.0605 86.465 79.8061 86.7194C79.5517 86.9738 79.4088 87.3188 79.4088 87.6786V101.244C79.4088 101.604 79.2659 101.949 79.0115 102.203C78.7571 102.457 78.4121 102.6 78.0523 102.6C77.8711 102.6 77.6919 102.562 77.526 102.489C77.3601 102.416 77.2109 102.309 77.0879 102.176C76.9626 102.054 76.8635 101.908 76.7965 101.746C76.7294 101.584 76.6959 101.41 76.6979 101.235V78.1914C76.6979 77.8317 76.555 77.4866 76.3006 77.2322C76.0462 76.9778 75.7011 76.8349 75.3414 76.8349C74.9816 76.8349 74.6366 76.9778 74.3822 77.2322C74.1278 77.4866 73.9848 77.8317 73.9848 78.1914V83.6175C73.9848 83.9773 73.8419 84.3223 73.5875 84.5767C73.3331 84.8311 72.9881 84.974 72.6283 84.974C72.2686 84.974 71.9235 84.8311 71.6691 84.5767C71.4147 84.3223 71.2718 83.9773 71.2718 83.6175L71.2697 78.1914Z" fill="#159822"/>
</svg>
