<svg width="135" height="161" viewBox="0 0 135 161" fill="none" xmlns="http://www.w3.org/2000/svg">
<circle cx="67.5" cy="66.5" r="58.5" fill="#D1D1D1"/>
<circle cx="67.5" cy="153.5" r="7.5" fill="#159822"/>
<path fill-rule="evenodd" clip-rule="evenodd" d="M67.5 132C103.675 132 133 102.675 133 66.5C133 30.3253 103.675 1 67.5 1C31.3253 1 2 30.3253 2 66.5C2 102.675 31.3253 132 67.5 132ZM67.5 133C104.227 133 134 103.227 134 66.5C134 29.7731 104.227 0 67.5 0C30.7731 0 1 29.7731 1 66.5C1 103.227 30.7731 133 67.5 133Z" fill="#D1D1D1"/>
<path fill-rule="evenodd" clip-rule="evenodd" d="M2.97794 67C2.97794 102.635 31.8654 131.522 67.5 131.522C103.135 131.522 132.022 102.635 132.022 67H135C135 104.279 104.779 134.5 67.5 134.5C30.2208 134.5 0 104.279 0 67H2.97794Z" fill="#159822"/>
<path fill-rule="evenodd" clip-rule="evenodd" d="M66 147L66 133L69 133L69 147L66 147Z" fill="#159822"/>
<path fill-rule="evenodd" clip-rule="evenodd" d="M98.952 36.171C99.2399 36.171 99.516 36.0566 99.7196 35.8531C99.9231 35.6495 100.037 35.3734 100.037 35.0855C100.037 34.7976 99.9231 34.5215 99.7196 34.3179C99.516 34.1144 99.2399 34 98.952 34H70.937C69.8628 33.9992 68.8268 34.3985 68.031 35.12L36.788 63.373C36.2254 63.8823 35.7757 64.5037 35.4678 65.1973C35.1599 65.8908 35.0005 66.6412 35 67.4V70.9C35 71.1875 35.1142 71.4632 35.3175 71.6665C35.5208 71.8698 35.7965 71.984 36.084 71.984C36.3715 71.984 36.6472 71.8698 36.8505 71.6665C37.0538 71.4632 37.168 71.1875 37.168 70.9V67.4C37.1685 66.9448 37.2641 66.4948 37.4487 66.0787C37.6333 65.6626 37.9028 65.2898 38.24 64.984L42.588 61.053V86.092H36.088C35.8002 86.092 35.5243 86.2063 35.3208 86.4098C35.1173 86.6133 35.003 86.8892 35.003 87.177C35.003 87.4648 35.1173 87.7407 35.3208 87.9442C35.5243 88.1477 35.8002 88.262 36.088 88.262H37.168V96.944C37.1685 97.519 37.397 98.0704 37.8035 98.4771C38.2099 98.8839 38.761 99.1129 39.336 99.114H97.868C98.443 99.1129 98.9941 98.8839 99.4005 98.4771C99.807 98.0704 100.035 97.519 100.036 96.944V55.705C100.036 55.1298 99.8073 54.5782 99.4009 54.1712C98.9945 53.7642 98.4432 53.5351 97.868 53.534H91.36V36.171H98.947H98.952ZM70.937 36.171H78.36V53.534H71.86C71.5721 53.534 71.296 53.6484 71.0924 53.8519C70.8889 54.0555 70.7745 54.3316 70.7745 54.6195C70.7745 54.9074 70.8889 55.1835 71.0924 55.3871C71.296 55.5906 71.5721 55.705 71.86 55.705H72.944V63.305C72.9437 63.5925 72.8295 63.8682 72.6263 64.0716C72.4231 64.275 72.1475 64.3895 71.86 64.39H68.602V37.528L69.485 36.728C69.883 36.3683 70.4006 36.1698 70.937 36.171ZM62.098 64.386H59.93C59.6421 64.386 59.366 64.5004 59.1624 64.7039C58.9589 64.9075 58.8445 65.1836 58.8445 65.4715C58.8445 65.7594 58.9589 66.0355 59.1624 66.2391C59.366 66.4426 59.6421 66.557 59.93 66.557H61.014V74.157C61.014 74.4446 60.8998 74.7204 60.6966 74.9239C60.4933 75.1273 60.2176 75.2417 59.93 75.242H56.679V48.31L66.434 39.492V64.392H62.098V64.386ZM44.76 59.092L54.516 50.271V75.238H48.016C47.7282 75.238 47.4523 75.3523 47.2488 75.5558C47.0453 75.7593 46.931 76.0352 46.931 76.323C46.931 76.6108 47.0453 76.8867 47.2488 77.0902C47.4523 77.2937 47.7282 77.408 48.016 77.408H49.1V85.008C49.0997 85.151 49.0712 85.2926 49.0161 85.4246C48.961 85.5566 48.8803 85.6764 48.7787 85.7771C48.6772 85.8778 48.5567 85.9575 48.4243 86.0115C48.2918 86.0656 48.15 86.0929 48.007 86.092H44.76V59.092ZM78.36 96.943C77.7848 96.9419 77.2335 96.7128 76.8271 96.3058C76.4207 95.8988 76.1923 95.3472 76.192 94.772V88.261H87.032V94.772C87.0317 95.3479 86.8028 95.9001 86.3955 96.3072C85.9882 96.7143 85.4359 96.943 84.86 96.943H78.36ZM79.413 81.372C77.1072 80.6332 75.0475 79.2776 73.457 77.452C72.0068 75.511 71.1125 73.2118 70.87 70.801C73.1763 71.5389 75.2364 72.8942 76.827 74.72C78.2767 76.6616 79.1707 78.9611 79.413 81.372ZM79.853 75.417C79.8091 74.8129 79.8151 74.2061 79.871 73.603C80.2278 70.925 81.3195 68.3982 83.025 66.303C84.3018 68.6834 84.897 71.37 84.745 74.067C84.7083 74.4545 84.6455 74.839 84.557 75.218C83.8943 76.4462 83.3999 77.758 83.087 79.118C83.081 79.132 83.087 79.147 83.077 79.161C82.879 80.0127 82.7427 80.8777 82.669 81.749H81.634C81.4594 79.5426 80.8544 77.3918 79.853 75.418V75.417ZM87.475 74.717C89.0684 72.8933 91.129 71.5387 93.435 70.799C93.193 73.2096 92.2971 75.5084 90.844 77.447C89.2499 79.2699 87.1896 80.6244 84.884 81.365C85.1272 78.956 86.0234 76.6591 87.476 74.722L87.475 74.717ZM89.196 83.917V86.092H74.021V83.92H89.197L89.196 83.917ZM97.867 96.94H88.593C88.9823 96.2825 89.1895 95.5331 89.193 94.769V88.261C89.7677 88.2597 90.3184 88.0307 90.7245 87.6241C91.1307 87.2176 91.3592 86.6667 91.36 86.092V83.92C91.3595 83.345 91.131 82.7936 90.7245 82.3869C90.3181 81.9801 89.767 81.7511 89.192 81.75H89.155C90.4359 80.9681 91.577 79.9774 92.531 78.819C94.5642 76.0664 95.6738 72.7409 95.701 69.319C95.6985 69.1605 95.6613 69.0046 95.592 68.862C95.5227 68.7195 95.423 68.5939 95.2999 68.4941C95.1768 68.3943 95.0334 68.3227 94.8796 68.2843C94.7259 68.2459 94.5656 68.2417 94.41 68.272C91.6289 68.9048 89.0547 70.2353 86.93 72.138C86.6751 69.178 85.7027 66.3247 84.097 63.825C84.0076 63.694 83.8905 63.5843 83.754 63.5036C83.6174 63.4229 83.4649 63.3732 83.307 63.358C83.1494 63.344 82.9906 63.3642 82.8415 63.4172C82.6924 63.4702 82.5565 63.5547 82.443 63.665C80.0778 66.1298 78.4737 69.2245 77.823 72.578C75.6294 70.4368 72.8845 68.9465 69.894 68.273C69.7384 68.2427 69.5781 68.2469 69.4244 68.2853C69.2706 68.3237 69.1272 68.3953 69.0041 68.4951C68.881 68.5949 68.7813 68.7205 68.712 68.863C68.6427 69.0056 68.6055 69.1615 68.603 69.32C68.6297 72.742 69.7395 76.0676 71.773 78.82C72.7266 79.9784 73.8674 80.9691 75.148 81.751H74.021C73.446 81.7521 72.8949 81.9811 72.4885 82.3879C72.0821 82.7946 71.8535 83.346 71.853 83.921V86.092C71.8533 86.6671 72.0817 87.2186 72.4882 87.6254C72.8946 88.0323 73.4459 88.2612 74.021 88.262V94.772C74.0248 95.5361 74.2319 96.2854 74.621 96.943H39.336V88.261H48.007C48.8699 88.2599 49.6972 87.9165 50.3071 87.306C50.917 86.6955 51.2597 85.8679 51.26 85.005V77.405H59.93C60.7926 77.4037 61.6194 77.0602 62.2291 76.45C62.8388 75.8398 63.1815 75.0126 63.182 74.15V66.55H71.853C72.7157 66.5484 73.5425 66.2047 74.1522 65.5943C74.7618 64.984 75.1045 64.1567 75.105 63.294V55.694H97.868V96.934L97.867 96.94ZM89.197 53.534H80.525V36.171H89.197V53.534Z" fill="#159822"/>
</svg>
