<svg width="135" height="161" viewBox="0 0 135 161" fill="none" xmlns="http://www.w3.org/2000/svg">
<circle cx="67.5" cy="66.5" r="58.5" fill="#D1D1D1"/>
<circle cx="67.5" cy="153.5" r="7.5" fill="#159822"/>
<path fill-rule="evenodd" clip-rule="evenodd" d="M67.5 132C103.675 132 133 102.675 133 66.5C133 30.3253 103.675 1 67.5 1C31.3253 1 2 30.3253 2 66.5C2 102.675 31.3253 132 67.5 132ZM67.5 133C104.227 133 134 103.227 134 66.5C134 29.7731 104.227 0 67.5 0C30.7731 0 1 29.7731 1 66.5C1 103.227 30.7731 133 67.5 133Z" fill="#D1D1D1"/>
<path fill-rule="evenodd" clip-rule="evenodd" d="M2.97794 67C2.97794 102.635 31.8654 131.522 67.5 131.522C103.135 131.522 132.022 102.635 132.022 67H135C135 104.279 104.779 134.5 67.5 134.5C30.2208 134.5 0 104.279 0 67H2.97794Z" fill="#159822"/>
<path fill-rule="evenodd" clip-rule="evenodd" d="M66 147L66 133L69 133L69 147L66 147Z" fill="#159822"/>
<path fill-rule="evenodd" clip-rule="evenodd" d="M61.3195 86.4214C61.0248 86.4219 60.7423 86.5394 60.5341 86.7481C60.326 86.9568 60.2092 87.2396 60.2095 87.5344V88.6474C60.2033 89.5525 60.4751 90.4378 60.9881 91.1835C61.5012 91.9293 62.2307 92.4996 63.0783 92.8173C63.9259 93.1351 64.8506 93.1851 65.7274 92.9605C66.6043 92.7359 67.3911 92.2475 67.9815 91.5614C68.5723 92.246 69.3587 92.733 70.2349 92.9567C71.111 93.1804 72.0347 93.13 72.8814 92.8124C73.728 92.4948 74.4569 91.9252 74.9698 91.1805C75.4826 90.4357 75.7548 89.5516 75.7495 88.6474V87.5354C75.7495 87.2409 75.6325 86.9584 75.4242 86.7501C75.216 86.5419 74.9335 86.4249 74.639 86.4249C74.3445 86.4249 74.062 86.5419 73.8538 86.7501C73.6455 86.9584 73.5285 87.2409 73.5285 87.5354V88.6484C73.5348 88.9439 73.482 89.2378 73.3732 89.5127C73.2644 89.7876 73.1019 90.038 72.8951 90.2492C72.6882 90.4605 72.4413 90.6283 72.1688 90.7429C71.8963 90.8575 71.6036 90.9165 71.308 90.9165C71.0124 90.9165 70.7197 90.8575 70.4472 90.7429C70.1747 90.6283 69.9278 90.4605 69.7209 90.2492C69.5141 90.038 69.3516 89.7876 69.2428 89.5127C69.134 89.2378 69.0812 88.9439 69.0875 88.6484V85.0984C69.4789 84.9543 69.8322 84.7228 70.1205 84.4214L71.7825 82.6404C72.0904 82.324 72.2977 81.9235 72.3781 81.4894C72.4586 81.0553 72.4086 80.6071 72.2345 80.2014C72.0029 79.7166 71.635 79.3098 71.176 79.0306C70.7169 78.7515 70.1865 78.612 69.6495 78.6294H66.3165C65.7782 78.6105 65.246 78.7491 64.7854 79.0284C64.3248 79.3076 63.9557 79.7153 63.7235 80.2014C63.5497 80.6071 63.4998 81.0551 63.58 81.4891C63.6603 81.9231 63.8671 82.3237 64.1745 82.6404L65.8385 84.4214C66.1261 84.7226 66.4788 84.9542 66.8695 85.0984V88.6474C66.8758 88.9429 66.823 89.2368 66.7142 89.5117C66.6054 89.7866 66.4429 90.037 66.2361 90.2482C66.0292 90.4595 65.7823 90.6273 65.5098 90.7419C65.2373 90.8565 64.9446 90.9155 64.649 90.9155C64.3534 90.9155 64.0607 90.8565 63.7882 90.7419C63.5157 90.6273 63.2688 90.4595 63.0619 90.2482C62.8551 90.037 62.6926 89.7866 62.5838 89.5117C62.475 89.2368 62.4222 88.9429 62.4285 88.6474V87.5354C62.429 87.2406 62.3125 86.9577 62.1046 86.7488C61.8966 86.54 61.6142 86.4222 61.3195 86.4214ZM65.7595 81.0914C65.8228 81.0056 65.908 80.9384 66.0061 80.8969C66.1043 80.8554 66.2119 80.841 66.3175 80.8554H69.6495C70.0285 80.8554 70.1935 81.0404 70.1685 81.1184L68.5065 82.8994C68.3549 83.009 68.1726 83.068 67.9855 83.068C67.7984 83.068 67.6161 83.009 67.4645 82.8994L65.7595 81.0914ZM53.9495 74.8304C55.9255 74.0554 57.4985 73.9644 58.6265 74.5624C59.4145 75.0175 59.9915 75.7648 60.2325 76.6424C60.2632 76.785 60.3216 76.9202 60.4045 77.0402C60.4874 77.1602 60.5932 77.2627 60.7157 77.3419C60.8382 77.4211 60.9751 77.4753 61.1186 77.5016C61.2621 77.5278 61.4094 77.5255 61.552 77.4949C61.6946 77.4642 61.8298 77.4058 61.9498 77.3229C62.0698 77.24 62.1724 77.1342 62.2515 77.0117C62.3307 76.8892 62.3849 76.7522 62.4112 76.6087C62.4374 76.4653 62.4352 76.318 62.4045 76.1754C62.2176 75.431 61.8821 74.7322 61.4181 74.1209C60.9541 73.5096 60.3712 72.9985 59.7045 72.6184C57.9775 71.6864 55.7705 71.7334 53.1435 72.7614C52.889 72.8819 52.6896 73.0943 52.5855 73.356C52.4814 73.6176 52.4804 73.909 52.5826 74.1714C52.6848 74.4338 52.8827 74.6476 53.1363 74.7699C53.39 74.8922 53.6806 74.9138 53.9495 74.8304ZM73.2975 77.4914C73.4403 77.5216 73.5877 77.5233 73.7312 77.4966C73.8747 77.4698 74.0115 77.415 74.1338 77.3353C74.2561 77.2556 74.3615 77.1526 74.444 77.0322C74.5265 76.9117 74.5844 76.7762 74.6145 76.6334C74.8515 75.7657 75.4201 75.0258 76.1975 74.5734C77.3265 73.9634 78.9075 74.0504 80.8975 74.8294C81.1725 74.9367 81.4789 74.9303 81.7492 74.8117C82.0196 74.6931 82.2317 74.4719 82.339 74.1969C82.4463 73.9219 82.4399 73.6155 82.3213 73.3451C82.2027 73.0748 81.9815 72.8627 81.7065 72.7554C79.0805 71.7274 76.8735 71.6804 75.1455 72.6114C74.479 72.9917 73.8962 73.5029 73.4322 74.1141C72.9683 74.7254 72.6326 75.4241 72.4455 76.1684C72.4145 76.3114 72.4121 76.4591 72.4383 76.6031C72.4645 76.7471 72.5189 76.8845 72.5984 77.0074C72.6778 77.1303 72.7807 77.2363 72.9012 77.3194C73.0217 77.4024 73.1574 77.4609 73.3005 77.4914H73.2975ZM39.1135 76.4024C40.1241 76.4035 41.1337 76.4669 42.1365 76.5924C41.6153 78.3372 41.3459 80.1474 41.3365 81.9684V81.9754C40.3356 82.2717 39.3807 82.7059 38.4995 83.2654C38.2534 83.4285 38.0821 83.6827 38.0234 83.9721C37.9647 84.2614 38.0234 84.5623 38.1865 84.8084C38.3496 85.0545 38.6038 85.2257 38.8932 85.2844C39.1825 85.3431 39.4834 85.2845 39.7295 85.1214C40.2876 84.7638 40.8865 84.4744 41.5135 84.2594C41.7078 85.6127 42.0943 86.9314 42.6615 88.1754C41.6465 88.8433 40.7986 89.7357 40.1834 90.7835C39.5682 91.8313 39.2021 93.0065 39.1135 94.2184C39.1135 97.6514 42.5135 99.7834 47.9955 99.7834C50.467 99.9359 52.9217 99.2874 54.9955 97.9344C59.2059 99.2026 63.5846 99.8233 67.9815 99.7754C72.3782 99.8206 76.7562 99.1972 80.9655 97.9264C83.0393 99.2794 85.494 99.9278 87.9655 99.7754C93.4445 99.7754 96.8475 97.6434 96.8475 94.2104C96.7579 93 96.3915 91.8263 95.7766 90.78C95.1616 89.7336 94.3144 88.8425 93.3005 88.1754C93.868 86.9314 94.2549 85.6128 94.4495 84.2594C95.0768 84.4745 95.676 84.7638 96.2345 85.1214C96.356 85.2084 96.4938 85.2701 96.6396 85.3027C96.7855 85.3353 96.9364 85.3382 97.0834 85.3112C97.2304 85.2843 97.3705 85.228 97.4952 85.1457C97.62 85.0634 97.7269 84.9569 97.8096 84.8324C97.8923 84.7079 97.9491 84.568 97.9766 84.4211C98.0041 84.2742 98.0017 84.1233 97.9695 83.9773C97.9374 83.8314 97.8762 83.6934 97.7896 83.5716C97.7031 83.4498 97.5928 83.3467 97.4655 83.2684C96.5843 82.7089 95.6294 82.2747 94.6285 81.9784V81.9684C94.6196 80.1474 94.3502 78.3371 93.8285 76.5924C94.8313 76.4673 95.8409 76.4038 96.8515 76.4024C97.1468 76.4021 97.4299 76.2845 97.6386 76.0755C97.8472 75.8665 97.9643 75.5832 97.964 75.2879C97.9637 74.9926 97.8462 74.7094 97.6372 74.5008C97.4281 74.2922 97.1448 74.1751 96.8495 74.1754C95.5821 74.1755 94.3163 74.2651 93.0615 74.4434C92.5949 73.2962 92.0427 72.1857 91.4095 71.1214C92.1395 68.7444 95.0015 58.7424 92.5345 55.3314C92.277 54.9571 91.9311 54.6521 91.5274 54.4437C91.1237 54.2352 90.6748 54.1296 90.2205 54.1364C88.5671 54.2623 86.9597 54.7396 85.5055 55.5364C82.6645 51.5154 77.6555 48.6874 71.9495 47.7754C71.9307 46.2589 71.7409 44.7493 71.3835 43.2754C71.2612 42.6696 71.307 42.0418 71.5159 41.4602C71.7248 40.8785 72.0888 40.365 72.5685 39.9754C73.9495 39.0434 76.2115 40.4904 77.1195 41.1554C77.4727 41.4255 77.8764 41.6224 78.3068 41.7343C78.7372 41.8462 79.1856 41.871 79.6257 41.8072C80.0658 41.7434 80.4887 41.5922 80.8695 41.3626C81.2504 41.133 81.5815 40.8296 81.8434 40.4703C82.1054 40.1109 82.2928 39.7028 82.3948 39.2699C82.4968 38.8371 82.5112 38.3882 82.4372 37.9497C82.3633 37.5112 82.2024 37.0919 81.9641 36.7164C81.7258 36.341 81.4148 36.017 81.0495 35.7634C74.9555 31.2914 70.4915 33.3344 68.8495 34.4244C67.237 35.5793 66.0029 37.1861 65.3029 39.0419C64.6029 40.8977 64.4685 42.9192 64.9165 44.8514C65.1373 45.7543 65.265 46.6774 65.2975 47.6064C59.0575 48.2694 53.5065 51.2114 50.4615 55.5334C49.0163 54.7417 47.4194 54.2662 45.7765 54.1384C45.3211 54.1321 44.8711 54.2383 44.4666 54.4476C44.062 54.657 43.7154 54.9629 43.4575 55.3384C40.9995 58.7314 43.8495 68.7044 44.5745 71.0754C43.932 72.1542 43.372 73.28 42.8995 74.4434C41.6453 74.2658 40.3802 74.1762 39.1135 74.1754C38.8182 74.1754 38.535 74.2927 38.3261 74.5015C38.1173 74.7103 38 74.9936 38 75.2889C38 75.5842 38.1173 75.8674 38.3261 76.0762C38.535 76.2851 38.8182 76.4024 39.1135 76.4024ZM41.3345 94.2134C41.3345 91.7074 44.4085 88.6474 47.9955 88.6474C51.5825 88.6474 54.6575 91.7074 54.6575 94.2134C54.6575 95.8334 53.1645 96.7644 51.2275 97.2134C51.2912 96.9602 51.3248 96.7004 51.3275 96.4394V94.2134C51.3275 93.9189 51.2105 93.6364 51.0022 93.4281C50.794 93.2199 50.5115 93.1029 50.217 93.1029C49.9225 93.1029 49.64 93.2199 49.4318 93.4281C49.2235 93.6364 49.1065 93.9189 49.1065 94.2134V96.4394C49.1065 96.7339 48.9895 97.0164 48.7812 97.2246C48.573 97.4329 48.2905 97.5499 47.996 97.5499C47.7015 97.5499 47.419 97.4329 47.2108 97.2246C47.0025 97.0164 46.8855 96.7339 46.8855 96.4394V94.2134C46.8855 93.9189 46.7685 93.6364 46.5602 93.4281C46.352 93.2199 46.0695 93.1029 45.775 93.1029C45.4805 93.1029 45.198 93.2199 44.9898 93.4281C44.7815 93.6364 44.6645 93.9189 44.6645 94.2134V96.4394C44.6673 96.7004 44.7008 96.9602 44.7645 97.2134C42.8275 96.7654 41.3345 95.8344 41.3345 94.2134ZM94.6275 94.2134C94.6275 95.8334 93.1345 96.7644 91.1975 97.2134C91.2609 96.9602 91.2945 96.7004 91.2975 96.4394V94.2134C91.2975 93.9189 91.1805 93.6364 90.9722 93.4281C90.764 93.2199 90.4815 93.1029 90.187 93.1029C89.8925 93.1029 89.61 93.2199 89.4018 93.4281C89.1935 93.6364 89.0765 93.9189 89.0765 94.2134V96.4394C89.0765 96.7339 88.9595 97.0164 88.7512 97.2246C88.543 97.4329 88.2605 97.5499 87.966 97.5499C87.6715 97.5499 87.389 97.4329 87.1808 97.2246C86.9725 97.0164 86.8555 96.7339 86.8555 96.4394V94.2134C86.8555 93.9189 86.7385 93.6364 86.5302 93.4281C86.322 93.2199 86.0395 93.1029 85.745 93.1029C85.4505 93.1029 85.168 93.2199 84.9598 93.4281C84.7515 93.6364 84.6345 93.9189 84.6345 94.2134V96.4394C84.6372 96.7004 84.6707 96.9602 84.7345 97.2134C82.7975 96.7644 81.3045 95.8334 81.3045 94.2134C81.3045 91.7074 84.3785 88.6474 87.9665 88.6474C91.5545 88.6474 94.6275 91.7094 94.6275 94.2134ZM67.0715 44.3214C66.7222 42.8329 66.8217 41.2743 67.3574 39.8423C67.8931 38.4103 68.841 37.1691 70.0815 36.2754C71.6325 35.2474 74.9495 34.0444 79.7395 37.5604C79.8577 37.6464 79.9578 37.7548 80.0341 37.8795C80.1103 38.0042 80.1613 38.1427 80.1841 38.2871C80.2068 38.4315 80.2009 38.579 80.1666 38.7211C80.1324 38.8632 80.0705 38.9972 79.9845 39.1154C79.8985 39.2336 79.79 39.3337 79.6653 39.4099C79.5406 39.4862 79.4021 39.5372 79.2577 39.5599C79.1133 39.5827 78.9659 39.5768 78.8238 39.5425C78.6817 39.5083 78.5477 39.4464 78.4295 39.3604C75.6725 37.3384 73.1505 36.9034 71.3295 38.1304C70.4711 38.7751 69.8161 39.653 69.4425 40.6595C69.0689 41.666 68.9926 42.7587 69.2225 43.8074C69.5204 45.0267 69.69 46.2738 69.7285 47.5284C69.1495 47.4894 68.5685 47.4604 67.9815 47.4604C67.8235 47.4604 67.6685 47.4714 67.5115 47.4744C67.4712 46.4113 67.3238 45.3549 67.0715 44.3214ZM67.9815 49.6854C74.4545 49.6854 80.4065 52.3654 83.5265 56.5934C82.0385 57.4374 80.3965 58.4834 78.5775 59.7614C75.2496 58.2643 71.6422 57.4893 67.9931 57.4876C64.3439 57.4859 60.7358 58.2574 57.4065 59.7514C55.5785 58.4724 53.9305 57.4274 52.4395 56.5844C55.5495 52.3624 61.5025 49.6854 67.9815 49.6854ZM46.8415 70.8854C44.8065 64.6334 44.0935 58.2464 45.2495 56.6424C45.3028 56.5528 45.3797 56.4796 45.4717 56.4308C45.5638 56.382 45.6675 56.3593 45.7715 56.3654C47.356 56.5417 48.8812 57.0688 50.2365 57.9084C50.2465 57.9144 50.2505 57.9254 50.2605 57.9304C50.2966 57.9481 50.3337 57.9638 50.3715 57.9774C52.5458 59.16 54.6409 60.4828 56.6435 61.9374C56.8036 62.0517 56.9914 62.1213 57.1874 62.1389C57.3834 62.1564 57.5806 62.1214 57.7585 62.0374C60.9519 60.5078 64.4479 59.7147 67.9886 59.7164C71.5294 59.7181 75.0246 60.5147 78.2165 62.0474C78.3949 62.133 78.5931 62.1689 78.7902 62.1513C78.9874 62.1337 79.1761 62.0633 79.3365 61.9474C84.3095 58.3994 88.2755 56.3654 90.2175 56.3654C90.3203 56.3596 90.4228 56.3821 90.5137 56.4304C90.6047 56.4787 90.6807 56.5509 90.7335 56.6394C91.8995 58.2514 91.1835 64.6604 89.1395 70.9244C89.0888 71.0792 89.0728 71.2433 89.0925 71.405C89.1122 71.5668 89.1671 71.7222 89.2535 71.8604C89.8502 72.8204 90.3752 73.8232 90.8245 74.8604C88.3759 75.3733 86.0483 76.3506 83.9675 77.7394C83.741 77.9191 83.5933 78.18 83.556 78.4667C83.5186 78.7535 83.5943 79.0435 83.7672 79.2753C83.9401 79.5071 84.1965 79.6625 84.482 79.7084C84.7675 79.7543 85.0596 79.6873 85.2965 79.5214C87.2245 78.2811 89.3689 77.4154 91.6175 76.9694C92.0664 78.4111 92.3236 79.9056 92.3825 81.4144C90.5594 81.069 88.7098 80.8823 86.8545 80.8564C86.5593 80.8564 86.2762 80.9736 86.0675 81.1824C85.8588 81.3911 85.7415 81.6742 85.7415 81.9694C85.7415 82.2646 85.8588 82.5477 86.0675 82.7564C86.2762 82.9651 86.5593 83.0824 86.8545 83.0824C88.6832 83.1152 90.5053 83.3103 92.2995 83.6654C92.1526 84.848 91.8339 86.0028 91.3535 87.0934C90.2777 86.6521 89.1263 86.4242 87.9635 86.4224C82.9635 86.4224 79.0815 90.6104 79.0815 94.2144C79.0776 94.8521 79.2081 95.4835 79.4645 96.0674C75.7228 97.0889 71.858 97.589 67.9795 97.5534C64.1007 97.589 60.2355 97.089 56.4935 96.0674C56.7499 95.4835 56.8804 94.8521 56.8765 94.2144C56.8765 90.6144 52.9975 86.4224 47.9945 86.4224C46.832 86.4242 45.681 86.6521 44.6055 87.0934C44.1251 86.0028 43.8064 84.848 43.6595 83.6654C45.454 83.3103 47.2765 83.1152 49.1055 83.0824C49.4007 83.0824 49.6838 82.9651 49.8925 82.7564C50.1012 82.5477 50.2185 82.2646 50.2185 81.9694C50.2185 81.6742 50.1012 81.3911 49.8925 81.1824C49.6838 80.9736 49.4007 80.8564 49.1055 80.8564C47.2498 80.8821 45.3999 81.0688 43.5765 81.4144C43.635 79.9059 43.8918 78.4117 44.3405 76.9704C46.5892 77.4162 48.7336 78.282 50.6615 79.5224C50.8982 79.6922 51.192 79.7623 51.4799 79.7178C51.7678 79.6732 52.0267 79.5174 52.2009 79.284C52.3751 79.0505 52.4508 78.758 52.4116 78.4694C52.3725 78.1807 52.2216 77.919 51.9915 77.7404C49.9102 76.3509 47.5819 75.3732 45.1325 74.8604C45.5874 73.8081 46.1202 72.7913 46.7265 71.8184C46.8132 71.6802 46.8684 71.5246 46.8883 71.3627C46.9081 71.2008 46.8922 71.0364 46.8415 70.8814V70.8854Z" fill="#159822"/>
</svg>
