<svg width="135" height="163" viewBox="0 0 135 163" fill="none" xmlns="http://www.w3.org/2000/svg">
<circle cx="67.5" cy="68.5" r="58" stroke="#D1D1D1"/>
<circle cx="67.5" cy="155.497" r="7.5" fill="#159822"/>
<path d="M132.5 68.4971C132.5 104.396 103.399 133.497 67.5 133.497C31.6015 133.497 2.5 104.396 2.5 68.4971C2.5 32.5986 31.6015 3.49707 67.5 3.49707C103.399 3.49707 132.5 32.5986 132.5 68.4971ZM67.5 135.497C104.503 135.497 134.5 105.5 134.5 68.4971C134.5 31.494 104.503 1.49707 67.5 1.49707C30.4969 1.49707 0.5 31.494 0.5 68.4971C0.5 105.5 30.4969 135.497 67.5 135.497Z" fill="#159822" stroke="#159822"/>
<path fill-rule="evenodd" clip-rule="evenodd" d="M66 148.997L66 134.997L69 134.997L69 148.997L66 148.997Z" fill="#159822"/>
<path d="M101.215 44.7306L67.381 33.0638C67.1345 32.9787 66.8668 32.9787 66.6203 33.0638L32.7863 44.7306C32.3159 44.8928 32.0001 45.3356 32 45.8332V101.834C32 102.479 32.5224 103.001 33.1667 103.001H39.0001C39.6444 103.001 40.1668 102.479 40.1668 101.834V65.6669H93.8345V101.834C93.8345 102.479 94.3569 103.001 95.0012 103.001H100.835C101.479 103.001 102.001 102.479 102.001 101.834V45.8332C102.001 45.3356 101.685 44.8928 101.215 44.7306ZM37.8334 64.5002V100.668H34.3334V56.3334H37.8334V64.5002ZM93.8345 63.3335H40.1668V61.0001H93.8345V63.3335ZM93.8345 58.6667H40.1668V56.3334H93.8345V58.6667ZM99.6679 100.668H96.1679V56.3334H99.6679V100.668ZM99.6679 54H34.3334V46.665L67.0006 35.4006L99.6679 46.665V54Z" fill="#159822"/>
<path d="M89.6884 83.2826L85.3716 81.1242L81.5215 73.4241C80.9293 72.2392 79.716 71.4929 78.3913 71.4991H55.6082C54.2814 71.4947 53.0676 72.2449 52.478 73.4334L48.6279 81.1336L44.3112 83.2919C43.9167 83.4891 43.6672 83.8916 43.666 84.3326V100.666C43.666 101.955 44.7106 103 45.9994 103H50.6661C51.9549 103 52.9995 101.955 52.9995 100.666V97.1662H81V100.666C81 101.955 82.0447 103 83.3334 103H88.0002C89.2889 103 90.3335 101.955 90.3335 100.666V84.3326C90.336 83.8883 90.0858 83.4811 89.6884 83.2826ZM54.5652 74.4776C54.7614 74.0812 55.1659 73.831 55.6082 73.8324H78.3913C78.8336 73.831 79.2382 74.0812 79.4343 74.4776L82.6124 80.8326H51.3872L54.5652 74.4776ZM50.6661 100.666H45.9994V97.1662H50.6661V100.666ZM88.0002 100.666H83.3334V97.1662H88.0002V100.666ZM88.0002 94.8328H51.8328H45.9994V85.0536L49.7748 83.1659H84.2248L88.0002 85.0536V94.8328Z" fill="#159822"/>
<path d="M54.1664 85.5H50.6664C49.3776 85.5 48.333 86.5446 48.333 87.8334V90.1668C48.333 91.4555 49.3776 92.5001 50.6664 92.5001H54.1664C55.4552 92.5001 56.4998 91.4555 56.4998 90.1668V87.8334C56.4998 86.5446 55.4552 85.5 54.1664 85.5ZM54.1664 90.1668H50.6664V87.8334H54.1664V90.1668Z" fill="#159822"/>
<path d="M83.3334 85.5H79.8334C78.5446 85.5 77.5 86.5446 77.5 87.8334V90.1668C77.5 91.4555 78.5446 92.5001 79.8334 92.5001H83.3334C84.6222 92.5001 85.6668 91.4555 85.6668 90.1668V87.8334C85.6668 86.5446 84.6222 85.5 83.3334 85.5ZM83.3334 90.1668H79.8334V87.8334H83.3334V90.1668Z" fill="#159822"/>
<path d="M72.8333 85.5H61.1664C59.8776 85.5 58.833 86.5446 58.833 87.8334V90.1668C58.833 91.4555 59.8776 92.5001 61.1664 92.5001H72.8333C74.122 92.5001 75.1666 91.4555 75.1666 90.1668V87.8334C75.1666 86.5446 74.122 85.5 72.8333 85.5ZM72.8333 90.1668H61.1664V87.8334H72.8333V90.1668Z" fill="#159822"/>
</svg>
