<svg width="135" height="161" viewBox="0 0 135 161" fill="none" xmlns="http://www.w3.org/2000/svg">
<circle cx="67.5" cy="66.5" r="58.5" fill="#D1D1D1"/>
<circle cx="67.5" cy="153.5" r="7.5" fill="#159822"/>
<path fill-rule="evenodd" clip-rule="evenodd" d="M67.5 132C103.675 132 133 102.675 133 66.5C133 30.3253 103.675 1 67.5 1C31.3253 1 2 30.3253 2 66.5C2 102.675 31.3253 132 67.5 132ZM67.5 133C104.227 133 134 103.227 134 66.5C134 29.7731 104.227 0 67.5 0C30.7731 0 1 29.7731 1 66.5C1 103.227 30.7731 133 67.5 133Z" fill="#D1D1D1"/>
<path fill-rule="evenodd" clip-rule="evenodd" d="M2.97794 67C2.97794 102.635 31.8654 131.522 67.5 131.522C103.135 131.522 132.022 102.635 132.022 67H135C135 104.279 104.779 134.5 67.5 134.5C30.2208 134.5 0 104.279 0 67H2.97794Z" fill="#159822"/>
<path fill-rule="evenodd" clip-rule="evenodd" d="M66 147L66 133L69 133L69 147L66 147Z" fill="#159822"/>
<path fill-rule="evenodd" clip-rule="evenodd" d="M107.613 81.7125L89.6004 76.0935V57.0585L91.8304 59.5245C91.9491 59.6555 92.0927 59.7617 92.2527 59.837C92.4127 59.9123 92.586 59.9551 92.7627 59.963C92.9393 59.9709 93.1158 59.9437 93.2819 59.883C93.448 59.8224 93.6004 59.7294 93.7304 59.6095C93.9945 59.3639 94.1515 59.0243 94.1674 58.6639C94.1833 58.3036 94.0569 57.9515 93.8154 57.6835L81.5754 44.1425C81.5754 44.1425 81.5674 44.1425 81.5654 44.1345C81.4572 44.0209 81.33 43.9271 81.1894 43.8575C81.1584 43.8415 81.1284 43.8255 81.0964 43.8115C81.0644 43.7975 81.0474 43.7835 81.0204 43.7745L56.7414 35.3185C56.4695 35.2246 56.1747 35.2207 55.9004 35.3073C55.6261 35.3939 55.387 35.5665 55.2184 35.7995L38.1524 59.1505C38.0263 59.324 37.9425 59.5246 37.9078 59.7363C37.8731 59.948 37.8883 60.1648 37.9524 60.3695C38.0154 60.5734 38.1256 60.7596 38.2739 60.913C38.4223 61.0664 38.6047 61.1827 38.8064 61.2525L42.8064 62.6185V75.3675L28.2144 79.8245C27.9391 79.9104 27.698 80.0811 27.5255 80.3123C27.353 80.5434 27.258 80.8231 27.254 81.1115C27.25 81.3998 27.3373 81.6821 27.5033 81.9179C27.6693 82.1537 27.9056 82.331 28.1784 82.4245L72.1924 97.2455C72.3297 97.2913 72.4736 97.3146 72.6184 97.3145C72.7779 97.3144 72.9361 97.2857 73.0854 97.2295L107.685 84.2925C107.95 84.1911 108.176 84.0101 108.334 83.7745C108.491 83.5388 108.571 83.2602 108.563 82.977C108.555 82.6939 108.46 82.4201 108.289 82.1936C108.119 81.9671 107.883 81.799 107.613 81.7125ZM81.9194 78.0125L76.8194 79.9185V66.8195L81.9194 64.7395V78.0165V78.0125ZM84.0194 61.5855C83.8372 61.4607 83.6269 61.3831 83.4074 61.3595C83.1879 61.336 82.9659 61.3672 82.7614 61.4505L74.9704 64.6365C74.7204 64.7399 74.5067 64.9152 74.3566 65.1403C74.2065 65.3654 74.1267 65.63 74.1274 65.9005V80.9295L69.7184 82.5785V61.5885L80.6704 47.1815L86.9104 54.0815V76.1505L84.6104 77.0095V62.7185C84.6112 62.4966 84.5579 62.2778 84.4551 62.081C84.3522 61.8843 84.2031 61.7156 84.0204 61.5895L84.0194 61.5855ZM56.8004 38.2205L78.3704 45.7335L62.5814 66.4995L41.4174 59.2685L56.8004 38.2205ZM62.6304 69.3995C62.8971 69.4899 63.1854 69.4941 63.4546 69.4116C63.7238 69.329 63.9602 69.1639 64.1304 68.9395L67.0224 65.1395V82.6455L45.5004 75.3995V63.5405L62.6304 69.3995ZM72.6004 94.5085L33.0564 81.1915L44.1284 77.8085L67.9434 85.8285C67.9574 85.8285 67.9724 85.8285 67.9874 85.8355C68.2531 85.9245 68.5414 85.9189 68.8034 85.8195C68.8144 85.8195 68.8254 85.8195 68.8364 85.8145L88.3004 78.5375L103.023 83.1315L72.6004 94.5085Z" fill="#159822"/>
</svg>
