<svg width="80" height="80" viewBox="0 0 80 80" fill="none" xmlns="http://www.w3.org/2000/svg">
<g clip-path="url(#clip0)">
<path d="M0.253155 7.33821L5.58852 16.6745C5.76848 16.99 6.06971 17.2183 6.42196 17.3066L11.3996 18.551L28.4718 35.6232L30.3581 33.7374L13.0187 16.3986C12.8481 16.2274 12.6341 16.1061 12.3998 16.0474L7.61698 14.8474L3.07447 6.89378L6.96899 2.99925L14.9259 7.54616L16.1265 12.329C16.1846 12.5638 16.3064 12.7784 16.4771 12.949L33.8164 30.2884L35.7023 28.402L18.6301 11.3299L17.3857 6.35498C17.2973 6.00218 17.0691 5.7004 16.7536 5.51989L7.41672 0.185076C6.89602 -0.111211 6.2409 -0.0234222 5.81622 0.39961L0.481406 5.73497C0.0523384 6.15691 -0.0409371 6.81313 0.253155 7.33821Z" fill="#159822"/>
<path d="M55.7055 26.2862L26.3627 55.6296L24.4763 53.7432L53.8197 24.4004L55.7055 26.2862Z" fill="#159822"/>
<path d="M21.227 56.6684C20.9856 56.2667 20.5521 56.0215 20.0835 56.0215H12.081C11.613 56.0215 11.179 56.2667 10.9381 56.6684L6.93662 63.337C6.68258 63.7595 6.68258 64.2879 6.93662 64.7109L10.9381 71.3795C11.179 71.7806 11.613 72.0264 12.081 72.0264H20.0835C20.5521 72.0264 20.9856 71.7806 21.227 71.3795L25.2279 64.7109C25.482 64.2879 25.482 63.7595 25.2279 63.337L21.227 56.6684ZM19.3291 69.3588H12.836L9.63503 64.024L12.836 58.6886H19.3291L22.5301 64.024L19.3291 69.3588Z" fill="#159822"/>
<path d="M64.098 32.0132C72.907 32.0429 80.0728 24.9254 80.1024 16.1163C80.1068 14.7754 79.9422 13.4399 79.6124 12.1401C79.4346 11.4251 78.7109 10.99 77.996 11.1678C77.7612 11.2265 77.5472 11.3478 77.376 11.5184L69.0734 19.8155L62.4859 17.6203L60.289 11.0345L68.5916 2.7302C69.1123 2.20895 69.1118 1.36454 68.5905 0.843839C68.4188 0.672102 68.2026 0.550295 67.9661 0.492135C59.4232 -1.67131 50.7447 3.5 48.5813 12.0424C48.2526 13.3384 48.0886 14.6706 48.093 16.0077C48.0963 17.0579 48.2043 18.1048 48.4172 19.133L19.2072 48.3425C18.1789 48.1301 17.1321 48.0221 16.0824 48.0182C7.24266 48.0182 0.0769043 55.184 0.0769043 64.0238C0.0769043 72.863 7.24266 80.0287 16.0824 80.0287C24.9217 80.0287 32.0874 72.863 32.0874 64.0238C32.0841 62.9736 31.9755 61.9267 31.7632 60.8985L38.7561 53.9056L41.8144 56.9639C42.3357 57.4846 43.1795 57.4846 43.7008 56.9639L44.3674 56.2967C44.9523 55.7156 45.8977 55.7156 46.4826 56.2967C47.0669 56.8794 47.068 57.8253 46.4853 58.4097C46.4848 58.4102 46.4837 58.4113 46.4826 58.4124L45.8159 59.0791C45.2952 59.5998 45.2952 60.4442 45.8159 60.9649L61.7266 76.8755C65.9113 81.0987 72.727 81.1294 76.9502 76.9446C81.1729 72.7598 81.2036 65.9436 77.0188 61.7209C76.9963 61.6979 76.9733 61.6749 76.9502 61.6518L61.0396 45.7417C60.5189 45.2211 59.6745 45.2211 59.1538 45.7417L58.4872 46.4084C57.9017 46.99 56.9569 46.99 56.3714 46.4084C55.7877 45.8257 55.786 44.8798 56.3687 44.296C56.3698 44.2949 56.3709 44.2943 56.3714 44.2932L57.0386 43.626C57.5593 43.1053 57.5593 42.2609 57.0386 41.7402L53.9803 38.6819L60.9732 31.689C62.0014 31.9013 63.0483 32.0099 64.098 32.0132ZM69.3384 77.3616C68.3694 77.36 67.4087 77.1849 66.5017 76.8442L76.9184 66.427C78.4904 70.6085 76.3752 75.2722 72.1937 76.8442C71.2813 77.1871 70.3139 77.3627 69.3384 77.3616ZM54.2283 42.6966C52.7513 44.4584 52.9828 47.0844 54.7446 48.5609C56.293 49.8585 58.5497 49.8574 60.0964 48.557L75.0644 63.5382C75.2268 63.7011 75.3788 63.8729 75.5259 64.0473L64.1221 75.4511C63.9471 75.3046 63.7753 75.1526 63.6124 74.9897L48.6329 60.0091C50.1099 58.2473 49.8784 55.6213 48.1166 54.1448C46.5682 52.8466 44.3109 52.8482 42.7642 54.1481L40.6304 52.0143L52.0939 40.5677L54.2283 42.6966ZM59.6141 29.2819L29.3572 59.5328C29.0252 59.8642 28.8919 60.3454 29.0049 60.8003C30.8348 67.9863 26.4925 75.2953 19.3059 77.1246C12.1199 78.9544 4.81091 74.6122 2.98107 67.4256C1.15177 60.2395 5.49402 52.9305 12.6806 51.1007C14.8545 50.5476 17.1321 50.5476 19.3059 51.1007C19.7608 51.2121 20.2409 51.0788 20.5734 50.749L50.8232 20.4975C51.1546 20.1661 51.2879 19.6849 51.1738 19.2306C49.3566 12.1285 53.6407 4.89803 60.7428 3.08026C62.0848 2.73733 63.473 2.60565 64.8557 2.69179L57.82 9.73025C57.4628 10.0869 57.3377 10.6153 57.4973 11.0943L60.1645 19.0973C60.2978 19.4951 60.6105 19.8079 61.0089 19.9401L69.0119 22.6078C69.4904 22.7674 70.0188 22.6429 70.3759 22.2862L77.4117 15.2505C77.4276 15.5051 77.4358 15.757 77.4358 16.0077C77.4731 23.3364 71.5627 29.3077 64.234 29.3456C63.101 29.351 61.9718 29.2117 60.8745 28.9308C60.4196 28.8172 59.9384 28.95 59.607 29.2814H59.6141V29.2819Z" fill="#159822"/>
<path d="M69.0437 67.0815L67.1574 68.9678L53.8201 55.6305L55.7059 53.7441L69.0437 67.0815Z" fill="#159822"/>
</g>
<defs>
<clipPath id="clip0">
<rect width="80" height="80" fill="white"/>
</clipPath>
</defs>
</svg>
