<svg width="135" height="161" viewBox="0 0 135 161" fill="none" xmlns="http://www.w3.org/2000/svg">
<circle cx="67.5" cy="66.5" r="58.5" fill="#D1D1D1"/>
<circle cx="67.5" cy="153.5" r="7.5" fill="#159822"/>
<path fill-rule="evenodd" clip-rule="evenodd" d="M67.5 132C103.675 132 133 102.675 133 66.5C133 30.3253 103.675 1 67.5 1C31.3253 1 2 30.3253 2 66.5C2 102.675 31.3253 132 67.5 132ZM67.5 133C104.227 133 134 103.227 134 66.5C134 29.7731 104.227 0 67.5 0C30.7731 0 1 29.7731 1 66.5C1 103.227 30.7731 133 67.5 133Z" fill="#D1D1D1"/>
<path fill-rule="evenodd" clip-rule="evenodd" d="M2.97794 67C2.97794 102.635 31.8654 131.522 67.5 131.522C103.135 131.522 132.022 102.635 132.022 67H135C135 104.279 104.779 134.5 67.5 134.5C30.2208 134.5 0 104.279 0 67H2.97794Z" fill="#159822"/>
<path fill-rule="evenodd" clip-rule="evenodd" d="M66 147L66 133L69 133L69 147L66 147Z" fill="#159822"/>
<path d="M40.6335 85.4021C40.0175 85.4021 39.5181 85.9015 39.5181 86.5176C39.5181 87.2146 38.951 87.7817 38.2539 87.7817C37.5568 87.7817 36.9897 87.2146 36.9897 86.5176C36.9897 85.8205 37.5568 85.2534 38.2539 85.2534C38.8699 85.2534 39.3693 84.7539 39.3693 84.1379C39.3693 83.5219 38.8699 83.0225 38.2539 83.0225C36.3267 83.0225 34.7588 84.5903 34.7588 86.5176C34.7588 88.4448 36.3267 90.0127 38.2539 90.0127C40.1811 90.0127 41.749 88.4448 41.749 86.5176C41.749 85.9015 41.2496 85.4021 40.6335 85.4021Z" fill="#159822"/>
<path d="M77.5181 84.213C76.902 84.213 76.4026 84.7124 76.4026 85.3285C76.4026 86.6816 75.3017 87.7825 73.9486 87.7825C72.5955 87.7825 71.4946 86.6816 71.4946 85.3285C71.4946 83.9753 72.5955 82.8745 73.9486 82.8745C74.5646 82.8745 75.064 82.375 75.064 81.759C75.064 81.143 74.5646 80.6436 73.9486 80.6436C71.3653 80.6436 69.2637 82.7452 69.2637 85.3285C69.2637 87.9117 71.3653 90.0134 73.9486 90.0134C76.5318 90.0134 78.6335 87.9117 78.6335 85.3285C78.6335 84.7124 78.1341 84.213 77.5181 84.213Z" fill="#159822"/>
<path d="M104.884 87.7827H87.037C86.996 87.7827 86.9627 87.7493 86.9627 87.7083V67.4813C86.9627 66.2102 85.9286 65.1761 84.6574 65.1761H82.2034V41.3053C82.2034 40.0341 81.1693 39 79.8981 39H72.7592C72.1432 39 71.6437 39.4994 71.6437 40.1155C71.6437 40.7315 72.1432 41.2309 72.7592 41.2309H75.2132V72.3775C74.7954 72.3374 74.3741 72.315 73.949 72.315C73.5225 72.315 73.101 72.3363 72.6848 72.3766V66.3769C72.6848 65.3472 72.4127 64.3316 71.8978 63.4397L63.1377 48.2659C62.1622 46.2494 60.0916 44.9491 57.8493 44.9491H40.634C38.7068 44.9491 37.1389 46.517 37.1389 48.4442V68.7455H35.8747C33.2915 68.7455 31.1898 70.8472 31.1898 73.4304V81.7592C31.1898 81.8945 31.2151 82.0238 31.2594 82.1438C30.4627 83.4132 30 84.9124 30 86.5185C30 91.07 33.7029 94.7729 38.2544 94.7729C42.0057 94.7729 45.1784 92.2565 46.1787 88.8237H62.2801C62.2827 88.8237 62.2851 88.8241 62.2876 88.8241C62.2898 88.8241 62.2919 88.8237 62.2941 88.8237H65.178C66.5705 92.3056 69.9759 94.7729 73.9489 94.7729C79.1564 94.7729 83.3931 90.5362 83.3931 85.3287C83.3931 83.6581 82.9552 82.0886 82.1911 80.7257C82.1982 80.6745 82.2033 80.6226 82.2033 80.5694V75.8685C82.2052 75.8311 82.205 75.7934 82.2033 75.7561V67.407H84.6573C84.6983 67.407 84.7316 67.4403 84.7316 67.4813V87.7083C84.7316 88.9795 85.7657 90.0136 87.0369 90.0136H104.884C105.5 90.0136 106 89.5141 106 88.8981C106 88.2821 105.5 87.7827 104.884 87.7827ZM79.8981 41.2309C79.9392 41.2309 79.9725 41.2642 79.9725 41.3053V65.1761H77.4441V41.2309H79.8981ZM61.1422 49.264C61.1552 49.2912 61.1691 49.318 61.1843 49.3442L69.6374 63.9862H52.4579V50.8238C52.4579 50.2078 51.9584 49.7084 51.3424 49.7084C50.7264 49.7084 50.227 50.2078 50.227 50.8238V63.9862H47.773C46.4198 63.9862 45.3189 62.8854 45.3189 61.5322V47.18H57.8493C59.25 47.18 60.5426 47.998 61.1422 49.264ZM39.3698 48.4442C39.3698 47.7471 39.9369 47.18 40.634 47.18H43.088V61.5322C43.088 64.1155 45.1897 66.2172 47.773 66.2172H70.3796C70.4029 66.2172 70.4257 66.2151 70.4486 66.2137C70.4509 66.268 70.4539 66.3225 70.4539 66.3769V72.7923C68.9159 73.2216 67.4922 73.927 66.2391 74.8515L62.5508 71.1631C60.9917 69.6041 58.9189 68.7455 56.7142 68.7455H39.3698V48.4442ZM38.2544 92.5419C34.933 92.5419 32.2309 89.8399 32.2309 86.5185C32.2309 83.1971 34.933 80.495 38.2544 80.495C41.5758 80.495 44.2779 83.1971 44.2779 86.5185C44.2779 89.8399 41.5758 92.5419 38.2544 92.5419ZM38.2544 78.2641C36.4502 78.2641 34.7806 78.8475 33.4207 79.8335V73.4304C33.4207 72.0773 34.5216 70.9764 35.8747 70.9764H56.7142C58.3231 70.9764 59.8357 71.603 60.9734 72.7406L64.5598 76.3271C62.3161 78.6663 60.9353 81.8392 60.9353 85.3287C60.9353 85.751 60.9568 86.1733 60.9974 86.5928H46.507C46.5071 86.568 46.5089 86.5435 46.5089 86.5185C46.5088 81.967 42.8059 78.2641 38.2544 78.2641ZM63.2427 86.5928C63.1939 86.1742 63.1663 85.7518 63.1663 85.3287C63.1663 79.383 68.0033 74.5459 73.949 74.5459C76.1207 74.5459 78.1912 75.1811 79.9725 76.3854V78.0606C78.3365 76.7024 76.2366 75.8844 73.949 75.8844C68.7415 75.8844 64.5048 80.1211 64.5048 85.3287C64.5048 85.7576 64.5362 86.1789 64.5918 86.5928H63.2427ZM73.949 92.5419C69.9716 92.5419 66.7357 89.3061 66.7357 85.3287C66.7357 81.3512 69.9716 78.1154 73.949 78.1154C77.9264 78.1154 81.1623 81.3512 81.1623 85.3287C81.1623 89.3061 77.9264 92.5419 73.949 92.5419ZM79.9725 73.7881C79.165 73.3647 78.3185 73.0317 77.4441 72.789V67.407H79.9725V73.7881Z" fill="#159822"/>
</svg>
