<svg width="135" height="161" viewBox="0 0 135 161" fill="none" xmlns="http://www.w3.org/2000/svg">
<circle cx="67.5" cy="66.5" r="58.5" fill="#D1D1D1"/>
<circle cx="67.5" cy="153.5" r="7.5" fill="#159822"/>
<path fill-rule="evenodd" clip-rule="evenodd" d="M67.5 132C103.675 132 133 102.675 133 66.5C133 30.3253 103.675 1 67.5 1C31.3253 1 2 30.3253 2 66.5C2 102.675 31.3253 132 67.5 132ZM67.5 133C104.227 133 134 103.227 134 66.5C134 29.7731 104.227 0 67.5 0C30.7731 0 1 29.7731 1 66.5C1 103.227 30.7731 133 67.5 133Z" fill="#D1D1D1"/>
<path fill-rule="evenodd" clip-rule="evenodd" d="M2.97794 67C2.97794 102.635 31.8654 131.522 67.5 131.522C103.135 131.522 132.022 102.635 132.022 67H135C135 104.279 104.779 134.5 67.5 134.5C30.2208 134.5 0 104.279 0 67H2.97794Z" fill="#159822"/>
<path fill-rule="evenodd" clip-rule="evenodd" d="M66 147L66 133L69 133L69 147L66 147Z" fill="#159822"/>
<path d="M62.5312 99.8125C66.3802 99.8125 69.5666 96.9541 70.1002 93.25H81.7659L80.3517 94.6642L81.8983 96.2108L85.1796 92.9296C85.3932 92.7159 85.5 92.4361 85.5 92.1562C85.5 91.8764 85.3932 91.5966 85.1796 91.3829L81.8983 88.1017L80.3517 89.6483L81.7659 91.0625H70.1002C69.5666 87.3584 66.3802 84.5 62.5312 84.5C58.3101 84.5 54.875 87.9345 54.875 92.1562C54.875 96.378 58.3101 99.8125 62.5312 99.8125ZM62.5312 86.6875C65.5465 86.6875 68 89.141 68 92.1562C68 95.1715 65.5465 97.625 62.5312 97.625C59.516 97.625 57.0625 95.1715 57.0625 92.1562C57.0625 89.141 59.516 86.6875 62.5312 86.6875Z" fill="#159822"/>
<path d="M93.1562 99.8125C97.3774 99.8125 100.812 96.378 100.812 92.1562C100.812 87.9345 97.3774 84.5 93.1562 84.5C88.9351 84.5 85.5 87.9345 85.5 92.1562C85.5 96.378 88.9351 99.8125 93.1562 99.8125ZM93.1562 86.6875C96.1715 86.6875 98.625 89.141 98.625 92.1562C98.625 95.1715 96.1715 97.625 93.1562 97.625C90.141 97.625 87.6875 95.1715 87.6875 92.1562C87.6875 89.141 90.141 86.6875 93.1562 86.6875Z" fill="#159822"/>
<path d="M58.1562 59.3438C54.3073 59.3438 51.121 62.2022 50.5874 65.9062H48.8594C41.3206 65.9062 35.1875 72.0394 35.1875 79.5781C35.1875 87.1169 41.3206 93.25 48.8594 93.25H51.1409L49.7267 94.6642L51.2733 96.2108L54.5546 92.9296C54.7682 92.7159 54.875 92.4361 54.875 92.1562C54.875 91.8764 54.7682 91.5966 54.5546 91.3829L51.2733 88.1017L49.7267 89.6483L51.1409 91.0625H48.8594C42.5265 91.0625 37.375 85.9104 37.375 79.5781C37.375 73.2458 42.5265 68.0938 48.8594 68.0938H50.5874C51.121 71.7978 54.3073 74.6562 58.1562 74.6562C62.3774 74.6562 65.8125 71.2217 65.8125 67C65.8125 62.7783 62.3774 59.3438 58.1562 59.3438ZM58.1562 72.4688C55.141 72.4688 52.6875 70.0153 52.6875 67C52.6875 63.9847 55.141 61.5312 58.1562 61.5312C61.1715 61.5312 63.625 63.9847 63.625 67C63.625 70.0153 61.1715 72.4688 58.1562 72.4688Z" fill="#159822"/>
<path d="M62.2108 37.7892L60.6642 39.3358L62.0784 40.75H50.4127C49.8791 37.0459 46.6927 34.1875 42.8438 34.1875C38.6226 34.1875 35.1875 37.622 35.1875 41.8438C35.1875 46.0655 38.6226 49.5 42.8438 49.5C46.6927 49.5 49.8791 46.6416 50.4127 42.9375H62.0784L60.6642 44.3517L62.2108 45.8983L65.4921 42.6171C65.7057 42.4034 65.8125 42.1236 65.8125 41.8438C65.8125 41.5639 65.7057 41.2841 65.4921 41.0704L62.2108 37.7892ZM42.8438 47.3125C39.8285 47.3125 37.375 44.859 37.375 41.8438C37.375 38.8285 39.8285 36.375 42.8438 36.375C45.859 36.375 48.3125 38.8285 48.3125 41.8438C48.3125 44.859 45.859 47.3125 42.8438 47.3125Z" fill="#159822"/>
<path d="M100.812 54.4219C100.812 46.8831 94.6794 40.75 87.1406 40.75H81.0377C80.5041 37.0459 77.3177 34.1875 73.4688 34.1875C69.2476 34.1875 65.8125 37.622 65.8125 41.8438C65.8125 46.0655 69.2476 49.5 73.4688 49.5C77.3177 49.5 80.5041 46.6416 81.0377 42.9375H87.1406C93.4735 42.9375 98.625 48.0896 98.625 54.4219C98.625 60.7542 93.4735 65.9062 87.1406 65.9062H69.5466L70.9608 64.4921L69.4142 62.9454L66.1329 66.2267C65.9193 66.4403 65.8125 66.7202 65.8125 67C65.8125 67.2798 65.9193 67.5597 66.1329 67.7733L69.4142 71.0546L70.9608 69.5079L69.5466 68.0938H87.1406C94.6794 68.0938 100.812 61.9606 100.812 54.4219ZM73.4688 47.3125C70.4535 47.3125 68 44.859 68 41.8438C68 38.8285 70.4535 36.375 73.4688 36.375C76.484 36.375 78.9375 38.8285 78.9375 41.8438C78.9375 44.859 76.484 47.3125 73.4688 47.3125Z" fill="#159822"/>
</svg>
