<svg width="135" height="162" viewBox="0 0 135 162" fill="none" xmlns="http://www.w3.org/2000/svg">
<circle cx="67.5" cy="67.5" r="58" stroke="#D1D1D1"/>
<circle cx="67.5" cy="154.5" r="7.5" fill="#159822"/>
<path d="M132.5 67.5C132.5 103.399 103.399 132.5 67.5 132.5C31.6015 132.5 2.5 103.399 2.5 67.5C2.5 31.6015 31.6015 2.5 67.5 2.5C103.399 2.5 132.5 31.6015 132.5 67.5ZM67.5 134.5C104.503 134.5 134.5 104.503 134.5 67.5C134.5 30.4969 104.503 0.5 67.5 0.5C30.4969 0.5 0.5 30.4969 0.5 67.5C0.5 104.503 30.4969 134.5 67.5 134.5Z" fill="#159822" stroke="#159822"/>
<path fill-rule="evenodd" clip-rule="evenodd" d="M66 148L66 134L69 134L69 148L66 148Z" fill="#159822"/>
<path d="M93.8785 37.791H89.798C89.1888 37.791 88.8031 38.1768 88.8031 38.6032H88.803V51.7992C88.803 52.3473 89.4527 52.6316 90.1226 52.6316C90.7723 52.6316 91.4422 52.3475 91.4422 51.7992V47.0893H93.7162C96.3959 47.0893 98.4871 45.8101 98.4871 42.4807V42.3591C98.4871 39.0295 96.4568 37.791 93.8785 37.791ZM95.8476 42.6838C95.8476 44.2673 95.0357 45.0186 93.716 45.0186H91.4422V40.1055H93.716C95.0357 40.1055 95.8476 40.8567 95.8476 42.4402V42.6838Z" fill="#159822"/>
<path d="M71.8518 42.9501C67.9978 39.0961 62.8738 36.9736 57.4233 36.9736C51.9729 36.9736 46.8489 39.0961 42.9949 42.9501C42.5297 43.4151 42.5297 44.1692 42.9949 44.6344C43.4599 45.0994 44.2139 45.0994 44.6789 44.6344C48.0831 41.2303 52.6091 39.3555 57.4232 39.3555C62.2373 39.3555 66.7634 41.2303 70.1674 44.6344C70.4001 44.8669 70.7049 44.9831 71.0096 44.9831C71.3143 44.9831 71.6191 44.8669 71.8518 44.6344C72.3168 44.1693 72.3168 43.4151 71.8518 42.9501Z" fill="#159822"/>
<path d="M66.9389 47.8628C61.6921 42.616 53.1551 42.616 47.9085 47.8628C47.4433 48.3279 47.4433 49.082 47.9085 49.5471C48.3735 50.0121 49.1277 50.0121 49.5927 49.5471C53.9108 45.2291 60.9366 45.2291 65.2547 49.5471C65.4872 49.7796 65.7919 49.8958 66.0967 49.8958C66.4014 49.8958 66.7063 49.7796 66.9389 49.5471C67.404 49.082 67.404 48.3279 66.9389 47.8628Z" fill="#159822"/>
<path d="M62.1033 52.698C59.5228 50.1176 55.3241 50.1176 52.7437 52.698C52.2785 53.1631 52.2785 53.9171 52.7437 54.3823C53.2087 54.8474 53.9629 54.8473 54.4279 54.3823C56.0798 52.7305 58.7673 52.7305 60.4192 54.3823C60.6517 54.6149 60.9566 54.731 61.2613 54.731C61.5659 54.731 61.8708 54.6148 62.1033 54.3823C62.5685 53.9171 62.5685 53.1632 62.1033 52.698Z" fill="#159822"/>
<path d="M82.6041 75.8934C82.0888 75.6098 81.5803 75.2992 81.0931 74.9701L73.2157 69.6485C70.825 68.0333 68.0362 67.1797 65.151 67.1797H50.6925C46.8546 67.1797 43.2436 68.6716 40.5243 71.3804C39.1267 72.773 37.5344 73.9378 35.7917 74.8427C34.7611 75.3779 34.1208 76.4312 34.1208 77.5917C34.1208 79.3005 35.511 80.6907 37.2199 80.6907H42.1493C42.807 80.6907 43.3402 80.1574 43.3402 79.4997C43.3402 78.842 42.807 78.3088 42.1493 78.3088H37.2199C36.8244 78.3088 36.5026 77.987 36.5026 77.5915C36.5026 77.3236 36.6507 77.0803 36.8892 76.9565C38.8471 75.9399 40.6358 74.6314 42.2053 73.0677C44.4749 70.8066 47.489 69.5614 50.6924 69.5614H53.9294V78.3088H49.9728C49.3151 78.3088 48.7818 78.842 48.7818 79.4997C48.7818 80.1574 49.3151 80.6907 49.9728 80.6907H82.6282C83.6073 80.6907 84.4037 79.8942 84.4037 78.9152C84.4037 77.6615 83.714 76.5036 82.6041 75.8934ZM56.3116 78.3089V69.5616H65.1512C67.5594 69.5616 69.8871 70.2742 71.8825 71.6222L79.7599 76.9438C80.3069 77.3133 80.8776 77.662 81.4565 77.9804C81.6064 78.0629 81.732 78.1762 81.8264 78.3089H56.3116Z" fill="#159822"/>
<path d="M59.2627 82.501H55.584C54.9263 82.501 54.3931 83.0342 54.3931 83.6919C54.3931 84.3496 54.9263 84.8829 55.584 84.8829H59.2627C59.9204 84.8829 60.4537 84.3496 60.4537 83.6919C60.4537 83.0342 59.9204 82.501 59.2627 82.501Z" fill="#159822"/>
<path d="M106.572 81.5015L106.195 80.8771C104.778 78.5244 102.419 76.8678 99.7255 76.3319L96.6508 75.7205V60.136H104.608C106.246 60.136 107.579 58.8031 107.579 57.165V33.971C107.579 32.3327 106.246 31 104.608 31H81.4138C79.7754 31 78.4427 32.3328 78.4427 33.971V42.7693C78.4427 43.427 78.9758 43.9603 79.6337 43.9603C80.2915 43.9603 80.8247 43.427 80.8247 42.7693V33.971C80.8247 33.6461 81.089 33.3817 81.4139 33.3817H104.608C104.933 33.3817 105.197 33.6461 105.197 33.971V57.1651C105.197 57.49 104.933 57.7544 104.608 57.7544H81.4138C81.0888 57.7544 80.8245 57.49 80.8245 57.1651V50.5117C80.8245 49.854 80.2914 49.3207 79.6335 49.3207C78.9757 49.3207 78.4426 49.854 78.4426 50.5117V57.1651C78.4426 58.8035 79.7754 60.1361 81.4136 60.1361H90.4366V74.4849L88.856 74.1706C86.6746 73.7368 84.5479 72.4203 83.1378 71.4675L75.2606 66.1461C72.2636 64.1216 68.768 63.0515 65.1513 63.0515H50.693C45.882 63.0515 41.3554 64.9215 37.9473 68.3169C35.7907 70.4655 33.076 71.9309 30.0967 72.555L28.3868 72.913C25.8449 73.4453 24 75.7169 24 78.314V89.848C24 91.2238 24.8123 92.474 26.0697 93.0328L30.8133 95.141C31.1002 96.6411 31.8229 98.0735 32.9818 99.2325C34.522 100.773 36.5452 101.543 38.5686 101.543C40.5919 101.543 42.6149 100.773 44.1553 99.2325C45.1459 98.2418 45.816 97.051 46.1695 95.7894H85.7215C86.0751 97.051 86.7453 98.2418 87.7359 99.2325C89.2283 100.725 91.2121 101.547 93.3227 101.547C95.4331 101.547 97.4172 100.725 98.9096 99.2325C99.9002 98.2418 100.57 97.051 100.924 95.7894H103.183C105.618 95.7894 107.599 93.8083 107.599 91.3734V85.1962C107.599 83.8942 107.244 82.6167 106.572 81.5015ZM92.8185 60.136H94.269V75.2468L92.8185 74.9583V60.136ZM42.4709 97.5484C41.4286 98.5908 40.0426 99.1649 38.5684 99.1649C37.0942 99.1649 35.7082 98.5908 34.6659 97.5484C32.9937 95.8763 32.6218 93.3897 33.5482 91.3542C33.5557 91.3379 33.5629 91.3214 33.5704 91.3051C33.5987 91.2447 33.6286 91.1849 33.6591 91.1255C33.6735 91.0974 33.6878 91.0695 33.7028 91.0417C33.7304 90.9901 33.7592 90.9389 33.7886 90.8879C33.8088 90.8528 33.8296 90.818 33.8506 90.7834C33.8779 90.7385 33.9055 90.6938 33.9342 90.6495C33.9602 90.6095 33.987 90.57 34.0141 90.5307C34.0408 90.4916 34.0675 90.4525 34.0952 90.4141C34.127 90.3702 34.1602 90.3271 34.1935 90.284C34.2195 90.2503 34.2448 90.2164 34.2715 90.1832C34.3107 90.1347 34.3517 90.0874 34.3925 90.04C34.4159 90.0131 34.4383 89.9855 34.4621 89.9589C34.5228 89.8914 34.5854 89.8253 34.6497 89.7605C34.6553 89.7549 34.6603 89.7491 34.6659 89.7435C34.6781 89.7313 34.691 89.7198 34.7034 89.7077C34.758 89.6542 34.8128 89.6013 34.8688 89.5505C34.8834 89.5373 34.8987 89.525 34.9134 89.512C34.9692 89.4625 35.0254 89.4133 35.0829 89.3665C35.0883 89.3621 35.094 89.358 35.0994 89.3536C37.118 87.72 40.0294 87.7219 42.0456 89.3601C42.0479 89.3621 42.0503 89.3637 42.0528 89.3657C42.1143 89.4158 42.1746 89.4684 42.2345 89.5216C42.2453 89.5311 42.2564 89.5401 42.267 89.5497C42.3362 89.6122 42.4041 89.6767 42.4708 89.7433C42.5426 89.8152 42.6118 89.8891 42.6791 89.9641C42.7087 89.9971 42.7366 90.0309 42.7652 90.0643C42.8001 90.1052 42.8352 90.1461 42.8688 90.1878C42.9066 90.2346 42.943 90.2823 42.9789 90.33C42.9991 90.3566 43.0192 90.3834 43.0388 90.4103C43.0824 90.4704 43.1249 90.5312 43.1658 90.5927C43.1729 90.6032 43.1797 90.6138 43.1866 90.6242C44.5875 92.764 44.3491 95.67 42.4709 97.5484ZM97.225 97.5484C96.1825 98.5908 94.7966 99.1649 93.3223 99.1649C91.8481 99.1649 90.4624 98.5908 89.42 97.5484C87.5415 95.67 87.3031 92.7635 88.7042 90.6239C88.7109 90.6136 88.7176 90.6033 88.7244 90.5932C88.7654 90.5315 88.808 90.4706 88.8518 90.4102C88.8712 90.3834 88.8911 90.3569 88.9112 90.3307C88.9473 90.2826 88.9839 90.2348 89.0219 90.1876C89.0554 90.1463 89.09 90.1058 89.1248 90.0653C89.1537 90.0315 89.1819 89.9972 89.2118 89.9641C89.2791 89.8891 89.3483 89.8153 89.4201 89.7435C90.4625 88.7011 91.8483 88.127 93.3225 88.127C94.7968 88.127 96.1827 88.7011 97.225 89.7435C97.2969 89.8153 97.3661 89.8893 97.4334 89.9643C97.4631 89.9972 97.491 90.0312 97.5198 90.0648C97.5547 90.1055 97.5896 90.1463 97.6231 90.1878C97.661 90.2348 97.6974 90.2825 97.7335 90.3303C97.7536 90.3569 97.7737 90.3836 97.7933 90.4105C97.8368 90.4707 97.8795 90.5313 97.9203 90.5929C97.9273 90.6033 97.9342 90.6138 97.941 90.6242C99.3416 92.7638 99.1032 95.6702 97.225 97.5484ZM105.217 91.3734H105.217C105.217 92.4951 104.304 93.4076 103.183 93.4076H101.222C101.175 91.6803 100.566 90.0323 99.4685 88.6812C99.4611 88.6721 99.4541 88.6626 99.4466 88.6535C99.3787 88.5707 99.3083 88.4895 99.2368 88.4089C99.2185 88.3883 99.2012 88.3671 99.1828 88.3465C99.107 88.2631 99.0286 88.1812 98.9489 88.1006C98.9354 88.0869 98.923 88.0725 98.9093 88.059C97.8832 87.0331 96.6248 86.3239 95.2528 85.9811C94.6291 85.8251 93.982 85.745 93.3223 85.745C92.7948 85.745 92.2751 85.7964 91.7689 85.8966C90.2506 86.1977 88.8549 86.9398 87.7356 88.059C87.7222 88.0723 87.71 88.0864 87.6967 88.0999C87.6167 88.1811 87.538 88.2631 87.4621 88.3468C87.4441 88.3666 87.4275 88.3871 87.4099 88.4071C87.3377 88.4884 87.2665 88.5703 87.1981 88.6539C87.1912 88.6623 87.1849 88.6709 87.178 88.6794C86.0799 90.0307 85.4696 91.6797 85.4228 93.4078H46.468C46.4211 91.6775 45.8095 90.0266 44.7087 88.6742C44.7036 88.6678 44.6987 88.6615 44.6936 88.6551C44.6218 88.5672 44.5472 88.4812 44.4713 88.396C44.4572 88.3803 44.4442 88.3641 44.4299 88.3484C44.341 88.2503 44.2495 88.1537 44.155 88.0591C43.77 87.6741 43.3546 87.3371 42.9168 87.0483C41.6031 86.1819 40.0857 85.7487 38.5684 85.7487C36.5452 85.7487 34.5219 86.5189 32.9816 88.0591C32.8936 88.1471 32.8086 88.2374 32.7253 88.3288C32.7006 88.356 32.677 88.3835 32.6526 88.4108C32.5939 88.4773 32.5361 88.5444 32.4797 88.6123C32.4547 88.6425 32.4298 88.6729 32.4053 88.7036C32.347 88.7762 32.2902 88.8497 32.2346 88.924C32.2173 88.9472 32.1995 88.9699 32.1827 88.9932C32.0335 89.1975 31.895 89.4081 31.767 89.6241C31.7634 89.6302 31.76 89.6364 31.7564 89.6424C31.6939 89.7487 31.6339 89.8565 31.5766 89.9654C31.575 89.9685 31.5734 89.9718 31.5716 89.9749C31.1564 90.765 30.8771 91.6196 30.7491 92.506L27.0373 90.8562C26.6392 90.6792 26.3821 90.2835 26.3821 89.848V78.314C26.3821 76.8378 27.4308 75.5467 28.8757 75.244L30.5855 74.8859C34.0177 74.167 37.1448 72.4789 39.6289 70.0041C42.5875 67.0564 46.517 65.4331 50.6935 65.4331H65.1518C68.2915 65.4331 71.3261 66.3621 73.9278 68.1195L81.805 73.4409C83.3857 74.5089 85.7883 75.9886 88.3918 76.5065L99.2613 78.668C101.299 79.0734 103.083 80.3266 104.156 82.1063L104.532 82.7307C104.98 83.4747 105.217 84.3274 105.217 85.1962V91.3734Z" fill="#159822"/>
<path d="M41.1251 91.0893C40.4419 90.4063 39.5341 90.0303 38.5683 90.0303C37.6025 90.0303 36.6945 90.4065 36.0117 91.0893C35.3288 91.7721 34.9526 92.6801 34.9526 93.6459C34.9526 94.6117 35.3288 95.5197 36.0117 96.2025C36.6945 96.8854 37.6025 97.2616 38.5684 97.2616C39.5342 97.2616 40.4422 96.8855 41.1251 96.2025C42.5348 94.7928 42.5348 92.4991 41.1251 91.0893ZM39.4407 94.5183C39.2077 94.7513 38.8978 94.8797 38.5683 94.8797C38.2386 94.8797 37.9289 94.7513 37.6959 94.5182C37.4629 94.2852 37.3344 93.9754 37.3344 93.6458C37.3344 93.3161 37.4627 93.0064 37.6959 92.7734C37.9289 92.5404 38.2386 92.4119 38.5683 92.4119C38.8978 92.4119 39.2077 92.5402 39.4407 92.7734C39.9217 93.2545 39.9217 94.0373 39.4407 94.5183Z" fill="#159822"/>
<path d="M95.8792 91.0895C95.1964 90.4065 94.2884 90.0303 93.3225 90.0303C92.3567 90.0303 91.4488 90.4063 90.7657 91.0893C89.3561 92.4991 89.3561 94.7928 90.7657 96.2025C91.4487 96.8855 92.3567 97.2616 93.3225 97.2616C94.2884 97.2616 95.1963 96.8855 95.8791 96.2027C96.5621 95.5199 96.9381 94.6119 96.9381 93.6461C96.9381 92.6803 96.5621 91.7723 95.8792 91.0895ZM94.1949 94.5185C93.9619 94.7515 93.6521 94.8798 93.3225 94.8798C92.993 94.8798 92.6831 94.7515 92.4501 94.5185C91.9691 94.0375 91.9691 93.2547 92.4501 92.7737C92.6831 92.5407 92.993 92.4122 93.3225 92.4122C93.6521 92.4122 93.9619 92.5405 94.195 92.7737C94.428 93.0067 94.5564 93.3164 94.5564 93.6461C94.5564 93.9754 94.4282 94.2853 94.1949 94.5185Z" fill="#159822"/>
</svg>
