<svg width="135" height="162" viewBox="0 0 135 162" fill="none" xmlns="http://www.w3.org/2000/svg">
<circle cx="67.5" cy="67.5" r="58" stroke="#D1D1D1"/>
<circle cx="67.5" cy="154.5" r="7.5" fill="#159822"/>
<path d="M132.5 67.5C132.5 103.399 103.399 132.5 67.5 132.5C31.6015 132.5 2.5 103.399 2.5 67.5C2.5 31.6015 31.6015 2.5 67.5 2.5C103.399 2.5 132.5 31.6015 132.5 67.5ZM67.5 134.5C104.503 134.5 134.5 104.503 134.5 67.5C134.5 30.4969 104.503 0.5 67.5 0.5C30.4969 0.5 0.5 30.4969 0.5 67.5C0.5 104.503 30.4969 134.5 67.5 134.5Z" fill="#159822" stroke="#159822"/>
<path fill-rule="evenodd" clip-rule="evenodd" d="M66 148L66 134L69 134L69 148L66 148Z" fill="#159822"/>
<path d="M103.514 42.8434C94.233 32.8836 81.1068 27.1719 67.5002 27.1719C53.8936 27.1719 40.7662 32.8836 31.4861 42.8434C31.2834 43.0602 31.1709 43.3461 31.1709 43.6426L31.1721 98.6562C31.1721 99.3031 31.6971 99.8281 32.3439 99.8281H44.0627H58.1252H72.1877H102.656C103.303 99.8281 103.828 99.3031 103.828 98.6562L103.829 43.6426C103.829 43.3461 103.717 43.0602 103.514 42.8434ZM99.8475 42.4707H35.1518C43.8307 34.2066 55.4674 29.5156 67.5002 29.5156C79.533 29.5156 91.1697 34.2066 99.8475 42.4707ZM42.8908 54.125V50.6094C42.8908 49.9637 43.417 49.4375 44.0627 49.4375H90.9377C91.5834 49.4375 92.1096 49.9637 92.1096 50.6094V54.125H42.8908ZM89.7658 56.4688V58.8125H45.2346V56.4688H89.7658ZM72.1877 83.4219H59.2971V70.5312C59.2971 69.8844 58.7721 69.3594 58.1252 69.3594H45.2346V65.8438H89.7658V97.4844H73.3596V84.5938C73.3596 83.9469 72.8346 83.4219 72.1877 83.4219ZM63.9846 85.7656H66.3283V88.1094H63.9846V85.7656ZM49.9221 85.7656H52.2658V88.1094H49.9221V85.7656ZM45.2346 83.4219V71.7031H47.5783V75.2188C47.5783 75.8656 48.1033 76.3906 48.7502 76.3906H53.4377C54.0846 76.3906 54.6096 75.8656 54.6096 75.2188V71.7031H56.9533V83.4219H45.2346ZM89.7658 63.5H45.2346V61.1562H89.7658V63.5ZM49.9221 71.7031H52.2658V74.0469H49.9221V71.7031ZM45.2346 85.7656H47.5783V89.2812C47.5783 89.9281 48.1033 90.4531 48.7502 90.4531H53.4377C54.0846 90.4531 54.6096 89.9281 54.6096 89.2812V85.7656H56.9533V97.4844H45.2346V85.7656ZM59.2971 97.4844V85.7656H61.6408V89.2812C61.6408 89.9281 62.1658 90.4531 62.8127 90.4531H67.5002C68.1471 90.4531 68.6721 89.9281 68.6721 89.2812V85.7656H71.0158V97.4844H59.2971ZM92.1096 97.4844V59.9844V56.4688H93.2814C93.9283 56.4688 94.4533 55.9438 94.4533 55.2969V50.6094C94.4533 48.6711 92.876 47.0938 90.9377 47.0938H44.0627C42.1244 47.0938 40.5471 48.6711 40.5471 50.6094V55.2969C40.5471 55.9438 41.0721 56.4688 41.7189 56.4688H42.8908V59.9844V70.5312V84.5938V97.4844H33.5158L33.5146 44.8133H101.486V65.8426H95.6252C94.9783 65.8426 94.4533 66.3676 94.4533 67.0145V78.7332C94.4533 79.3801 94.9783 79.9051 95.6252 79.9051H101.485V97.4832H92.1096V97.4844ZM101.485 74.0469V77.5625H96.7971V68.1875H101.486V71.7031H99.142V74.0469H101.485Z" fill="#159822"/>
<path d="M55.7812 37.7188H79.2187V40.0625H55.7812V37.7188Z" fill="#159822"/>
<path d="M55.7812 33.0312H79.2187V35.375H55.7812V33.0312Z" fill="#159822"/>
<path d="M47.5781 92.7969H54.6094V95.1406H47.5781V92.7969Z" fill="#159822"/>
<path d="M47.5781 78.7344H54.6094V81.0781H47.5781V78.7344Z" fill="#159822"/>
<path d="M61.6406 92.7969H68.6719V95.1406H61.6406V92.7969Z" fill="#159822"/>
<path d="M37.0312 67.0156H39.375V69.3594H37.0312V67.0156Z" fill="#159822"/>
<path d="M37.0312 71.7031H39.375V74.0469H37.0312V71.7031Z" fill="#159822"/>
<path d="M37.0312 76.3906H39.375V78.7344H37.0312V76.3906Z" fill="#159822"/>
</svg>
