<svg width="135" height="162" viewBox="0 0 135 162" fill="none" xmlns="http://www.w3.org/2000/svg">
<circle cx="67.5" cy="67.5" r="58" stroke="#D1D1D1"/>
<circle cx="67.5" cy="154.5" r="7.5" fill="#159822"/>
<path d="M132.5 67.5C132.5 103.399 103.399 132.5 67.5 132.5C31.6015 132.5 2.5 103.399 2.5 67.5C2.5 31.6015 31.6015 2.5 67.5 2.5C103.399 2.5 132.5 31.6015 132.5 67.5ZM67.5 134.5C104.503 134.5 134.5 104.503 134.5 67.5C134.5 30.4969 104.503 0.5 67.5 0.5C30.4969 0.5 0.5 30.4969 0.5 67.5C0.5 104.503 30.4969 134.5 67.5 134.5Z" fill="#159822" stroke="#159822"/>
<path fill-rule="evenodd" clip-rule="evenodd" d="M66 148L66 134L69 134L69 148L66 148Z" fill="#159822"/>
<path d="M88.4219 82.0781H103.656V91.4531H88.4219V82.0781Z" fill="white"/>
<path d="M83.7344 89.1094H79.0952L77.875 92.625H83.7344V89.1094Z" fill="white"/>
<path d="M83.7344 99.6562C85.0288 99.6562 86.0781 98.6069 86.0781 97.3125C86.0781 96.0181 85.0288 94.9688 83.7344 94.9688C82.44 94.9688 81.3906 96.0181 81.3906 97.3125C81.3906 98.6069 82.44 99.6562 83.7344 99.6562Z" fill="white"/>
<path d="M97.7969 99.6562C99.0913 99.6562 100.141 98.6069 100.141 97.3125C100.141 96.0181 99.0913 94.9688 97.7969 94.9688C96.5025 94.9688 95.4531 96.0181 95.4531 97.3125C95.4531 98.6069 96.5025 99.6562 97.7969 99.6562Z" fill="white"/>
<path d="M90.7656 29.4902L77.875 37.6934V58.7871H81.3906V42.3809H100.141V58.7871H103.656V37.6934L90.7656 29.4902Z" fill="white"/>
<path d="M33.3438 37.6934V58.7871H36.8594V42.3809H55.6094V58.7871H59.125V37.6934L46.2344 29.4902L33.3438 37.6934Z" fill="white"/>
<path d="M33.3438 78.709V99.8027H36.8594V83.3965H55.6094V99.8027H59.125V78.709L46.2344 70.5059L33.3438 78.709Z" fill="white"/>
<path d="M103.656 80.9062H88.4219C88.1111 80.9062 87.813 81.0297 87.5932 81.2495C87.3735 81.4693 87.25 81.7673 87.25 82.0781V84.4219H81.3906C81.2087 84.422 81.0293 84.4644 80.8666 84.5457C80.7039 84.6271 80.5624 84.7452 80.4531 84.8906L76.9375 89.5781C76.7852 89.7809 76.7029 90.0277 76.7031 90.2812V97.3125C76.7031 97.6233 76.8266 97.9214 77.0464 98.1411C77.2661 98.3609 77.5642 98.4844 77.875 98.4844H80.4209C80.663 99.1697 81.1117 99.7631 81.7051 100.183C82.2985 100.603 83.0075 100.828 83.7344 100.828C84.4612 100.828 85.1702 100.603 85.7636 100.183C86.3571 99.7631 86.8057 99.1697 87.0479 98.4844H94.4834C94.7255 99.1697 95.1742 99.7631 95.7676 100.183C96.361 100.603 97.07 100.828 97.7969 100.828C98.5237 100.828 99.2327 100.603 99.8261 100.183C100.42 99.7631 100.868 99.1697 101.11 98.4844H103.656C103.967 98.4844 104.265 98.3609 104.485 98.1411C104.705 97.9214 104.828 97.6233 104.828 97.3125V82.0781C104.828 81.7673 104.705 81.4693 104.485 81.2495C104.265 81.0297 103.967 80.9062 103.656 80.9062ZM79.0469 90.6724L79.3398 90.2812H82.5625V91.4531H79.0469V90.6724ZM83.7344 98.4844C83.5026 98.4844 83.276 98.4156 83.0833 98.2869C82.8906 98.1581 82.7404 97.9751 82.6517 97.761C82.563 97.5468 82.5398 97.3112 82.585 97.0839C82.6302 96.8566 82.7418 96.6477 82.9057 96.4839C83.0696 96.32 83.2784 96.2084 83.5058 96.1631C83.7331 96.1179 83.9687 96.1411 84.1828 96.2298C84.397 96.3185 84.58 96.4687 84.7088 96.6614C84.8375 96.8542 84.9063 97.0807 84.9063 97.3125C84.9058 97.6232 84.7822 97.921 84.5625 98.1407C84.3429 98.3603 84.045 98.4839 83.7344 98.4844ZM87.25 96.1406H87.0479C86.8057 95.4553 86.3571 94.8619 85.7636 94.4421C85.1702 94.0224 84.4612 93.797 83.7344 93.797C83.0075 93.797 82.2985 94.0224 81.7051 94.4421C81.1117 94.8619 80.663 95.4553 80.4209 96.1406H79.0469V93.7969H83.7344C84.0452 93.7969 84.3432 93.6734 84.563 93.4536C84.7828 93.2339 84.9063 92.9358 84.9063 92.625V89.1094C84.9063 88.7986 84.7828 88.5005 84.563 88.2807C84.3432 88.061 84.0452 87.9375 83.7344 87.9375H81.0977L81.9766 86.7656H87.25V96.1406ZM97.7969 98.4844C97.5651 98.4844 97.3385 98.4156 97.1458 98.2869C96.9531 98.1581 96.8029 97.9751 96.7142 97.761C96.6255 97.5468 96.6023 97.3112 96.6475 97.0839C96.6927 96.8566 96.8043 96.6477 96.9682 96.4839C97.1321 96.32 97.3409 96.2084 97.5683 96.1631C97.7956 96.1179 98.0312 96.1411 98.2453 96.2298C98.4595 96.3185 98.6425 96.4687 98.7713 96.6614C98.9 96.8542 98.9688 97.0807 98.9688 97.3125C98.9683 97.6232 98.8447 97.921 98.625 98.1407C98.4054 98.3603 98.1075 98.4839 97.7969 98.4844ZM102.484 96.1406H101.11C100.868 95.4553 100.42 94.8619 99.8261 94.4421C99.2327 94.0224 98.5237 93.797 97.7969 93.797C97.07 93.797 96.361 94.0224 95.7676 94.4421C95.1742 94.8619 94.7255 95.4553 94.4834 96.1406H89.5938V92.625H102.484V96.1406ZM102.484 90.2812H89.5938V83.25H102.484V90.2812Z" fill="#159822"/>
<path d="M104.285 36.5585L91.394 28.3554C91.2063 28.2355 90.9883 28.1719 90.7656 28.1719C90.5429 28.1719 90.3249 28.2355 90.1372 28.3554L77.2466 36.5585C77.0801 36.6642 76.943 36.8103 76.848 36.9832C76.753 37.156 76.7032 37.35 76.7031 37.5472V43.4066H60.2969V37.5472C60.2968 37.35 60.247 37.156 60.152 36.9832C60.057 36.8103 59.9199 36.6642 59.7534 36.5585L46.8628 28.3554C46.6751 28.2355 46.4571 28.1719 46.2344 28.1719C46.0117 28.1719 45.7937 28.2355 45.606 28.3554L32.7153 36.5585C32.5489 36.6642 32.4118 36.8103 32.3168 36.9832C32.2218 37.156 32.1719 37.35 32.1719 37.5472V58.641C32.1719 58.9518 32.2953 59.2499 32.5151 59.4696C32.7349 59.6894 33.0329 59.8129 33.3438 59.8129H45.0625V69.7167L32.7153 77.5741C32.5489 77.6799 32.4118 77.8259 32.3168 77.9988C32.2218 78.1716 32.1719 78.3656 32.1719 78.5629V99.6566C32.1719 99.9674 32.2953 100.265 32.5151 100.485C32.7349 100.705 33.0329 100.828 33.3438 100.828H59.125C59.4358 100.828 59.7339 100.705 59.9536 100.485C60.1734 100.265 60.2969 99.9674 60.2969 99.6566V86.766H76.7031C77.0139 86.766 77.312 86.6425 77.5318 86.4228C77.7515 86.203 77.875 85.9049 77.875 85.5941C77.875 85.2833 77.7515 84.9852 77.5318 84.7655C77.312 84.5457 77.0139 84.4222 76.7031 84.4222H60.2969V78.5629C60.2968 78.3656 60.247 78.1716 60.152 77.9988C60.057 77.8259 59.9199 77.6799 59.7534 77.5741L47.4062 69.7167V59.8129H59.125C59.4358 59.8129 59.7339 59.6894 59.9536 59.4696C60.1734 59.2499 60.2969 58.9518 60.2969 58.641V45.7504H76.7031V58.641C76.7031 58.9518 76.8266 59.2499 77.0464 59.4696C77.2661 59.6894 77.5642 59.8129 77.875 59.8129H89.5938V78.5629C89.5938 78.8737 89.7172 79.1717 89.937 79.3915C90.1568 79.6113 90.4548 79.7347 90.7656 79.7347C91.0764 79.7347 91.3745 79.6113 91.5943 79.3915C91.814 79.1717 91.9375 78.8737 91.9375 78.5629V59.8129H103.656C103.967 59.8129 104.265 59.6894 104.485 59.4696C104.705 59.2499 104.828 58.9518 104.828 58.641V37.5472C104.828 37.35 104.778 37.156 104.683 36.9832C104.588 36.8103 104.451 36.6642 104.285 36.5585ZM54.4375 98.4847H38.0312V87.9379H54.4375V98.4847ZM54.4375 85.5941H38.0312V84.4222H54.4375V85.5941ZM57.9531 79.2059V98.4847H56.7812V83.2504C56.7812 82.9396 56.6578 82.6415 56.438 82.4217C56.2182 82.202 55.9202 82.0785 55.6094 82.0785H36.8594C36.5486 82.0785 36.2505 82.202 36.0307 82.4217C35.811 82.6415 35.6875 82.9396 35.6875 83.2504V98.4847H34.5156V79.2059L46.2344 71.7484L57.9531 79.2059ZM54.4375 57.4691H38.0312V46.9222H54.4375V57.4691ZM54.4375 44.5785H38.0312V43.4066H54.4375V44.5785ZM57.9531 57.4691H56.7812V42.2347C56.7812 41.9239 56.6578 41.6259 56.438 41.4061C56.2182 41.1863 55.9202 41.0629 55.6094 41.0629H36.8594C36.5486 41.0629 36.2505 41.1863 36.0307 41.4061C35.811 41.6259 35.6875 41.9239 35.6875 42.2347V57.4691H34.5156V38.1903L46.2344 30.7328L57.9531 38.1903V57.4691ZM98.9688 57.4691H82.5625V46.9222H98.9688V57.4691ZM98.9688 44.5785H82.5625V43.4066H98.9688V44.5785ZM102.484 57.4691H101.312V42.2347C101.312 41.9239 101.189 41.6259 100.969 41.4061C100.749 41.1863 100.451 41.0629 100.141 41.0629H81.3906C81.0798 41.0629 80.7818 41.1863 80.562 41.4061C80.3422 41.6259 80.2188 41.9239 80.2188 42.2347V57.4691H79.0469V38.1903L90.7656 30.7328L102.484 38.1903V57.4691Z" fill="#159822"/>
</svg>
