<svg width="135" height="162" viewBox="0 0 135 162" fill="none" xmlns="http://www.w3.org/2000/svg">
<circle cx="67.5" cy="67.5" r="58" stroke="#D1D1D1"/>
<circle cx="67.5" cy="154.5" r="7.5" fill="#159822"/>
<path d="M132.5 67.5C132.5 103.399 103.399 132.5 67.5 132.5C31.6015 132.5 2.5 103.399 2.5 67.5C2.5 31.6015 31.6015 2.5 67.5 2.5C103.399 2.5 132.5 31.6015 132.5 67.5ZM67.5 134.5C104.503 134.5 134.5 104.503 134.5 67.5C134.5 30.4969 104.503 0.5 67.5 0.5C30.4969 0.5 0.5 30.4969 0.5 67.5C0.5 104.503 30.4969 134.5 67.5 134.5Z" fill="#159822" stroke="#159822"/>
<path fill-rule="evenodd" clip-rule="evenodd" d="M66 148L66 134L69 134L69 148L66 148Z" fill="#159822"/>
<path d="M29.2234 93.2527L35.7078 97.1433C35.9558 97.2921 36.2464 97.3538 36.5335 97.3184C36.8205 97.2831 37.0875 97.1528 37.292 96.9483L38.5889 95.6514C38.7473 95.493 38.8619 95.2964 38.9217 95.0806C38.9815 94.8647 38.9844 94.6371 38.93 94.4198L37.7391 89.6562L41.4576 80.9796C41.493 80.8971 41.5197 80.8111 41.5373 80.7231L42.2883 76.9677L45.4531 80.9237V96.0313C45.4531 96.2016 45.4867 96.3702 45.5518 96.5276C45.617 96.6849 45.7125 96.8279 45.833 96.9483C45.9534 97.0687 46.0963 97.1642 46.2537 97.2294C46.411 97.2946 46.5797 97.3281 46.75 97.3281H55.8281C55.9984 97.3281 56.1671 97.2946 56.3244 97.2294C56.4818 97.1642 56.6247 97.0687 56.7452 96.9483C56.8656 96.8279 56.9611 96.6849 57.0263 96.5276C57.0915 96.3702 57.125 96.2016 57.125 96.0313V93.4375C57.125 93.224 57.0723 93.0138 56.9715 92.8256C56.8708 92.6373 56.7251 92.4769 56.5475 92.3585L53.2344 90.1497V80.2728C53.2356 79.3653 53.0452 78.4679 52.6755 77.6392L49.8984 71.3906H55.8281C56.0803 71.3906 56.3269 71.3171 56.538 71.1791C56.749 71.0411 56.9152 70.8446 57.0162 70.6136L60.126 63.5056C60.4175 63.5743 60.7161 63.6092 61.0156 63.6094H62.3125C63.344 63.6082 64.3329 63.198 65.0623 62.4686C65.7917 61.7392 66.202 60.7503 66.2031 59.7188V58.1994C66.2045 57.6882 66.1045 57.1819 65.9089 56.7097C65.7133 56.2374 65.4259 55.8087 65.0635 55.4483L64.0809 54.4657L66.0944 49.8636C66.1807 49.6662 66.2166 49.4504 66.1986 49.2357C66.1807 49.021 66.1095 48.8142 65.9916 48.6339C65.8737 48.4536 65.7127 48.3055 65.5232 48.203C65.3337 48.1005 65.1217 48.0469 64.9062 48.0469H51.9375C51.6854 48.0469 51.4387 48.1204 51.2277 48.2584C51.0166 48.3964 50.8504 48.5929 50.7494 48.8239L50.522 49.3438H46.5269C46.6747 48.9274 46.7502 48.4887 46.75 48.0469V46.75H49.3437V44.1563H46.75C46.75 43.1244 46.3401 42.1348 45.6105 41.4052C44.8808 40.6755 43.8912 40.2656 42.8594 40.2656C41.8275 40.2656 40.8379 40.6755 40.1083 41.4052C39.3786 42.1348 38.9687 43.1244 38.9687 44.1563V49.3438H38.6156C37.2586 49.3442 35.9277 49.7163 34.7671 50.4195C33.6066 51.1228 32.6608 52.1305 32.0324 53.3332C31.4039 54.5359 31.1168 55.8877 31.2022 57.242C31.2876 58.5963 31.7422 59.9014 32.5167 61.0156H32.4844V80.2583L28.6603 91.7305C28.567 92.0105 28.5719 92.3138 28.6743 92.5906C28.7767 92.8673 28.9704 93.1009 29.2234 93.2527ZM36.1739 94.3982L31.4499 91.5638L31.6899 90.8438H35.3624L36.2356 94.3365L36.1739 94.3982ZM54.5312 94.1315V94.7344H48.0469V93.1532L51.6955 92.2411L54.5312 94.1315ZM50.3053 78.6926C50.5271 79.1898 50.6414 79.7283 50.6406 80.2728V89.8312L48.0469 90.4796V80.4688C48.0469 80.1743 47.9467 79.8886 47.7627 79.6586L42.5752 73.1742C42.4209 72.9814 42.2149 72.8366 41.9811 72.7569C41.7474 72.6772 41.4958 72.6659 41.2559 72.7242C41.016 72.7826 40.7977 72.9083 40.6267 73.0865C40.4557 73.2646 40.3392 73.4879 40.2908 73.7301L39.0204 80.082L35.5199 88.25H32.5545L35.0115 80.8789C35.0556 80.7466 35.0781 80.6081 35.0781 80.4688V68.7969H42.0112L41.6713 69.5739C41.5849 69.7713 41.5491 69.9871 41.567 70.2018C41.5849 70.4165 41.6561 70.6233 41.774 70.8036C41.8919 70.9839 42.0529 71.132 42.2424 71.2345C42.4319 71.337 42.6439 71.3906 42.8594 71.3906H47.06L50.3053 78.6926ZM40.6455 60.6358C40.7659 60.7562 40.9089 60.8517 41.0662 60.9169C41.2235 60.9821 41.3922 61.0156 41.5625 61.0156H46.75C46.9203 61.0156 47.0889 60.9821 47.2463 60.9169C47.4036 60.8517 47.5466 60.7562 47.667 60.6358L49.3437 58.959V59.7188C49.3437 59.8891 49.3773 60.0577 49.4425 60.2151C49.5076 60.3724 49.6031 60.5154 49.7236 60.6358C49.844 60.7562 49.987 60.8517 50.1443 60.9169C50.3017 60.9821 50.4703 61.0156 50.6406 61.0156H51.9375V62.3125C51.9371 62.6563 51.8003 62.986 51.5572 63.2291C51.3141 63.4722 50.9844 63.609 50.6406 63.6094H40.7884C39.9052 63.6083 39.0484 63.3077 38.358 62.7568L38.0284 62.4931L40.2656 60.2559L40.6455 60.6358ZM36.7377 64.7822C37.8884 65.7004 39.3163 66.2013 40.7884 66.2031H35.0781V63.4546L36.7377 64.7822ZM63.6094 59.7188C63.609 60.0626 63.4722 60.3922 63.2291 60.6353C62.986 60.8785 62.6563 61.0152 62.3125 61.0156H61.0156C60.6718 61.0152 60.3421 60.8785 60.099 60.6353C59.8559 60.3922 59.7191 60.0626 59.7187 59.7188V58.4219H61.0156C61.1859 58.4219 61.3546 58.3883 61.5119 58.3232C61.6693 58.258 61.8122 58.1625 61.9327 58.042C62.0531 57.9216 62.1486 57.7786 62.2138 57.6213C62.279 57.464 62.3125 57.2953 62.3125 57.125V56.3653L63.2295 57.2823C63.3503 57.4024 63.4461 57.5454 63.5113 57.7028C63.5765 57.8602 63.6098 58.029 63.6094 58.1994V59.7188ZM52.7856 50.6406H62.9233L61.7853 53.2418C61.2254 53.2794 60.7007 53.5281 60.3171 53.9377C59.9335 54.3472 59.7197 54.8871 59.7187 55.4483V55.8281H58.4219C58.2516 55.8281 58.0829 55.8617 57.9256 55.9268C57.7682 55.992 57.6253 56.0875 57.5048 56.208C57.3844 56.3284 57.2889 56.4714 57.2237 56.6287C57.1585 56.786 57.125 56.9547 57.125 57.125V59.7188C57.1242 60.5699 57.4042 61.3976 57.9214 62.0737L54.98 68.7969H44.8423L45.977 66.2031H50.6406C51.6721 66.202 52.661 65.7917 53.3904 65.0623C54.1198 64.3329 54.5301 63.344 54.5312 62.3125V59.7188C54.5312 59.5484 54.4977 59.3798 54.4325 59.2225C54.3674 59.0651 54.2718 58.9221 54.1514 58.8017C54.031 58.6813 53.888 58.5858 53.7307 58.5206C53.5733 58.4554 53.4047 58.4219 53.2344 58.4219H51.9375V58.042C51.9367 57.5844 51.7942 57.1382 51.5296 56.7648C51.2651 56.3914 50.8914 56.1091 50.4599 55.9567L52.7856 50.6406ZM41.5625 51.7144C41.9789 51.8622 42.4175 51.9377 42.8594 51.9375V52.5859C42.8594 52.7579 42.7911 52.9228 42.6694 53.0445C42.5478 53.1661 42.3829 53.2344 42.2109 53.2344C42.039 53.2344 41.874 53.1661 41.7524 53.0445C41.6308 52.9228 41.5625 52.7579 41.5625 52.5859V51.7144ZM42.8594 42.8594C43.2032 42.8598 43.5328 42.9965 43.776 43.2397C44.0191 43.4828 44.1558 43.8124 44.1562 44.1563H41.5625C41.5629 43.8124 41.6996 43.4828 41.9428 43.2397C42.1859 42.9965 42.5155 42.8598 42.8594 42.8594ZM41.5625 46.75H44.1562V48.0469C44.1562 48.3908 44.0196 48.7207 43.7764 48.9639C43.5332 49.2071 43.2033 49.3438 42.8594 49.3438C42.5154 49.3438 42.1855 49.2071 41.9423 48.9639C41.6991 48.7207 41.5625 48.3908 41.5625 48.0469V46.75ZM38.6156 51.9375H38.9687V52.5859C38.9687 53.4458 39.3103 54.2705 39.9184 54.8785C40.5264 55.4865 41.351 55.8281 42.2109 55.8281C43.0708 55.8281 43.8955 55.4865 44.5035 54.8785C45.1115 54.2705 45.4531 53.4458 45.4531 52.5859V51.9375H49.3872L46.8128 57.822L46.2128 58.4219H42.0996L38.5889 54.9111L36.7549 56.7451L38.4316 58.4219L35.9906 60.8629L35.5956 60.5469C34.8134 59.9212 34.2449 59.0678 33.9686 58.1049C33.6924 57.1419 33.7222 56.117 34.0538 55.1717C34.3854 54.2264 35.0024 53.4075 35.8196 52.8281C36.6368 52.2487 37.6139 51.9375 38.6156 51.9375Z" fill="#159822"/>
<path d="M106.361 71.0494L102.47 56.7838C102.411 56.566 102.295 56.3676 102.136 56.208L99.8583 53.9305C99.9783 53.2761 99.9279 52.6019 99.7119 51.9726C99.4959 51.3434 99.1216 50.7803 98.625 50.3376V48.0469C98.625 47.7435 98.5186 47.4497 98.3244 47.2166L91.8401 39.4354C91.7183 39.2893 91.566 39.1718 91.3938 39.0912C91.2217 39.0106 91.0339 38.9688 90.8438 38.9688H89.8499C89.4856 38.5608 89.0392 38.2344 88.54 38.0109C88.0408 37.7874 87.5001 37.6719 86.9531 37.6719C86.4062 37.6719 85.8654 37.7874 85.3662 38.0109C84.867 38.2344 84.4206 38.5608 84.0563 38.9688H83.0625C82.8922 38.9687 82.7236 39.0023 82.5662 39.0675C82.4089 39.1326 82.2659 39.2282 82.1455 39.3486L74.3642 47.1299C74.2438 47.2503 74.1483 47.3932 74.0831 47.5506C74.0179 47.7079 73.9844 47.8766 73.9844 48.0469V50.3376C73.5038 50.7667 73.1375 51.3087 72.9186 51.9147C72.6997 52.5206 72.6349 53.1715 72.7302 53.8088L69.3744 56.046C69.1967 56.1644 69.0511 56.3248 68.9503 56.5131C68.8496 56.7013 68.7969 56.9115 68.7969 57.125V64.9062C68.7969 65.0766 68.8304 65.2452 68.8956 65.4025C68.9608 65.5599 69.0563 65.7029 69.1767 65.8233C69.2971 65.9437 69.4401 66.0392 69.5975 66.1044C69.7548 66.1696 69.9234 66.2031 70.0938 66.2031V72.6875H53.2344V75.2812H79.8203C80.3362 75.2812 80.831 75.4862 81.1959 75.851C81.5607 76.2158 81.7656 76.7106 81.7656 77.2266C81.7656 77.7425 81.5607 78.2373 81.1959 78.6021C80.831 78.9669 80.3362 79.1719 79.8203 79.1719H55.8281V81.7656H59.0247L61.0156 84.752V90.8438H59.7188V93.4375H79.0188L78.3704 94.7344H59.7188V97.3281H105.109C105.28 97.3281 105.448 97.2946 105.606 97.2294C105.763 97.1642 105.906 97.0687 106.026 96.9483C106.147 96.8279 106.242 96.6849 106.308 96.5275C106.373 96.3702 106.406 96.2016 106.406 96.0312V71.3906C106.406 71.2754 106.39 71.1607 106.359 71.0497L106.361 71.0494ZM103.411 70.0938H93.4375V57.6622L94.3549 56.7448C95.0221 57.064 95.7666 57.186 96.5008 57.0965C97.235 57.007 97.9283 56.7097 98.4993 56.2396L100.058 57.7985L103.411 70.0938ZM103.812 86.9531H89.5469V72.6875H103.812V86.9531ZM97.3281 53.2344C97.3281 53.4909 97.2521 53.7416 97.1096 53.9549C96.9671 54.1681 96.7645 54.3344 96.5275 54.4325C96.2906 54.5307 96.0298 54.5564 95.7782 54.5063C95.5267 54.4563 95.2956 54.3328 95.1142 54.1514C94.9328 53.97 94.8093 53.739 94.7593 53.4874C94.7093 53.2358 94.7349 52.9751 94.8331 52.7381C94.9313 52.5011 95.0975 52.2986 95.3107 52.1561C95.524 52.0136 95.7748 51.9375 96.0312 51.9375C96.3751 51.9379 96.7047 52.0747 96.9478 52.3178C97.191 52.5609 97.3277 52.8905 97.3281 53.2344ZM96.0312 48.5164V49.3438C95.511 49.3432 94.9959 49.4475 94.5169 49.6506L89.8949 44.1043C90.3581 43.5702 90.6665 42.9195 90.7866 42.2228L96.0312 48.5164ZM86.9531 40.2656C87.2096 40.2656 87.4604 40.3417 87.6736 40.4842C87.8869 40.6267 88.0531 40.8292 88.1513 41.0662C88.2494 41.3032 88.2751 41.5639 88.2251 41.8155C88.175 42.0671 88.0515 42.2982 87.8702 42.4795C87.6888 42.6609 87.4577 42.7844 87.2061 42.8345C86.9546 42.8845 86.6938 42.8588 86.4568 42.7607C86.2199 42.6625 86.0173 42.4963 85.8748 42.283C85.7323 42.0697 85.6562 41.819 85.6562 41.5625C85.6566 41.2187 85.7934 40.889 86.0365 40.6459C86.2797 40.4028 86.6093 40.266 86.9531 40.2656ZM76.5781 48.5841L83.0962 42.0661C83.1899 42.7879 83.485 43.4688 83.9479 44.0306L78.2545 49.724C77.7313 49.4731 77.1584 49.3431 76.5781 49.3438V48.5841ZM81.7656 63.6094H81.4813L80.43 59.4042C80.3599 59.1236 80.1979 58.8745 79.97 58.6966C79.742 58.5186 79.4611 58.4219 79.1719 58.4219H77.875V56.9019C78.3647 56.7281 78.8147 56.458 79.1985 56.1076L81.7656 57.819V63.6094ZM74.3485 63.6094L74.9969 61.0156H78.1593L78.8077 63.6094H74.3485ZM77.875 53.2344C77.875 53.4909 77.7989 53.7416 77.6564 53.9549C77.5139 54.1681 77.3114 54.3344 77.0744 54.4325C76.8374 54.5307 76.5767 54.5564 76.3251 54.5063C76.0735 54.4563 75.8425 54.3328 75.6611 54.1514C75.4797 53.97 75.3562 53.739 75.3062 53.4874C75.2561 53.2358 75.2818 52.9751 75.38 52.7381C75.4781 52.5011 75.6444 52.2986 75.8576 52.1561C76.0709 52.0136 76.3216 51.9375 76.5781 51.9375C76.922 51.9379 77.2516 52.0747 77.4947 52.3178C77.7378 52.5609 77.8746 52.8905 77.875 53.2344ZM71.3906 57.819L73.9578 56.1076C74.3415 56.458 74.7915 56.7281 75.2812 56.9019V58.4219H73.9844C73.6952 58.4219 73.4142 58.5186 73.1863 58.6966C72.9583 58.8745 72.7964 59.1236 72.7262 59.4042L71.6749 63.6094H71.3906V57.819ZM72.6875 72.6875V66.2031H75.2812V68.7969H77.875V66.2031H80.4688V72.6875H72.6875ZM67.5 84.752L69.4453 81.834L71.3906 84.752V90.8438H67.5V84.752ZM73.9844 85.6562H75.2812V90.8438H73.9844V85.6562ZM75.8841 83.0625H73.3815L72.517 81.7656H76.7487L75.8841 83.0625ZM66.3737 81.7656L65.5091 83.0625H63.0065L62.142 81.7656H66.3737ZM63.6094 85.6562H64.9062V90.8438H63.6094V85.6562ZM77.875 90.8438V84.752L79.8667 81.7644C80.7566 81.7561 81.6244 81.486 82.362 80.988C83.0996 80.49 83.6743 79.786 84.0147 78.9636C84.355 78.1413 84.4459 77.237 84.276 76.3634C84.1061 75.4898 83.6829 74.6855 83.0592 74.0507C83.0603 74.0286 83.0625 74.0068 83.0625 73.9844V66.2031C83.2328 66.2031 83.4015 66.1696 83.5588 66.1044C83.7161 66.0392 83.8591 65.9437 83.9795 65.8233C84.1 65.7029 84.1955 65.5599 84.2607 65.4025C84.3258 65.2452 84.3594 65.0766 84.3594 64.9062V57.125C84.3594 56.9115 84.3067 56.7013 84.2059 56.5131C84.1052 56.3248 83.9595 56.1644 83.7819 56.046L80.426 53.8088C80.5407 53.0416 80.4232 52.2577 80.0885 51.558L86.257 45.3895C86.6998 45.4711 87.1534 45.4742 87.5973 45.3988L92.6002 51.4023C92.3125 51.9398 92.1554 52.5375 92.1416 53.1471C92.1278 53.7566 92.2578 54.3608 92.5209 54.9108L91.2236 56.208C91.1032 56.3284 91.0076 56.4714 90.9425 56.6287C90.8773 56.7861 90.8437 56.9547 90.8438 57.125V70.0938H88.25C88.0797 70.0937 87.911 70.1273 87.7537 70.1925C87.5964 70.2576 87.4534 70.3532 87.333 70.4736C87.2125 70.594 87.117 70.737 87.0518 70.8943C86.9867 71.0517 86.9531 71.2203 86.9531 71.3906V86.9531H83.0625C82.8217 86.9531 82.5856 87.0202 82.3807 87.1468C82.1758 87.2734 82.0103 87.4546 81.9026 87.67L80.3157 90.8438H77.875ZM103.812 94.7344H81.2703L83.864 89.5469H103.812V94.7344Z" fill="#159822"/>
<path d="M97.3281 81.7656H94.7344V84.3594H97.3281V81.7656Z" fill="#159822"/>
<path d="M101.219 81.7656H98.625V84.3594H101.219V81.7656Z" fill="#159822"/>
</svg>
