<svg width="135" height="162" viewBox="0 0 135 162" fill="none" xmlns="http://www.w3.org/2000/svg">
<circle cx="67.5" cy="67.5" r="58" stroke="#D1D1D1"/>
<circle cx="67.5" cy="154.5" r="7.5" fill="#159822"/>
<path d="M132.5 67.5C132.5 103.399 103.399 132.5 67.5 132.5C31.6015 132.5 2.5 103.399 2.5 67.5C2.5 31.6015 31.6015 2.5 67.5 2.5C103.399 2.5 132.5 31.6015 132.5 67.5ZM67.5 134.5C104.503 134.5 134.5 104.503 134.5 67.5C134.5 30.4969 104.503 0.5 67.5 0.5C30.4969 0.5 0.5 30.4969 0.5 67.5C0.5 104.503 30.4969 134.5 67.5 134.5Z" fill="#159822" stroke="#159822"/>
<path fill-rule="evenodd" clip-rule="evenodd" d="M66 148L66 134L69 134L69 148L66 148Z" fill="#159822"/>
<path d="M50.6975 31.8027C49.3974 31.8046 48.1512 32.3219 47.2321 33.2413C46.313 34.1607 45.7959 35.407 45.7944 36.707C45.7944 37.0007 45.9111 37.2824 46.1188 37.4901C46.3265 37.6978 46.6081 37.8145 46.9019 37.8145C47.1956 37.8145 47.4772 37.6978 47.6849 37.4901C47.8926 37.2824 48.0093 37.0007 48.0093 36.707C48.0099 35.9939 48.2935 35.3103 48.7977 34.806C49.302 34.3018 49.9856 34.0182 50.6987 34.0176H57.9058C58.1995 34.0176 58.4812 33.9009 58.6889 33.6932C58.8966 33.4855 59.0133 33.2039 59.0133 32.9102C59.0133 32.6164 58.8966 32.3348 58.6889 32.1271C58.4812 31.9194 58.1995 31.8027 57.9058 31.8027H50.6975Z" fill="#159822"/>
<path d="M64.5403 31.8027H62.5786C62.2849 31.8027 62.0032 31.9194 61.7955 32.1271C61.5879 32.3348 61.4712 32.6164 61.4712 32.9102C61.4712 33.2039 61.5879 33.4855 61.7955 33.6932C62.0032 33.9009 62.2849 34.0176 62.5786 34.0176H64.5403C64.834 34.0176 65.1157 33.9009 65.3234 33.6932C65.5311 33.4855 65.6478 33.2039 65.6478 32.9102C65.6478 32.6164 65.5311 32.3348 65.3234 32.1271C65.1157 31.9194 64.834 31.8027 64.5403 31.8027Z" fill="#159822"/>
<path d="M58.4595 30.2207H64.5402C64.8339 30.2207 65.1156 30.104 65.3232 29.8963C65.5309 29.6887 65.6476 29.407 65.6476 29.1133C65.6476 28.8196 65.5309 28.5379 65.3232 28.3302C65.1156 28.1225 64.8339 28.0059 64.5402 28.0059H58.4595C58.1658 28.0059 57.8841 28.1225 57.6764 28.3302C57.4687 28.5379 57.3521 28.8196 57.3521 29.1133C57.3521 29.407 57.4687 29.6887 57.6764 29.8963C57.8841 30.104 58.1658 30.2207 58.4595 30.2207Z" fill="#159822"/>
<path d="M43.1037 37.8145C43.2493 37.8147 43.3935 37.7862 43.528 37.7307C43.6625 37.6751 43.7848 37.5936 43.8878 37.4907C43.9908 37.3879 44.0725 37.2657 44.1282 37.1312C44.1839 36.9967 44.2125 36.8526 44.2124 36.707C44.2142 34.9875 44.898 33.339 46.1138 32.123C47.3295 30.907 48.978 30.2229 50.6975 30.2207H53.6211C53.9148 30.2207 54.1964 30.104 54.4041 29.8963C54.6118 29.6887 54.7285 29.407 54.7285 29.1133C54.7285 28.8196 54.6118 28.5379 54.4041 28.3302C54.1964 28.1225 53.9148 28.0059 53.6211 28.0059H50.6975C48.3908 28.0087 46.1794 28.9264 44.5484 30.5576C42.9174 32.1888 42.0001 34.4003 41.9976 36.707C41.9975 36.8524 42.026 36.9963 42.0816 37.1306C42.1371 37.2649 42.2186 37.387 42.3213 37.4898C42.424 37.5927 42.546 37.6743 42.6802 37.73C42.8145 37.7857 42.9584 37.8144 43.1037 37.8145Z" fill="#159822"/>
<path d="M79.5063 31.8027C78.2061 31.8042 76.9596 32.3214 76.0402 33.2408C75.1207 34.1602 74.6036 35.4068 74.6021 36.707C74.6021 37.0007 74.7187 37.2824 74.9264 37.4901C75.1341 37.6978 75.4158 37.8145 75.7095 37.8145C76.0032 37.8145 76.2849 37.6978 76.4925 37.4901C76.7002 37.2824 76.8169 37.0007 76.8169 36.707C76.8176 35.9939 77.1011 35.3103 77.6054 34.806C78.1096 34.3018 78.7933 34.0182 79.5063 34.0176H82.8457C83.1394 34.0176 83.4211 33.9009 83.6288 33.6932C83.8364 33.4855 83.9531 33.2039 83.9531 32.9102C83.9531 32.6164 83.8364 32.3348 83.6288 32.1271C83.4211 31.9194 83.1394 31.8027 82.8457 31.8027H79.5063Z" fill="#159822"/>
<path d="M86.4053 32.9102C86.4052 33.0556 86.4338 33.1997 86.4894 33.334C86.545 33.4684 86.6266 33.5906 86.7294 33.6934C86.8323 33.7963 86.9544 33.8778 87.0888 33.9335C87.2232 33.9891 87.3672 34.0177 87.5127 34.0176H93.3491C93.6428 34.0176 93.9245 33.9009 94.1322 33.6932C94.3399 33.4855 94.4565 33.2039 94.4565 32.9102C94.4565 32.6165 94.3399 32.3348 94.1322 32.1271C93.9245 31.9194 93.6428 31.8027 93.3491 31.8027H87.5127C87.3672 31.8027 87.2232 31.8312 87.0888 31.8869C86.9544 31.9425 86.8323 32.0241 86.7294 32.1269C86.6266 32.2298 86.545 32.3519 86.4894 32.4863C86.4338 32.6207 86.4052 32.7647 86.4053 32.9102Z" fill="#159822"/>
<path d="M91.8232 30.2207H93.349C93.6427 30.2207 93.9243 30.104 94.132 29.8963C94.3397 29.6887 94.4564 29.407 94.4564 29.1133C94.4564 28.8196 94.3397 28.5379 94.132 28.3302C93.9243 28.1225 93.6427 28.0059 93.349 28.0059H91.8232C91.5295 28.0059 91.2479 28.1225 91.0402 28.3302C90.8325 28.5379 90.7158 28.8196 90.7158 29.1133C90.7158 29.407 90.8325 29.6887 91.0402 29.8963C91.2479 30.104 91.5295 30.2207 91.8232 30.2207Z" fill="#159822"/>
<path d="M71.9126 37.8145C72.2063 37.8145 72.488 37.6978 72.6957 37.4901C72.9033 37.2824 73.02 37.0007 73.02 36.707C73.0219 34.9873 73.7058 33.3386 74.9219 32.1225C76.1379 30.9065 77.7866 30.2225 79.5063 30.2207H85.7326C86.0263 30.2207 86.308 30.104 86.5157 29.8963C86.7233 29.6887 86.84 29.407 86.84 29.1133C86.84 28.8196 86.7233 28.5379 86.5157 28.3302C86.308 28.1225 86.0263 28.0059 85.7326 28.0059H79.5063C77.1994 28.0084 74.9877 28.9259 73.3565 30.5571C71.7252 32.1884 70.8077 34.4001 70.8052 36.707C70.8051 36.8525 70.8337 36.9965 70.8893 37.1309C70.9449 37.2653 71.0265 37.3874 71.1293 37.4903C71.2322 37.5931 71.3543 37.6747 71.4887 37.7303C71.6231 37.7859 71.7671 37.8145 71.9126 37.8145Z" fill="#159822"/>
<path d="M96.293 64.6992C95.9993 64.6992 95.7176 64.8159 95.5099 65.0236C95.3022 65.2313 95.1855 65.5129 95.1855 65.8066V69.6035C95.1855 69.8972 95.3022 70.1789 95.5099 70.3866C95.7176 70.5943 95.9993 70.7109 96.293 70.7109C96.5867 70.7109 96.8684 70.5943 97.076 70.3866C97.2837 70.1789 97.4004 69.8972 97.4004 69.6035V65.8066C97.4004 65.5129 97.2837 65.2313 97.076 65.0236C96.8684 64.8159 96.5867 64.6992 96.293 64.6992Z" fill="#159822"/>
<path d="M103.887 96.982H101.197V57.6844L104.019 57.3452C104.305 57.304 104.564 57.1524 104.74 56.9228C104.916 56.6932 104.995 56.4039 104.961 56.1168C104.926 55.8296 104.781 55.5673 104.555 55.386C104.33 55.2048 104.042 55.1189 103.754 55.1468L81.1991 57.8565L80.5916 45.1142C80.7865 45.0272 80.9521 44.8857 81.0683 44.7067C81.1845 44.5277 81.2464 44.3189 81.2466 44.1055V40.3086C81.2464 40.0149 81.1297 39.7334 80.922 39.5257C80.7144 39.3181 80.4328 39.2013 80.1392 39.2012H67.4829C67.1892 39.2012 66.9075 39.3178 66.6998 39.5255C66.4922 39.7332 66.3755 40.0149 66.3755 40.3086V44.1055C66.3751 44.3198 66.4371 44.5296 66.5538 44.7094C66.6706 44.8892 66.837 45.0311 67.033 45.118L66.3432 59.6448L52.5523 61.3002L51.7854 45.1129C51.9799 45.0259 52.1451 44.8845 52.261 44.7058C52.377 44.527 52.4388 44.3185 52.4391 44.1055V40.3086C52.4391 40.0149 52.3224 39.7332 52.1147 39.5255C51.907 39.3178 51.6253 39.2012 51.3316 39.2012H38.6754C38.3817 39.2012 38.1 39.3178 37.8923 39.5255C37.6846 39.7332 37.568 40.0149 37.568 40.3086V44.1055C37.568 44.3201 37.6304 44.5302 37.7477 44.71C37.865 44.8897 38.0321 45.0315 38.2286 45.118L36.2081 87.4898H35.3658C35.0813 87.4898 34.8077 87.5993 34.6017 87.7956C34.3958 87.9919 34.2733 88.2599 34.2596 88.5441L33.8546 96.982H31.1133C30.9678 96.9819 30.8238 97.0105 30.6894 97.0661C30.555 97.1218 30.4329 97.2033 30.33 97.3062C30.2272 97.409 30.1456 97.5311 30.09 97.6655C30.0344 97.7999 30.0058 97.944 30.0059 98.0894V101.886C30.0058 102.032 30.0344 102.176 30.09 102.31C30.1456 102.445 30.2272 102.567 30.33 102.67C30.4329 102.772 30.555 102.854 30.6894 102.91C30.8238 102.965 30.9678 102.994 31.1133 102.994H103.887C104.032 102.994 104.176 102.965 104.311 102.91C104.445 102.854 104.567 102.772 104.67 102.67C104.773 102.567 104.854 102.445 104.91 102.31C104.966 102.176 104.994 102.032 104.994 101.886V98.0894C104.994 97.944 104.966 97.7999 104.91 97.6655C104.854 97.5311 104.773 97.409 104.67 97.3062C104.567 97.2033 104.445 97.1218 104.311 97.0661C104.176 97.0105 104.032 96.9819 103.887 96.982ZM92.7688 96.982V85.4332C92.7688 85.1395 92.6522 84.8578 92.4445 84.6501C92.2368 84.4424 91.9551 84.3258 91.6614 84.3258H84.0677C83.9222 84.3257 83.7782 84.3543 83.6438 84.4099C83.5094 84.4655 83.3873 84.5471 83.2844 84.6499C83.1816 84.7528 83.1 84.8749 83.0444 85.0093C82.9887 85.1437 82.9602 85.2877 82.9602 85.4332V96.982H81.2517V85.4332C81.2517 85.1395 81.135 84.8578 80.9273 84.6501C80.7196 84.4424 80.4379 84.3258 80.1442 84.3258H72.5505C72.405 84.3257 72.261 84.3543 72.1266 84.4099C71.9922 84.4655 71.8701 84.5471 71.7672 84.6499C71.6644 84.7528 71.5828 84.8749 71.5272 85.0093C71.4716 85.1437 71.443 85.2877 71.4431 85.4332V96.982H46.1109V64.3055L98.9824 57.9514V96.982H92.7688ZM90.554 96.982H85.1751V86.5406H90.554V96.982ZM79.0368 96.982H73.6579V86.5406H79.0368V96.982ZM68.5954 41.416H79.0368V42.998H68.5954V41.416ZM69.251 45.2129H78.3793L78.9944 58.1223L68.5758 59.3746L69.251 45.2129ZM39.7866 41.416H50.2242V42.998H39.7828L39.7866 41.416ZM40.4454 45.2129H49.5731L50.347 61.5648L41.0731 62.6804C40.7935 62.7147 40.5374 62.8542 40.3571 63.0706C40.1767 63.287 40.0856 63.564 40.1023 63.8452C40.119 64.1264 40.2423 64.3907 40.4469 64.5843C40.6516 64.7778 40.9224 64.8861 41.2041 64.887C41.2487 64.887 41.2933 64.8845 41.3376 64.8794L43.8961 64.5713V87.4898H38.4254L40.4454 45.2129ZM36.4213 89.7047H43.8961V96.982H36.072L36.4213 89.7047ZM102.779 100.779H32.2207V99.1969H102.779V100.779Z" fill="#159822"/>
<path d="M65.252 80.6348H52.5957C52.302 80.6348 52.0203 80.7514 51.8126 80.9591C51.605 81.1668 51.4883 81.4485 51.4883 81.7422C51.4883 82.0359 51.605 82.3176 51.8126 82.5253C52.0203 82.7329 52.302 82.8496 52.5957 82.8496H65.252C65.5457 82.8496 65.8273 82.7329 66.035 82.5253C66.2427 82.3176 66.3594 82.0359 66.3594 81.7422C66.3594 81.4485 66.2427 81.1668 66.035 80.9591C65.8273 80.7514 65.5457 80.6348 65.252 80.6348Z" fill="#159822"/>
<path d="M65.252 73.041H52.5957C52.302 73.041 52.0203 73.1577 51.8126 73.3654C51.605 73.5731 51.4883 73.8547 51.4883 74.1484C51.4883 74.4421 51.605 74.7238 51.8126 74.9315C52.0203 75.1392 52.302 75.2559 52.5957 75.2559H65.252C65.5457 75.2559 65.8273 75.1392 66.035 74.9315C66.2427 74.7238 66.3594 74.4421 66.3594 74.1484C66.3594 73.8547 66.2427 73.5731 66.035 73.3654C65.8273 73.1577 65.5457 73.041 65.252 73.041Z" fill="#159822"/>
<path d="M65.252 76.8379H52.5957C52.302 76.8379 52.0203 76.9546 51.8126 77.1622C51.605 77.3699 51.4883 77.6516 51.4883 77.9453C51.4883 78.239 51.605 78.5207 51.8126 78.7284C52.0203 78.9361 52.302 79.0527 52.5957 79.0527H65.252C65.5457 79.0527 65.8273 78.9361 66.035 78.7284C66.2427 78.5207 66.3594 78.239 66.3594 77.9453C66.3594 77.6516 66.2427 77.3699 66.035 77.1622C65.8273 76.9546 65.5457 76.8379 65.252 76.8379Z" fill="#159822"/>
<path d="M78.2441 74.9395H74.4473C74.3018 74.9394 74.1578 74.968 74.0234 75.0236C73.889 75.0792 73.7669 75.1608 73.664 75.2636C73.5612 75.3665 73.4796 75.4886 73.424 75.623C73.3684 75.7574 73.3398 75.9014 73.3398 76.0469V79.8438C73.3398 79.9892 73.3684 80.1332 73.424 80.2676C73.4796 80.402 73.5612 80.5242 73.664 80.627C73.7669 80.7299 73.889 80.8114 74.0234 80.867C74.1578 80.9227 74.3018 80.9513 74.4473 80.9512H78.2441C78.5378 80.9512 78.8195 80.8345 79.0272 80.6268C79.2349 80.4191 79.3516 80.1375 79.3516 79.8438V76.0469C79.3516 75.7532 79.2349 75.4715 79.0272 75.2638C78.8195 75.0561 78.5378 74.9395 78.2441 74.9395ZM77.1367 78.7363H75.5547V77.1543H77.1367V78.7363Z" fill="#159822"/>
<path d="M89.7632 74.9395H85.9663C85.8209 74.9394 85.6768 74.968 85.5424 75.0236C85.408 75.0792 85.2859 75.1608 85.1831 75.2636C85.0802 75.3665 84.9986 75.4886 84.943 75.623C84.8874 75.7574 84.8588 75.9014 84.8589 76.0469V79.8438C84.8588 79.9892 84.8874 80.1332 84.943 80.2676C84.9986 80.402 85.0802 80.5242 85.1831 80.627C85.2859 80.7299 85.408 80.8114 85.5424 80.867C85.6768 80.9227 85.8209 80.9513 85.9663 80.9512H89.7632C90.0569 80.9512 90.3386 80.8345 90.5462 80.6268C90.7539 80.4191 90.8706 80.1375 90.8706 79.8438V76.0469C90.8706 75.7532 90.7539 75.4715 90.5462 75.2638C90.3386 75.0561 90.0569 74.9395 89.7632 74.9395ZM88.6558 78.7363H87.0737V77.1543H88.6558V78.7363Z" fill="#159822"/>
</svg>
