<svg width="135" height="162" viewBox="0 0 135 162" fill="none" xmlns="http://www.w3.org/2000/svg">
<circle cx="67.5" cy="67.5" r="58" stroke="#D1D1D1"/>
<circle cx="67.5" cy="154.5" r="7.5" fill="#159822"/>
<path d="M132.5 67.5C132.5 103.399 103.399 132.5 67.5 132.5C31.6015 132.5 2.5 103.399 2.5 67.5C2.5 31.6015 31.6015 2.5 67.5 2.5C103.399 2.5 132.5 31.6015 132.5 67.5ZM67.5 134.5C104.503 134.5 134.5 104.503 134.5 67.5C134.5 30.4969 104.503 0.5 67.5 0.5C30.4969 0.5 0.5 30.4969 0.5 67.5C0.5 104.503 30.4969 134.5 67.5 134.5Z" fill="#159822" stroke="#159822"/>
<path fill-rule="evenodd" clip-rule="evenodd" d="M66 148L66 134L69 134L69 148L66 148Z" fill="#159822"/>
<path d="M94.875 33.2812V36.7031H90.3125V41.2656H85.75V36.7031H81.1875H76.625V41.2656H72.0625V36.7031H67.5V50.3906H81.1875H94.875V58.375H90.3125V62.9375H85.75V58.375H81.1875V72.0625H94.875V80.0469H90.3125V84.6094H85.75V80.0469H81.1875H76.625V84.6094H72.0625V80.0469H67.5H62.9375V84.6094H58.375V80.0469H53.8125H49.25V84.6094H44.6875V80.0469H40.125V72.0625H53.8125H67.5V58.375H62.9375V62.9375H58.375V58.375H53.8125H49.25V62.9375H44.6875V58.375H40.125V50.3906H53.8125V36.7031H49.25V41.2656H44.6875V36.7031H40.125V33.2812H36.7031V101.719H40.125V93.7344H53.8125H67.5H81.1875H94.875V101.719H98.2969V33.2812H94.875Z" fill="white"/>
<path d="M98.2969 32.1406H94.875C94.5725 32.1406 94.2824 32.2608 94.0685 32.4747C93.8545 32.6886 93.7344 32.9787 93.7344 33.2812V35.5625H67.5C67.1975 35.5625 66.9074 35.6827 66.6935 35.8966C66.4795 36.1105 66.3594 36.4006 66.3594 36.7031V49.25H54.9531V36.7031C54.9531 36.4006 54.833 36.1105 54.619 35.8966C54.4051 35.6827 54.115 35.5625 53.8125 35.5625H41.2656V33.2812C41.2656 32.9787 41.1455 32.6886 40.9315 32.4747C40.7176 32.2608 40.4275 32.1406 40.125 32.1406H36.7031C36.4006 32.1406 36.1105 32.2608 35.8966 32.4747C35.6827 32.6886 35.5625 32.9787 35.5625 33.2812V101.719C35.5625 102.021 35.6827 102.311 35.8966 102.525C36.1105 102.739 36.4006 102.859 36.7031 102.859H40.125C40.4275 102.859 40.7176 102.739 40.9315 102.525C41.1455 102.311 41.2656 102.021 41.2656 101.719V98.2969H93.7344V101.719C93.7344 102.021 93.8545 102.311 94.0685 102.525C94.2824 102.739 94.5725 102.859 94.875 102.859H98.2969C98.5994 102.859 98.8895 102.739 99.1034 102.525C99.3173 102.311 99.4375 102.021 99.4375 101.719V33.2812C99.4375 32.9787 99.3173 32.6886 99.1034 32.4747C98.8895 32.2608 98.5994 32.1406 98.2969 32.1406ZM38.9844 100.578H37.8438V34.4219H38.9844V100.578ZM86.8906 37.8438H89.1719V40.125H86.8906V37.8438ZM73.2031 37.8438H75.4844V40.125H73.2031V37.8438ZM68.6406 37.8438H70.9219V41.2656C70.9219 41.5681 71.042 41.8583 71.256 42.0722C71.4699 42.2861 71.76 42.4062 72.0625 42.4062H76.625C76.9275 42.4062 77.2176 42.2861 77.4315 42.0722C77.6455 41.8583 77.7656 41.5681 77.7656 41.2656V37.8438H80.0469V49.25H68.6406V37.8438ZM45.8281 37.8438H48.1094V40.125H45.8281V37.8438ZM41.2656 37.8438H43.5469V41.2656C43.5469 41.5681 43.667 41.8583 43.881 42.0722C44.0949 42.2861 44.385 42.4062 44.6875 42.4062H49.25C49.5525 42.4062 49.8426 42.2861 50.0565 42.0722C50.2705 41.8583 50.3906 41.5681 50.3906 41.2656V37.8438H52.6719V49.25H41.2656V37.8438ZM41.2656 59.5156H43.5469V62.9375C43.5469 63.24 43.667 63.5301 43.881 63.744C44.0949 63.958 44.385 64.0781 44.6875 64.0781H49.25C49.5525 64.0781 49.8426 63.958 50.0565 63.744C50.2705 63.5301 50.3906 63.24 50.3906 62.9375V59.5156H52.6719V70.9219H41.2656V59.5156ZM45.8281 61.7969V59.5156H48.1094V61.7969H45.8281ZM41.2656 81.1875H43.5469V84.6094C43.5469 84.9119 43.667 85.202 43.881 85.4159C44.0949 85.6298 44.385 85.75 44.6875 85.75H49.25C49.5525 85.75 49.8426 85.6298 50.0565 85.4159C50.2705 85.202 50.3906 84.9119 50.3906 84.6094V81.1875H52.6719V92.5938H41.2656V81.1875ZM45.8281 83.4688V81.1875H48.1094V83.4688H45.8281ZM93.7344 96.0156H41.2656V94.875H93.7344V96.0156ZM58.375 85.75H62.9375C63.24 85.75 63.5301 85.6298 63.744 85.4159C63.958 85.202 64.0781 84.9119 64.0781 84.6094V81.1875H66.3594V92.5938H54.9531V81.1875H57.2344V84.6094C57.2344 84.9119 57.3545 85.202 57.5685 85.4159C57.7824 85.6298 58.0725 85.75 58.375 85.75ZM59.5156 83.4688V81.1875H61.7969V83.4688H59.5156ZM72.0625 85.75H76.625C76.9275 85.75 77.2176 85.6298 77.4315 85.4159C77.6455 85.202 77.7656 84.9119 77.7656 84.6094V81.1875H80.0469V92.5938H68.6406V81.1875H70.9219V84.6094C70.9219 84.9119 71.042 85.202 71.256 85.4159C71.4699 85.6298 71.76 85.75 72.0625 85.75ZM73.2031 83.4688V81.1875H75.4844V83.4688H73.2031ZM93.7344 92.5938H82.3281V81.1875H84.6094V84.6094C84.6094 84.9119 84.7295 85.202 84.9435 85.4159C85.1574 85.6298 85.4475 85.75 85.75 85.75H90.3125C90.615 85.75 90.9051 85.6298 91.119 85.4159C91.333 85.202 91.4531 84.9119 91.4531 84.6094V81.1875H93.7344V92.5938ZM86.8906 83.4688V81.1875H89.1719V83.4688H86.8906ZM93.7344 78.9062H41.2656V76.625H93.7344V78.9062ZM93.7344 74.3438H41.2656V73.2031H93.7344V74.3438ZM58.375 64.0781H62.9375C63.24 64.0781 63.5301 63.958 63.744 63.744C63.958 63.5301 64.0781 63.24 64.0781 62.9375V59.5156H66.3594V70.9219H54.9531V59.5156H57.2344V62.9375C57.2344 63.24 57.3545 63.5301 57.5685 63.744C57.7824 63.958 58.0725 64.0781 58.375 64.0781ZM59.5156 61.7969V59.5156H61.7969V61.7969H59.5156ZM93.7344 70.9219H82.3281V59.5156H84.6094V62.9375C84.6094 63.24 84.7295 63.5301 84.9435 63.744C85.1574 63.958 85.4475 64.0781 85.75 64.0781H90.3125C90.615 64.0781 90.9051 63.958 91.119 63.744C91.333 63.5301 91.4531 63.24 91.4531 62.9375V59.5156H93.7344V70.9219ZM86.8906 61.7969V59.5156H89.1719V61.7969H86.8906ZM93.7344 57.2344H81.1875C80.885 57.2344 80.5949 57.3545 80.381 57.5685C80.167 57.7824 80.0469 58.0725 80.0469 58.375V70.9219H68.6406V58.375C68.6406 58.0725 68.5205 57.7824 68.3065 57.5685C68.0926 57.3545 67.8025 57.2344 67.5 57.2344H41.2656V54.9531H93.7344V57.2344ZM93.7344 52.6719H41.2656V51.5312H93.7344V52.6719ZM93.7344 49.25H82.3281V37.8438H84.6094V41.2656C84.6094 41.5681 84.7295 41.8583 84.9435 42.0722C85.1574 42.2861 85.4475 42.4062 85.75 42.4062H90.3125C90.615 42.4062 90.9051 42.2861 91.119 42.0722C91.333 41.8583 91.4531 41.5681 91.4531 41.2656V37.8438H93.7344V49.25ZM97.1562 100.578H96.0156V34.4219H97.1562V100.578Z" fill="#159822"/>
</svg>
