<svg width="135" height="161" viewBox="0 0 135 161" fill="none" xmlns="http://www.w3.org/2000/svg">
<circle cx="67.5" cy="66.5" r="58.5" fill="#D1D1D1"/>
<circle cx="67.5" cy="153.5" r="7.5" fill="#159822"/>
<path fill-rule="evenodd" clip-rule="evenodd" d="M67.5 132C103.675 132 133 102.675 133 66.5C133 30.3253 103.675 1 67.5 1C31.3253 1 2 30.3253 2 66.5C2 102.675 31.3253 132 67.5 132ZM67.5 133C104.227 133 134 103.227 134 66.5C134 29.7731 104.227 0 67.5 0C30.7731 0 1 29.7731 1 66.5C1 103.227 30.7731 133 67.5 133Z" fill="#D1D1D1"/>
<path fill-rule="evenodd" clip-rule="evenodd" d="M2.97794 67C2.97794 102.635 31.8654 131.522 67.5 131.522C103.135 131.522 132.022 102.635 132.022 67H135C135 104.279 104.779 134.5 67.5 134.5C30.2208 134.5 0 104.279 0 67H2.97794Z" fill="#159822"/>
<path fill-rule="evenodd" clip-rule="evenodd" d="M66 147L66 133L69 133L69 147L66 147Z" fill="#159822"/>
<g clip-path="url(#clip0)">
<path d="M89.9153 41.9784V42.2083C89.9153 42.8393 90.4267 43.3509 91.0579 43.3509C91.689 43.3509 92.2005 42.8393 92.2005 42.2083V41.9784C92.2005 41.172 91.9148 40.3885 91.3961 39.7721C90.9898 39.2895 90.269 39.2272 89.7863 39.6335C89.3035 40.0398 89.2415 40.7606 89.6478 41.2435C89.7697 41.3887 89.9153 41.6339 89.9153 41.9784Z" fill="#159822"/>
<path d="M91.0581 50.5107C90.4269 50.5107 89.9155 51.0223 89.9155 51.6533V53.4814C89.9155 54.1125 90.4269 54.624 91.0581 54.624C91.6893 54.624 92.2007 54.1125 92.2007 53.4814V51.6533C92.2007 51.0223 91.6893 50.5107 91.0581 50.5107Z" fill="#159822"/>
<path d="M92.2007 46.0166C92.2007 45.3856 91.6893 44.874 91.0581 44.874C90.4269 44.874 89.9155 45.3856 89.9155 46.0166V47.8447C89.9155 48.4757 90.4269 48.9873 91.0581 48.9873C91.6893 48.9873 92.2007 48.4757 92.2007 47.8447V46.0166Z" fill="#159822"/>
<path d="M72.4844 93.5947H70.6562C70.0251 93.5947 69.5137 94.1063 69.5137 94.7373C69.5137 95.3683 70.0251 95.8799 70.6562 95.8799H72.4844C73.1155 95.8799 73.627 95.3683 73.627 94.7373C73.627 94.1063 73.1155 93.5947 72.4844 93.5947Z" fill="#159822"/>
<path d="M66.8477 93.5947H65.0195C64.3885 93.5947 63.877 94.1063 63.877 94.7373C63.877 95.3683 64.3885 95.8799 65.0195 95.8799H66.8477C67.4788 95.8799 67.9902 95.3683 67.9902 94.7373C67.9902 94.1063 67.4788 93.5947 66.8477 93.5947Z" fill="#159822"/>
<path d="M61.2109 93.5947H59.3828C58.7518 93.5947 58.2402 94.1063 58.2402 94.7373C58.2402 95.3683 58.7518 95.8799 59.3828 95.8799H61.2109C61.8419 95.8799 62.3535 95.3683 62.3535 94.7373C62.3535 94.1063 61.8419 93.5947 61.2109 93.5947Z" fill="#159822"/>
<path d="M55.5742 93.5947H53.7461C53.1151 93.5947 52.6035 94.1063 52.6035 94.7373C52.6035 95.3683 53.1151 95.8799 53.7461 95.8799H55.5742C56.2052 95.8799 56.7168 95.3683 56.7168 94.7373C56.7168 94.1063 56.2052 93.5947 55.5742 93.5947Z" fill="#159822"/>
<path d="M50.4103 93.5041C50.1275 93.3836 49.9018 93.1502 49.7912 92.8636C49.5634 92.2749 48.9018 91.9826 48.3134 92.2099C47.7249 92.4375 47.4321 93.099 47.6597 93.6876C47.9915 94.5459 48.6675 95.2452 49.5142 95.6061C49.6603 95.6684 49.8123 95.698 49.9618 95.698C50.4059 95.698 50.8283 95.4375 51.0134 95.0031C51.2608 94.4225 50.9909 93.7515 50.4103 93.5041Z" fill="#159822"/>
<path d="M48.5723 90.6289C49.2033 90.6289 49.7148 90.1173 49.7148 89.4863V87.6582C49.7148 87.0272 49.2033 86.5156 48.5723 86.5156C47.9413 86.5156 47.4297 87.0272 47.4297 87.6582V89.4863C47.4297 90.1175 47.9413 90.6289 48.5723 90.6289Z" fill="#159822"/>
<path d="M53.7791 49.2393H37.9326C37.3016 49.2393 36.79 49.7508 36.79 50.3818C36.79 51.0128 37.3016 51.5244 37.9326 51.5244H53.7791C54.4101 51.5244 54.9217 51.0128 54.9217 50.3818C54.9217 49.7508 54.4101 49.2393 53.7791 49.2393Z" fill="#159822"/>
<path d="M53.7791 54.7754H37.9326C37.3016 54.7754 36.79 55.287 36.79 55.918C36.79 56.549 37.3016 57.0606 37.9326 57.0606H53.7791C54.4101 57.0606 54.9217 56.549 54.9217 55.918C54.9217 55.287 54.4101 54.7754 53.7791 54.7754Z" fill="#159822"/>
<path d="M53.7791 60.2861H37.9326C37.3016 60.2861 36.79 60.7977 36.79 61.4287C36.79 62.0597 37.3016 62.5713 37.9326 62.5713H53.7791C54.4101 62.5713 54.9217 62.0597 54.9217 61.4287C54.9217 60.7977 54.4101 60.2861 53.7791 60.2861Z" fill="#159822"/>
<path d="M54.9217 66.9893C54.9217 66.3582 54.4101 65.8467 53.7791 65.8467H37.9326C37.3016 65.8467 36.79 66.3582 36.79 66.9893C36.79 67.6203 37.3016 68.1318 37.9326 68.1318H53.7791C54.4101 68.1318 54.9217 67.6203 54.9217 66.9893Z" fill="#159822"/>
<path d="M37.9326 71.3828C37.3016 71.3828 36.79 71.8944 36.79 72.5254C36.79 73.1564 37.3016 73.668 37.9326 73.668H45.0363C45.6673 73.668 46.1788 73.1564 46.1788 72.5254C46.1788 71.8944 45.6673 71.3828 45.0363 71.3828H37.9326Z" fill="#159822"/>
<path d="M61.1636 83.2882C61.3866 83.5112 61.6791 83.6229 61.9715 83.6229C62.2638 83.6229 62.5563 83.5114 62.7794 83.2882L67.3916 78.676C67.8378 78.2298 67.8378 77.5063 67.3916 77.0602C66.9452 76.614 66.2219 76.614 65.7758 77.0602L61.9715 80.8646L59.3039 78.197C58.8577 77.7508 58.1342 77.7508 57.6882 78.197C57.242 78.6433 57.242 79.3667 57.6882 79.8128L61.1636 83.2882Z" fill="#159822"/>
<path d="M79.3408 52.8502C80.4026 52.019 81.3625 51.0591 82.194 49.9968C82.82 49.1968 82.7482 48.0497 82.027 47.3285L79.9443 45.2459C80.2173 44.7054 80.4506 44.142 80.6396 43.5662H83.5863C84.6064 43.5662 85.4683 42.806 85.591 41.7978C85.6297 41.4792 85.6588 41.1578 85.679 40.8359H86.957C87.5882 40.8359 88.0996 40.3243 88.0996 39.6933C88.0996 39.0623 87.5882 38.5507 86.957 38.5507H85.6662C85.6467 38.2867 85.623 38.0233 85.5913 37.7619C85.4685 36.7537 84.6067 35.9935 83.5866 35.9935H80.6399C80.451 35.4179 80.2178 34.8546 79.9446 34.3137L82.0273 32.231C82.7485 31.5097 82.8203 30.3625 82.1943 29.5627C81.363 28.5008 80.4029 27.5408 79.3411 26.7095C78.5411 26.0832 77.394 26.1547 76.6728 26.8763L74.5899 28.9588C74.0497 28.6858 73.4863 28.4526 72.9103 28.2636V25.3169C72.9103 24.2968 72.1501 23.4349 71.1421 23.3122C69.8095 23.1498 68.4389 23.1498 67.106 23.3122C66.0978 23.435 65.3376 24.2967 65.3376 25.3169V28.2634C64.7618 28.4525 64.1982 28.6857 63.6579 28.9588L61.5753 26.8763C60.854 26.1548 59.7067 26.0831 58.907 26.7092C57.8449 27.5405 56.885 28.5004 56.0538 29.5624C55.4275 30.3624 55.4993 31.5095 56.2206 32.2309L58.3032 34.3134C58.0302 34.8538 57.7968 35.4175 57.6077 35.9932H54.6612C53.6411 35.9932 52.7793 36.7534 52.6565 37.7614C52.6247 38.0228 52.6008 38.2862 52.5814 38.5504H36.5582C35.8462 38.5504 35.1766 38.8277 34.673 39.3313L28.7808 45.2238C28.2773 45.7273 28 46.3967 28 47.1089V80.0361C28 81.506 29.1961 82.7021 30.666 82.7021H47.4299V83.8497C47.4299 84.4807 47.9415 84.9923 48.5725 84.9923C49.2035 84.9923 49.7151 84.4807 49.7151 83.8497V82.7021H52.8346C54.0357 86.932 57.9304 90.0405 62.54 90.0405C68.1036 90.0405 72.6297 85.5142 72.6297 79.9507C72.6297 74.7839 68.725 70.5141 63.7118 69.9312V64.7415C63.7118 64.1105 63.2002 63.5989 62.5692 63.5989C61.9382 63.5989 61.4267 64.1105 61.4267 64.7415V69.9238C56.3851 70.4798 52.4501 74.7636 52.4501 79.9507C52.4501 80.107 52.4548 80.2623 52.462 80.4171H30.666C30.4561 80.4171 30.2852 80.2461 30.2852 80.0362V47.1089C30.2852 47.0087 30.3258 46.9106 30.3967 46.8396L36.2889 40.9474C36.3609 40.8755 36.4564 40.8359 36.5582 40.8359H52.5679C52.5883 41.1579 52.6174 41.4794 52.6561 41.7978C52.7789 42.806 53.6405 43.5662 54.6608 43.5662H57.6072C57.7963 44.142 58.0295 44.7056 58.3027 45.2459L56.2202 47.3285C55.4988 48.0497 55.4269 49.197 56.0532 49.9969C56.8847 51.0591 57.8446 52.019 58.9064 52.8502C59.6535 53.4349 60.7036 53.4105 61.4265 52.8169V59.4093C61.4265 60.0403 61.9381 60.5519 62.5691 60.5519C63.2001 60.5519 63.7117 60.0403 63.7117 59.4093V50.6269C64.2357 50.8884 64.7805 51.1133 65.337 51.2959V54.2424C65.337 55.2625 66.0972 56.1245 67.1054 56.2473C67.7719 56.3283 68.4511 56.3694 69.1234 56.3694C69.7958 56.3694 70.4748 56.3283 71.1413 56.2471C72.1495 56.1245 72.9097 55.2625 72.9097 54.2424V51.2959C73.4856 51.1069 74.0491 50.8736 74.5895 50.6006L76.672 52.6832C77.3938 53.4044 78.5406 53.4761 79.3408 52.8502ZM62.54 72.1459C66.8435 72.1459 70.3446 75.647 70.3446 79.9504C70.3446 84.2538 66.8434 87.755 62.54 87.755C58.2366 87.755 54.7354 84.2538 54.7354 79.9504C54.7354 75.647 58.2364 72.1459 62.54 72.1459ZM73.6937 48.4916C73.1699 48.7666 72.6177 48.9953 72.052 49.1711C71.1983 49.4366 70.6249 50.2119 70.6249 51.1003V54.0058C69.6299 54.1099 68.6177 54.1099 67.6225 54.0058V51.1003C67.6225 50.2119 67.0489 49.4366 66.195 49.1709C65.6295 48.9951 65.0771 48.7666 64.5535 48.4914C63.7619 48.0757 62.808 48.2183 62.1797 48.8464L60.1261 50.9C59.347 50.2687 58.6345 49.5562 58.003 48.7769L60.0565 46.7234C60.6847 46.0951 60.8273 45.1413 60.4116 44.3497C60.1366 43.8261 59.9079 43.2738 59.732 42.708C59.4664 41.8543 58.691 41.2807 57.8027 41.2807H54.8972C54.8453 40.7833 54.8189 40.2794 54.8189 39.7795C54.8189 39.2797 54.8453 38.7759 54.8972 38.2783H57.8027C58.6912 38.2783 59.4664 37.7048 59.732 36.851C59.9079 36.2854 60.1366 35.733 60.4114 35.2095C60.8273 34.4178 60.6846 33.464 60.0565 32.8357L58.003 30.7821C58.6343 30.003 59.3469 29.2903 60.1261 28.659L62.1797 30.7125C62.8078 31.3406 63.7616 31.4833 64.5535 31.0676C65.0771 30.7926 65.6295 30.5639 66.195 30.388C67.0488 30.1226 67.6225 29.3472 67.6225 28.4587V25.5534C68.6171 25.4493 69.6299 25.4493 70.6249 25.5534V28.4589C70.6249 29.3475 71.1986 30.1228 72.052 30.3881C72.6178 30.5641 73.1702 30.7928 73.6937 31.0677C74.4854 31.4835 75.4395 31.3407 76.0673 30.7126L78.1211 28.6593C78.9002 29.2907 79.6128 30.0032 80.2442 30.7824L78.1907 32.836C78.1906 32.836 78.1906 32.836 78.1906 32.836C77.5623 33.4643 77.4197 34.4182 77.8356 35.2097C78.1109 35.7337 78.3396 36.2861 78.5152 36.8512C78.7804 37.7051 79.5559 38.2788 80.4445 38.2788H83.35C83.4021 38.7766 83.4284 39.2806 83.4284 39.78C83.4284 40.2794 83.4021 40.7833 83.35 41.2812H80.4443C79.5556 41.2812 78.7803 41.8549 78.5152 42.7085C78.3393 43.274 78.1106 43.8264 77.8358 44.35C77.4197 45.1416 77.5623 46.0955 78.1904 46.724L80.244 48.7776C79.6125 49.5568 78.9 50.2693 78.1209 50.9006L76.0675 48.847C75.4394 48.2185 74.4856 48.0759 73.6937 48.4916Z" fill="#159822"/>
<path d="M74.9928 35.9304C74.416 36.1863 74.156 36.8614 74.4119 37.4381C74.7407 38.179 74.9073 38.9668 74.9073 39.7795C74.9073 42.9685 72.3129 45.5629 69.1238 45.5629C65.9347 45.5629 63.3403 42.9685 63.3403 39.7795C63.3403 36.5905 65.9347 33.9961 69.1238 33.9961C69.8294 33.9961 70.5209 34.123 71.179 34.3733C71.7686 34.5971 72.4287 34.3014 72.6531 33.7115C72.8775 33.1216 72.5812 32.4617 71.9913 32.2374C71.0728 31.8881 70.108 31.7109 69.1238 31.7109C64.6747 31.7109 61.0552 35.3305 61.0552 39.7795C61.0552 44.2286 64.6747 47.8481 69.1238 47.8481C73.5728 47.8481 77.1925 44.2286 77.1925 39.7795C77.1925 38.6455 76.9597 37.5459 76.5007 36.5113C76.2448 35.9345 75.5694 35.6746 74.9928 35.9304Z" fill="#159822"/>
<path d="M69.1233 36.2324C67.1674 36.2324 65.5762 37.8237 65.5762 39.7796C65.5762 41.7355 67.1674 43.3268 69.1233 43.3268C71.0793 43.3268 72.6705 41.7355 72.6705 39.7796C72.6705 37.8237 71.0793 36.2324 69.1233 36.2324ZM69.1233 41.0416C68.4274 41.0416 67.8613 40.4755 67.8613 39.7796C67.8613 39.0837 68.4274 38.5176 69.1233 38.5176C69.8192 38.5176 70.3854 39.0837 70.3854 39.7796C70.3854 40.4755 69.8194 41.0416 69.1233 41.0416Z" fill="#159822"/>
<path d="M104.096 71.942C105.146 71.942 106 71.0878 106 70.0377V61.7045C106 60.6544 105.146 59.8002 104.096 59.8002H91.9733C92.1155 59.6098 92.2007 59.3741 92.2007 59.1182V57.29C92.2007 56.659 91.6893 56.1475 91.0581 56.1475C90.427 56.1475 89.9155 56.659 89.9155 57.29V59.1182C89.9155 59.3741 90.0007 59.6098 90.143 59.8002H78.0205C76.9704 59.8002 76.1162 60.6544 76.1162 61.7045V70.0377C76.1162 71.0878 76.9704 71.942 78.0205 71.942H89.9155V74.2331H78.0205C76.9704 74.2331 76.1162 75.0873 76.1162 76.1374V84.4706C76.1162 85.5207 76.9704 86.3749 78.0205 86.3749H89.9155V88.6661H78.0205C76.9704 88.6661 76.1162 89.5203 76.1162 90.5704V93.6095C75.5693 93.6947 75.1504 94.1664 75.1504 94.737C75.1504 95.3077 75.5693 95.7794 76.1162 95.8645V98.9036C76.1162 99.9538 76.9704 100.808 78.0205 100.808H104.096C105.146 100.808 106 99.9538 106 98.9036V90.5704C106 89.5203 105.146 88.6661 104.096 88.6661H92.2007V86.3749H95.1836C95.8148 86.3749 96.3262 85.8633 96.3262 85.2323C96.3262 84.6013 95.8148 84.0897 95.1836 84.0897H78.4014V76.5183H103.715V84.0897H100.516C99.8845 84.0897 99.373 84.6013 99.373 85.2323C99.373 85.8633 99.8845 86.3749 100.516 86.3749H104.096C105.146 86.3749 106 85.5207 106 84.4706V76.1374C106 75.0873 105.146 74.2331 104.096 74.2331H92.2007V71.942H104.096ZM103.715 90.9513V98.5228H78.4014V90.9513H103.715ZM78.4014 69.6568V62.0854H103.715V69.6568H78.4014Z" fill="#159822"/>
<path d="M99.4365 64.7285H82.6802C82.049 64.7285 81.5376 65.2401 81.5376 65.8711C81.5376 66.5021 82.049 67.0137 82.6802 67.0137H99.4365C100.068 67.0137 100.579 66.5021 100.579 65.8711C100.579 65.2401 100.068 64.7285 99.4365 64.7285Z" fill="#159822"/>
<path d="M100.579 80.3047C100.579 79.6737 100.068 79.1621 99.4365 79.1621H82.6802C82.049 79.1621 81.5376 79.6737 81.5376 80.3047C81.5376 80.9357 82.049 81.4473 82.6802 81.4473H99.4365C100.068 81.4473 100.579 80.9357 100.579 80.3047Z" fill="#159822"/>
<path d="M82.6802 95.8799H99.4365C100.068 95.8799 100.579 95.3683 100.579 94.7373C100.579 94.1063 100.068 93.5947 99.4365 93.5947H82.6802C82.049 93.5947 81.5376 94.1063 81.5376 94.7373C81.5376 95.3683 82.049 95.8799 82.6802 95.8799Z" fill="#159822"/>
</g>
<defs>
<clipPath id="clip0">
<rect width="78" height="78" fill="white" transform="translate(28 23)"/>
</clipPath>
</defs>
</svg>
