<svg width="135" height="162" viewBox="0 0 135 162" fill="none" xmlns="http://www.w3.org/2000/svg">
<circle cx="67.5" cy="67.5" r="58" stroke="#D1D1D1"/>
<circle cx="67.5" cy="154.5" r="7.5" fill="#159822"/>
<path d="M132.5 67.5C132.5 103.399 103.399 132.5 67.5 132.5C31.6015 132.5 2.5 103.399 2.5 67.5C2.5 31.6015 31.6015 2.5 67.5 2.5C103.399 2.5 132.5 31.6015 132.5 67.5ZM67.5 134.5C104.503 134.5 134.5 104.503 134.5 67.5C134.5 30.4969 104.503 0.5 67.5 0.5C30.4969 0.5 0.5 30.4969 0.5 67.5C0.5 104.503 30.4969 134.5 67.5 134.5Z" fill="#159822" stroke="#159822"/>
<path fill-rule="evenodd" clip-rule="evenodd" d="M66 148L66 134L69 134L69 148L66 148Z" fill="#159822"/>
<path d="M91.9579 31.341C91.8401 30.8827 91.4881 30.521 91.0331 30.3909L81.6998 27.7242C80.9981 27.501 80.2483 27.8889 80.0251 28.5907C79.8019 29.2925 80.1898 30.0422 80.8916 30.2654C80.9164 30.2732 80.9414 30.2804 80.9666 30.2869L85.5693 31.6029L38.3345 43.7135C37.6211 43.8965 37.1913 44.623 37.3741 45.3364C37.3743 45.3367 37.3743 45.3372 37.3745 45.3375C37.526 45.927 38.0576 46.3392 38.6665 46.3389C38.7785 46.3387 38.8899 46.3249 38.9984 46.2975L90.9984 32.9642C91.7116 32.781 92.1413 32.0542 91.9579 31.341Z" fill="#159822"/>
<path d="M101.333 81.0059C100.597 81.0059 100 81.6029 100 82.3392V86.3392H93.3333C92.597 86.3392 92 86.9362 92 87.6725C92 88.4089 92.597 89.0059 93.3333 89.0059H101.333C102.07 89.0059 102.667 88.4089 102.667 87.6725V82.3392C102.667 81.6029 102.07 81.0059 101.333 81.0059Z" fill="#159822"/>
<path d="M88 86.3389H85.3333C84.597 86.3389 84 86.9359 84 87.6722C84 88.4085 84.597 89.0055 85.3333 89.0055H88C88.7363 89.0055 89.3333 88.4085 89.3333 87.6722C89.3333 86.9359 88.7363 86.3389 88 86.3389Z" fill="#159822"/>
<path d="M106.666 61.0065C106.539 61.0067 106.413 61.0247 106.292 61.0602L102.667 62.1269V42.3389C102.667 41.6025 102.069 41.0057 101.333 41.0059C101.204 41.0059 101.076 41.0247 100.952 41.0615L38.2853 59.7282C37.7205 59.8967 37.3335 60.4162 37.3333 61.0055V81.2722L28.9587 83.7269C28.3908 83.8932 28.0003 84.4139 28 85.0055V93.0055C28 93.7419 28.597 94.3389 29.3333 94.3389H106.667C107.403 94.3389 108 93.7419 108 93.0055V62.3389C108 61.6025 107.402 61.006 106.666 61.0065ZM40 62.0002L100 44.1335V62.9029L97.3333 63.6855V48.5335L42.6667 65.3535V79.7082L40.2053 80.4295L40 80.4895V62.0002ZM94.6667 52.1442V64.4722L45.3333 78.9269V67.3269L94.6667 52.1442ZM105.333 91.6722H30.6667V86.0042L105.333 64.1189V91.6722Z" fill="#159822"/>
</svg>
