<svg width="135" height="161" viewBox="0 0 135 161" fill="none" xmlns="http://www.w3.org/2000/svg">
<circle cx="67.5" cy="66.5" r="58.5" fill="#D1D1D1"/>
<circle cx="67.5" cy="153.5" r="7.5" fill="#159822"/>
<path fill-rule="evenodd" clip-rule="evenodd" d="M67.5 132C103.675 132 133 102.675 133 66.5C133 30.3253 103.675 1 67.5 1C31.3253 1 2 30.3253 2 66.5C2 102.675 31.3253 132 67.5 132ZM67.5 133C104.227 133 134 103.227 134 66.5C134 29.7731 104.227 0 67.5 0C30.7731 0 1 29.7731 1 66.5C1 103.227 30.7731 133 67.5 133Z" fill="#D1D1D1"/>
<path fill-rule="evenodd" clip-rule="evenodd" d="M2.97794 67C2.97794 102.635 31.8654 131.522 67.5 131.522C103.135 131.522 132.022 102.635 132.022 67H135C135 104.279 104.779 134.5 67.5 134.5C30.2208 134.5 0 104.279 0 67H2.97794Z" fill="#159822"/>
<path fill-rule="evenodd" clip-rule="evenodd" d="M66 147L66 133L69 133L69 147L66 147Z" fill="#159822"/>
<g clip-path="url(#clip0)">
<path d="M98.5 59.5H98.4533C98.0109 46.5658 89.6661 35.2327 77.4463 30.9703C77.1856 29.2667 75.7235 28.0066 74 28H60C58.2765 28.0066 56.8144 29.2667 56.5537 30.9703C44.3339 35.2327 35.9891 46.5658 35.5467 59.5H35.5C33.567 59.5 32 61.067 32 63V65.3333C32 67.2664 33.567 68.8333 35.5 68.8333H98.5C100.433 68.8333 102 67.2664 102 65.3333V63C102 61.067 100.433 59.5 98.5 59.5ZM56.5 33.4728V53.6667C56.5 54.311 57.0224 54.8333 57.6667 54.8333C58.311 54.8333 58.8333 54.311 58.8333 53.6667V31.5C58.8333 30.8557 59.3557 30.3333 60 30.3333H65.8333V56C65.8333 56.6443 66.3557 57.1667 67 57.1667C67.6443 57.1667 68.1667 56.6443 68.1667 56V30.3333H74C74.6443 30.3333 75.1667 30.8557 75.1667 31.5V53.6667C75.1667 54.311 75.689 54.8333 76.3333 54.8333C76.9776 54.8333 77.5 54.311 77.5 53.6667V33.4728C88.3605 37.6346 95.6882 47.8774 96.12 59.5H37.88C38.3118 47.8774 45.6395 37.6346 56.5 33.4728ZM99.6667 65.3333C99.6667 65.9776 99.1443 66.5 98.5 66.5H35.5C34.8557 66.5 34.3333 65.9776 34.3333 65.3333V63C34.3333 62.3557 34.8557 61.8333 35.5 61.8333H98.5C99.1443 61.8333 99.6667 62.3557 99.6667 63V65.3333Z" fill="#159822"/>
<path d="M61.1667 79.333H46C44.067 79.333 42.5 80.9 42.5 82.833V87.4997C42.5 88.144 43.0224 88.6663 43.6667 88.6663C44.311 88.6663 44.8333 88.144 44.8333 87.4997V82.833C44.8333 82.1887 45.3557 81.6663 46 81.6663H61.1667C61.811 81.6663 62.3333 81.144 62.3333 80.4997C62.3333 79.8554 61.811 79.333 61.1667 79.333Z" fill="#159822"/>
<path d="M100.833 79.3337H96.05C95.4919 76.6196 93.1043 74.6705 90.3333 74.667H43.6667C40.4467 74.6708 37.8371 77.2803 37.8333 80.5003H33.1667C32.5224 80.5003 32 81.0227 32 81.667V91.0003C32 91.6446 32.5224 92.167 33.1667 92.167H38.1833C39.2171 95.6225 42.3931 97.9926 46 98.0003H53C58.3387 97.9852 63.2805 95.1792 66.0293 90.6025C66.3642 90.0664 67.0703 89.9034 67.6064 90.2382C67.754 90.3304 67.8785 90.4549 67.9707 90.6025C70.7195 95.1792 75.6613 97.9852 81 98.0003H88C92.0561 97.9955 95.4939 95.0147 96.0733 91.0003H100.833C101.478 91.0003 102 90.4779 102 89.8337V80.5003C102 79.856 101.478 79.3337 100.833 79.3337ZM37.8333 89.8337H34.3333V86.3337H37.8333V89.8337ZM37.8333 84.0003H34.3333V82.8337H37.8333V84.0003ZM93.8333 89.8337C93.8295 93.0537 91.22 95.6632 88 95.667H81C76.4816 95.6537 72.2991 93.2788 69.9727 89.4055C68.9791 87.7624 66.8416 87.2359 65.1987 88.2295C64.7173 88.5206 64.3137 88.9241 64.0227 89.4055C61.6971 93.2774 57.5166 95.6521 53 95.667H46C42.78 95.6632 40.1705 93.0537 40.1667 89.8337V80.5003C40.1667 78.5673 41.7336 77.0003 43.6667 77.0003H90.3333C92.2664 77.0003 93.8333 78.5673 93.8333 80.5003V89.8337ZM99.6667 88.667H96.1667V85.167H99.6667V88.667ZM99.6667 82.8337H96.1667V81.667H99.6667V82.8337Z" fill="#159822"/>
<path d="M68.167 79.333H65.8337C65.1894 79.333 64.667 79.8554 64.667 80.4997C64.667 81.144 65.1894 81.6663 65.8337 81.6663H68.167C68.8113 81.6663 69.3337 81.144 69.3337 80.4997C69.3337 79.8554 68.8113 79.333 68.167 79.333Z" fill="#159822"/>
</g>
<defs>
<clipPath id="clip0">
<rect width="70" height="70" fill="white" transform="translate(32 28)"/>
</clipPath>
</defs>
</svg>
