<svg width="135" height="161" viewBox="0 0 135 161" fill="none" xmlns="http://www.w3.org/2000/svg">
<circle cx="67.5" cy="66.5" r="58.5" fill="#D1D1D1"/>
<circle cx="67.5" cy="153.5" r="7.5" fill="#159822"/>
<path fill-rule="evenodd" clip-rule="evenodd" d="M67.5 132C103.675 132 133 102.675 133 66.5C133 30.3253 103.675 1 67.5 1C31.3253 1 2 30.3253 2 66.5C2 102.675 31.3253 132 67.5 132ZM67.5 133C104.227 133 134 103.227 134 66.5C134 29.7731 104.227 0 67.5 0C30.7731 0 1 29.7731 1 66.5C1 103.227 30.7731 133 67.5 133Z" fill="#D1D1D1"/>
<path fill-rule="evenodd" clip-rule="evenodd" d="M2.97794 67C2.97794 102.635 31.8654 131.522 67.5 131.522C103.135 131.522 132.022 102.635 132.022 67H135C135 104.279 104.779 134.5 67.5 134.5C30.2208 134.5 0 104.279 0 67H2.97794Z" fill="#159822"/>
<path fill-rule="evenodd" clip-rule="evenodd" d="M66 147L66 133L69 133L69 147L66 147Z" fill="#159822"/>
<path d="M103.594 92.1875H103.358C103.502 91.7852 103.594 91.3572 103.594 90.9062V75.5312C103.594 73.4121 101.869 71.6875 99.75 71.6875H91.8268C91.9703 71.2852 92.0625 70.8573 92.0625 70.4062V55.0312C92.0625 52.9121 90.3379 51.1875 88.2188 51.1875H77.8547L69.8328 35.8125H71.5625V23H63.875V35.8125H65.5637L57.2087 51.1875H47.2188C45.0996 51.1875 43.375 52.9121 43.375 55.0312V70.4062C43.375 70.8573 43.4672 71.2852 43.6108 71.6875H35.6875C33.5683 71.6875 31.8438 73.4121 31.8438 75.5312V90.9062C31.8438 91.3572 31.936 91.7852 32.0795 92.1875H31.8438C29.7246 92.1875 28 93.9121 28 96.0312V98.5938C28 100.713 29.7246 102.438 31.8438 102.438H103.594C105.713 102.438 107.438 100.713 107.438 98.5938V96.0312C107.438 93.9121 105.713 92.1875 103.594 92.1875ZM101.031 75.5312V90.9062C101.031 91.6135 100.457 92.1875 99.75 92.1875H99.2452L93.8972 81.9375H95.9062V74.25H99.75C100.457 74.25 101.031 74.824 101.031 75.5312ZM57.4688 90.9062V75.5312C57.4688 74.824 58.0427 74.25 58.75 74.25H62.5938V81.9375H72.8438V74.25H76.6875C77.3947 74.25 77.9688 74.824 77.9688 75.5312V90.9062C77.9688 91.6135 77.3947 92.1875 76.6875 92.1875H58.75C58.0427 92.1875 57.4688 91.6135 57.4688 90.9062ZM76.6875 54.4918L78.9745 58.875H76.6875V54.4918ZM80.3122 61.4375L85.6601 71.6875H81.8125H76.6875H70.2812C69.574 71.6875 69 71.1135 69 70.4062V55.0312C69 54.3253 69.574 53.75 70.2812 53.75H74.125V61.4375H80.3122ZM92.5609 79.375L89.8869 74.25H93.3438V79.375H92.5609ZM70.2812 74.25V79.375H65.1562V74.25H70.2812ZM80.5312 90.9062V75.5312C80.5312 74.824 81.1053 74.25 81.8125 74.25H86.9964L96.3547 92.1875H81.8125C81.1053 92.1875 80.5312 91.6135 80.5312 90.9062ZM88.2188 53.75C88.926 53.75 89.5 54.3253 89.5 55.0312V70.4062C89.5 71.0072 89.0772 71.4889 88.5186 71.6273L79.1911 53.75H88.2188ZM66.4375 25.5625H69V33.25H66.4375V25.5625ZM67.6957 37.2578L74.9642 51.1875H70.2812C69.2934 51.1875 68.4004 51.5732 67.7188 52.1869C67.0371 51.5719 66.1441 51.1875 65.1562 51.1875H60.1248L67.6957 37.2578ZM53.625 53.75H58.75V58.875H53.625V53.75ZM45.9375 70.4062V55.0312C45.9375 54.3253 46.5115 53.75 47.2188 53.75H51.0625V61.4375H61.3125V53.75H65.1562C65.8635 53.75 66.4375 54.3253 66.4375 55.0312V70.4062C66.4375 71.1135 65.8635 71.6875 65.1562 71.6875H58.75H53.625H47.2188C46.5115 71.6875 45.9375 71.1135 45.9375 70.4062ZM42.0938 74.25H47.2188V79.375H42.0938V74.25ZM34.4062 90.9062V75.5312C34.4062 74.824 34.9802 74.25 35.6875 74.25H39.5312V81.9375H49.7812V74.25H53.625C54.3323 74.25 54.9062 74.824 54.9062 75.5312V90.9062C54.9062 91.6135 54.3323 92.1875 53.625 92.1875H35.6875C34.9802 92.1875 34.4062 91.6135 34.4062 90.9062ZM30.5625 98.5938V96.0312C30.5625 95.324 31.1365 94.75 31.8438 94.75H35.6875H53.625H58.75H76.6875H81.8125H97.1875V99.875H31.8438C31.1365 99.875 30.5625 99.301 30.5625 98.5938ZM104.875 98.5938C104.875 99.301 104.301 99.875 103.594 99.875H99.75V94.75H103.594C104.301 94.75 104.875 95.324 104.875 96.0312V98.5938Z" fill="#159822"/>
</svg>
