<svg width="80" height="80" viewBox="0 0 80 80" fill="none" xmlns="http://www.w3.org/2000/svg">
<g clip-path="url(#clip0)">
<path d="M43.9941 10.6761C44.7303 10.6761 45.3272 10.0791 45.3272 9.34292C45.3272 8.60669 44.7303 8.00977 43.9941 8.00977H14.6647C13.9285 8.00977 13.3315 8.60669 13.3315 9.34292V14.6755C13.3315 15.4118 13.9285 16.0087 14.6647 16.0087H43.9941C44.7303 16.0087 45.3272 15.4118 45.3272 14.6755C45.3272 13.9393 44.7303 13.3424 43.9941 13.3424H15.9979V10.6761H43.9941Z" fill="#159822"/>
<path d="M49.3266 18.6748H18.6641C17.9279 18.6748 17.3309 19.2717 17.3309 20.008C17.3309 20.7442 17.9279 21.3411 18.6641 21.3411H49.3266C50.0629 21.3411 50.6598 20.7442 50.6598 20.008C50.6598 19.2717 50.0629 18.6748 49.3266 18.6748Z" fill="#159822"/>
<path d="M49.3266 25.3408H9.33199C8.59577 25.3408 7.99884 25.9377 7.99884 26.674C7.99884 27.4102 8.59577 28.0071 9.33199 28.0071H49.3266C50.0628 28.0071 50.6598 27.4102 50.6598 26.674C50.6598 25.9377 50.0628 25.3408 49.3266 25.3408Z" fill="#159822"/>
<path d="M9.33199 34.6722H29.3293C30.0655 34.6722 30.6625 34.0752 30.6625 33.339C30.6625 32.6028 30.0655 32.0059 29.3293 32.0059H9.33199C8.59577 32.0059 7.99884 32.6028 7.99884 33.339C7.99884 34.0752 8.59577 34.6722 9.33199 34.6722Z" fill="#159822"/>
<path d="M35.9951 32.0059C35.2589 32.0059 34.6619 32.6028 34.6619 33.339C34.6619 34.0752 35.2589 34.6722 35.9951 34.6722H38.6614C39.3976 34.6722 39.9945 34.0752 39.9945 33.339C39.9945 32.6028 39.3976 32.0059 38.6614 32.0059H35.9951Z" fill="#159822"/>
<path d="M49.3266 32.0059H45.3272C44.5909 32.0059 43.994 32.6028 43.994 33.339C43.994 34.0752 44.5909 34.6722 45.3272 34.6722H49.3266C50.0629 34.6722 50.6598 34.0752 50.6598 33.339C50.6598 32.6028 50.0629 32.0059 49.3266 32.0059Z" fill="#159822"/>
<path d="M31.9956 40.005C31.9956 39.2688 31.3987 38.6719 30.6625 38.6719H9.33199C8.59577 38.6719 7.99884 39.2688 7.99884 40.005C7.99884 40.7413 8.59577 41.3382 9.33199 41.3382H30.6625C31.3987 41.3382 31.9956 40.7413 31.9956 40.005Z" fill="#159822"/>
<path d="M13.3315 45.3379H9.33199C8.59576 45.3379 7.99884 45.9348 7.99884 46.6711C7.99884 47.4073 8.59576 48.0042 9.33199 48.0042H13.3315C14.0677 48.0042 14.6646 47.4073 14.6646 46.6711C14.6646 45.9348 14.0677 45.3379 13.3315 45.3379Z" fill="#159822"/>
<path d="M13.3315 52.0039H9.33199C8.59576 52.0039 7.99884 52.6008 7.99884 53.3371C7.99884 54.0733 8.59576 54.6702 9.33199 54.6702H13.3315C14.0677 54.6702 14.6646 54.0733 14.6646 53.3371C14.6646 52.6008 14.0677 52.0039 13.3315 52.0039Z" fill="#159822"/>
<path d="M61.325 21.3406C61.325 22.0768 61.9219 22.6737 62.6582 22.6737H63.9913C64.7275 22.6737 65.3245 22.0768 65.3245 21.3406V16.008C65.3245 15.2717 64.7275 14.6748 63.9913 14.6748H62.6582C61.9219 14.6748 61.325 15.2717 61.325 16.008C61.325 16.7442 61.9219 17.3411 62.6582 17.3411V20.0074C61.9219 20.0074 61.325 20.6043 61.325 21.3406Z" fill="#159822"/>
<path d="M61.7118 28.9535C61.8413 29.0713 61.9904 29.1663 62.1518 29.2334C62.474 29.3766 62.8425 29.3766 63.1647 29.2334C63.4999 29.1123 63.7636 28.8487 63.8846 28.5134C64.0272 28.1912 64.0272 27.8234 63.8846 27.5005C63.8215 27.3372 63.7265 27.1874 63.6047 27.0605C63.3548 26.8079 63.0137 26.666 62.6582 26.666C62.3028 26.666 61.9617 26.8079 61.7118 27.0605C61.59 27.1874 61.495 27.3372 61.4318 27.5005C61.3635 27.6607 61.327 27.8332 61.3251 28.007C61.3205 28.1821 61.357 28.3552 61.4318 28.5134C61.4995 28.6755 61.5939 28.8239 61.7118 28.9535Z" fill="#159822"/>
<path d="M61.7118 35.6188C61.8413 35.7366 61.9904 35.8317 62.1518 35.8987C62.6478 36.1077 63.2213 35.997 63.6047 35.6188C63.7225 35.4893 63.8169 35.3408 63.8846 35.1787C63.953 35.0186 63.9894 34.8468 63.9914 34.6723C63.9933 34.3182 63.854 33.9777 63.6047 33.7258L63.4049 33.5657C63.3307 33.5156 63.2499 33.4752 63.1647 33.4459C63.0853 33.4055 63 33.3782 62.9114 33.3658C62.4766 33.2786 62.0268 33.414 61.7118 33.7258C61.4683 33.9816 61.3303 34.3195 61.3251 34.6723C61.3205 34.8474 61.357 35.0206 61.4318 35.1787C61.4995 35.3408 61.5939 35.4893 61.7118 35.6188Z" fill="#159822"/>
<path d="M62.6582 10.6761H67.9908C68.727 10.6761 69.3239 11.273 69.3239 12.0092V41.4187C69.3239 42.1549 69.9209 42.7518 70.6571 42.7518C71.3933 42.7518 71.9903 42.1549 71.9903 41.4187V12.0092C71.9903 9.80054 70.1995 8.00977 67.9908 8.00977H62.6582C61.9219 8.00977 61.325 8.60669 61.325 9.34292C61.325 10.0791 61.9219 10.6761 62.6582 10.6761Z" fill="#159822"/>
<path d="M19.9973 66.6684H3.99946C3.26323 66.6684 2.66631 66.0715 2.66631 65.3353V4.0102C2.66631 3.27398 3.26323 2.67705 3.99946 2.67705H54.6593C55.3955 2.67705 55.9925 3.27398 55.9925 4.0102V39.1526C55.9925 39.8888 56.5894 40.4858 57.3256 40.4858C58.0619 40.4858 58.6588 39.8888 58.6588 39.1526V4.0102C58.6588 1.80152 56.868 0.0107422 54.6593 0.0107422H3.99946C1.79078 0.0107422 0 1.80152 0 4.0102V65.3353C0 67.544 1.79078 69.3348 3.99946 69.3348H19.9973C20.7335 69.3348 21.3305 68.7378 21.3305 68.0016C21.3305 67.2654 20.7335 66.6684 19.9973 66.6684Z" fill="#159822"/>
<path d="M66.6577 65.3359C66.6577 62.391 64.27 60.0033 61.3251 60.0033C59.8527 60.0033 58.6588 58.8094 58.6588 57.337C58.6588 55.8645 59.8527 54.6706 61.3251 54.6706C62.7976 54.6706 63.9914 55.8645 63.9914 57.337C63.9914 58.0732 64.5883 58.6701 65.3246 58.6701C66.0608 58.6701 66.6577 58.0732 66.6577 57.337C66.6558 54.9069 65.0115 52.7855 62.6583 52.1775V49.338C62.6583 48.6018 62.0613 48.0049 61.3251 48.0049C60.5889 48.0049 59.992 48.6018 59.992 49.338V52.1775C57.3999 52.8551 55.7126 55.3515 56.0504 58.0094C56.3883 60.6672 58.6458 62.6624 61.3251 62.6696C62.7976 62.6696 63.9914 63.8634 63.9914 65.3359C63.9914 66.8083 62.7976 68.0022 61.3251 68.0022C59.8527 68.0022 58.6588 66.8083 58.6588 65.3359C58.6588 64.5996 58.0619 64.0027 57.3256 64.0027C56.5894 64.0027 55.9925 64.5996 55.9925 65.3359C55.9944 67.7665 57.6388 69.888 59.992 70.4953V73.3348C59.992 74.071 60.5889 74.6679 61.3251 74.6679C62.0613 74.6679 62.6583 74.071 62.6583 73.3348V70.4953C65.0115 69.888 66.6558 67.7665 66.6577 65.3359Z" fill="#159822"/>
<path d="M61.325 42.6709C55.2223 42.6748 49.5076 45.662 46.0204 50.6698H39.9946V48.0035H43.994C44.7302 48.0035 45.3272 47.4066 45.3272 46.6704C45.3272 45.9341 44.7302 45.3372 43.994 45.3372H18.6641C17.9279 45.3372 17.3309 45.9341 17.3309 46.6704V62.6682C17.3309 63.4045 17.9279 64.0014 18.6641 64.0014H23.9967V78.6661C23.9967 79.4023 24.5936 79.9992 25.3299 79.9992H47.9935C48.7297 79.9992 49.3266 79.4023 49.3266 78.6661C49.3266 77.9298 48.7297 77.3329 47.9935 77.3329H46.6603V72.8667C52.0515 79.7284 61.4773 81.9378 69.3565 78.1883C77.2356 74.4381 81.4649 65.7297 79.54 57.2184C77.6158 48.7079 70.0511 42.6663 61.325 42.6709ZM39.9946 58.6688H42.8477C42.724 59.5521 42.6622 60.4433 42.6609 61.3351H39.9946V58.6688ZM44.4608 53.3361C44.0552 54.1993 43.7122 55.0905 43.4342 56.0024H39.9946V53.3361H44.4608ZM37.3282 48.0035V61.3351H31.9956V48.0035H37.3282ZM26.663 69.334H35.9951V72.0003H26.663V69.334ZM19.9972 53.3361H29.3293V56.0024H19.9972V53.3361ZM29.3293 48.0035V50.6698H19.9972V48.0035H29.3293ZM19.9972 58.6688H29.3293V61.3351H19.9972V58.6688ZM35.9951 64.0014V66.6677H26.663V64.0014H35.9951ZM26.663 74.6666H35.9951V77.3329H26.663V74.6666ZM43.994 77.3329H38.6614V64.0014H42.8477C43.0579 65.4641 43.4427 66.8968 43.994 68.2677V77.3329ZM61.325 77.3329C53.0182 77.3661 46.068 71.0356 45.3272 62.762V62.6682C45.3343 62.5706 45.3343 62.4729 45.3272 62.3753C45.3272 62.0283 45.3272 61.682 45.3272 61.3351C45.3265 60.1555 45.4561 58.9799 45.7138 57.829C45.7653 57.7106 45.7965 57.5843 45.8069 57.456C46.2144 55.8182 46.8803 54.2566 47.78 52.8297C47.8366 52.7594 47.8854 52.6832 47.9271 52.6032C52.1062 46.188 60.2444 43.633 67.3405 46.5089C74.4359 49.3848 78.4991 56.8845 77.0332 64.3991C75.5666 71.9137 68.9815 77.3362 61.325 77.3329Z" fill="#159822"/>
<path d="M67.2579 49.4043C66.9396 49.2428 66.5705 49.2155 66.2327 49.3281C65.8942 49.4407 65.6155 49.6842 65.458 50.0038C65.1306 50.6632 65.3994 51.4626 66.0575 51.7907C69.6775 53.5945 71.9656 57.2912 71.9656 61.3356C71.9656 65.3807 69.6775 69.0768 66.0575 70.8812C65.5107 71.1611 65.2263 71.7789 65.3688 72.3765C65.5107 72.974 66.0432 73.3972 66.6577 73.4011C66.8654 73.4037 67.0711 73.3581 67.2579 73.2676C71.7827 71.0121 74.6423 66.3916 74.6423 61.3356C74.6423 56.2803 71.7827 51.6592 67.2579 49.4043Z" fill="#159822"/>
<path d="M56.5926 70.8813C52.9726 69.0768 50.6845 65.3807 50.6845 61.3357C50.6845 57.2913 52.9726 53.5945 56.5926 51.7908C57.2513 51.4594 57.5169 50.6561 57.1856 49.9974C56.8542 49.3386 56.0516 49.073 55.3922 49.4044C50.8674 51.6593 48.0078 56.2804 48.0078 61.3357C48.0078 66.3917 50.8674 71.0121 55.3922 73.2677C55.579 73.3582 55.7847 73.4037 55.9924 73.4011C56.6069 73.3972 57.1394 72.9741 57.2813 72.3765C57.4238 71.779 57.1394 71.1612 56.5926 70.8813Z" fill="#159822"/>
</g>
<defs>
<clipPath id="clip0">
<rect width="80" height="80" fill="white"/>
</clipPath>
</defs>
</svg>
