<svg width="80" height="80" viewBox="0 0 80 80" fill="none" xmlns="http://www.w3.org/2000/svg">
<g clip-path="url(#clip0)">
<rect width="80" height="80" fill="white" fill-opacity="0.25"/>
<path d="M70.651 11.9993C70.651 11.263 70.054 10.666 69.3177 10.666H31.986C31.2497 10.666 30.6527 11.263 30.6527 11.9993V17.3324C30.6527 18.0687 31.2497 18.6657 31.986 18.6657C32.7223 18.6657 33.3193 18.0687 33.3193 17.3324V13.3326H67.9844V21.3322H38.6524C37.9161 21.3322 37.3191 21.9292 37.3191 22.6655C37.3191 23.4018 37.9161 23.9988 38.6524 23.9988H69.3177C70.054 23.9988 70.651 23.4018 70.651 22.6655V11.9993Z" fill="#159822"/>
<path d="M54.6518 31.9986C55.3881 31.9986 55.985 31.4016 55.985 30.6653C55.985 29.929 55.3881 29.332 54.6518 29.332H46.6521C45.9158 29.332 45.3188 29.929 45.3188 30.6653V38.665C45.3188 39.4013 45.9158 39.9982 46.6521 39.9982H54.6518C55.3881 39.9982 55.985 39.4013 55.985 38.665C55.985 37.9287 55.3881 37.3317 54.6518 37.3317H47.9854V31.9986H54.6518Z" fill="#159822"/>
<path d="M70.6509 30.6653C70.6509 29.929 70.054 29.332 69.3177 29.332H61.318C60.5817 29.332 59.9847 29.929 59.9847 30.6653V38.665C59.9847 39.4013 60.5817 39.9982 61.318 39.9982H69.3177C70.054 39.9982 70.6509 39.4013 70.6509 38.665V30.6653ZM67.9844 37.3317H62.6513V31.9986H67.9844V37.3317Z" fill="#159822"/>
<path d="M55.985 45.3313C55.985 44.595 55.3881 43.998 54.6518 43.998H46.6521C45.9158 43.998 45.3188 44.595 45.3188 45.3313V53.331C45.3188 54.0673 45.9158 54.6642 46.6521 54.6642H54.6518C55.3881 54.6642 55.985 54.0673 55.985 53.331V45.3313ZM53.3185 51.9977H47.9854V46.6646H53.3185V51.9977Z" fill="#159822"/>
<path d="M54.6518 58.6641H46.6521C45.9158 58.6641 45.3188 59.261 45.3188 59.9973V67.997C45.3188 68.7333 45.9158 69.3303 46.6521 69.3303H54.6518C55.3881 69.3303 55.985 68.7333 55.985 67.997V59.9973C55.985 59.261 55.3881 58.6641 54.6518 58.6641ZM53.3185 66.6637H47.9854V61.3306H53.3185V66.6637Z" fill="#159822"/>
<path d="M69.3177 43.998H61.318C60.5817 43.998 59.9847 44.595 59.9847 45.3313V67.997C59.9847 68.7333 60.5817 69.3303 61.318 69.3303H69.3177C70.054 69.3303 70.6509 68.7333 70.6509 67.997V45.3313C70.6509 44.595 70.054 43.998 69.3177 43.998ZM67.9844 66.6637H62.6513V46.6646H67.9844V66.6637Z" fill="#159822"/>
<path d="M63.9846 18.6656C64.7209 18.6656 65.3179 18.0686 65.3179 17.3323C65.3179 16.596 64.7209 15.999 63.9846 15.999H58.6515C57.9152 15.999 57.3182 16.596 57.3182 17.3323C57.3182 18.0686 57.9152 18.6656 58.6515 18.6656H63.9846Z" fill="#159822"/>
<path d="M53.3184 18.6656C54.0547 18.6656 54.6516 18.0686 54.6516 17.3323C54.6516 16.596 54.0547 15.999 53.3184 15.999H47.9853C47.249 15.999 46.652 16.596 46.652 17.3323C46.652 18.0686 47.249 18.6656 47.9853 18.6656H53.3184Z" fill="#159822"/>
<path d="M73.3176 0H27.9862C24.3041 0 21.3198 2.9849 21.3198 6.66638V17.3326C21.3198 18.0689 21.9168 18.6659 22.6531 18.6659C23.3894 18.6659 23.9864 18.0689 23.9864 17.3326V6.66638C23.9864 4.45749 25.7773 2.66655 27.9862 2.66655H73.3176C75.5265 2.66655 77.3174 4.45749 77.3174 6.66638V73.3302C77.3174 75.539 75.5265 77.33 73.3176 77.33H37.3191C36.5828 77.33 35.9859 77.927 35.9859 78.6633C35.9859 79.3996 36.5828 79.9965 37.3191 79.9965H73.3176C76.9991 79.9965 79.984 77.0116 79.984 73.3302V6.66638C79.984 2.9849 76.9991 0 73.3176 0Z" fill="#159822"/>
<path d="M38.6525 30.6653V38.665C38.6525 39.4013 39.2494 39.9982 39.9857 39.9982C40.722 39.9982 41.319 39.4013 41.319 38.665V30.6653C41.319 29.929 40.722 29.332 39.9857 29.332C39.2494 29.332 38.6525 29.929 38.6525 30.6653Z" fill="#159822"/>
<path d="M21.3197 51.9974C22.7923 51.9974 23.9863 53.1914 23.9863 54.664C23.9863 55.4003 24.5833 55.9973 25.3196 55.9973C26.0559 55.9973 26.6528 55.4003 26.6528 54.664C26.6509 52.2338 25.0064 50.1121 22.653 49.5041V46.6643C22.653 45.928 22.056 45.3311 21.3197 45.3311C20.5834 45.3311 19.9865 45.928 19.9865 46.6643V49.5041C17.3935 50.1818 15.7067 52.6777 16.0446 55.3365C16.3818 57.9946 18.6402 59.9893 21.3197 59.9971C22.7923 59.9971 23.9863 61.1911 23.9863 62.6636C23.9863 64.1362 22.7923 65.3302 21.3197 65.3302C19.8471 65.3302 18.6532 64.1362 18.6532 62.6636C18.6532 61.9274 18.0562 61.3304 17.3199 61.3304C16.5836 61.3304 15.9866 61.9274 15.9866 62.6636C15.9886 65.0939 17.633 67.2155 19.9865 67.8236V70.6633C19.9865 71.3996 20.5834 71.9966 21.3197 71.9966C22.056 71.9966 22.653 71.3996 22.653 70.6633V67.8236C25.2453 67.1459 26.9328 64.6499 26.5949 61.9912C26.257 59.3331 23.9993 57.3384 21.3197 57.3305C19.8471 57.3305 18.6532 56.1366 18.6532 54.664C18.6532 53.1914 19.8471 51.9974 21.3197 51.9974Z" fill="#159822"/>
<path d="M39.8124 69.3303C40.1803 68.6897 39.9596 67.872 39.319 67.5036C38.6784 67.1357 37.8607 67.3564 37.4922 67.997C33.5933 74.7689 25.8879 78.395 18.1845 77.0845C10.481 75.7734 4.40968 69.8023 2.96963 62.1216C1.53024 54.441 5.02749 46.6763 11.7336 42.6648H30.9059C36.5326 46.0325 39.9798 52.1064 39.9856 58.6641C39.9856 59.4004 40.5826 59.9974 41.3189 59.9974C42.0552 59.9974 42.6522 59.4004 42.6522 58.6641C42.647 52.085 39.6067 45.8763 34.4123 41.838C35.5945 40.9286 36.1726 39.4371 35.9122 37.969C35.6512 36.5004 34.5952 35.2986 33.1728 34.852C34.1297 33.6665 34.6519 32.1887 34.6525 30.6653V26.6655C34.6493 24.4488 33.2756 22.4652 31.2015 21.6833C29.1274 20.9008 26.7857 21.4834 25.3196 23.1455C24.3073 21.9977 22.8503 21.3402 21.3198 21.3402C19.7892 21.3402 18.3323 21.9977 17.3199 23.1455C15.8538 21.4834 13.5121 20.9008 11.438 21.6833C9.36389 22.4652 7.99025 24.4488 7.987 26.6655V30.6653C7.98765 32.1887 8.50976 33.6665 9.46675 34.852C8.04428 35.2986 6.98769 36.5004 6.72728 37.969C6.46688 39.4371 7.04498 40.9286 8.22722 41.838C1.43454 47.1288 -1.51129 55.9845 0.75749 64.2895C3.02692 72.5951 10.0663 78.7225 18.605 79.8246C27.1444 80.9268 35.5086 76.7877 39.8124 69.3303ZM10.6535 26.6655C10.6535 25.1929 11.8475 23.999 13.3201 23.999C14.7927 23.999 15.9866 25.1929 15.9866 26.6655C15.9866 27.4018 16.5836 27.9988 17.3199 27.9988C18.0562 27.9988 18.6532 27.4018 18.6532 26.6655C18.6532 25.1929 19.8472 23.999 21.3198 23.999C22.7923 23.999 23.9863 25.1929 23.9863 26.6655C23.9863 27.4018 24.5833 27.9988 25.3196 27.9988C26.0559 27.9988 26.6529 27.4018 26.6529 26.6655C26.6529 25.1929 27.8468 23.999 29.3194 23.999C30.792 23.999 31.986 25.1929 31.986 26.6655V30.6653C31.986 32.8742 30.195 34.6652 27.9861 34.6652H14.6534C12.4445 34.6652 10.6535 32.8742 10.6535 30.6653V26.6655ZM10.6535 37.3317H31.986C32.7223 37.3317 33.3192 37.9287 33.3192 38.665C33.3192 39.4013 32.7223 39.9983 31.986 39.9983H10.6535C9.91725 39.9983 9.32027 39.4013 9.32027 38.665C9.32027 37.9287 9.91725 37.3317 10.6535 37.3317Z" fill="#159822"/>
</g>
<defs>
<clipPath id="clip0">
<rect width="80" height="80" fill="white"/>
</clipPath>
</defs>
</svg>
