<svg width="135" height="161" viewBox="0 0 135 161" fill="none" xmlns="http://www.w3.org/2000/svg">
<circle cx="67.5" cy="66.5" r="58.5" fill="#D1D1D1"/>
<circle cx="67.5" cy="153.5" r="7.5" fill="#159822"/>
<path fill-rule="evenodd" clip-rule="evenodd" d="M67.5 132C103.675 132 133 102.675 133 66.5C133 30.3253 103.675 1 67.5 1C31.3253 1 2 30.3253 2 66.5C2 102.675 31.3253 132 67.5 132ZM67.5 133C104.227 133 134 103.227 134 66.5C134 29.7731 104.227 0 67.5 0C30.7731 0 1 29.7731 1 66.5C1 103.227 30.7731 133 67.5 133Z" fill="#D1D1D1"/>
<path fill-rule="evenodd" clip-rule="evenodd" d="M2.97794 67C2.97794 102.635 31.8654 131.522 67.5 131.522C103.135 131.522 132.022 102.635 132.022 67H135C135 104.279 104.779 134.5 67.5 134.5C30.2208 134.5 0 104.279 0 67H2.97794Z" fill="#159822"/>
<path d="M102.115 96.2025L98.0867 95.1956L93.6139 80.6576C93.5405 80.4191 93.3926 80.2104 93.1919 80.0621C92.9911 79.9138 92.7482 79.8339 92.4986 79.8339H79.6657V63.7034L83.7034 69.4668C84.4314 70.5053 85.3986 71.3534 86.5233 71.9394C87.648 72.5254 88.8972 72.8322 90.1654 72.8338C90.6218 72.8362 91.0775 72.7972 91.5268 72.7172C92.8805 72.4814 94.1491 71.8959 95.2068 71.0188C96.2645 70.1417 97.0747 69.0034 97.5571 67.7168L102.924 53.4156C102.991 53.2388 103.014 53.0483 102.992 52.8605C102.969 52.6727 102.901 52.4932 102.793 52.3375C102.686 52.1818 102.542 52.0546 102.375 51.9668C102.207 51.879 102.021 51.8333 101.832 51.8336H94.8319C94.5869 51.8335 94.3482 51.9106 94.1494 52.0538C93.9507 52.197 93.8021 52.3992 93.7247 52.6316L90.982 60.8637L87.3818 55.469C86.6378 54.3487 85.6278 53.4304 84.4422 52.796C83.2565 52.1616 81.9321 51.8309 80.5874 51.8336H76.1659V39.5834C76.1673 38.2 75.7899 36.8426 75.0745 35.6585C74.3592 34.4743 73.3332 33.5087 72.108 32.8664C70.8828 32.2241 69.5051 31.9295 68.1243 32.0148C66.7436 32.1 65.4126 32.5617 64.2756 33.3498C63.7307 32.8105 63.0613 32.4137 62.3266 32.1946C61.5919 31.9755 60.8145 31.9408 60.0632 32.0936C59.3119 32.2463 58.6098 32.5819 58.019 33.0705C57.4282 33.5591 56.9669 34.1858 56.6758 34.8951C56.3848 35.6044 56.273 36.3745 56.3503 37.1373C56.4276 37.9001 56.6917 38.6321 57.1191 39.2686C57.5466 39.9051 58.1243 40.4265 58.8011 40.7866C59.4779 41.1467 60.2331 41.3346 60.9997 41.3334V51.8336H58.6665C58.6646 50.287 58.0495 48.8044 56.956 47.7108C55.8624 46.6172 54.3798 46.002 52.8334 46.0002H48.1669C44.146 46.0048 40.2911 47.6042 37.4479 50.4476C34.6047 53.2909 33.0054 57.1459 33.0008 61.167V67.0004C32.9986 69.7293 33.8669 72.3877 35.4794 74.5891C37.092 76.7905 39.3647 78.4201 41.967 79.241C44.5694 80.0618 47.3658 80.031 49.9495 79.1532C52.5332 78.2753 54.7695 76.5962 56.3332 74.3598V80.7883L53.3327 88.7917L40.4497 83.425C40.1944 83.3185 39.9097 83.3062 39.6463 83.3901C39.3828 83.4741 39.1577 83.649 39.0112 83.8835L33.1781 93.2169C33.0473 93.4256 32.9859 93.6704 33.0027 93.9161C33.0195 94.1618 33.1137 94.3959 33.2717 94.5849C33.4296 94.7738 33.6434 94.9079 33.8822 94.9679C34.1211 95.028 34.3728 95.0109 34.6014 94.9191L40.0145 92.7526L58.257 99.5952C58.478 99.6782 58.719 99.6921 58.9481 99.6353C59.1773 99.5784 59.3837 99.4534 59.5403 99.2767L68.5233 89.1674H84.7476L90.2704 101.317C90.3898 101.579 90.602 101.788 90.8661 101.903C91.1301 102.018 91.4274 102.031 91.7006 101.94L102.2 98.4401C102.439 98.3601 102.646 98.2047 102.79 97.9973C102.933 97.7898 103.005 97.5414 102.996 97.2894C102.986 97.0374 102.895 96.7952 102.736 96.5993C102.578 96.4033 102.36 96.2641 102.115 96.2025ZM95.673 54.1669H100.148L99.2732 56.5003H94.8949L95.673 54.1669ZM94.1167 58.8337H98.3971L97.2818 61.8215L93.6104 60.3503L94.1167 58.8337ZM92.4986 63.6906L92.8708 62.5729L96.4558 64.0067L95.372 66.8943C94.9789 67.9527 94.2693 68.8644 93.3397 69.5053C93.0734 69.6866 92.792 69.8447 92.4986 69.9778V63.6906ZM90.1654 63.8539V70.49C89.2737 70.4885 88.3954 70.2736 87.6039 69.8632C86.8123 69.4528 86.1305 68.8588 85.6155 68.1309L84.8852 67.0809L89.6684 63.0979L90.1654 63.8539ZM86.4147 58.2282L88.3629 61.1449L83.5413 65.1687L81.5323 62.2975L86.4147 58.2282ZM79.6657 54.1669H80.5874C81.4482 54.1662 82.2985 54.357 83.0765 54.7255C83.8546 55.094 84.5409 55.6308 85.0859 56.2973L80.1861 60.3807L79.6657 59.6328V54.1669ZM63.333 39.5834C63.3305 38.2436 63.8416 36.9537 64.7612 35.9794C65.6809 35.005 66.939 34.4203 68.2767 34.3456C69.6144 34.2708 70.9299 34.7118 71.9523 35.5776C72.9748 36.4434 73.6264 37.6683 73.7731 39.0001H69.1661C68.2379 39.0001 67.3477 39.3688 66.6913 40.0252C66.035 40.6816 65.6662 41.5719 65.6662 42.5001C65.6662 43.4284 66.035 44.3186 66.6913 44.975C67.3477 45.6314 68.2379 46.0002 69.1661 46.0002H73.8326V51.8336H63.333V39.5834ZM73.8326 41.3334V43.6668H69.1661C68.8567 43.6668 68.56 43.5439 68.3412 43.3251C68.1224 43.1063 67.9995 42.8095 67.9995 42.5001C67.9995 42.1907 68.1224 41.894 68.3412 41.6752C68.56 41.4564 68.8567 41.3334 69.1661 41.3334H73.8326ZM58.6665 36.6667C58.6639 36.2122 58.7948 35.767 59.043 35.3863C59.2912 35.0056 59.6457 34.7061 60.0626 34.5251C60.4794 34.344 60.9402 34.2894 61.3879 34.3679C61.8355 34.4465 62.2502 34.6547 62.5805 34.9669C61.6807 36.131 61.1414 37.533 61.0289 39.0001H60.9997C60.3809 39.0001 59.7875 38.7542 59.3499 38.3167C58.9123 37.8791 58.6665 37.2856 58.6665 36.6667ZM58.6665 54.1669H77.3325V56.5003H58.6665V54.1669ZM58.6665 75.1672V72.8338H77.3325V75.1672H58.6665ZM77.3325 77.5006V79.8339H58.6665V77.5006H77.3325ZM59.5776 70.5005L58.9943 68.1671H77.3325V70.5005H59.5776ZM63.333 65.8337V63.5004H77.3325V65.8337H63.333ZM63.333 61.167V60.0003C63.333 59.6909 63.2101 59.3942 62.9913 59.1754C62.7725 58.9566 62.4758 58.8337 62.1664 58.8337H77.3325V61.167H63.333ZM57.4999 61.167H60.9997V65.8337H56.3332V61.167H57.4999ZM52.8334 48.3335C53.7616 48.3335 54.6518 48.7023 55.3082 49.3587C55.9645 50.0151 56.3332 50.9053 56.3332 51.8336V58.8337H52.558L49.694 48.3335H52.8334ZM54 61.167V65.8337H49.3335V61.167H54ZM50.1396 58.8337H49.9168L47.1251 55.1119C47.4896 54.9951 47.866 54.9195 48.2474 54.8868L49.0453 54.8238L50.1396 58.8337ZM45.8336 77.5006C43.0499 77.4975 40.3811 76.3902 38.4127 74.4217C36.4443 72.4532 35.3371 69.7843 35.334 67.0004V61.167C35.3393 57.9184 36.5756 54.7925 38.7939 52.4193C41.0123 50.046 44.0477 48.6019 47.2884 48.3779L48.4212 52.5324L48.0712 52.5604C46.1965 52.7072 44.4457 53.5539 43.1666 54.9323C41.8875 56.3107 41.1737 58.1199 41.1671 60.0003V63.5004C41.1713 64.6989 41.6364 65.8499 42.4661 66.7148C43.2958 67.5797 44.4264 68.0922 45.6236 68.1461C45.6948 68.1461 45.7613 68.1671 45.8336 68.1671H50.1723L49.3685 71.3848C49.3256 71.5568 49.3225 71.7362 49.3593 71.9096C49.3961 72.0829 49.4719 72.2456 49.581 72.3853C49.6901 72.5249 49.8295 72.6379 49.9888 72.7156C50.148 72.7934 50.3229 72.8338 50.5001 72.8338H54.5366C53.5814 74.2673 52.2875 75.443 50.7695 76.257C49.2514 77.071 47.5561 77.4981 45.8336 77.5006ZM45.8336 58.8337C45.0323 58.8388 44.2463 59.0527 43.5529 59.4543C43.6825 58.2537 44.233 57.1378 45.1068 56.3043L47.0002 58.8337H45.8336ZM47.0002 61.167V65.8337H45.8336C45.2148 65.8337 44.6213 65.5879 44.1838 65.1503C43.7462 64.7127 43.5004 64.1192 43.5004 63.5004C43.5004 62.8815 43.7462 62.288 44.1838 61.8504C44.6213 61.4129 45.2148 61.167 45.8336 61.167H47.0002ZM51.9946 70.5005L52.5779 68.1671H56.5887L57.172 70.5005H51.9946ZM91.9596 99.3957L86.5605 87.5177C86.4678 87.3139 86.3184 87.141 86.1302 87.0198C85.9419 86.8986 85.7228 86.8341 85.4989 86.834H67.9995C67.8346 86.834 67.6716 86.8689 67.5211 86.9364C67.3707 87.004 67.2363 87.1027 67.1269 87.226L58.3258 97.1265L40.41 90.4075C40.1372 90.3073 39.8371 90.3107 39.5665 90.4169L37.0489 91.4249L40.4672 85.9578L53.5532 91.4109C53.6979 91.4714 53.8533 91.5021 54.0101 91.5012C54.1669 91.5003 54.3219 91.4678 54.4659 91.4056C54.6099 91.3434 54.7398 91.2528 54.848 91.1393C54.9562 91.0257 55.0403 90.8915 55.0955 90.7447L58.3083 82.1673H91.6365L96.0498 96.5105C96.1089 96.7024 96.2165 96.8758 96.3622 97.014C96.5079 97.1522 96.6868 97.2504 96.8816 97.2991L97.6621 97.4951L91.9596 99.3957Z" fill="#159822"/>
<path fill-rule="evenodd" clip-rule="evenodd" d="M66 147L66 133L69 133L69 147L66 147Z" fill="#159822"/>
</svg>
