<svg width="40" height="40" viewBox="0 0 40 40" fill="none" xmlns="http://www.w3.org/2000/svg">
<path d="M23.9515 26.4252C23.0082 27.3703 21.7515 27.8904 20.4164 27.8904C19.0815 27.8904 17.8248 27.3703 16.8815 26.4252L9.79818 19.3422C8.85337 18.3986 8.33336 17.1422 8.33336 15.807C8.33336 14.4719 8.85337 13.2155 9.79818 12.2722C10.7415 11.3271 11.9982 10.8071 13.3333 10.8071C14.6681 10.8071 15.9248 11.3271 16.8681 12.2722L20.4164 15.8186L30.2115 6.02382C27.0114 3.29558 22.8681 1.64062 18.3333 1.64062C8.20824 1.64062 7.62939e-06 9.84885 7.62939e-06 19.9736C7.62939e-06 30.0986 8.20824 38.3068 18.3333 38.3068C28.458 38.3068 36.6662 30.0986 36.6662 19.9736C36.6662 18.0787 36.3781 16.252 35.8447 14.532L23.9515 26.4252Z" fill="#D1D1D1"/>
<path d="M20.4164 24.5578C19.9897 24.5578 19.5631 24.3945 19.2381 24.0695L12.155 16.9861C11.5032 16.3346 11.5032 15.2811 12.155 14.6296C12.8066 13.9777 13.8597 13.9777 14.5116 14.6296L20.4164 20.5344L37.1548 3.79627C37.8063 3.14473 38.8595 3.14473 39.5113 3.79627C40.1629 4.44812 40.1629 5.50127 39.5113 6.15312L21.5946 24.0695C21.2699 24.3945 20.843 24.5578 20.4164 24.5578Z" fill="#159822"/>
</svg>
