<svg width="80" height="80" viewBox="0 0 80 80" fill="none" xmlns="http://www.w3.org/2000/svg">
<path d="M46.25 26.25V23.75C37.9787 23.75 31.25 30.4787 31.25 38.75H33.75C33.75 31.8575 39.3575 26.25 46.25 26.25Z" fill="#159822"/>
<path d="M48.5239 26.4565C49.3014 26.6003 50.0652 26.8178 50.7952 27.1028L51.7064 24.7753C50.8277 24.4315 49.9102 24.1715 48.9777 23.999L48.5239 26.4565Z" fill="#159822"/>
<path d="M73.75 47.5C73.75 44.0538 70.9462 41.25 67.5 41.25V43.75C69.5675 43.75 71.25 45.4325 71.25 47.5C71.25 49.5675 69.5675 51.25 67.5 51.25H63.75V53.75H67.5C70.9462 53.75 73.75 50.9462 73.75 47.5Z" fill="#159822"/>
<path d="M58.75 51.25H61.25V53.75H58.75V51.25Z" fill="#159822"/>
<path d="M53.75 51.25H56.25V53.75H53.75V51.25Z" fill="#159822"/>
<path d="M67.5 58.75C73.7025 58.75 78.75 53.7025 78.75 47.5C78.75 41.2975 73.7025 36.25 67.5 36.25C67.0212 36.25 66.5512 36.29 66.0875 36.3488C64.8975 26.375 56.455 18.75 46.25 18.75C45.2925 18.75 44.3587 18.8412 43.4362 18.9713C41.7412 8.785 32.9713 1.25 22.5 1.25C10.7825 1.25 1.25 10.7825 1.25 22.5C1.25 28.1588 3.4875 33.5013 7.43375 37.4688C3.77125 39.3263 1.25 43.12 1.25 47.5C1.25 53.7025 6.2975 58.75 12.5 58.75H21.25V72.5C21.25 73.1888 20.6887 73.75 20 73.75H13.52C13.0025 72.2988 11.6275 71.25 10 71.25C7.9325 71.25 6.25 72.9325 6.25 75C6.25 77.0675 7.9325 78.75 10 78.75C11.6275 78.75 13.0025 77.7012 13.52 76.25H20C22.0675 76.25 23.75 74.5675 23.75 72.5V58.75H28.75V65.23C27.2987 65.7475 26.25 67.1225 26.25 68.75C26.25 70.8175 27.9325 72.5 30 72.5C32.0675 72.5 33.75 70.8175 33.75 68.75C33.75 67.1225 32.7013 65.7475 31.25 65.23V58.75H38.75V71.48C37.2988 71.9975 36.25 73.3725 36.25 75C36.25 77.0675 37.9325 78.75 40 78.75C42.0675 78.75 43.75 77.0675 43.75 75C43.75 73.3725 42.7012 71.9975 41.25 71.48V58.75H48.75V65.23C47.2988 65.7475 46.25 67.1225 46.25 68.75C46.25 70.8175 47.9325 72.5 50 72.5C52.0675 72.5 53.75 70.8175 53.75 68.75C53.75 67.1225 52.7012 65.7475 51.25 65.23V58.75H56.25V72.5C56.25 74.5675 57.9325 76.25 60 76.25H66.48C66.9975 77.7012 68.3725 78.75 70 78.75C72.0675 78.75 73.75 77.0675 73.75 75C73.75 72.9325 72.0675 71.25 70 71.25C68.3725 71.25 66.9975 72.2988 66.48 73.75H60C59.3112 73.75 58.75 73.1888 58.75 72.5V58.75H67.5ZM10 76.25C9.31125 76.25 8.75 75.6888 8.75 75C8.75 74.3112 9.31125 73.75 10 73.75C10.6888 73.75 11.25 74.3112 11.25 75C11.25 75.6888 10.6888 76.25 10 76.25ZM30 70C29.3113 70 28.75 69.4388 28.75 68.75C28.75 68.0612 29.3113 67.5 30 67.5C30.6887 67.5 31.25 68.0612 31.25 68.75C31.25 69.4388 30.6887 70 30 70ZM40 76.25C39.3112 76.25 38.75 75.6888 38.75 75C38.75 74.3112 39.3112 73.75 40 73.75C40.6888 73.75 41.25 74.3112 41.25 75C41.25 75.6888 40.6888 76.25 40 76.25ZM50 70C49.3112 70 48.75 69.4388 48.75 68.75C48.75 68.0612 49.3112 67.5 50 67.5C50.6888 67.5 51.25 68.0612 51.25 68.75C51.25 69.4388 50.6888 70 50 70ZM70 73.75C70.6888 73.75 71.25 74.3112 71.25 75C71.25 75.6888 70.6888 76.25 70 76.25C69.3112 76.25 68.75 75.6888 68.75 75C68.75 74.3112 69.3112 73.75 70 73.75ZM27.4575 31.9725C26.2837 31.5037 25.0275 31.25 23.75 31.25H14.8162C14.2237 28.9225 13.8763 26.375 13.7913 23.75H31.2212C31.2 24.4112 31.165 25.0675 31.11 25.7188C29.535 27.5463 28.2937 29.6612 27.4575 31.9725ZM3.81875 23.75H11.2913C11.37 26.3538 11.6912 28.8937 12.2425 31.25H5.9425C4.72375 28.9462 3.995 26.4025 3.81875 23.75ZM22.5 3.75C25.29 3.75 27.8175 6.73375 29.4325 11.25H15.5675C17.1825 6.73375 19.71 3.75 22.5 3.75ZM30.1987 13.75C30.7763 16.0262 31.1313 18.5725 31.2188 21.25H13.78C13.8675 18.5725 14.2225 16.0262 14.8 13.75H30.1987ZM11.2825 21.25H3.81375C3.9925 18.5562 4.72875 16.015 5.93 13.75H12.2225C11.685 16.05 11.3612 18.5763 11.2825 21.25ZM32.7775 13.75H39.0963C40.0175 15.5037 40.6562 17.4312 40.9863 19.4762C38.3038 20.21 35.8425 21.4762 33.7337 23.1737C33.7388 22.9487 33.75 22.725 33.75 22.5C33.75 19.36 33.3988 16.4075 32.7775 13.75ZM37.5112 11.25H32.08C31.2537 8.70875 30.1612 6.52625 28.855 4.865C32.3275 6.10875 35.3312 8.33875 37.5112 11.25ZM16.1275 4.88875C14.83 6.5475 13.7425 8.72125 12.92 11.25H7.53625C9.70625 8.37 12.6788 6.14125 16.1275 4.88875ZM7.51375 33.75H17.1575C16.2587 34.5412 15.4988 35.4837 14.93 36.5475C14.1325 36.3713 13.325 36.25 12.5 36.25C11.67 36.25 10.8637 36.3463 10.085 36.5175C9.13125 35.6725 8.26625 34.75 7.51375 33.75ZM3.75 47.5C3.75 42.675 7.675 38.75 12.5 38.75C13.0212 38.75 13.535 38.8063 14.0413 38.8963C13.8575 39.6525 13.75 40.4375 13.75 41.25H16.25C16.25 37.1138 19.6138 33.75 23.75 33.75C24.7875 33.75 25.8062 33.9688 26.7463 34.3787C26.43 35.7875 26.25 37.2475 26.25 38.75H28.75C28.75 29.1 36.6 21.25 46.25 21.25C55.2812 21.25 62.7313 28.075 63.6375 36.9475C59.3337 38.5288 56.25 42.6562 56.25 47.5H58.75C58.75 42.675 62.675 38.75 67.5 38.75C72.325 38.75 76.25 42.675 76.25 47.5C76.25 52.325 72.325 56.25 67.5 56.25H12.5C7.675 56.25 3.75 52.325 3.75 47.5Z" fill="#159822"/>
<path d="M47.5 43.75C45.4325 43.75 43.75 45.4325 43.75 47.5C43.75 49.5675 45.4325 51.25 47.5 51.25C49.5675 51.25 51.25 49.5675 51.25 47.5C51.25 45.4325 49.5675 43.75 47.5 43.75ZM47.5 48.75C46.8112 48.75 46.25 48.1887 46.25 47.5C46.25 46.8112 46.8112 46.25 47.5 46.25C48.1887 46.25 48.75 46.8112 48.75 47.5C48.75 48.1887 48.1887 48.75 47.5 48.75Z" fill="#159822"/>
<path d="M37.5 43.75C35.4325 43.75 33.75 45.4325 33.75 47.5C33.75 49.5675 35.4325 51.25 37.5 51.25C39.5675 51.25 41.25 49.5675 41.25 47.5C41.25 45.4325 39.5675 43.75 37.5 43.75ZM37.5 48.75C36.8112 48.75 36.25 48.1887 36.25 47.5C36.25 46.8112 36.8112 46.25 37.5 46.25C38.1887 46.25 38.75 46.8112 38.75 47.5C38.75 48.1887 38.1887 48.75 37.5 48.75Z" fill="#159822"/>
<path d="M27.5 43.75C25.4325 43.75 23.75 45.4325 23.75 47.5C23.75 49.5675 25.4325 51.25 27.5 51.25C29.5675 51.25 31.25 49.5675 31.25 47.5C31.25 45.4325 29.5675 43.75 27.5 43.75ZM27.5 48.75C26.8112 48.75 26.25 48.1887 26.25 47.5C26.25 46.8112 26.8112 46.25 27.5 46.25C28.1887 46.25 28.75 46.8112 28.75 47.5C28.75 48.1887 28.1887 48.75 27.5 48.75Z" fill="#159822"/>
<path d="M63.75 25H66.25C66.25 20.8637 62.8863 17.5 58.75 17.5V20C61.5075 20 63.75 22.2425 63.75 25Z" fill="#159822"/>
<path d="M68.75 25H71.25C71.25 18.1075 65.6425 12.5 58.75 12.5V15C64.2637 15 68.75 19.4863 68.75 25Z" fill="#159822"/>
<path d="M73.75 25H76.25C76.25 15.35 68.4 7.5 58.75 7.5V10C67.0212 10 73.75 16.7288 73.75 25Z" fill="#159822"/>
</svg>
