<svg width="80" height="80" viewBox="0 0 80 80" fill="none" xmlns="http://www.w3.org/2000/svg">
<g clip-path="url(#clip0)">
<path d="M79.8529 18.9699C79.5776 17.946 78.9058 17.0731 77.9867 16.5439C77.0669 16.0121 75.9734 15.8683 74.9475 16.1436C73.9229 16.4196 73.05 17.0907 72.5208 18.0098L71.8543 19.1698C71.2209 18.8059 70.4118 19.0201 70.0414 19.6502L66.6553 25.422L65.4953 24.7554C65.1881 24.5777 64.8223 24.5295 64.4799 24.622C64.1368 24.7151 63.8452 24.9403 63.6688 25.2488C63.3076 25.8861 63.5276 26.6958 64.1622 27.0617L65.3222 27.7282L53.9908 47.3649L51.1911 54.844L49.858 57.3365C49.0776 58.6943 49.1609 60.3822 50.0715 61.656L47.072 65.3351L46.2323 63.2293C45.8535 62.2907 44.9767 61.6476 43.9684 61.5688C42.9595 61.4894 41.9928 61.988 41.4727 62.8557L40.993 63.6687L40.54 58.3363C40.4358 57.0748 39.4588 56.0606 38.2025 55.9083C36.9455 55.7567 35.7556 56.5098 35.354 57.7101L32.0746 67.5483C31.8455 68.2441 32.2204 68.994 32.9143 69.2283C33.0445 69.2889 33.1844 69.3253 33.3276 69.3344C33.9005 69.3364 34.4108 68.9712 34.5943 68.4283L37.8601 58.5902L38.3268 64.002C38.4231 65.1567 39.2531 66.1169 40.3818 66.3785C41.5105 66.6402 42.6783 66.1429 43.2726 65.1489L43.766 64.3353L44.5926 66.4287C44.9435 67.3107 45.737 67.9401 46.6763 68.0801C47.6156 68.22 48.5581 67.8496 49.1518 67.1082L52.258 63.176C52.6017 63.2658 52.9558 63.3107 53.3112 63.3094C54.74 63.3205 56.0666 62.568 56.7904 61.3358L58.1235 59.1096L63.2028 52.9375L74.6539 33.0606L75.8139 33.7272C76.1231 33.9043 76.3483 34.1965 76.4401 34.5409C76.5325 34.8826 76.4843 35.2471 76.3073 35.5537L70.9749 44.7924C70.7737 45.0957 70.7054 45.468 70.7861 45.8234C70.8668 46.1782 71.0888 46.4848 71.4012 46.6716C71.7085 46.85 72.0743 46.8981 72.4167 46.8057C72.7597 46.7126 73.0513 46.4874 73.2277 46.1789L78.5602 36.9402C79.092 36.0204 79.2358 34.9269 78.9598 33.901C78.6838 32.8764 78.0127 32.0035 77.0936 31.4743L75.9337 30.8078L79.2664 25.0353C79.6303 24.402 79.4161 23.5935 78.7867 23.2225L79.4532 22.0625C79.9994 21.1284 80.1439 20.0127 79.8529 18.9699ZM74.8271 19.3429C75.0035 19.0344 75.2964 18.8085 75.6407 18.7167C75.9831 18.6321 76.345 18.6796 76.6536 18.8502C76.9628 19.0266 77.188 19.3195 77.2804 19.6632C77.3651 20.0056 77.3175 20.3675 77.147 20.676L76.4804 21.836L74.1605 20.5029L74.8271 19.3429ZM56.657 56.5638L55.9904 56.1772L54.0175 55.0302L55.9104 49.9647L60.1095 52.3907L56.657 56.5638ZM52.6577 60.416C52.0946 60.0235 51.9215 59.2684 52.258 58.6696L52.9246 57.5103L55.2438 58.8434L54.5773 59.9897C54.3905 60.3138 54.0767 60.5442 53.7115 60.6256C53.3464 60.7063 52.9643 60.6308 52.6577 60.416ZM61.6295 50.2049L57.017 47.5387L67.6818 29.0613L72.2943 31.7275L61.6295 50.2049ZM73.6274 29.4213L69.0149 26.7551L71.6811 22.1426L76.2936 24.8088L73.6274 29.4213Z" fill="#159822"/>
<path d="M21.0361 59.7502L16.3175 64.4564L13.4912 61.6301C12.9711 61.1133 12.1314 61.1133 11.6113 61.6301C11.3588 61.8807 11.2169 62.2211 11.2169 62.5766C11.2169 62.932 11.3588 63.273 11.6113 63.523L14.4377 66.3493C14.9376 66.8453 15.6132 67.1233 16.3175 67.1226C17.0258 67.1265 17.7073 66.8486 18.2105 66.3493L22.916 61.6301C23.3691 61.1009 23.3385 60.3126 22.8464 59.8205C22.3536 59.3278 21.5653 59.2972 21.0361 59.7502Z" fill="#159822"/>
<path d="M5.33246 63.3359C5.33246 69.5946 10.4058 74.6673 16.6639 74.6673C22.9219 74.6673 27.9953 69.5946 27.9953 63.3359C27.9953 62.5997 27.3984 62.0028 26.6622 62.0028C25.926 62.0028 25.3291 62.5997 25.3291 63.3359C25.3291 68.1216 21.4495 72.0011 16.6639 72.0011C11.8782 72.0011 7.99867 68.1216 7.99867 63.3359C7.99867 58.5503 11.8782 54.6707 16.6639 54.6707C18.5398 54.6655 20.3657 55.2741 21.8628 56.4042C22.4519 56.8461 23.2877 56.7264 23.7291 56.1373C24.171 55.5482 24.0519 54.713 23.4628 54.2711C20.0292 51.696 15.4349 51.282 11.5964 53.2009C7.75718 55.1205 5.33246 59.0443 5.33246 63.3359Z" fill="#159822"/>
<path d="M47.9918 10.6789C48.728 10.6789 49.3249 10.0827 49.3249 9.3458C49.3249 8.6096 48.728 8.0127 47.9918 8.0127H13.331C12.5948 8.0127 11.9979 8.6096 11.9979 9.3458V14.6782C11.9979 15.4151 12.5948 16.0113 13.331 16.0113H47.9918C48.728 16.0113 49.3249 15.4151 49.3249 14.6782C49.3249 13.942 48.728 13.3451 47.9918 13.3451H14.6641V10.6789H47.9918Z" fill="#159822"/>
<path d="M17.3304 18.6768C16.5942 18.6768 15.9973 19.2737 15.9973 20.0099C15.9973 20.7467 16.5942 21.343 17.3304 21.343H43.9925C44.7287 21.343 45.3256 20.7467 45.3256 20.0099C45.3256 19.2737 44.7287 18.6768 43.9925 18.6768H17.3304Z" fill="#159822"/>
<path d="M51.9912 28.0078H22.6628C21.9266 28.0078 21.3297 28.6047 21.3297 29.3409C21.3297 30.0778 21.9266 30.674 22.6628 30.674H51.9912C52.7274 30.674 53.3243 30.0778 53.3243 29.3409C53.3243 28.6047 52.7274 28.0078 51.9912 28.0078Z" fill="#159822"/>
<path d="M38.6601 37.3409C38.6601 36.6047 38.0632 36.0078 37.327 36.0078H10.6648C9.92863 36.0078 9.33173 36.6047 9.33173 37.3409C9.33173 38.0778 9.92863 38.674 10.6648 38.674H37.327C38.0632 38.674 38.6601 38.0778 38.6601 37.3409Z" fill="#159822"/>
<path d="M51.9911 36.0078H42.6594C41.9232 36.0078 41.3263 36.6047 41.3263 37.3409C41.3263 38.0778 41.9232 38.674 42.6594 38.674H51.9911C52.7273 38.674 53.3242 38.0778 53.3242 37.3409C53.3242 36.6047 52.7273 36.0078 51.9911 36.0078Z" fill="#159822"/>
<path d="M23.9959 45.3391C24.7321 45.3391 25.329 44.7428 25.329 44.006C25.329 43.2698 24.7321 42.6729 23.9959 42.6729H10.6648C9.92863 42.6729 9.33173 43.2698 9.33173 44.006C9.33173 44.7428 9.92863 45.3391 10.6648 45.3391H23.9959Z" fill="#159822"/>
<path d="M29.3283 45.3391H38.66C39.3962 45.3391 39.9931 44.7428 39.9931 44.006C39.9931 43.2698 39.3962 42.6729 38.66 42.6729H29.3283C28.5921 42.6729 27.9952 43.2698 27.9952 44.006C27.9952 44.7428 28.5921 45.3391 29.3283 45.3391Z" fill="#159822"/>
<path d="M59.9898 61.3366C59.2536 61.3366 58.6567 61.9335 58.6567 62.6697V76.0007C58.6567 76.7376 58.0598 77.3338 57.3236 77.3338H3.99932C3.26312 77.3338 2.66621 76.7376 2.66621 76.0007V4.01299C2.66621 3.27679 3.26312 2.67988 3.99932 2.67988H57.3236C58.0598 2.67988 58.6567 3.27679 58.6567 4.01299V29.0491C58.6567 29.7853 59.2536 30.3822 59.9898 30.3822C60.726 30.3822 61.3229 29.7853 61.3229 29.0491V4.01299C61.3229 1.80438 59.5322 0.0136719 57.3236 0.0136719H3.99932C1.79071 0.0136719 0 1.80438 0 4.01299V76.0007C0 78.21 1.79071 80 3.99932 80H57.3236C59.5322 80 61.3229 78.21 61.3229 76.0007V62.6697C61.3229 61.9335 60.726 61.3366 59.9898 61.3366Z" fill="#159822"/>
</g>
<defs>
<clipPath id="clip0">
<rect width="80" height="80" fill="white"/>
</clipPath>
</defs>
</svg>
