<svg width="80" height="80" viewBox="0 0 80 80" fill="none" xmlns="http://www.w3.org/2000/svg">
<g clip-path="url(#clip0)">
<path d="M78.6964 51.1038C77.6847 49.8122 76.1718 49.0102 74.5345 48.8974C72.9131 48.76 71.3062 49.2951 70.0912 50.3785L61.3232 58.4211C61.0152 58.7046 60.6008 58.8449 60.1828 58.8058L57.2206 58.539C57.1497 55.7178 55.0987 53.3378 52.3181 52.8518L37.7299 50.3785C37.646 50.364 37.5614 50.364 37.4775 50.3785H31.5531V48.8974C31.5531 48.0795 30.8899 47.4163 30.072 47.4163H22.237V45.9352C22.237 45.1173 21.5745 44.4541 20.7559 44.4541H1.50165C0.683719 44.4541 0.0205536 45.1173 0.0205536 45.9352C0.0205536 46.7531 0.683719 47.4163 1.50165 47.4163H19.2748V77.0382H1.50165C0.683719 77.0382 0.0205536 77.7013 0.0205536 78.5193C0.0205536 79.3372 0.683719 80.0004 1.50165 80.0004H20.7559C21.5745 80.0004 22.237 79.3372 22.237 78.5193V77.0382H30.0127C30.8314 77.0382 31.4938 76.375 31.4938 75.5571V74.076H57.9018C60.4959 74.076 62.9953 73.1033 64.9074 71.351L77.9414 59.3981C80.3692 57.2799 80.7019 53.6263 78.6964 51.1038ZM28.5316 74.076H22.237V50.3785H28.5316V74.076ZM75.9266 57.2213L62.8933 69.1735C61.5301 70.4203 59.7496 71.1123 57.9018 71.1138H31.4938V53.3407H37.3444L51.8588 55.8877C53.426 56.1951 54.4674 57.6885 54.2143 59.265V59.354C54.1644 59.4777 54.1289 59.6071 54.1101 59.7387C53.6263 61.1005 52.2306 61.9141 50.8073 61.6646L40.6624 59.8725C39.8561 59.7286 39.0866 60.2659 38.9441 61.0716C38.8002 61.8779 39.3375 62.6474 40.1439 62.7899L50.2895 64.5819C50.6316 64.6405 50.9787 64.6702 51.3259 64.6709C53.5178 64.668 55.529 63.4538 56.5545 61.5163L59.9904 61.8121C61.2104 61.9358 62.4268 61.5503 63.3525 60.7461L72.1205 52.6891C72.7099 52.1192 73.509 51.8183 74.3277 51.8596C75.1427 51.916 75.8984 52.3072 76.4155 52.9407C77.415 54.2678 77.2074 56.1445 75.9418 57.2213H75.9266Z" fill="#159822"/>
<path d="M16.3126 69.6327C16.3126 67.179 14.3239 65.1895 11.8694 65.1895C9.41557 65.1895 7.42607 67.179 7.42607 69.6327C7.42607 72.0865 9.41557 74.076 11.8694 74.076C14.3239 74.076 16.3126 72.0865 16.3126 69.6327ZM10.3883 69.6327C10.3883 68.8148 11.0514 68.1516 11.8694 68.1516C12.688 68.1516 13.3504 68.8148 13.3504 69.6327C13.3504 70.4507 12.688 71.1138 11.8694 71.1138C11.0514 71.1138 10.3883 70.4507 10.3883 69.6327Z" fill="#159822"/>
<path d="M11.8693 20.7561H19.2748V40.0103C19.2748 40.8283 19.9379 41.4914 20.7559 41.4914C21.5745 41.4914 22.2369 40.8283 22.2369 40.0103V20.7561H37.0479V46.0237C37.0479 46.8416 37.7111 47.5048 38.529 47.5048C39.3476 47.5048 40.0101 46.8416 40.0101 46.0237V20.7561H48.8967V48.1115C48.8967 48.9302 49.5598 49.5926 50.3777 49.5926C51.1964 49.5926 51.8588 48.9302 51.8588 48.1115V20.7561H66.6698V46.4084C66.6698 47.2263 67.333 47.8895 68.1509 47.8895C68.9695 47.8895 69.632 47.2263 69.632 46.4084V20.7561H77.0375C77.7122 20.7605 78.3045 20.3092 78.4788 19.6576C78.6531 19.006 78.3652 18.319 77.778 17.9863L74.0753 15.8536L75.2902 14.2394C75.6301 13.786 75.6822 13.1785 75.4233 12.6745C75.1651 12.1704 74.6422 11.858 74.0753 11.8696H68.0475C68.1191 11.3792 68.1538 10.8838 68.1509 10.3885C68.1617 5.30009 64.4778 0.956604 59.4567 0.135783C54.4348 -0.685039 49.5598 2.25907 47.9493 7.08565C45.8672 5.56405 43.0403 5.56405 40.9582 7.08565C39.3476 2.25907 34.4726 -0.685039 29.4508 0.135783C24.4297 0.956604 20.7457 5.30009 20.7559 10.3885C20.753 10.8838 20.7877 11.3792 20.86 11.8696H14.8315C14.271 11.8696 13.7583 12.1863 13.5073 12.6882C13.2564 13.1901 13.3106 13.7903 13.6469 14.2394L14.8315 15.8536L11.1287 17.9863C10.5422 18.319 10.2544 19.006 10.4287 19.6576C10.603 20.3092 11.1953 20.7605 11.8693 20.7561ZM71.1131 14.8317L70.669 15.424C70.413 15.7632 70.3147 16.1964 70.4 16.613C70.4846 17.0295 70.745 17.3897 71.1131 17.6016L71.4537 17.7939H65.026C65.9068 16.9442 66.625 15.9404 67.1442 14.8317H71.1131ZM50.3777 10.3885C50.3777 6.29809 53.6936 2.98298 57.7832 2.98298C61.8736 2.98298 65.1887 6.29809 65.1887 10.3885C65.1909 11.1847 65.0614 11.9751 64.804 12.7287V12.8618C63.7908 15.7263 61.1309 17.6818 58.0949 17.7939H50.3777V14.8317H57.7832C60.2377 14.8317 62.2265 12.8422 62.2265 10.3885C62.2265 7.93467 60.2377 5.94517 57.7832 5.94517C55.3294 5.94517 53.3399 7.93467 53.3399 10.3885V11.8696H50.3777V10.3885ZM56.3021 11.8696V10.3885C56.3021 9.57053 56.9653 8.90736 57.7832 8.90736C58.6019 8.90736 59.2643 9.57053 59.2643 10.3885C59.2643 11.2064 58.6019 11.8696 57.7832 11.8696H56.3021ZM44.4534 8.90736C46.09 8.90736 47.4156 10.2337 47.4156 11.8696V17.7939H41.4912V11.8696C41.4912 10.2337 42.8175 8.90736 44.4534 8.90736ZM31.1235 2.98298C35.2139 2.98298 38.529 6.29809 38.529 10.3885V11.8696H35.5668V10.3885C35.5668 7.93467 33.578 5.94517 31.1235 5.94517C28.6697 5.94517 26.6802 7.93467 26.6802 10.3885C26.6802 12.8422 28.6697 14.8317 31.1235 14.8317H38.529V17.7939H30.8125C27.7925 17.6645 25.155 15.7119 24.1476 12.8618V12.7287C23.8757 11.978 23.7303 11.1869 23.718 10.3885C23.718 6.29809 27.0339 2.98298 31.1235 2.98298ZM32.6046 11.8696H31.1235C30.3056 11.8696 29.6424 11.2064 29.6424 10.3885C29.6424 9.57053 30.3056 8.90736 31.1235 8.90736C31.9422 8.90736 32.6046 9.57053 32.6046 10.3885V11.8696ZM17.7937 17.6016C18.1625 17.3897 18.4228 17.0295 18.5075 16.613C18.5928 16.1964 18.4944 15.7632 18.2384 15.424L17.7937 14.8317H21.7633C22.2825 15.9404 23.0006 16.9442 23.8815 17.7939H17.453L17.7937 17.6016Z" fill="#159822"/>
</g>
<defs>
<clipPath id="clip0">
<rect width="80" height="80" fill="white"/>
</clipPath>
</defs>
</svg>
