<svg width="217" height="44" viewBox="0 0 217 44" fill="none" xmlns="http://www.w3.org/2000/svg">
<path fill-rule="evenodd" clip-rule="evenodd" d="M199.11 20.5265C199.11 20.5095 199.102 20.4414 199.104 20.4574C199.014 19.6662 198.822 18.8899 198.534 18.1474C198.132 17.0976 197.514 16.1437 196.72 15.3475C195.953 14.5932 195.032 14.0133 194.02 13.6474C192.967 13.2646 191.854 13.0722 190.734 13.0795C189.634 13.0744 188.541 13.2668 187.509 13.6474C186.499 14.0167 185.579 14.5961 184.809 15.3475C184.006 16.1438 183.376 17.0969 182.958 18.1474C182.653 18.9102 182.451 19.7103 182.358 20.5265C182.299 21.0196 182.27 21.5158 182.272 22.0124C182.246 23.3304 182.471 24.6414 182.934 25.8755C183.334 26.9231 183.953 27.8737 184.748 28.6645C185.517 29.4139 186.438 29.9904 187.448 30.3555C188.501 30.7383 189.614 30.9307 190.734 30.9234C191.874 30.9328 193.007 30.7405 194.081 30.3555C195.09 29.9962 196.006 29.4188 196.766 28.6645C197.548 27.8701 198.154 26.9197 198.544 25.8755C198.999 24.6395 199.22 23.3293 199.194 22.0124C199.195 21.5159 199.167 21.0198 199.11 20.5265ZM194.942 24.2835C194.76 24.9139 194.46 25.5042 194.059 26.0235C193.68 26.5047 193.193 26.8895 192.637 27.1465C192.035 27.4077 191.386 27.5425 190.73 27.5425C190.074 27.5425 189.425 27.4077 188.823 27.1465C188.272 26.8874 187.789 26.5028 187.413 26.0235C187.012 25.5043 186.713 24.9139 186.531 24.2835C186.317 23.5457 186.214 22.7804 186.224 22.0124C186.222 21.5161 186.264 21.0206 186.348 20.5315C186.395 20.2687 186.456 20.0087 186.531 19.7525C186.711 19.1177 187.01 18.523 187.413 18.0005C187.791 17.5198 188.273 17.1316 188.823 16.8655C189.421 16.5839 190.075 16.4442 190.736 16.4574C191.391 16.4493 192.04 16.5859 192.636 16.8575C193.192 17.1144 193.679 17.4992 194.058 17.9805C194.461 18.5036 194.76 19.0984 194.941 19.7334C195.019 19.999 195.081 20.2688 195.128 20.5415C195.209 21.0292 195.249 21.523 195.247 22.0174C195.257 22.7836 195.154 23.5471 194.942 24.2835ZM179.088 13.4704V20.5265V30.5774H175.263V13.4704H179.088ZM172.32 25.8874C172.356 26.5946 172.224 27.3002 171.934 27.9462C171.644 28.5921 171.205 29.1598 170.652 29.6025C169.17 30.5893 167.401 31.0541 165.625 30.9234C164.944 30.9283 164.263 30.8832 163.589 30.7884C163.047 30.7108 162.511 30.5992 161.983 30.4545C161.574 30.3424 161.173 30.2024 160.783 30.0354C160.494 29.9105 160.211 29.7703 159.937 29.6155L161.014 26.5555C162.43 27.3124 164.02 27.6867 165.625 27.6415C166.074 27.6511 166.523 27.6058 166.961 27.5065C167.264 27.4371 167.551 27.3112 167.808 27.1355C168.006 26.9968 168.159 26.8036 168.249 26.5795C168.334 26.3507 168.375 26.1084 168.372 25.8645C168.37 25.5846 168.297 25.3098 168.159 25.0658C168.022 24.8219 167.825 24.6167 167.587 24.4695C166.744 23.952 165.836 23.5485 164.887 23.2695C164.332 23.0695 163.777 22.8431 163.22 22.5904C162.676 22.3443 162.17 22.02 161.72 21.6275C161.362 21.3097 161.054 20.9387 160.809 20.5275L160.803 20.5155L160.797 20.5055C160.743 20.4135 160.691 20.3205 160.642 20.2235C160.347 19.5947 160.205 18.9055 160.225 18.2115C160.213 17.4756 160.364 16.7463 160.667 16.0755C160.955 15.4488 161.383 14.896 161.917 14.4595C162.498 13.9926 163.164 13.6444 163.879 13.4345C164.723 13.185 165.599 13.0642 166.479 13.0765C168.227 13.04 169.957 13.4474 171.505 14.2605L170.405 17.2975C169.896 17.0367 169.367 16.818 168.823 16.6435C168.142 16.4398 167.434 16.344 166.723 16.3595C166.043 16.3087 165.361 16.441 164.749 16.7425C164.553 16.8662 164.394 17.0404 164.288 17.2468C164.183 17.4531 164.135 17.6841 164.149 17.9155C164.139 18.195 164.217 18.4706 164.37 18.7045C164.538 18.9377 164.75 19.1352 164.995 19.2854C165.29 19.4704 165.602 19.6271 165.926 19.7535C166.278 19.8935 166.666 20.0375 167.091 20.1855C167.358 20.2855 167.612 20.3855 167.857 20.4855L167.922 20.5124L167.967 20.5304C168.491 20.7434 168.967 20.9544 169.394 21.1634C169.995 21.4472 170.546 21.8265 171.025 22.2865C171.456 22.7106 171.786 23.2249 171.994 23.7925C172.224 24.4664 172.334 25.1754 172.32 25.8874ZM157.067 13.4704V30.5774H153.241V13.4704H157.067ZM149.734 17.1705C149.381 18.1705 148.216 21.2565 148.116 21.5155C147.527 23.0295 146.905 24.5601 146.252 26.1075C145.599 27.6548 144.937 29.1438 144.266 30.5744H140.588C139.917 29.1438 139.254 27.6548 138.601 26.1075C137.947 24.5595 135.478 18.1995 135.107 17.1705C134.608 15.7878 134.178 14.5544 133.819 13.4704H138.037C138.364 14.4584 138.72 15.5251 139.104 16.6705C139.488 17.8145 141.119 22.4465 141.445 23.3485C141.822 24.3845 142.174 25.2811 142.5 26.0384C142.811 25.2818 143.158 24.3852 143.543 23.3485C143.877 22.4485 144.373 21.0665 144.72 20.0885C145.12 18.9552 145.512 17.8158 145.897 16.6705C146.282 15.5251 146.637 14.4584 146.963 13.4704H151.034C150.658 14.5564 150.225 15.7908 149.734 17.1734V17.1705ZM78.644 13.4704V20.5265V30.5774H75.432C74.3373 28.6194 73.152 26.6861 71.876 24.7775C70.932 23.3635 69.47 21.4314 68.393 20.0774C68.193 19.8394 68.004 19.6005 67.805 19.3655V30.5735H64.029V13.4704H67.143C67.683 14.0138 68.2796 14.6804 68.933 15.4704C69.5863 16.2604 70.253 17.1041 70.933 18.0015C71.481 18.7255 72.026 19.4755 72.569 20.2435L72.733 20.4765L72.744 20.4925L72.769 20.5275C72.831 20.6145 72.893 20.7025 72.954 20.7915C73.624 21.7548 74.2533 22.6805 74.842 23.5685V13.4685L78.644 13.4704ZM61.208 27.3435V30.5774H49.167V20.5265V13.4704H60.644V16.7045H52.993V20.0614H59.785V20.5265V23.2265H52.993V27.3475L61.208 27.3435ZM46.348 27.3435V30.5774H34.307V13.4704H45.783V16.7045H38.132V20.0614H44.925V20.5265V23.2265H38.132V27.3475L46.348 27.3435ZM30.898 28.6645C30.5547 28.0158 30.199 27.3904 29.831 26.7884C29.463 26.1864 29.0913 25.6105 28.716 25.0605C28.3387 24.5091 27.979 24.0195 27.637 23.5915C28.5741 23.234 29.3933 22.6229 30.003 21.8265C30.2936 21.4387 30.5037 20.9967 30.621 20.5265V20.5205V20.5124V20.4964C30.7581 19.976 30.8254 19.4397 30.821 18.9015C30.8799 18.076 30.7232 17.2494 30.3663 16.5027C30.0093 15.7561 29.4644 15.115 28.785 14.6424C27.0073 13.6225 24.9696 13.1462 22.924 13.2724C22.2207 13.2724 21.4237 13.3058 20.533 13.3725C19.6645 13.4355 18.8006 13.5507 17.946 13.7175V30.5785H21.772V24.3335H23.66C23.986 24.7288 24.313 25.1688 24.641 25.6535C24.969 26.1382 25.3 26.6528 25.634 27.1975C25.9673 27.7408 26.2943 28.3001 26.615 28.8755C26.934 29.4525 27.249 30.0185 27.559 30.5755H31.85C31.5586 29.9515 31.2416 29.3145 30.899 28.6645H30.898ZM22.855 21.2715H21.776V16.6305C21.976 16.6135 22.176 16.5975 22.401 16.5805C22.626 16.5635 22.871 16.5564 23.149 16.5564C24.1062 16.5004 25.0624 16.6825 25.932 17.0865C26.2433 17.2641 26.4975 17.5269 26.6647 17.844C26.8319 18.161 26.9052 18.5192 26.876 18.8765C26.8975 19.1812 26.8511 19.4869 26.7399 19.7714C26.6287 20.0559 26.4555 20.3121 26.233 20.5215C26.1432 20.5988 26.0469 20.668 25.945 20.7284C24.975 21.1597 23.9139 21.3461 22.855 21.2715ZM217 13.4715V30.5785H213.787C212.692 28.6205 211.507 26.6872 210.231 24.7785C209.277 23.3485 207.777 21.3704 206.695 20.0174C206.517 19.8024 206.341 19.5835 206.161 19.3705V30.5785H202.384V13.4704H205.499C206.039 14.0138 206.636 14.6804 207.29 15.4704C207.944 16.2604 208.611 17.1041 209.29 18.0015C209.907 18.8155 210.52 19.6575 211.129 20.5275H211.099L211.306 20.7915C211.977 21.7548 212.607 22.6805 213.195 23.5685V13.4685L217 13.4715ZM14.4 21.5445V30.0115C13.6808 30.2627 12.9428 30.4567 12.193 30.5915C10.9551 30.817 9.69809 30.9204 8.44 30.9004C7.25715 30.9163 6.08142 30.7153 4.97101 30.3075C3.96726 29.9351 3.05847 29.3449 2.30999 28.5795C1.5504 27.7821 0.970682 26.831 0.609982 25.7905C0.191261 24.5761 -0.0117754 23.2978 0.0100067 22.0135C0.0104335 21.5169 0.0394567 21.0207 0.0969818 20.5275L0.101987 20.4834C0.194188 19.7049 0.385755 18.9414 0.671994 18.2115C1.07807 17.1635 1.69558 16.2104 2.48602 15.4115C3.25544 14.6453 4.17924 14.0517 5.19598 13.6705C6.25807 13.2714 7.38441 13.0707 8.51898 13.0785C9.24546 13.0726 9.97125 13.1261 10.689 13.2385C11.2523 13.327 11.8093 13.4509 12.357 13.6095C12.7519 13.7225 13.1371 13.867 13.509 14.0415C13.809 14.1895 14.028 14.3045 14.159 14.3865L13.059 17.4725C12.4842 17.1716 11.8813 16.9278 11.259 16.7445C10.5386 16.5325 9.79084 16.4284 9.03998 16.4355C8.32455 16.3688 7.60342 16.4691 6.93329 16.7283C6.26316 16.9876 5.6623 17.3987 5.17798 17.9295C4.60239 18.6838 4.23207 19.5744 4.10302 20.5145C4.02652 21.0108 3.98802 21.5123 3.98797 22.0145C3.98101 22.786 4.08203 23.5548 4.28802 24.2984C4.46299 24.9387 4.7631 25.5379 5.17102 26.0614C5.56296 26.556 6.06726 26.95 6.64203 27.2105C7.29062 27.4943 7.99318 27.6335 8.70099 27.6185C9.12699 27.6185 9.49097 27.6095 9.79297 27.5935C10.0618 27.5812 10.3294 27.5477 10.593 27.4935V21.5445H14.4Z" fill="#159822"/>
<path d="M95.284 17.066C95.835 22.808 102.791 26.625 109.704 27.658C108.852 23.2759 108.421 18.8222 108.418 14.358C106.406 13.801 102.944 13.017 102.194 12.864C101.361 12.696 100.514 12.6116 99.665 12.612C98.138 12.627 94.958 13.665 95.284 17.066ZM123.871 20.66C120.463 18.7535 116.896 17.1474 113.21 15.86C113.032 19.9509 112.169 23.9829 110.656 27.788C117.583 28.56 124.169 26.486 123.871 20.655V20.66ZM129 22.001C129 26.3522 127.71 30.6056 125.292 34.2235C122.875 37.8414 119.439 40.6612 115.419 42.3264C111.399 43.9915 106.976 44.4271 102.708 43.5782C98.4404 42.7294 94.5204 40.6341 91.4437 37.5573C88.3669 34.4806 86.2716 30.5606 85.4227 26.293C84.5739 22.0254 85.0095 17.6019 86.6746 13.582C88.3398 9.562 91.1596 6.12607 94.7775 3.70868C98.3954 1.29129 102.649 0.000976562 107 0.000976562C112.835 0.00124177 118.43 2.31924 122.556 6.44501C126.681 10.5708 128.999 16.1664 128.999 22.001H129ZM89.776 12.077C90.6357 11.7318 91.55 11.5425 92.476 11.518C94.0707 11.6273 95.684 11.7957 97.316 12.023C96.6007 11.981 95.8907 11.9527 95.186 11.938C93.3 12.048 89.44 13.573 90.064 17.893C92.18 32.534 125.664 35.693 125.649 21.617C126.063 21.8537 126.473 22.0936 126.879 22.337C126.879 22.225 126.879 22.113 126.879 22.001C126.878 17.6246 125.432 13.3709 122.767 9.8999C120.101 6.42885 116.365 3.93443 112.137 2.80353C107.909 1.67263 103.426 1.96849 99.3839 3.6452C95.3414 5.32192 91.9652 8.28572 89.779 12.077H89.776ZM124.711 31.028C115.751 37.728 92.588 33.281 87.117 22.028C87.1224 26.4916 88.6296 30.8234 91.3962 34.3262C94.1628 37.8289 98.0277 40.2987 102.369 41.338C106.709 42.3772 111.274 41.9252 115.327 40.0551C119.379 38.1849 122.685 35.0052 124.711 31.028Z" fill="#159822"/>
</svg>
