<svg width="80" height="80" viewBox="0 0 80 80" fill="none" xmlns="http://www.w3.org/2000/svg">
<g clip-path="url(#clip0)">
<path d="M61.2814 33.3725V28.0437C61.2814 25.8366 59.4919 24.0471 57.2848 24.0471H52.2623C51.8447 22.6914 51.2957 21.3801 50.6238 20.1305L54.1806 16.5736C55.7392 15.0131 55.7392 12.4852 54.1806 10.9247L50.4241 7.15448C48.8635 5.59655 46.3357 5.59655 44.7752 7.15448L41.2183 10.725C39.9694 10.0531 38.6573 9.50405 37.3017 9.08643V4.064C37.3017 1.85688 35.5122 0.0673828 33.3051 0.0673828H27.9763C25.7692 0.0673828 23.9797 1.85688 23.9797 4.064V9.08643C22.624 9.50405 21.312 10.0531 20.0631 10.725L16.5062 7.15448C14.9457 5.59655 12.4179 5.59655 10.8573 7.15448L7.08709 10.9247C5.52916 12.4852 5.52916 15.0131 7.08709 16.5736L10.6576 20.1305C9.98567 21.3801 9.43666 22.6914 9.01904 24.0471H3.99661C1.78949 24.0471 -7.62939e-06 25.8366 -7.62939e-06 28.0437V33.3725C-7.62939e-06 35.5796 1.78949 37.3691 3.99661 37.3691H9.01904C9.20573 37.9819 9.4321 38.5946 9.67148 39.2074C9.82955 39.6771 10.2348 40.0205 10.724 40.0992C11.2131 40.1773 11.7056 39.9776 12.0022 39.5808C12.2988 39.184 12.3502 38.6551 12.1362 38.2082C11.809 37.3919 11.5332 36.5554 11.3107 35.7039C11.1546 35.1002 10.6017 34.6852 9.97851 34.7047H3.99661C3.2609 34.7047 2.6644 34.1082 2.6644 33.3725V28.0437C2.6644 27.308 3.2609 26.7115 3.99661 26.7115H10.0182C10.6414 26.731 11.1949 26.316 11.3504 25.7123C11.8148 23.9066 12.5323 22.175 13.4821 20.5702C13.7884 20.0498 13.7065 19.3883 13.2824 18.9583L8.97936 14.7216C8.72697 14.4718 8.58517 14.131 8.58517 13.7758C8.58517 13.4207 8.72697 13.0798 8.97936 12.83L12.7359 9.07343C12.9857 8.82103 13.3266 8.67923 13.6818 8.67923C14.0369 8.67923 14.3771 8.82103 14.6276 9.07343L18.8909 13.3361C19.3202 13.7609 19.9824 13.8428 20.5028 13.5358C22.1076 12.5867 23.8392 11.8692 25.6449 11.4048C26.2486 11.2487 26.6636 10.6957 26.6441 10.0726V4.064C26.6441 3.32829 27.2406 2.73179 27.9763 2.73179H33.3051C34.0408 2.73179 34.6373 3.32829 34.6373 4.064V10.0856C34.6178 10.7088 35.0328 11.2623 35.6365 11.4178C37.4422 11.8822 39.1738 12.5997 40.7786 13.5495C41.299 13.8558 41.9612 13.7739 42.3905 13.3497L46.6271 9.04675C46.8776 8.79436 47.2178 8.65256 47.573 8.65256C47.9281 8.65256 48.269 8.79436 48.5188 9.04675L52.276 12.8033C52.5277 13.0531 52.6695 13.394 52.6695 13.7492C52.6695 14.1043 52.5277 14.4452 52.276 14.695L48.0127 18.9583C47.5886 19.3883 47.506 20.0498 47.813 20.5702C48.7621 22.175 49.4795 23.9066 49.9446 25.7123C50.1001 26.316 50.6537 26.731 51.2768 26.7115H57.2848C58.0205 26.7115 58.617 27.308 58.617 28.0437V33.3725C58.617 34.1082 58.0205 34.7047 57.2848 34.7047H51.2632C50.64 34.6852 50.0865 35.1002 49.931 35.7039C49.7079 36.5554 49.4321 37.3919 49.1049 38.2082C48.8304 38.8893 49.1582 39.6634 49.838 39.9405C49.9947 40.0023 50.1619 40.0342 50.3304 40.0335C50.8735 40.0361 51.3634 39.7096 51.5696 39.2074C51.8096 38.5946 52.036 37.9819 52.2227 37.3691H57.2848C59.4919 37.3691 61.2814 35.5796 61.2814 33.3725Z" fill="#159822"/>
<path d="M42.6305 42.6979H39.9661V40.2066C43.8313 36.4181 45.0204 30.6671 42.9739 25.6564C40.9275 20.6457 36.0534 17.3711 30.6407 17.3711C25.2279 17.3711 20.3538 20.6457 18.3074 25.6564C16.2609 30.6671 17.45 36.4181 21.3152 40.2066V42.6979H18.6508C13.5002 42.6979 9.32538 46.8734 9.32538 52.0234V78.6675C9.32538 79.4032 9.92188 79.9997 10.6576 79.9997C11.3933 79.9997 11.9898 79.4032 11.9898 78.6675V52.0234C11.9898 48.3448 14.9723 45.3623 18.6508 45.3623H42.6305C46.309 45.3623 49.2915 48.3448 49.2915 52.0234V78.6675C49.2915 79.4032 49.888 79.9997 50.6237 79.9997C51.3594 79.9997 51.9559 79.4032 51.9559 78.6675V52.0234C51.9559 46.8734 47.7811 42.6979 42.6305 42.6979ZM23.5399 38.7013C20.2439 35.7566 19.1075 31.0828 20.6836 26.9535C22.2597 22.8242 26.2206 20.096 30.6407 20.096C35.0607 20.096 39.0216 22.8242 40.5977 26.9535C42.1738 31.0828 41.0374 35.7566 37.7414 38.7013C37.4623 38.9531 37.3023 39.3115 37.3017 39.6875V42.6979H23.9796V39.6205C23.9608 39.2679 23.8027 38.9375 23.5399 38.7013Z" fill="#159822"/>
<path d="M34.9573 48.0268C34.2437 47.8511 33.5223 48.2863 33.3447 48.9993L32.2662 53.3556H29.015L27.9762 49.0396C27.8773 48.5608 27.5248 48.1751 27.0577 48.0339C26.59 47.8921 26.0833 48.0177 25.7353 48.3611C25.3879 48.7039 25.2565 49.2094 25.3918 49.679L26.724 54.7945L25.3118 69.7284C25.2754 70.1526 25.4438 70.5682 25.7645 70.8473L29.7611 74.3378C30.264 74.7795 31.0172 74.7795 31.5201 74.3378L35.5167 70.8473C35.8374 70.5682 36.0059 70.1526 35.9694 69.7284L34.6372 54.7945L35.9694 49.679C36.0651 49.3252 36.0111 48.9472 35.8192 48.6343C35.6279 48.3221 35.3157 48.1022 34.9573 48.0268ZM30.6406 71.5667L27.9762 69.3421L29.1484 56.02H32.0262L33.305 69.3421L30.6406 71.5667Z" fill="#159822"/>
<path d="M18.6509 56.0195C17.9152 56.0195 17.3187 56.616 17.3187 57.3517V78.667C17.3187 79.4027 17.9152 79.9992 18.6509 79.9992C19.3866 79.9992 19.9831 79.4027 19.9831 78.667V57.3517C19.9831 56.616 19.3866 56.0195 18.6509 56.0195Z" fill="#159822"/>
<path d="M42.6305 56.0195C41.8948 56.0195 41.2983 56.616 41.2983 57.3517V78.667C41.2983 79.4027 41.8948 79.9992 42.6305 79.9992C43.3662 79.9992 43.9627 79.4027 43.9627 78.667V57.3517C43.9627 56.616 43.3662 56.0195 42.6305 56.0195Z" fill="#159822"/>
<path d="M30.6407 36.0375C33.5835 36.0375 35.9695 33.6515 35.9695 30.7087C35.9695 27.7659 33.5835 25.3799 30.6407 25.3799C27.6978 25.3799 25.3118 27.7659 25.3118 30.7087C25.3118 33.6515 27.6978 36.0375 30.6407 36.0375ZM30.6407 28.0443C32.1121 28.0443 33.3051 29.2373 33.3051 30.7087C33.3051 32.1801 32.1121 33.3731 30.6407 33.3731C29.1693 33.3731 27.9763 32.1801 27.9763 30.7087C27.9763 29.2373 29.1693 28.0443 30.6407 28.0443Z" fill="#159822"/>
<path d="M79.7592 54.9949L77.0948 50.3855C76.9192 50.0772 76.6271 49.8515 76.2849 49.7591C75.9421 49.6668 75.5766 49.7149 75.2695 49.8925L73.3376 51.012C72.9141 50.7284 72.4685 50.4792 72.0054 50.2659V48.0275C72.0054 47.2918 71.4089 46.6953 70.6732 46.6953H65.3444C64.6087 46.6953 64.0122 47.2918 64.0122 48.0275V50.2659C63.549 50.4786 63.1034 50.7277 62.6799 51.012L60.735 49.8925C60.0982 49.5308 59.2889 49.7513 58.9234 50.3855L56.259 54.9949C56.0801 55.3007 56.03 55.6649 56.1198 56.0071C56.2102 56.3492 56.4326 56.642 56.7384 56.8202L58.6833 57.939C58.63 58.4354 58.63 58.9356 58.6833 59.4313L56.7384 60.5501C56.4326 60.7283 56.2102 61.0211 56.1198 61.3632C56.03 61.706 56.0801 62.0697 56.259 62.3754L58.9234 66.9848C59.2889 67.619 60.0982 67.8395 60.735 67.4778L62.6799 66.359C63.1034 66.6426 63.549 66.8917 64.0122 67.1045V69.3428C64.0122 70.0785 64.6087 70.675 65.3444 70.675H70.6732C71.4089 70.675 72.0054 70.0785 72.0054 69.3428V67.1045C72.4705 66.895 72.9161 66.6452 73.3376 66.359L75.2825 67.4778C75.5902 67.6554 75.9551 67.7036 76.298 67.6112C76.6408 67.5188 76.9322 67.2931 77.1078 66.9848L79.7722 62.3754C79.9505 62.0684 79.9986 61.7028 79.9056 61.36C79.8132 61.0178 79.5875 60.7264 79.2792 60.5501L77.3478 59.4313C77.3478 59.1782 77.3478 58.9382 77.3478 58.6852C77.3478 58.4321 77.3478 58.1921 77.3478 57.939L79.2792 56.8202C79.5855 56.642 79.808 56.3492 79.8984 56.0071C79.9882 55.6649 79.9381 55.3007 79.7592 54.9949ZM74.6034 57.4726C74.7635 58.2734 74.7635 59.0969 74.6034 59.8977C74.4714 60.4662 74.7251 61.0549 75.2299 61.3496L76.7748 62.242L75.4426 64.5604L73.8976 63.6543C73.4072 63.3732 72.7931 63.4324 72.3651 63.8006C71.7426 64.3282 71.0296 64.7393 70.2608 65.0131C69.728 65.1992 69.3702 65.7014 69.3676 66.2653V68.0106H66.7032V66.212C66.7032 65.6513 66.352 65.1504 65.8244 64.9598C65.0523 64.6918 64.3387 64.2807 63.7194 63.7473C63.2914 63.3791 62.6773 63.3199 62.1875 63.6009L60.6283 64.507L59.2961 62.1887L60.8553 61.3496C61.3432 61.066 61.5995 60.5052 61.4948 59.951C61.3347 59.1503 61.3347 58.3267 61.4948 57.526C61.6509 56.9373 61.3874 56.3174 60.8553 56.0207L59.2961 55.1283L60.6283 52.8099L62.1875 53.7161C62.6773 53.9971 63.2914 53.9385 63.7194 53.5697C64.3387 53.0363 65.0523 52.6252 65.8244 52.3572C66.352 52.1666 66.7032 51.6657 66.7032 51.105V49.3597H69.3676V51.1583C69.3702 51.7223 69.728 52.2245 70.2608 52.4105C71.0296 52.6844 71.7426 53.0955 72.3651 53.623C72.7931 53.9919 73.4072 54.0504 73.8976 53.7694L75.4426 52.8633L76.7748 55.1816L75.2299 56.0207C74.7251 56.3154 74.4714 56.9041 74.6034 57.4726Z" fill="#159822"/>
<path d="M68.0355 54.6875C65.8284 54.6875 64.0389 56.477 64.0389 58.6841C64.0389 60.8912 65.8284 62.6807 68.0355 62.6807C70.2432 62.6807 72.0321 60.8912 72.0321 58.6841C72.0321 56.477 70.2432 54.6875 68.0355 54.6875ZM68.0355 60.0163C67.2998 60.0163 66.7033 59.4198 66.7033 58.6841C66.7033 57.9484 67.2998 57.3519 68.0355 57.3519C68.7712 57.3519 69.3677 57.9484 69.3677 58.6841C69.3677 59.4198 68.7712 60.0163 68.0355 60.0163Z" fill="#159822"/>
<path d="M79.266 15.2542L77.3341 14.1354C77.3341 13.8823 77.3341 13.6423 77.3341 13.3893C77.3341 13.1362 77.3341 12.8962 77.3341 12.6431L79.266 11.5243C79.5744 11.3487 79.8001 11.0566 79.8925 10.7144C79.9848 10.3716 79.9367 10.0061 79.7591 9.69902L77.0947 5.08965C76.9191 4.78131 76.627 4.55559 76.2848 4.46322C75.942 4.37085 75.5765 4.41899 75.2694 4.59657L73.3375 5.71607C72.914 5.43245 72.4684 5.18332 72.0053 4.96996V2.73162C72.0053 1.99591 71.4088 1.39941 70.6731 1.39941H65.3442C64.6085 1.39941 64.012 1.99591 64.012 2.73162V4.96996C63.5489 5.18267 63.1033 5.4318 62.6798 5.71607L60.8019 4.59657C60.165 4.2349 59.3558 4.45542 58.9896 5.08965L56.3252 9.69902C56.1463 10.0048 56.0962 10.369 56.1867 10.7112C56.2764 11.0533 56.4989 11.3461 56.8053 11.5243L58.7502 12.6431C58.6969 13.1395 58.6969 13.6397 58.7502 14.1354L56.8053 15.2542C56.4989 15.4324 56.2764 15.7252 56.1867 16.0673C56.0962 16.4101 56.1463 16.7738 56.3252 17.0795L58.9896 21.6889C59.3558 22.3231 60.165 22.5436 60.8019 22.1819L62.7468 21.0631C63.1703 21.3467 63.6159 21.5958 64.079 21.8085V24.0469C64.079 24.7826 64.6755 25.3791 65.4112 25.3791H70.7401C71.4758 25.3791 72.0723 24.7826 72.0723 24.0469V21.8085C72.5367 21.5991 72.9829 21.3493 73.4045 21.0631L75.3494 22.1819C75.6565 22.3595 76.022 22.4076 76.3642 22.3153C76.707 22.2229 76.9984 21.9972 77.1747 21.6889L79.8391 17.0795C80.0108 16.7627 80.0466 16.3893 79.9386 16.0459C79.8307 15.7017 79.588 15.4162 79.266 15.2542ZM74.6033 12.1767C74.7633 12.9775 74.7633 13.801 74.6033 14.6018C74.4713 15.1703 74.725 15.759 75.2297 16.0537L76.7747 16.9461L75.4424 19.2645L73.8975 18.3583C73.4071 18.0773 72.793 18.1365 72.365 18.5047C71.7425 19.0323 71.0295 19.4434 70.2606 19.7172C69.7279 19.9033 69.3701 20.4054 69.3675 20.9694V22.7147H66.7031V20.9161C66.7031 20.3554 66.3519 19.8545 65.8243 19.6639C65.0522 19.3959 64.3386 18.9848 63.7193 18.4514C63.2913 18.0832 62.6772 18.024 62.1874 18.305L60.6282 19.2111L59.296 16.8928L60.8552 16.0537C61.3431 15.77 61.5994 15.2093 61.4946 14.6551C61.3346 13.8544 61.3346 13.0308 61.4946 12.2301C61.6508 11.6414 61.3873 11.0215 60.8552 10.7248L59.296 9.83237L60.6282 7.51402L62.1874 8.42016C62.6772 8.70117 63.2913 8.64262 63.7193 8.2738C64.3386 7.74039 65.0522 7.32928 65.8243 7.06128C66.3519 6.87069 66.7031 6.36981 66.7031 5.80909V4.06382H69.3675V5.86243C69.3701 6.4264 69.7279 6.92858 70.2606 7.11462C71.0295 7.38848 71.7425 7.79959 72.365 8.32714C72.793 8.69596 73.4071 8.75451 73.8975 8.4735L75.4424 7.56736L76.7747 9.88571L75.2297 10.7248C74.725 11.0195 74.4713 11.6082 74.6033 12.1767Z" fill="#159822"/>
<path d="M68.0355 9.39355C65.8284 9.39355 64.0389 11.1831 64.0389 13.3902C64.0389 15.5973 65.8284 17.3868 68.0355 17.3868C70.2432 17.3868 72.0321 15.5973 72.0321 13.3902C72.0321 11.1831 70.2432 9.39355 68.0355 9.39355ZM68.0355 14.7224C67.2998 14.7224 66.7033 14.1259 66.7033 13.3902C66.7033 12.6545 67.2998 12.058 68.0355 12.058C68.7712 12.058 69.3677 12.6545 69.3677 13.3902C69.3677 14.1259 68.7712 14.7224 68.0355 14.7224Z" fill="#159822"/>
</g>
<defs>
<clipPath id="clip0">
<rect width="80" height="80" fill="white"/>
</clipPath>
</defs>
</svg>
