<svg width="135" height="162" viewBox="0 0 135 162" fill="none" xmlns="http://www.w3.org/2000/svg">
<circle cx="67.5" cy="67.5" r="58" stroke="#D1D1D1"/>
<circle cx="67.5" cy="154.5" r="7.5" fill="#159822"/>
<path d="M132.5 67.5C132.5 103.399 103.399 132.5 67.5 132.5C31.6015 132.5 2.5 103.399 2.5 67.5C2.5 31.6015 31.6015 2.5 67.5 2.5C103.399 2.5 132.5 31.6015 132.5 67.5ZM67.5 134.5C104.503 134.5 134.5 104.503 134.5 67.5C134.5 30.4969 104.503 0.5 67.5 0.5C30.4969 0.5 0.5 30.4969 0.5 67.5C0.5 104.503 30.4969 134.5 67.5 134.5Z" fill="#159822" stroke="#159822"/>
<path fill-rule="evenodd" clip-rule="evenodd" d="M66 148L66 134L69 134L69 148L66 148Z" fill="#159822"/>
<path d="M102.875 91.4688H102.639C102.783 91.0664 102.875 90.6385 102.875 90.1875V74.8125C102.875 72.6933 101.15 70.9688 99.0312 70.9688H91.108C91.2515 70.5664 91.3438 70.1385 91.3438 69.6875V54.3125C91.3438 52.1933 89.6192 50.4688 87.5 50.4688H77.136L69.1141 35.0938H70.8438V22.2812H63.1562V35.0938H64.8449L56.4899 50.4688H46.5C44.3808 50.4688 42.6562 52.1933 42.6562 54.3125V69.6875C42.6562 70.1385 42.7485 70.5664 42.892 70.9688H34.9688C32.8496 70.9688 31.125 72.6933 31.125 74.8125V90.1875C31.125 90.6385 31.2173 91.0664 31.3608 91.4688H31.125C29.0058 91.4688 27.2812 93.1933 27.2812 95.3125V97.875C27.2812 99.9942 29.0058 101.719 31.125 101.719H102.875C104.994 101.719 106.719 99.9942 106.719 97.875V95.3125C106.719 93.1933 104.994 91.4688 102.875 91.4688ZM100.312 74.8125V90.1875C100.312 90.8948 99.7385 91.4688 99.0312 91.4688H98.5264L93.1785 81.2188H95.1875V73.5312H99.0312C99.7385 73.5312 100.312 74.1053 100.312 74.8125ZM56.75 90.1875V74.8125C56.75 74.1053 57.324 73.5312 58.0312 73.5312H61.875V81.2188H72.125V73.5312H75.9688C76.676 73.5312 77.25 74.1053 77.25 74.8125V90.1875C77.25 90.8948 76.676 91.4688 75.9688 91.4688H58.0312C57.324 91.4688 56.75 90.8948 56.75 90.1875ZM75.9688 53.7731L78.2558 58.1562H75.9688V53.7731ZM79.5934 60.7188L84.9413 70.9688H81.0938H75.9688H69.5625C68.8553 70.9688 68.2812 70.3947 68.2812 69.6875V54.3125C68.2812 53.6065 68.8553 53.0312 69.5625 53.0312H73.4062V60.7188H79.5934ZM91.8422 78.6562L89.1682 73.5312H92.625V78.6562H91.8422ZM69.5625 73.5312V78.6562H64.4375V73.5312H69.5625ZM79.8125 90.1875V74.8125C79.8125 74.1053 80.3865 73.5312 81.0938 73.5312H86.2777L95.6359 91.4688H81.0938C80.3865 91.4688 79.8125 90.8948 79.8125 90.1875ZM87.5 53.0312C88.2072 53.0312 88.7812 53.6065 88.7812 54.3125V69.6875C88.7812 70.2884 88.3584 70.7702 87.7998 70.9085L78.4723 53.0312H87.5ZM65.7188 24.8438H68.2812V32.5312H65.7188V24.8438ZM66.9769 36.539L74.2455 50.4688H69.5625C68.5747 50.4688 67.6816 50.8544 67 51.4681C66.3184 50.8531 65.4253 50.4688 64.4375 50.4688H59.406L66.9769 36.539ZM52.9062 53.0312H58.0312V58.1562H52.9062V53.0312ZM45.2188 69.6875V54.3125C45.2188 53.6065 45.7927 53.0312 46.5 53.0312H50.3438V60.7188H60.5938V53.0312H64.4375C65.1447 53.0312 65.7188 53.6065 65.7188 54.3125V69.6875C65.7188 70.3947 65.1447 70.9688 64.4375 70.9688H58.0312H52.9062H46.5C45.7927 70.9688 45.2188 70.3947 45.2188 69.6875ZM41.375 73.5312H46.5V78.6562H41.375V73.5312ZM33.6875 90.1875V74.8125C33.6875 74.1053 34.2615 73.5312 34.9688 73.5312H38.8125V81.2188H49.0625V73.5312H52.9062C53.6135 73.5312 54.1875 74.1053 54.1875 74.8125V90.1875C54.1875 90.8948 53.6135 91.4688 52.9062 91.4688H34.9688C34.2615 91.4688 33.6875 90.8948 33.6875 90.1875ZM29.8438 97.875V95.3125C29.8438 94.6052 30.4178 94.0312 31.125 94.0312H34.9688H52.9062H58.0312H75.9688H81.0938H96.4688V99.1562H31.125C30.4178 99.1562 29.8438 98.5823 29.8438 97.875ZM104.156 97.875C104.156 98.5823 103.582 99.1562 102.875 99.1562H99.0312V94.0312H102.875C103.582 94.0312 104.156 94.6052 104.156 95.3125V97.875Z" fill="#159822"/>
</svg>
