<svg width="189" height="189" viewBox="0 0 189 189" fill="none" xmlns="http://www.w3.org/2000/svg">
<path d="M101.62 178.453L185.713 129.843L90.0528 74.6016L5.96777 123.205L101.62 178.453Z" fill="#F6D9B7"/>
<path d="M101.62 178.453V181.102L185.713 132.492V129.843L101.62 178.453Z" fill="#E2BCA5"/>
<path d="M5.96777 123.205V125.855L101.62 181.102V178.453L5.96777 123.205Z" fill="#CCA092"/>
<path d="M122.903 117.812L164.578 142.06L149.434 150.814L107.798 126.586L122.903 117.812Z" fill="#CCA092"/>
<path d="M141.371 107.056L183.117 131.344L167.979 140.095L126.265 115.829L141.371 107.056Z" fill="#CCA092"/>
<path d="M95.9735 13.6309V75.0831C95.9735 76.0326 94.2962 76.8032 92.2285 76.8032C90.1608 76.8032 88.4834 76.0326 88.4834 75.0831V13.6309H95.9735Z" fill="#E0E4E4"/>
<path d="M92.2285 15.3515C94.2968 15.3515 95.9735 14.5813 95.9735 13.6313C95.9735 12.6813 94.2968 11.9111 92.2285 11.9111C90.1601 11.9111 88.4834 12.6813 88.4834 13.6313C88.4834 14.5813 90.1601 15.3515 92.2285 15.3515Z" fill="#FCFDFF"/>
<path d="M92.2288 14.6929C93.7575 14.6929 94.9967 14.2182 94.9967 13.6326C94.9967 13.047 93.7575 12.5723 92.2288 12.5723C90.7002 12.5723 89.4609 13.047 89.4609 13.6326C89.4609 14.2182 90.7002 14.6929 92.2288 14.6929Z" fill="#808184"/>
<path d="M92.2285 40.8116C90.4655 40.8116 88.9821 40.2802 88.4834 39.5523V21.7715C88.4834 22.721 90.1608 23.4916 92.2285 23.4916C94.2962 23.4916 95.9735 22.7222 95.9735 21.7715V39.5485C95.4749 40.2802 93.9877 40.8116 92.2285 40.8116Z" fill="#587ABB"/>
<path d="M83.5447 20.8232V82.2755C83.5447 83.225 81.8673 83.9956 79.7996 83.9956C77.7319 83.9956 76.0596 83.225 76.0596 82.2755V20.8232H83.5447Z" fill="#E0E4E4"/>
<path d="M79.7997 22.5429C81.8681 22.5429 83.5448 21.7727 83.5448 20.8227C83.5448 19.8727 81.8681 19.1025 79.7997 19.1025C77.7314 19.1025 76.0547 19.8727 76.0547 20.8227C76.0547 21.7727 77.7314 22.5429 79.7997 22.5429Z" fill="#FCFDFF"/>
<path d="M79.8001 21.8833C81.3288 21.8833 82.568 21.4086 82.568 20.823C82.568 20.2374 81.3288 19.7627 79.8001 19.7627C78.2715 19.7627 77.0322 20.2374 77.0322 20.823C77.0322 21.4086 78.2715 21.8833 79.8001 21.8833Z" fill="#808184"/>
<path d="M79.7997 48.003C78.0368 48.003 76.5521 47.4716 76.0547 46.7437V28.9629C76.0547 29.9124 77.732 30.683 79.7997 30.683C81.8675 30.683 83.5448 29.9136 83.5448 28.9629V46.74C83.0461 47.4741 81.5577 48.003 79.7997 48.003Z" fill="#587ABB"/>
<path d="M71.1161 28.0146V89.4669C71.1161 90.4163 69.4388 91.187 67.371 91.187C65.3033 91.187 63.626 90.4163 63.626 89.4669V28.0146H71.1161Z" fill="#E0E4E4"/>
<path d="M67.3701 29.7352C69.4384 29.7352 71.1151 28.9651 71.1151 28.0151C71.1151 27.0651 69.4384 26.2949 67.3701 26.2949C65.3017 26.2949 63.625 27.0651 63.625 28.0151C63.625 28.9651 65.3017 29.7352 67.3701 29.7352Z" fill="#FCFDFF"/>
<path d="M67.3694 29.0747C68.8981 29.0747 70.1373 28.6 70.1373 28.0144C70.1373 27.4288 68.8981 26.9541 67.3694 26.9541C65.8408 26.9541 64.6016 27.4288 64.6016 28.0144C64.6016 28.6 65.8408 29.0747 67.3694 29.0747Z" fill="#808184"/>
<path d="M67.371 55.1944C65.6081 55.1944 64.1234 54.663 63.626 53.9351V36.1543C63.626 37.1038 65.3033 37.8745 67.371 37.8745C69.4388 37.8745 71.1161 37.105 71.1161 36.1543V53.9301C70.6174 54.663 69.134 55.1944 67.371 55.1944Z" fill="#587ABB"/>
<path d="M83.8093 117.28L39.5889 91.4473V114.823L83.8093 140.546V117.28Z" fill="#D3D3D3"/>
<path d="M99.462 56.4971L39.5889 91.448L83.803 117.287L143.781 82.2743L99.462 56.4971Z" fill="#938B99"/>
<path d="M143.782 82.2725L83.8027 117.286L83.809 140.546L143.782 105.649V82.2725Z" fill="#E0E4E4"/>
<path d="M66.6304 97.9197L39.5889 82.1348V91.7178L66.6304 107.406V97.9197Z" fill="#D3D3D3"/>
<path d="M74.5702 61.7822L39.584 82.142L66.6255 97.9257L101.697 77.5168L74.5702 61.7822Z" fill="#FCFDFF"/>
<path d="M101.7 77.5166L66.626 97.9255L66.631 107.407L101.7 87.1009V77.5166Z" fill="#E0E4E4"/>
<path d="M66.6219 87.9988L39.5791 72.2139V77.2056L66.6219 92.8935V87.9988Z" fill="#D3D3D3"/>
<path d="M74.5604 51.8613L39.5742 72.2199L66.6157 88.0035L101.689 67.5959L74.5604 51.8613Z" fill="#FCFDFF"/>
<path d="M101.69 67.5947L66.6152 88.0037L66.6215 92.8934L101.69 72.5877V67.5947Z" fill="#E0E4E4"/>
<path d="M66.6218 92.8931L41.5801 78.3662V82.0559L66.6218 96.584V92.8931Z" fill="#536276"/>
<path d="M99.0888 74.0928L66.6211 92.8936V96.5846L99.0888 77.6817V74.0928Z" fill="#5E6D7D"/>
<path d="M74.0981 52.9326L43.2246 70.8973L67.0877 84.8261L98.0367 66.8173L74.0981 52.9326Z" fill="#FCFDFF"/>
<path d="M43.2251 70.8975L39.5732 72.2197L66.616 88.0033L67.0882 84.8262L43.2251 70.8975Z" fill="#E2E4E5"/>
<path d="M67.0875 84.8262L66.6152 88.0033L101.688 67.5944L98.0365 66.8174L67.0875 84.8262Z" fill="#D3D3D3"/>
<path d="M98.0363 66.8176L101.688 67.5946L74.5598 51.8613L74.0977 52.933L98.0363 66.8176Z" fill="#E2E4E5"/>
<path d="M39.5723 72.2199L43.2241 70.8977L74.0976 52.933L74.5597 51.8613L39.5723 72.2199Z" fill="#D3D3D3"/>
<path d="M126.288 114.441L140.18 106.363L141.373 107.055L126.288 115.833V114.441Z" fill="#F1F1F2"/>
<path d="M140.18 106.364V94.2998L126.288 102.319V114.442L140.18 106.364Z" fill="#6D7374"/>
<path d="M141.373 93.6113V107.055L140.181 106.364V94.3001L141.373 93.6113Z" fill="#D3D3D3"/>
<path d="M107.798 125.195L121.69 117.118L122.881 117.808L107.798 126.587V125.195Z" fill="#F1F1F2"/>
<path d="M121.69 117.118V105.053L107.798 113.073V125.195L121.69 117.118Z" fill="#9B7371"/>
<path d="M122.882 104.365V117.808L121.69 117.118V105.053L122.882 104.365Z" fill="#D3D3D3"/>
<path d="M48.9629 122.601V131.329L55.773 127.399V118.671L48.9629 122.601Z" fill="#807689"/>
<path d="M48.963 122.6V131.328L28.1348 119.302V110.573L48.963 122.6Z" fill="#776179"/>
<path d="M46.8023 123.067V125.785L40.3184 122.041V119.323L46.8023 123.067Z" fill="#C5DAE6"/>
<path d="M46.8022 126.901V128.761L42.3633 126.199V124.339L46.8022 126.901Z" fill="#C5DAE6"/>
<path d="M55.7731 118.671L48.963 122.601L28.1348 110.573L34.9449 106.645L55.7731 118.671Z" fill="#938B99"/>
<path d="M37.9619 129.01V137.738L44.772 133.808V125.08L37.9619 129.01Z" fill="#807689"/>
<path d="M37.9621 129.011V137.739L17.1338 125.711V116.983L37.9621 129.011Z" fill="#776179"/>
<path d="M35.8011 129.476V132.194L29.3184 128.449V125.732L35.8011 129.476Z" fill="#C5DAE6"/>
<path d="M35.8009 133.311V135.171L31.3633 132.608V130.748L35.8009 133.311Z" fill="#C5DAE6"/>
<path d="M44.7722 125.08L37.9621 129.01L17.1338 116.983L23.9452 113.053L44.7722 125.08Z" fill="#938B99"/>
<path d="M48.6019 106.026V102.665L43.4893 99.7061V103.048L48.6019 106.026Z" fill="#5E6D7D"/>
<path d="M43.4893 99.7061L44.139 100.078V102.685L43.4893 103.048V99.7061Z" fill="#E0E4E4"/>
<path d="M44.139 102.686L48.6019 105.259V106.026L43.4893 103.048L44.139 102.686Z" fill="#FCFDFF"/>
<path d="M56.2845 110.503V107.142L51.1719 104.184V107.526L56.2845 110.503Z" fill="#5E6D7D"/>
<path d="M51.1719 104.184L51.8217 104.555V107.162L51.1719 107.526V104.184Z" fill="#E0E4E4"/>
<path d="M51.8217 107.162L56.2845 109.736V110.503L51.1719 107.526L51.8217 107.162Z" fill="#FCFDFF"/>
<path d="M63.9662 114.981V111.62L58.8535 108.662V112.004L63.9662 114.981Z" fill="#5E6D7D"/>
<path d="M58.8535 108.662L59.5033 109.034V111.64L58.8535 112.004V108.662Z" fill="#E0E4E4"/>
<path d="M59.5033 111.64L63.9662 114.214V114.98L58.8535 112.004L59.5033 111.64Z" fill="#FCFDFF"/>
<path d="M71.6488 119.459V116.098L66.5361 113.139V116.481L71.6488 119.459Z" fill="#5E6D7D"/>
<path d="M66.5361 113.139L67.1847 113.51V116.118L66.5361 116.481V113.139Z" fill="#E0E4E4"/>
<path d="M67.1847 116.118L71.6488 118.692V119.459L66.5361 116.481L67.1847 116.118Z" fill="#FCFDFF"/>
<path d="M79.3317 123.936V120.574L74.2178 117.616V120.958L79.3317 123.936Z" fill="#5E6D7D"/>
<path d="M74.2178 117.616L74.8676 117.988V120.594L74.2178 120.958V117.616Z" fill="#E0E4E4"/>
<path d="M74.8676 120.595L79.3317 123.169V123.937L74.2178 120.959L74.8676 120.595Z" fill="#FCFDFF"/>
<g style="mix-blend-mode:multiply" opacity="0.2">
<path d="M115.348 148.377L123.372 143.644L105.091 132.992L97.0684 137.726L115.348 148.377Z" fill="#404041"/>
</g>
<path d="M110.379 142.564L98.6309 135.878L99.2643 135.37L110.379 141.996V142.564Z" fill="#250920"/>
<path d="M98.2686 136.379L99.4095 135.651L98.2686 134.991V136.379Z" fill="#250920"/>
<path d="M101.45 140.053L101.464 140.042L101.502 140.009C101.516 139.995 101.529 139.981 101.542 139.966L101.553 139.954L101.581 139.92L101.592 139.904L101.62 139.864L101.628 139.853C101.639 139.834 101.65 139.816 101.662 139.796C101.673 139.776 101.683 139.756 101.693 139.734V139.724C101.701 139.708 101.708 139.69 101.716 139.673V139.658L101.727 139.626L101.745 139.574L101.755 139.54L101.766 139.496L101.775 139.457C101.775 139.445 101.775 139.431 101.783 139.418L101.79 139.374C101.79 139.363 101.79 139.35 101.79 139.339C101.79 139.328 101.79 139.306 101.79 139.29C101.79 139.274 101.79 139.267 101.79 139.256C101.79 139.245 101.79 139.217 101.79 139.197C101.79 139.177 101.79 139.18 101.79 139.172C101.79 139.143 101.79 139.112 101.79 139.082C101.79 139.052 101.79 139.024 101.79 138.995C101.79 138.985 101.79 138.975 101.79 138.966C101.79 138.957 101.79 138.925 101.79 138.905V138.873C101.79 138.852 101.79 138.829 101.784 138.808C101.778 138.786 101.784 138.79 101.784 138.781C101.784 138.751 101.776 138.719 101.771 138.689V138.678C101.771 138.651 101.762 138.624 101.756 138.597C101.75 138.571 101.756 138.576 101.75 138.565L101.737 138.503L101.728 138.468L101.713 138.407L101.703 138.371L101.684 138.306L101.676 138.276C101.665 138.245 101.657 138.213 101.645 138.183V138.175L101.615 138.09L101.605 138.062L101.58 137.997L101.567 137.965L101.54 137.897L101.529 137.873L101.489 137.783L101.478 137.76L101.444 137.691L101.419 137.642L101.395 137.595C101.372 137.553 101.349 137.511 101.324 137.469L101.299 137.427L101.269 137.377L101.241 137.333L101.21 137.284L101.188 137.252C101.158 137.208 101.127 137.166 101.096 137.126L101.028 137.037L100.974 136.969L100.964 136.955L100.897 136.877L100.877 136.856L100.829 136.803L100.802 136.774L100.76 136.73L100.73 136.7L100.688 136.659L100.655 136.628L100.614 136.59L100.58 136.561L100.537 136.525L100.504 136.498L100.459 136.463L100.428 136.439L100.377 136.402L100.363 136.378L100.287 136.328L100.207 136.28L100.137 136.241L100.11 136.227L100.057 136.201L100.033 136.19L99.9591 136.157L99.8848 136.129L99.8609 136.122L99.8118 136.106L99.7828 136.099L99.7375 136.088L99.7085 136.081L99.667 136.074H99.6342H99.5965H99.5612H99.4239H99.3698H99.3559L99.298 136.084H99.2829L99.2363 136.095L99.2149 136.101L99.1784 136.114L99.1356 136.132L99.1142 136.14L99.0537 136.172L100.604 135.272L100.664 135.24L100.686 135.231C100.92 135.144 101.177 135.144 101.411 135.231C101.645 135.312 101.863 135.433 102.056 135.588L102.072 135.602L102.105 135.628C102.823 136.229 103.276 137.088 103.364 138.021C103.402 138.345 103.338 138.673 103.182 138.959L103.174 138.97L103.146 139.01L103.135 139.025L103.107 139.059L103.096 139.072L103.056 139.115L103.018 139.148L103.004 139.159L102.971 139.184L102.957 139.194L102.91 139.224L101.361 140.125L101.409 140.093L101.422 140.083L101.45 140.053Z" fill="#40363B"/>
<path d="M100.209 136.273C101.105 136.791 101.831 138.046 101.828 139.078C101.826 140.109 101.095 140.524 100.199 140.007C99.3019 139.489 98.5766 138.234 98.5791 137.203C98.5816 136.171 99.312 135.749 100.209 136.273Z" fill="#4E444A"/>
<path d="M100.153 136.996C100.707 137.316 101.161 138.066 101.21 138.715C101.21 138.756 101.21 138.795 101.21 138.834C101.21 139.509 100.73 139.781 100.143 139.442C99.5565 139.103 99.0805 138.281 99.083 137.606C99.083 137.567 99.083 137.529 99.083 137.494C99.1435 136.901 99.6006 136.677 100.153 136.996Z" fill="#BBBDBF"/>
<path d="M100.152 137.33C100.365 137.469 100.544 137.653 100.677 137.869C100.809 138.085 100.893 138.328 100.92 138.581C100.92 138.609 100.92 138.638 100.92 138.666C100.92 139.157 100.572 139.355 100.145 139.108C99.92 138.962 99.733 138.765 99.5991 138.533C99.4652 138.3 99.388 138.04 99.374 137.772C99.374 137.744 99.374 137.716 99.374 137.69C99.4181 137.26 99.7505 137.097 100.152 137.33Z" fill="#929497"/>
<path d="M99.3801 137.69C99.4116 137.334 99.6446 137.161 99.9531 137.244C99.7138 137.244 99.5426 137.408 99.5161 137.71C99.5161 137.737 99.5161 137.764 99.5161 137.792C99.5303 138.06 99.6076 138.32 99.7418 138.553C99.8759 138.785 100.063 138.982 100.288 139.128C100.351 139.165 100.418 139.194 100.488 139.214C100.369 139.207 100.254 139.171 100.152 139.108C99.9275 138.962 99.7406 138.765 99.6066 138.533C99.4727 138.301 99.3955 138.041 99.3814 137.773C99.3764 137.743 99.3776 137.716 99.3801 137.69Z" fill="#D0D2D3"/>
<path d="M99.8597 138.314C99.8503 138.309 99.8396 138.306 99.8288 138.306C99.818 138.306 99.8073 138.309 99.798 138.314C99.764 138.333 99.764 138.397 99.798 138.455C99.8127 138.481 99.8339 138.503 99.8597 138.519C99.8685 138.526 99.8788 138.53 99.8897 138.531C99.9005 138.532 99.9114 138.53 99.9214 138.526C99.9554 138.505 99.9554 138.442 99.9214 138.384C99.9076 138.356 99.8863 138.331 99.8597 138.314Z" fill="#3A3D3F"/>
<path d="M100.2 137.993C100.09 137.93 100.002 137.98 100.002 138.106C100.005 138.175 100.025 138.241 100.059 138.3C100.093 138.36 100.141 138.41 100.198 138.448C100.308 138.51 100.396 138.46 100.396 138.334C100.393 138.266 100.373 138.199 100.339 138.14C100.305 138.081 100.257 138.03 100.2 137.993Z" fill="#3A3D3F"/>
<path d="M100.199 138.671C100.151 138.643 100.112 138.671 100.112 138.72C100.114 138.75 100.123 138.78 100.138 138.806C100.153 138.832 100.174 138.854 100.199 138.87C100.247 138.898 100.286 138.87 100.286 138.821C100.284 138.791 100.276 138.762 100.261 138.736C100.246 138.71 100.225 138.687 100.199 138.671Z" fill="#3A3D3F"/>
<path d="M100.537 138.706C100.528 138.7 100.517 138.697 100.507 138.697C100.496 138.697 100.485 138.7 100.476 138.706C100.442 138.724 100.442 138.789 100.476 138.847C100.49 138.873 100.512 138.895 100.537 138.911C100.547 138.916 100.557 138.919 100.568 138.919C100.579 138.919 100.59 138.916 100.599 138.911C100.633 138.892 100.633 138.828 100.599 138.77C100.584 138.743 100.563 138.721 100.537 138.706Z" fill="#3A3D3F"/>
<path d="M99.8597 137.533C99.8503 137.527 99.8396 137.524 99.8288 137.524C99.818 137.524 99.8073 137.527 99.798 137.533C99.764 137.552 99.764 137.616 99.798 137.674C99.8126 137.7 99.8339 137.722 99.8597 137.738C99.8685 137.744 99.8788 137.748 99.8897 137.749C99.9005 137.75 99.9114 137.749 99.9214 137.744C99.9554 137.725 99.9554 137.661 99.9214 137.603C99.9075 137.575 99.8862 137.55 99.8597 137.533Z" fill="#3A3D3F"/>
<path d="M100.201 137.764C100.249 137.791 100.288 137.764 100.288 137.715C100.286 137.684 100.278 137.655 100.263 137.629C100.248 137.603 100.226 137.581 100.201 137.565C100.153 137.537 100.114 137.565 100.114 137.614C100.116 137.644 100.125 137.673 100.14 137.699C100.155 137.725 100.176 137.747 100.201 137.764Z" fill="#3A3D3F"/>
<path d="M100.539 138.126C100.549 138.131 100.559 138.134 100.57 138.134C100.581 138.134 100.592 138.131 100.601 138.126C100.635 138.107 100.635 138.043 100.601 137.985C100.586 137.958 100.565 137.936 100.539 137.92C100.53 137.915 100.519 137.912 100.509 137.912C100.498 137.912 100.487 137.915 100.478 137.92C100.444 137.939 100.444 138.003 100.478 138.061C100.492 138.088 100.514 138.11 100.539 138.126Z" fill="#3A3D3F"/>
<path d="M99.8066 137.993C99.805 137.963 99.7963 137.934 99.7812 137.907C99.7661 137.881 99.745 137.859 99.7197 137.843C99.6718 137.815 99.6328 137.843 99.6328 137.892C99.6345 137.922 99.6432 137.951 99.6583 137.977C99.6734 138.003 99.6944 138.026 99.7197 138.042C99.7663 138.07 99.8066 138.048 99.8066 137.993Z" fill="#3A3D3F"/>
<path d="M100.68 138.393C100.632 138.365 100.593 138.393 100.593 138.443C100.594 138.473 100.603 138.502 100.618 138.528C100.633 138.555 100.654 138.577 100.68 138.593C100.728 138.621 100.767 138.593 100.767 138.544C100.765 138.514 100.756 138.484 100.741 138.458C100.726 138.432 100.705 138.409 100.68 138.393Z" fill="#3A3D3F"/>
<path d="M111.167 141.504L117.042 138.176L103.386 130.251L97.5117 133.579L111.167 141.504Z" fill="#3C3E4A"/>
<path d="M110.289 141.541H110.282H110.274H110.268H110.239H110.228H110.072H110.061H110.048H110.036H110.026H110.016H110.004H109.99H109.98H109.97L109.954 141.549L109.939 141.556L109.924 141.565L106.66 139.733L106.675 139.725L106.688 139.719L106.7 139.713H106.711H106.717H106.731H106.743H106.752H106.762H106.768H106.779H106.792H106.802H106.959H106.969H107.038H107.045H107.052H107.063H107.071H107.078H107.086L107.097 139.719L110.312 141.55L110.301 141.544L110.289 141.541Z" fill="#838383"/>
<path d="M109.862 141.593L106.665 139.733L106.277 139.958L109.475 141.817L109.862 141.593Z" fill="#A4A7A9"/>
<path d="M108.801 143.257V143.251L108.846 143.277H108.838H108.831H108.824L108.815 143.271H108.809L108.801 143.264V143.257Z" fill="#D0D2D3"/>
<path d="M109.474 141.818C109.291 141.938 109.138 142.1 109.029 142.29C108.92 142.48 108.856 142.693 108.845 142.912C108.845 143.312 109.132 143.476 109.474 143.275L109.862 143.051C110.046 142.93 110.198 142.769 110.308 142.579C110.417 142.388 110.48 142.175 110.492 141.956C110.492 141.556 110.205 141.393 109.862 141.594L109.474 141.818Z" fill="#808080"/>
<path d="M97.5049 135.938L97.5112 133.579L111.167 141.504V143.857L110.378 143.4V141.996L98.268 134.992V136.38L97.5049 135.938Z" fill="#32343F"/>
<path d="M117.191 130.612L110.84 134.308L97.3252 126.468L103.656 122.784L117.191 130.612Z" fill="#FCFDFF"/>
<path d="M110.839 134.308V141.371L117.191 137.677V130.612L110.839 134.308Z" fill="#D3D3D3"/>
<path d="M97.3252 126.468L110.84 134.308V141.371L97.3252 133.531V126.468Z" fill="#E0E4E4"/>
<path d="M114.494 147.586L114.508 147.574L114.546 147.542L114.586 147.499L114.598 147.486L114.625 147.452L114.637 147.437L114.664 147.397L114.672 147.385C114.683 147.368 114.696 147.349 114.706 147.329C114.716 147.309 114.727 147.288 114.737 147.267V147.257L114.759 147.205V147.19L114.77 147.159L114.788 147.107L114.798 147.073C114.798 147.059 114.805 147.044 114.809 147.029L114.818 146.99L114.826 146.951L114.833 146.907V146.872C114.833 146.855 114.833 146.839 114.833 146.822V146.788C114.833 146.768 114.833 146.749 114.833 146.729C114.833 146.709 114.833 146.713 114.833 146.705C114.833 146.676 114.833 146.646 114.833 146.616C114.833 146.586 114.833 146.558 114.833 146.529V146.499C114.833 146.479 114.833 146.458 114.833 146.437V146.406C114.833 146.384 114.833 146.362 114.827 146.34V146.314C114.827 146.284 114.819 146.252 114.814 146.222V146.21C114.814 146.184 114.805 146.156 114.8 146.13L114.794 146.097L114.781 146.035L114.773 146L114.758 145.94L114.749 145.903L114.73 145.839L114.721 145.809C114.712 145.778 114.702 145.747 114.691 145.716V145.708C114.681 145.679 114.671 145.65 114.661 145.622L114.651 145.595L114.625 145.529L114.613 145.498L114.585 145.43L114.575 145.406L114.533 145.315L114.522 145.292L114.488 145.223L114.463 145.174L114.439 145.128C114.416 145.086 114.392 145.044 114.368 145.002L114.343 144.96L114.313 144.91L114.285 144.866L114.254 144.816L114.232 144.785C114.202 144.741 114.172 144.697 114.14 144.659L114.072 144.57L114.018 144.502L114.007 144.488L113.94 144.41L113.921 144.388L113.874 144.335L113.846 144.306L113.804 144.262L113.774 144.232L113.732 144.192L113.7 144.162L113.658 144.124L113.624 144.095L113.581 144.058L113.549 144.032L113.503 143.997L113.473 143.973L113.423 143.936L113.396 143.917L113.319 143.867L113.24 143.819L113.17 143.78L113.143 143.766L113.09 143.74L113.066 143.728L112.992 143.697L112.918 143.669L112.894 143.662L112.845 143.647L112.816 143.639L112.77 143.628L112.741 143.621L112.7 143.614H112.667H112.629H112.594H112.457H112.403H112.388L112.33 143.624H112.315L112.269 143.635L112.248 143.643L112.211 143.654L112.168 143.672L112.148 143.681C112.128 143.69 112.107 143.701 112.088 143.712L113.288 143.011L113.348 142.979L113.37 142.97C113.604 142.884 113.861 142.884 114.095 142.97C114.329 143.051 114.547 143.172 114.74 143.327L114.758 143.341L114.79 143.367C115.509 143.968 115.961 144.827 116.05 145.76C116.088 146.084 116.024 146.412 115.867 146.698L115.859 146.709L115.832 146.749L115.82 146.765L115.793 146.799L115.781 146.811L115.741 146.854L115.705 146.888L115.691 146.899L115.658 146.924L115.644 146.935L115.596 146.965L114.396 147.666L114.444 147.636L114.458 147.626L114.494 147.586Z" fill="#40363B"/>
<path d="M113.254 143.8C114.15 144.318 114.875 145.574 114.873 146.605C114.87 147.636 114.14 148.052 113.243 147.534C112.347 147.017 111.622 145.76 111.624 144.73C111.627 143.7 112.357 143.283 113.254 143.8Z" fill="#4E444A"/>
<path d="M113.198 144.526C113.752 144.846 114.206 145.594 114.255 146.245C114.255 146.285 114.255 146.324 114.255 146.363C114.255 147.038 113.775 147.31 113.188 146.971C112.601 146.633 112.125 145.81 112.128 145.135C112.128 145.096 112.128 145.059 112.128 145.023C112.188 144.429 112.644 144.206 113.198 144.526Z" fill="#BBBDBF"/>
<path d="M113.197 144.859C113.41 144.997 113.589 145.181 113.722 145.398C113.854 145.614 113.938 145.857 113.965 146.109C113.965 146.138 113.965 146.167 113.965 146.195C113.965 146.686 113.616 146.884 113.19 146.637C112.965 146.491 112.778 146.293 112.644 146.061C112.51 145.829 112.433 145.568 112.419 145.301C112.419 145.273 112.419 145.245 112.419 145.219C112.463 144.789 112.794 144.627 113.197 144.859Z" fill="#929497"/>
<path d="M112.425 145.218C112.457 144.862 112.69 144.689 112.998 144.773C112.759 144.773 112.588 144.936 112.561 145.238C112.561 145.265 112.561 145.291 112.561 145.32C112.575 145.588 112.652 145.849 112.786 146.081C112.92 146.313 113.107 146.51 113.332 146.656C113.395 146.693 113.462 146.722 113.532 146.742C113.413 146.735 113.297 146.699 113.196 146.636C112.971 146.49 112.784 146.293 112.65 146.061C112.516 145.829 112.439 145.568 112.425 145.3C112.421 145.272 112.423 145.245 112.425 145.218Z" fill="#D0D2D3"/>
<path d="M112.904 145.842C112.894 145.837 112.884 145.834 112.873 145.834C112.862 145.834 112.851 145.837 112.842 145.842C112.808 145.862 112.808 145.925 112.842 145.983C112.857 146.009 112.878 146.031 112.904 146.047C112.913 146.053 112.924 146.055 112.934 146.055C112.945 146.055 112.956 146.053 112.965 146.047C112.999 146.028 112.999 145.964 112.965 145.906C112.951 145.88 112.929 145.858 112.904 145.842Z" fill="#3A3D3F"/>
<path d="M113.245 145.52C113.135 145.457 113.047 145.508 113.047 145.634C113.05 145.702 113.07 145.769 113.104 145.828C113.138 145.887 113.186 145.938 113.243 145.975C113.353 146.038 113.441 145.987 113.441 145.862C113.437 145.793 113.418 145.727 113.384 145.667C113.35 145.608 113.302 145.558 113.245 145.52Z" fill="#3A3D3F"/>
<path d="M113.242 146.2C113.194 146.173 113.155 146.2 113.155 146.251C113.157 146.281 113.166 146.31 113.181 146.336C113.196 146.362 113.217 146.384 113.242 146.401C113.29 146.428 113.329 146.401 113.329 146.352C113.328 146.321 113.319 146.292 113.304 146.266C113.289 146.239 113.268 146.217 113.242 146.2Z" fill="#3A3D3F"/>
<path d="M113.586 146.233C113.577 146.227 113.566 146.225 113.555 146.225C113.545 146.225 113.534 146.227 113.525 146.233C113.491 146.252 113.491 146.316 113.525 146.374C113.539 146.4 113.56 146.422 113.586 146.438C113.596 146.444 113.606 146.446 113.617 146.446C113.628 146.446 113.639 146.444 113.648 146.438C113.682 146.419 113.682 146.356 113.648 146.297C113.633 146.271 113.612 146.249 113.586 146.233Z" fill="#3A3D3F"/>
<path d="M112.906 145.067C112.896 145.061 112.886 145.059 112.875 145.059C112.864 145.059 112.853 145.061 112.844 145.067C112.81 145.086 112.81 145.15 112.844 145.208C112.859 145.234 112.88 145.256 112.906 145.272C112.914 145.278 112.925 145.282 112.936 145.283C112.946 145.284 112.957 145.283 112.967 145.278C113.001 145.26 113.001 145.195 112.967 145.137C112.953 145.109 112.932 145.084 112.906 145.067Z" fill="#3A3D3F"/>
<path d="M113.245 145.297C113.293 145.325 113.332 145.297 113.332 145.248C113.33 145.218 113.322 145.188 113.306 145.162C113.291 145.136 113.27 145.114 113.245 145.098C113.197 145.07 113.158 145.098 113.158 145.147C113.16 145.177 113.168 145.206 113.184 145.232C113.199 145.258 113.22 145.281 113.245 145.297Z" fill="#3A3D3F"/>
<path d="M113.586 145.654C113.595 145.66 113.605 145.664 113.616 145.665C113.627 145.667 113.638 145.665 113.648 145.66C113.682 145.641 113.682 145.577 113.648 145.519C113.633 145.493 113.612 145.471 113.586 145.455C113.577 145.449 113.567 145.445 113.556 145.444C113.545 145.443 113.534 145.444 113.525 145.449C113.491 145.468 113.491 145.532 113.525 145.59C113.539 145.616 113.56 145.638 113.586 145.654Z" fill="#3A3D3F"/>
<path d="M112.851 145.52C112.849 145.49 112.84 145.461 112.825 145.435C112.81 145.409 112.789 145.387 112.764 145.37C112.716 145.343 112.677 145.37 112.677 145.421C112.678 145.451 112.687 145.48 112.702 145.506C112.717 145.532 112.738 145.554 112.764 145.571C112.812 145.598 112.851 145.571 112.851 145.52Z" fill="#3A3D3F"/>
<path d="M113.724 145.925C113.676 145.897 113.637 145.925 113.637 145.974C113.638 146.004 113.647 146.033 113.662 146.059C113.677 146.086 113.698 146.108 113.724 146.124C113.771 146.152 113.81 146.124 113.81 146.075C113.809 146.045 113.8 146.016 113.785 145.99C113.77 145.963 113.749 145.941 113.724 145.925Z" fill="#3A3D3F"/>
<path d="M115.923 146.612L121.817 143.278L121.828 139.713L115.933 143.047L115.923 146.612Z" fill="#526AA7"/>
<path d="M115.933 143.048L121.828 139.713L121.027 136.249L115.131 139.584L115.933 143.048Z" fill="#70565D"/>
<path d="M115.131 139.583L121.026 136.249L117.074 133.967L111.178 137.301L115.131 139.583Z" fill="#587ABB"/>
<path d="M115.131 139.583L115.933 143.047L121.829 139.712L121.027 136.252L115.131 139.583ZM115.397 139.7L120.871 136.603L121.563 139.595L116.089 142.692L115.397 139.7Z" fill="#587ABB"/>
<path d="M120.776 140.976V143.265L116.975 145.464V143.174L120.776 140.976Z" fill="#4F565B"/>
<path d="M116.21 145.974V146.776L122.076 143.405V142.602L116.21 145.974Z" fill="#D0D2D3"/>
<path d="M116.21 145.974V146.776L115.923 146.615V145.812L116.21 145.974Z" fill="#BBBDBF"/>
<path d="M122.074 142.602L116.21 145.974L115.923 145.813L121.786 142.439L122.074 142.602Z" fill="#E6E7E8"/>
<path fill-rule="evenodd" clip-rule="evenodd" d="M115.934 144.992L116.876 144.449V145.016L115.934 145.554V144.992Z" fill="#F1F1F2"/>
<path fill-rule="evenodd" clip-rule="evenodd" d="M120.888 142.131L121.828 141.588V142.156L120.888 142.692V142.131Z" fill="#F1F1F2"/>
<path d="M111.179 137.301L115.131 139.583L115.934 143.047L115.923 146.611L115.079 146.121C114.863 145.113 114.157 144.052 113.316 143.566C112.474 143.08 111.769 143.314 111.553 144.069L111.175 143.85V141.503L111.179 137.301Z" fill="#496198"/>
<path d="M112.745 138.498C112.704 138.474 112.67 138.498 112.67 138.541V140.606C112.672 140.631 112.68 140.656 112.693 140.677C112.706 140.699 112.724 140.718 112.745 140.732L115.369 142.243C115.42 142.273 115.457 142.234 115.44 142.168L114.974 139.831C114.964 139.79 114.939 139.755 114.904 139.732L112.745 138.498Z" fill="#70565D"/>
<path d="M116.355 146.176V146.544L117.069 146.133V145.767L116.355 146.176Z" fill="#F6921E"/>
<path d="M121.247 143.372V143.74L121.961 143.33V142.962L121.247 143.372Z" fill="#F6921E"/>
<path d="M102.839 137.635V138.967L105.322 140.374V139.07L102.839 137.635Z" fill="#BBBDBF"/>
<path d="M105.322 140.374L105.791 140.118V139.342L105.322 139.07V140.374Z" fill="#96999B"/>
<path opacity="0.2" d="M115.396 139.7L121.563 139.597L120.871 136.604L115.396 139.7Z" fill="white"/>
<path d="M103.638 135.683L102.942 135.284V130.66L103.638 131.061V135.683Z" fill="#587ABB"/>
<path d="M100.569 133.129L101.408 133.614V129.775L102.104 130.174V134.016V134.798L101.408 134.397V134.396L99.874 133.509V132.727V128.887L100.569 129.286V133.129Z" fill="#587ABB"/>
<path d="M99.035 128.4V133.024L98.3398 132.624V128L99.035 128.4Z" fill="#587ABB"/>
<g style="mix-blend-mode:multiply" opacity="0.2">
<path d="M103.707 155.489L111.731 150.757L93.4515 140.104L85.4287 144.838L103.707 155.489Z" fill="#404041"/>
</g>
<path d="M98.7392 149.677L86.9902 142.99L87.6236 142.482L98.7392 149.109V149.677Z" fill="#250920"/>
<path d="M86.6289 143.492L87.7698 142.763L86.6289 142.104V143.492Z" fill="#250920"/>
<path d="M89.8101 147.165L89.8239 147.154L89.8617 147.121L89.902 147.078L89.9133 147.066L89.941 147.032L89.9524 147.016L89.9801 146.976L89.9876 146.965C89.999 146.946 90.0103 146.927 90.0216 146.908C90.033 146.889 90.0431 146.868 90.0531 146.846V146.836L90.0745 146.785V146.77L90.0859 146.738L90.1035 146.687L90.1136 146.653C90.1136 146.637 90.1211 146.624 90.1249 146.608L90.1337 146.569L90.1413 146.53C90.1413 146.515 90.1413 146.501 90.1488 146.486C90.1564 146.471 90.1488 146.462 90.1488 146.451C90.1488 146.44 90.1488 146.418 90.1488 146.402V146.368C90.1488 146.349 90.1488 146.329 90.1488 146.309C90.1488 146.289 90.1488 146.292 90.1488 146.284C90.1488 146.255 90.1488 146.224 90.1488 146.194C90.1488 146.164 90.1488 146.136 90.1488 146.107C90.1488 146.097 90.1488 146.087 90.1488 146.078C90.1488 146.069 90.1488 146.037 90.1488 146.017C90.1488 145.996 90.1488 145.995 90.1488 145.985C90.1488 145.975 90.1488 145.941 90.1425 145.92V145.893C90.1425 145.863 90.135 145.831 90.1299 145.801V145.79C90.1299 145.763 90.1211 145.736 90.1148 145.709C90.1085 145.683 90.1148 145.688 90.1085 145.677C90.1022 145.665 90.0997 145.635 90.0947 145.615L90.0871 145.58L90.072 145.519L90.0619 145.483L90.043 145.418L90.0342 145.388C90.0242 145.357 90.0153 145.325 90.004 145.295V145.287C89.9939 145.258 89.9839 145.23 89.9738 145.201L89.9637 145.173L89.9385 145.107L89.9259 145.076L89.897 145.008L89.8869 144.984C89.873 144.954 89.8605 144.924 89.8453 144.893L89.834 144.871L89.8 144.801L89.7748 144.752L89.7509 144.706C89.7282 144.664 89.7043 144.623 89.6804 144.58L89.6552 144.538L89.625 144.488L89.5973 144.444L89.5658 144.395L89.5444 144.363C89.5142 144.319 89.4839 144.275 89.4525 144.237L89.3845 144.148L89.3303 144.08L89.319 144.066L89.2522 143.988L89.2321 143.966L89.1842 143.914L89.1565 143.885L89.1137 143.841L89.0835 143.81L89.0419 143.77L89.0079 143.739L88.9664 143.701L88.9324 143.672L88.8896 143.637L88.8568 143.61L88.8115 143.575L88.7813 143.551L88.7309 143.514L88.7044 143.496L88.6276 143.445L88.5483 143.397L88.4765 143.358L88.4501 143.344L88.3972 143.318L88.3733 143.307L88.299 143.275L88.2259 143.247L88.202 143.24L88.1529 143.225L88.1239 143.217L88.0786 143.206L88.0496 143.2L88.0081 143.192H87.9753H87.9363H87.901H87.7638H87.7096H87.6933L87.6353 143.202H87.6202L87.5749 143.213L87.5535 143.22L87.517 143.231L87.4741 143.249L87.454 143.258L87.3936 143.289L88.9437 142.389L89.0042 142.357L89.0256 142.348C89.2596 142.262 89.5169 142.262 89.7509 142.348C89.9847 142.429 90.2028 142.55 90.3956 142.705L90.412 142.719L90.4448 142.745C91.1631 143.346 91.6156 144.205 91.704 145.138C91.7421 145.462 91.6783 145.79 91.5214 146.076L91.5139 146.087L91.4862 146.127L91.4748 146.143L91.4471 146.177L91.4358 146.189L91.3955 146.232L91.359 146.265L91.3451 146.276L91.3111 146.301L91.2973 146.311L91.2494 146.341L89.7005 147.242L89.7484 147.21L89.7622 147.2L89.8101 147.165Z" fill="#40363B"/>
<path d="M88.569 143.385C89.4656 143.903 90.1909 145.159 90.1884 146.189C90.1859 147.22 89.4555 147.636 88.5589 147.119C87.6623 146.601 86.9357 145.344 86.9395 144.312C86.9432 143.279 87.6711 142.866 88.569 143.385Z" fill="#4E444A"/>
<path d="M88.514 144.109C89.0681 144.429 89.5214 145.177 89.5693 145.828C89.5693 145.868 89.5693 145.907 89.5693 145.946C89.5693 146.621 89.0895 146.893 88.5027 146.554C87.9159 146.216 87.4411 145.393 87.4424 144.718C87.4424 144.68 87.4424 144.642 87.4424 144.606C87.5041 144.013 87.9599 143.789 88.514 144.109Z" fill="#BBBDBF"/>
<path d="M88.5123 144.438C88.7262 144.577 88.9062 144.763 89.0393 144.981C89.1724 145.198 89.2552 145.443 89.2817 145.697C89.2817 145.726 89.2817 145.755 89.2817 145.783C89.2817 146.274 88.9329 146.472 88.506 146.225C88.2813 146.079 88.0944 145.881 87.9604 145.649C87.8265 145.417 87.7494 145.156 87.7354 144.889C87.7354 144.861 87.7354 144.833 87.7354 144.807C87.7782 144.372 88.1094 144.21 88.5123 144.438Z" fill="#929497"/>
<path d="M87.7395 144.801C87.771 144.445 88.004 144.272 88.3125 144.356C88.0732 144.356 87.902 144.519 87.8755 144.821C87.8755 144.848 87.8755 144.876 87.8755 144.903C87.8895 145.171 87.9665 145.432 88.1005 145.664C88.2344 145.896 88.4214 146.093 88.6462 146.239C88.709 146.276 88.7763 146.305 88.8464 146.325C88.7273 146.318 88.6117 146.282 88.5102 146.219C88.2854 146.073 88.0984 145.876 87.9645 145.644C87.8305 145.412 87.7535 145.151 87.7395 144.883C87.7379 144.855 87.7379 144.828 87.7395 144.801Z" fill="#D0D2D3"/>
<path d="M88.2191 145.424C88.2097 145.419 88.199 145.416 88.1882 145.416C88.1774 145.416 88.1667 145.419 88.1573 145.424C88.1233 145.443 88.1233 145.506 88.1573 145.565C88.1721 145.592 88.1934 145.614 88.2191 145.63C88.2284 145.635 88.2391 145.638 88.2499 145.638C88.2607 145.638 88.2714 145.635 88.2808 145.63C88.3148 145.609 88.3148 145.546 88.2808 145.489C88.2659 145.462 88.2447 145.44 88.2191 145.424Z" fill="#3A3D3F"/>
<path d="M88.56 145.103C88.4505 145.04 88.3623 145.091 88.3623 145.217C88.3659 145.285 88.3855 145.351 88.4196 145.411C88.4538 145.47 88.5014 145.52 88.5588 145.558C88.6683 145.621 88.7565 145.57 88.7577 145.445C88.754 145.376 88.7342 145.309 88.6998 145.25C88.6655 145.191 88.6176 145.141 88.56 145.103Z" fill="#3A3D3F"/>
<path d="M88.5586 145.782C88.5107 145.755 88.4717 145.782 88.4717 145.832C88.4733 145.862 88.482 145.891 88.4971 145.917C88.5122 145.943 88.5333 145.965 88.5586 145.981C88.6064 146.009 88.6455 145.981 88.6455 145.932C88.6439 145.902 88.6352 145.873 88.6201 145.847C88.605 145.821 88.5839 145.799 88.5586 145.782Z" fill="#3A3D3F"/>
<path d="M88.8977 145.823C88.8889 145.817 88.8786 145.813 88.8677 145.812C88.8569 145.811 88.846 145.813 88.836 145.817C88.802 145.836 88.802 145.9 88.836 145.958C88.8508 145.984 88.8721 146.006 88.8977 146.022C88.9071 146.028 88.9178 146.031 88.9286 146.031C88.9394 146.031 88.9501 146.028 88.9594 146.022C88.9934 146.003 88.9934 145.939 88.9594 145.881C88.9438 145.857 88.9226 145.837 88.8977 145.823Z" fill="#3A3D3F"/>
<path d="M88.222 144.645C88.2126 144.64 88.202 144.637 88.1911 144.637C88.1803 144.637 88.1696 144.64 88.1603 144.645C88.1263 144.664 88.1263 144.728 88.1603 144.786C88.175 144.812 88.1962 144.834 88.222 144.85C88.2308 144.857 88.2411 144.861 88.252 144.862C88.2628 144.863 88.2738 144.861 88.2837 144.857C88.3177 144.838 88.3177 144.773 88.2837 144.716C88.2699 144.687 88.2486 144.662 88.222 144.645Z" fill="#3A3D3F"/>
<path d="M88.5605 144.88C88.6084 144.908 88.6474 144.88 88.6474 144.831C88.6458 144.801 88.6371 144.771 88.622 144.745C88.6069 144.719 88.5858 144.697 88.5605 144.681C88.5127 144.653 88.4736 144.681 88.4736 144.73C88.4753 144.76 88.4841 144.789 88.4992 144.815C88.5142 144.841 88.5353 144.863 88.5605 144.88Z" fill="#3A3D3F"/>
<path d="M88.9046 145.237C88.914 145.242 88.9246 145.245 88.9354 145.245C88.9463 145.245 88.9569 145.242 88.9663 145.237C89.0003 145.218 89.0003 145.154 88.9663 145.096C88.9515 145.07 88.9303 145.047 88.9046 145.032C88.8952 145.026 88.8846 145.023 88.8737 145.023C88.8629 145.023 88.8523 145.026 88.8429 145.032C88.8089 145.051 88.8089 145.115 88.8429 145.173C88.8577 145.199 88.8789 145.221 88.9046 145.237Z" fill="#3A3D3F"/>
<path d="M88.166 145.105C88.1644 145.075 88.1557 145.046 88.1406 145.02C88.1255 144.994 88.1044 144.972 88.0791 144.955C88.0312 144.928 87.9922 144.955 87.9922 145.004C87.9939 145.034 88.0026 145.064 88.0177 145.09C88.0328 145.116 88.0538 145.138 88.0791 145.154C88.1269 145.182 88.166 145.159 88.166 145.105Z" fill="#3A3D3F"/>
<path d="M89.039 145.508C88.9912 145.48 88.9521 145.508 88.9521 145.557C88.9538 145.587 88.9626 145.616 88.9777 145.642C88.9928 145.669 89.0138 145.691 89.039 145.707C89.0869 145.735 89.1259 145.707 89.1259 145.658C89.1242 145.628 89.1155 145.599 89.1004 145.573C89.0853 145.547 89.0643 145.524 89.039 145.508Z" fill="#3A3D3F"/>
<path d="M99.5266 148.615L105.402 145.288L91.7468 137.363L85.8711 140.69L99.5266 148.615Z" fill="#3C3E4A"/>
<path d="M98.6482 148.649H98.6407H98.6331H98.6268H98.6205H98.6029H98.5916H98.4354H98.4254H98.4115H98.4002H98.3901H98.38H98.3674H98.3536H98.3435H98.3334L98.3183 148.657L98.3032 148.665L98.2881 148.672L95.0908 146.812L95.1059 146.805L95.1185 146.798L95.1311 146.792H95.1412H95.1475H95.1613H95.1739H95.1827H95.1928H95.1991H95.2079H95.2218H95.2319H95.4157H95.422H95.4283H95.4396H95.4472H95.4548H95.4623L95.4736 146.798L98.6709 148.658L98.6596 148.652L98.6482 148.649Z" fill="#838383"/>
<path d="M98.2218 148.705L95.0246 146.845L94.6367 147.069L97.834 148.929L98.2218 148.705Z" fill="#A4A7A9"/>
<path d="M94.0049 148.146V148.132V148.089V148.077V148.04V148.024V148.01V147.985V147.972V147.965V147.95V147.933V147.927V147.914V147.908V147.889V147.878V147.869V147.858V147.84V147.826V147.82V147.814V147.8L94.0112 147.783V147.773L94.0225 147.747L94.0338 147.723V147.717V147.705V147.698V147.692V147.683V147.673V147.664L94.0477 147.639L94.0603 147.616V147.606V147.597L94.0666 147.587V147.578V147.568V147.559L94.0729 147.549L94.0905 147.524L94.1081 147.499L94.1182 147.486V147.48L94.127 147.469V147.461V147.455L94.1358 147.445L94.1484 147.43L94.161 147.416L94.1698 147.406L94.1774 147.398L94.185 147.391L94.1938 147.383L94.2013 147.375L94.2127 147.365L94.2278 147.353L94.2366 147.345L94.2467 147.338L94.2555 147.331H94.263L94.2781 147.321L94.292 147.312H94.2983L97.4956 149.172L97.483 149.18L97.4692 149.189L97.454 149.199L97.444 149.205L97.4352 149.211L97.4263 149.218L97.4163 149.225L97.4062 149.234L97.3911 149.247L97.3797 149.257L97.3709 149.266L97.3621 149.273L97.3533 149.281L97.3458 149.288L97.3382 149.296L97.3306 149.305L97.3231 149.313L97.3143 149.324L97.3017 149.339L97.2891 149.354L97.2803 149.364V149.37L97.2727 149.379L97.2639 149.39V149.397L97.2538 149.409L97.2362 149.434L97.2186 149.46V149.467L97.2123 149.477V149.486L97.206 149.496V149.505V149.515V149.524V149.534V149.54L97.1934 149.563L97.1795 149.588V149.597V149.607V149.617V149.627V149.637V149.645V149.656V149.662L97.1682 149.686L97.1569 149.713V149.725L97.1493 149.743V149.757V149.769V149.776V149.789V149.807V149.821V149.827V149.839V149.846V149.857V149.865V149.878V149.897V149.913V149.925V149.932V149.943V149.957V149.975V149.988V150.006V150.059C97.1493 150.059 97.1493 150.068 97.1493 150.072C97.1493 150.072 97.1493 150.083 97.1493 150.088C97.1493 150.093 97.1493 150.101 97.1493 150.106C97.1493 150.106 97.1493 150.114 97.1493 150.118C97.1493 150.122 97.1493 150.118 97.1493 150.118V150.152C97.1491 150.156 97.1491 150.159 97.1493 150.162V150.179V150.195V150.208V150.218V150.234V150.248V150.259V150.269V150.282L97.1569 150.297V150.307L97.1632 150.318V150.326V150.332V150.34V150.349L97.1707 150.357V150.364L97.177 150.37L97.1846 150.379H97.1909L97.1997 150.385H97.2072H97.2135H97.2236L94.1938 148.569H94.1837H94.1774H94.1698L94.161 148.562H94.1547L94.1472 148.554V148.548V148.542L94.1396 148.533L94.1333 148.524V148.516V148.509V148.497V148.489L94.1258 148.474V148.461V148.451V148.438V148.424V148.408V148.398V148.384V148.369V148.354V148.338C94.1259 148.335 94.1259 148.333 94.1258 148.331C94.1258 148.331 94.1258 148.324 94.1258 148.321C94.1258 148.319 94.1258 148.321 94.1258 148.321C94.1258 148.321 94.1258 148.315 94.1258 148.311C94.1258 148.311 94.1258 148.3 94.1258 148.295C94.1258 148.295 94.0049 148.152 94.0049 148.146Z" fill="#D0D2D3"/>
<path d="M97.8337 148.93C97.6503 149.05 97.4977 149.211 97.3883 149.402C97.279 149.592 97.2158 149.805 97.2041 150.024C97.2041 150.424 97.4912 150.588 97.8337 150.387L98.2216 150.162C98.4051 150.042 98.5578 149.881 98.6671 149.69C98.7765 149.5 98.8396 149.287 98.8512 149.068C98.8512 148.668 98.5641 148.504 98.2216 148.705L97.8337 148.93Z" fill="#808080"/>
<path d="M85.8643 143.049L85.8706 140.689L99.526 148.614V150.968L98.739 150.512V149.108L86.6286 142.104V143.491L85.8643 143.049Z" fill="#32343F"/>
<path d="M105.55 137.724L99.1987 141.42L85.6855 133.58L92.0146 129.896L105.55 137.724Z" fill="#FCFDFF"/>
<path d="M99.1992 141.421V148.484L105.551 144.788V137.725L99.1992 141.421Z" fill="#D3D3D3"/>
<path d="M85.6855 133.58L99.1987 141.42V148.484L85.6855 140.643V133.58Z" fill="#E0E4E4"/>
<path d="M102.854 154.693L102.868 154.682L102.905 154.648L102.945 154.605L102.956 154.593L102.984 154.559L102.995 154.543L103.023 154.503L103.031 154.492L103.065 154.435C103.076 154.415 103.086 154.395 103.096 154.373V154.363L103.118 154.312V154.297L103.129 154.265C103.129 154.249 103.14 154.231 103.147 154.213L103.157 154.179L103.168 154.135L103.177 154.096C103.177 154.084 103.177 154.071 103.184 154.057C103.192 154.043 103.184 154.028 103.192 154.013V153.978C103.192 153.962 103.192 153.945 103.192 153.929C103.192 153.913 103.192 153.906 103.192 153.895C103.192 153.884 103.192 153.856 103.192 153.836C103.192 153.816 103.192 153.819 103.192 153.811C103.192 153.782 103.192 153.751 103.192 153.721C103.192 153.691 103.192 153.663 103.192 153.634C103.192 153.624 103.192 153.614 103.192 153.605C103.192 153.596 103.192 153.564 103.192 153.544C103.192 153.523 103.192 153.522 103.192 153.512C103.192 153.502 103.192 153.468 103.186 153.447V153.42C103.186 153.39 103.178 153.358 103.173 153.328V153.317C103.173 153.29 103.164 153.263 103.158 153.236C103.152 153.21 103.158 153.215 103.152 153.204C103.145 153.192 103.143 153.162 103.138 153.142L103.129 153.107L103.114 153.046L103.134 153.001L103.116 152.937L103.107 152.906C103.099 152.875 103.089 152.843 103.077 152.813V152.806C103.067 152.777 103.057 152.748 103.047 152.719L103.037 152.691L103.012 152.626L102.999 152.594L102.971 152.526L102.961 152.502L102.92 152.411L102.909 152.389L102.875 152.32L102.849 152.27L102.825 152.224C102.803 152.182 102.779 152.14 102.755 152.098L102.73 152.056L102.699 152.006L102.671 151.962L102.639 151.913L102.618 151.881C102.587 151.837 102.557 151.793 102.526 151.755L102.458 151.666L102.404 151.598L102.392 151.584L102.325 151.506L102.305 151.485L102.257 151.432L102.23 151.403L102.187 151.359L102.157 151.328L102.115 151.288L102.082 151.257L102.041 151.219L102.007 151.19L101.964 151.153L101.931 151.127L101.886 151.092L101.856 151.068L101.805 151.031L101.779 151.012L101.702 150.962L101.623 150.914L101.552 150.875L101.526 150.861L101.473 150.835L101.449 150.824L101.375 150.791L101.3 150.763L101.277 150.756L101.227 150.74L101.198 150.733L101.153 150.722L101.124 150.715L101.083 150.708H101.05H101.011H100.976H100.942H100.838H100.784H100.768L100.71 150.718H100.695L100.648 150.729L100.627 150.737L100.59 150.748L100.547 150.766L100.527 150.774C100.506 150.784 100.486 150.795 100.467 150.806L101.667 150.105L101.727 150.073L101.749 150.064C101.983 149.977 102.24 149.977 102.474 150.064C102.708 150.145 102.926 150.265 103.119 150.421L103.135 150.434L103.168 150.461C103.886 151.062 104.339 151.921 104.427 152.853C104.465 153.178 104.401 153.505 104.245 153.792L104.237 153.803L104.209 153.843L104.198 153.858L104.17 153.892L104.159 153.905L104.119 153.948L104.081 153.981L104.067 153.992L104.034 154.017L104.02 154.027L103.973 154.057L102.756 154.764L102.804 154.734L102.818 154.723L102.854 154.693Z" fill="#40363B"/>
<path d="M101.613 150.912C102.511 151.43 103.235 152.685 103.233 153.717C103.23 154.748 102.5 155.164 101.603 154.646C100.707 154.128 99.9863 152.874 99.9863 151.842C99.9863 150.809 100.717 150.395 101.613 150.912Z" fill="#4E444A"/>
<path d="M101.557 151.637C102.111 151.956 102.565 152.706 102.612 153.355C102.612 153.395 102.612 153.434 102.612 153.474C102.612 154.149 102.133 154.421 101.545 154.082C100.956 153.743 100.489 152.921 100.489 152.245C100.489 152.206 100.489 152.169 100.489 152.133C100.547 151.541 101.004 151.318 101.557 151.637Z" fill="#BBBDBF"/>
<path d="M101.558 151.971C101.77 152.109 101.949 152.294 102.082 152.51C102.215 152.726 102.298 152.969 102.326 153.221C102.326 153.25 102.326 153.279 102.326 153.307C102.326 153.798 101.977 153.996 101.55 153.749C101.325 153.603 101.138 153.405 101.004 153.173C100.87 152.941 100.793 152.68 100.779 152.413C100.779 152.385 100.779 152.357 100.779 152.331C100.822 151.901 101.155 151.742 101.558 151.971Z" fill="#929497"/>
<path d="M100.785 152.331C100.816 151.974 101.049 151.802 101.358 151.885C101.118 151.885 100.947 152.049 100.921 152.351C100.921 152.377 100.921 152.404 100.921 152.433C100.935 152.7 101.012 152.961 101.146 153.193C101.28 153.425 101.467 153.622 101.691 153.769C101.754 153.806 101.821 153.834 101.892 153.854C101.772 153.848 101.657 153.811 101.555 153.749C101.331 153.602 101.144 153.405 101.01 153.173C100.876 152.941 100.799 152.68 100.785 152.412C100.781 152.383 100.782 152.357 100.785 152.331Z" fill="#D0D2D3"/>
<path d="M101.263 152.954C101.254 152.948 101.243 152.945 101.232 152.945C101.221 152.945 101.211 152.948 101.201 152.954C101.167 152.972 101.167 153.037 101.201 153.095C101.216 153.121 101.237 153.143 101.263 153.159C101.272 153.164 101.283 153.167 101.294 153.167C101.305 153.167 101.315 153.164 101.325 153.159C101.359 153.14 101.359 153.076 101.325 153.018C101.31 152.991 101.289 152.969 101.263 152.954Z" fill="#3A3D3F"/>
<path d="M101.604 152.633C101.494 152.57 101.406 152.62 101.406 152.746C101.41 152.814 101.429 152.881 101.464 152.94C101.498 152.999 101.545 153.05 101.603 153.087C101.712 153.15 101.8 153.1 101.8 152.974C101.797 152.906 101.777 152.839 101.743 152.78C101.709 152.72 101.661 152.67 101.604 152.633Z" fill="#3A3D3F"/>
<path d="M101.603 153.312C101.555 153.284 101.516 153.312 101.516 153.361C101.517 153.391 101.526 153.42 101.541 153.446C101.556 153.472 101.577 153.494 101.603 153.511C101.65 153.538 101.689 153.511 101.689 153.462C101.688 153.432 101.679 153.402 101.664 153.376C101.649 153.35 101.628 153.328 101.603 153.312Z" fill="#3A3D3F"/>
<path d="M101.942 153.346C101.933 153.339 101.923 153.335 101.912 153.334C101.901 153.333 101.89 153.335 101.88 153.339C101.846 153.36 101.846 153.423 101.88 153.481C101.895 153.507 101.916 153.529 101.942 153.545C101.951 153.55 101.962 153.553 101.973 153.553C101.983 153.553 101.994 153.55 102.003 153.545C102.037 153.526 102.037 153.462 102.003 153.404C101.988 153.38 101.967 153.36 101.942 153.346Z" fill="#3A3D3F"/>
<path d="M101.265 152.174C101.256 152.169 101.245 152.166 101.234 152.166C101.223 152.166 101.213 152.169 101.203 152.174C101.169 152.193 101.169 152.256 101.203 152.315C101.218 152.342 101.239 152.364 101.265 152.38C101.274 152.385 101.285 152.388 101.296 152.388C101.307 152.388 101.317 152.385 101.327 152.38C101.361 152.361 101.361 152.296 101.327 152.238C101.312 152.212 101.291 152.19 101.265 152.174Z" fill="#3A3D3F"/>
<path d="M101.605 152.409C101.653 152.436 101.692 152.409 101.692 152.358C101.691 152.328 101.682 152.299 101.667 152.273C101.652 152.247 101.631 152.225 101.605 152.208C101.558 152.181 101.519 152.208 101.519 152.257C101.52 152.288 101.529 152.317 101.544 152.343C101.559 152.37 101.58 152.392 101.605 152.409Z" fill="#3A3D3F"/>
<path d="M101.944 152.765C101.953 152.77 101.964 152.773 101.974 152.773C101.985 152.773 101.996 152.77 102.005 152.765C102.039 152.746 102.039 152.682 102.005 152.624C101.991 152.598 101.969 152.575 101.944 152.56C101.935 152.553 101.924 152.549 101.914 152.548C101.903 152.547 101.892 152.549 101.882 152.553C101.848 152.572 101.848 152.636 101.882 152.694C101.896 152.723 101.917 152.747 101.944 152.765Z" fill="#3A3D3F"/>
<path d="M101.211 152.633C101.209 152.602 101.2 152.573 101.185 152.547C101.17 152.521 101.149 152.499 101.124 152.483C101.076 152.455 101.037 152.483 101.037 152.532C101.039 152.562 101.047 152.591 101.063 152.617C101.078 152.643 101.099 152.665 101.124 152.682C101.172 152.711 101.211 152.688 101.211 152.633Z" fill="#3A3D3F"/>
<path d="M102.084 153.037C102.036 153.01 101.997 153.037 101.997 153.086C101.999 153.117 102.007 153.146 102.023 153.172C102.038 153.198 102.059 153.22 102.084 153.236C102.132 153.264 102.171 153.236 102.171 153.186C102.169 153.156 102.16 153.127 102.145 153.101C102.13 153.076 102.109 153.054 102.084 153.037Z" fill="#3A3D3F"/>
<path d="M104.282 153.723L110.178 150.389L110.188 146.825L104.292 150.16L104.282 153.723Z" fill="#526AA7"/>
<path d="M104.293 150.159L110.189 146.825L109.387 143.36L103.492 146.695L104.293 150.159Z" fill="#70565D"/>
<path d="M103.492 146.695L109.387 143.361L105.434 141.079L99.5391 144.414L103.492 146.695Z" fill="#587ABB"/>
<path d="M103.49 146.696L104.292 150.16L110.186 146.83L109.384 143.366L103.49 146.696ZM103.756 146.813L109.23 143.716L109.923 146.708L104.449 149.805L103.756 146.813Z" fill="#587ABB"/>
<path d="M109.137 148.088V150.376L105.334 152.576V150.287L109.137 148.088Z" fill="#4F565B"/>
<path d="M104.571 153.086V153.888L110.436 150.516V149.714L104.571 153.086Z" fill="#D0D2D3"/>
<path d="M104.571 153.086V153.888L104.282 153.727V152.924L104.571 153.086Z" fill="#BBBDBF"/>
<path d="M110.435 149.714L104.571 153.086L104.282 152.923L110.145 149.55L110.435 149.714Z" fill="#E6E7E8"/>
<path fill-rule="evenodd" clip-rule="evenodd" d="M104.293 152.104L105.235 151.562V152.128L104.293 152.666V152.104Z" fill="#F1F1F2"/>
<path fill-rule="evenodd" clip-rule="evenodd" d="M109.247 149.243L110.189 148.7V149.268L109.247 149.805V149.243Z" fill="#F1F1F2"/>
<path d="M99.5384 144.414L103.491 146.696L104.293 150.16L104.283 153.724L103.438 153.234C103.223 152.227 102.517 151.165 101.675 150.679C100.834 150.193 100.129 150.427 99.9061 151.183L99.5283 150.963V148.61L99.5384 144.414Z" fill="#496198"/>
<path d="M101.106 145.61C101.064 145.586 101.03 145.61 101.03 145.653V147.718C101.032 147.743 101.04 147.768 101.053 147.79C101.066 147.812 101.084 147.83 101.106 147.844L103.729 149.355C103.781 149.385 103.817 149.346 103.801 149.281L103.335 146.944C103.325 146.903 103.299 146.867 103.264 146.844L101.106 145.61Z" fill="#70565D"/>
<path d="M104.715 153.288V153.656L105.429 153.246V152.878L104.715 153.288Z" fill="#F6921E"/>
<path d="M109.608 150.485V150.852L110.321 150.442V150.074L109.608 150.485Z" fill="#F6921E"/>
<path d="M91.2002 144.747V146.078L93.6822 147.486V146.183L91.2002 144.747Z" fill="#BBBDBF"/>
<path d="M93.6816 147.486L94.1501 147.23V146.453L93.6816 146.183V147.486Z" fill="#96999B"/>
<path opacity="0.2" d="M103.756 146.812L109.922 146.708L109.23 143.716L103.756 146.812Z" fill="white"/>
<path d="M91.9981 142.795L91.3018 142.394V137.771L91.9981 138.171V142.795Z" fill="#587ABB"/>
<path d="M88.9298 140.242L89.7684 140.725V136.886L90.4636 137.286V141.127V141.91L89.7684 141.51V141.509L88.2334 140.622V139.84V135.998L88.9298 136.399V140.242Z" fill="#587ABB"/>
<path d="M87.3956 135.513V140.136L86.6992 139.736V135.112L87.3956 135.513Z" fill="#587ABB"/>
<path d="M128.797 80.4948L135.756 76.4072V77.6035L128.797 81.6533V80.4948Z" fill="#807689"/>
<path d="M92.3438 59.4248L128.799 80.4961L128.797 81.6534L92.3438 60.6211V59.4248Z" fill="#D3D3D3"/>
<path d="M99.3606 55.3711L92.3691 59.4385L128.798 80.496L135.756 76.4097L99.3606 55.3711Z" fill="#938B99"/>
<path d="M92.3691 59.4385V60.636L128.796 81.6532L128.798 80.4959L92.3691 59.4385Z" fill="#776179"/>
<path d="M169.589 120.531L85.502 169.143L101.623 178.454L185.713 129.844L169.589 120.531Z" fill="#CCA092"/>
<path d="M85.502 169.144L101.623 178.455L101.621 181.103L85.502 171.793V169.144Z" fill="#C28D85"/>
<path d="M74.3018 137.334V146.062L81.1119 142.132V133.404L74.3018 137.334Z" fill="#807689"/>
<path d="M74.3019 137.334V146.062L53.4736 134.036V125.307L74.3019 137.334Z" fill="#776179"/>
<path d="M72.1412 137.8V140.518L65.6572 136.774V134.057L72.1412 137.8Z" fill="#C5DAE6"/>
<path d="M72.1411 141.635V143.495L67.7021 140.932V139.072L72.1411 141.635Z" fill="#C5DAE6"/>
<path d="M81.112 133.404L74.3019 137.334L53.4736 125.307L60.2837 121.378L81.112 133.404Z" fill="#938B99"/>
<path d="M63.3008 143.744V152.472L70.1109 148.541V139.813L63.3008 143.744Z" fill="#807689"/>
<path d="M63.3009 143.744V152.472L42.4727 140.445V131.717L63.3009 143.744Z" fill="#776179"/>
<path d="M61.1399 144.21V146.927L54.6572 143.183V140.466L61.1399 144.21Z" fill="#C5DAE6"/>
<path d="M61.1398 148.044V149.904L56.7021 147.341V145.481L61.1398 148.044Z" fill="#C5DAE6"/>
<path d="M70.111 139.813L63.3009 143.744L42.4727 131.716L49.284 127.786L70.111 139.813Z" fill="#938B99"/>
<g style="mix-blend-mode:multiply" opacity="0.2">
<path d="M148.602 125.337L156.524 120.665L137.665 109.709L129.743 114.383L148.602 125.337Z" fill="#404041"/>
</g>
<path d="M131.014 112.304L133.895 112.702L132.505 110.794L130.794 111.169L131.014 112.304Z" fill="#250920"/>
<path d="M134.07 115.623L134.084 115.611L134.121 115.579L134.161 115.537L134.171 115.525L134.199 115.491L134.21 115.475L134.238 115.436L134.245 115.426C134.257 115.409 134.268 115.39 134.279 115.37C134.291 115.35 134.301 115.331 134.31 115.309V115.299L134.331 115.249V115.234L134.342 115.202C134.342 115.186 134.354 115.168 134.359 115.152L134.369 115.118C134.369 115.104 134.376 115.089 134.38 115.074C134.384 115.059 134.38 115.049 134.389 115.036L134.396 114.998L134.404 114.955C134.404 114.944 134.404 114.933 134.404 114.92C134.404 114.908 134.404 114.887 134.404 114.871V114.838C134.404 114.819 134.404 114.799 134.404 114.779C134.404 114.759 134.404 114.763 134.404 114.755C134.404 114.726 134.404 114.697 134.404 114.667C134.404 114.637 134.404 114.61 134.404 114.581C134.404 114.571 134.404 114.563 134.404 114.552C134.404 114.542 134.404 114.512 134.404 114.492C134.404 114.472 134.404 114.472 134.404 114.461C134.404 114.449 134.404 114.418 134.398 114.396C134.391 114.375 134.398 114.379 134.398 114.371C134.398 114.341 134.39 114.311 134.385 114.28V114.269C134.385 114.242 134.38 114.216 134.371 114.19L134.365 114.157L134.352 114.097L134.344 114.061C134.344 114.041 134.333 114.022 134.328 114.002L134.32 113.967C134.32 113.945 134.308 113.924 134.302 113.903L134.293 113.872C134.284 113.842 134.274 113.812 134.264 113.781V113.773C134.254 113.745 134.244 113.716 134.234 113.689L134.224 113.661L134.199 113.597L134.186 113.566L134.158 113.5L134.148 113.476L134.108 113.386L134.097 113.364L134.064 113.296L134.039 113.248L134.015 113.203C133.992 113.161 133.97 113.119 133.946 113.077L133.92 113.035L133.89 112.986L133.863 112.942L133.831 112.893L133.81 112.863C133.781 112.818 133.75 112.776 133.719 112.737L133.651 112.648L133.598 112.582L133.588 112.569L133.522 112.492L133.504 112.471L133.457 112.419L133.429 112.39L133.388 112.347L133.358 112.317L133.317 112.278L133.285 112.248L133.244 112.211L133.211 112.183L133.17 112.147L133.137 112.121L133.093 112.086L133.063 112.063L133.013 112.026L132.987 112.009L132.912 111.958L132.834 111.912L132.763 111.873L132.737 111.859L132.684 111.834L132.661 111.822L132.588 111.791L132.515 111.764L132.492 111.757L132.443 111.742L132.416 111.734L132.372 111.723H132.344L132.302 111.715H132.27H132.232H132.198H132.165H132.063H132.009H131.994L131.936 111.725H131.921L131.875 111.737L131.854 111.743L131.819 111.754L131.776 111.772L131.756 111.781C131.736 111.791 131.715 111.801 131.695 111.812L133.223 110.931L133.282 110.899L133.302 110.89C133.533 110.805 133.787 110.805 134.017 110.89C134.246 110.971 134.459 111.09 134.647 111.242L134.663 111.256L134.696 111.282C135.405 111.873 135.853 112.719 135.942 113.638C135.979 113.958 135.916 114.281 135.761 114.563L135.754 114.574L135.726 114.613L135.715 114.628L135.687 114.662L135.676 114.675L135.636 114.716L135.599 114.749L135.585 114.76L135.552 114.785L135.539 114.795L135.491 114.826L133.965 115.707L134.012 115.677L134.026 115.667L134.07 115.623Z" fill="#40363B"/>
<path d="M132.853 111.898C133.734 112.408 134.452 113.646 134.448 114.662C134.444 115.678 133.727 116.087 132.843 115.577C131.959 115.067 131.245 113.829 131.247 112.813C131.25 111.797 131.964 111.386 132.853 111.898Z" fill="#4E444A"/>
<path d="M132.794 112.612C133.339 112.927 133.786 113.665 133.834 114.306C133.834 114.346 133.834 114.384 133.834 114.422C133.834 115.087 133.362 115.355 132.782 115.021C132.203 114.688 131.736 113.877 131.737 113.212C131.737 113.174 131.737 113.136 131.737 113.101C131.798 112.518 132.249 112.298 132.794 112.612Z" fill="#BBBDBF"/>
<path d="M132.793 112.941C133.002 113.077 133.178 113.259 133.309 113.472C133.439 113.685 133.521 113.924 133.548 114.172C133.548 114.201 133.548 114.229 133.548 114.257C133.548 114.74 133.204 114.935 132.784 114.692C132.563 114.548 132.38 114.354 132.248 114.125C132.117 113.896 132.042 113.64 132.028 113.376C132.028 113.349 132.028 113.322 132.028 113.296C132.069 112.871 132.396 112.711 132.793 112.941Z" fill="#929497"/>
<path d="M132.032 113.295C132.063 112.943 132.292 112.773 132.596 112.855C132.36 112.855 132.192 113.018 132.165 113.315C132.165 113.341 132.165 113.368 132.165 113.395C132.179 113.659 132.254 113.915 132.385 114.144C132.517 114.373 132.7 114.567 132.921 114.711C132.983 114.748 133.049 114.776 133.118 114.796C133.001 114.789 132.887 114.753 132.787 114.691C132.567 114.547 132.383 114.352 132.252 114.124C132.121 113.895 132.045 113.639 132.032 113.375C132.028 113.348 132.029 113.321 132.032 113.295Z" fill="#D0D2D3"/>
<path d="M132.503 113.909C132.494 113.904 132.483 113.901 132.473 113.901C132.462 113.901 132.452 113.904 132.442 113.909C132.408 113.928 132.408 113.991 132.442 114.049C132.457 114.075 132.478 114.097 132.503 114.113C132.512 114.119 132.523 114.121 132.533 114.121C132.544 114.121 132.554 114.119 132.563 114.113C132.597 114.094 132.597 114.031 132.563 113.973C132.549 113.947 132.528 113.925 132.503 113.909Z" fill="#3A3D3F"/>
<path d="M132.839 113.593C132.732 113.531 132.644 113.58 132.644 113.704C132.647 113.771 132.667 113.837 132.7 113.895C132.734 113.954 132.781 114.003 132.837 114.04C132.945 114.102 133.033 114.053 133.033 113.929C133.029 113.862 133.01 113.796 132.976 113.738C132.942 113.679 132.895 113.63 132.839 113.593Z" fill="#3A3D3F"/>
<path d="M132.838 114.262C132.79 114.234 132.752 114.262 132.752 114.311C132.754 114.341 132.762 114.369 132.777 114.395C132.792 114.421 132.813 114.442 132.838 114.458C132.884 114.486 132.923 114.458 132.923 114.409C132.922 114.38 132.913 114.351 132.898 114.325C132.883 114.3 132.862 114.278 132.838 114.262Z" fill="#3A3D3F"/>
<path d="M133.173 114.296C133.164 114.291 133.153 114.288 133.143 114.288C133.132 114.288 133.122 114.291 133.112 114.296C133.078 114.315 133.078 114.378 133.112 114.436C133.127 114.462 133.148 114.484 133.173 114.5C133.182 114.505 133.192 114.508 133.203 114.508C133.214 114.508 133.224 114.505 133.233 114.5C133.267 114.481 133.267 114.418 133.233 114.36C133.219 114.334 133.198 114.312 133.173 114.296Z" fill="#3A3D3F"/>
<path d="M132.505 113.141C132.496 113.136 132.485 113.133 132.475 113.133C132.464 113.133 132.454 113.136 132.444 113.141C132.41 113.16 132.41 113.223 132.444 113.281C132.459 113.307 132.48 113.329 132.505 113.345C132.514 113.35 132.525 113.353 132.535 113.353C132.546 113.353 132.556 113.35 132.565 113.345C132.598 113.326 132.599 113.263 132.565 113.206C132.551 113.18 132.53 113.157 132.505 113.141Z" fill="#3A3D3F"/>
<path d="M132.841 113.371C132.888 113.399 132.926 113.371 132.926 113.322C132.925 113.293 132.916 113.264 132.901 113.238C132.886 113.213 132.865 113.191 132.841 113.175C132.794 113.147 132.755 113.175 132.755 113.224C132.757 113.254 132.765 113.282 132.78 113.308C132.795 113.334 132.816 113.355 132.841 113.371Z" fill="#3A3D3F"/>
<path d="M133.174 113.725C133.183 113.73 133.193 113.733 133.204 113.733C133.215 113.733 133.225 113.73 133.234 113.725C133.268 113.706 133.268 113.643 133.234 113.586C133.22 113.56 133.199 113.538 133.174 113.522C133.165 113.516 133.154 113.514 133.144 113.514C133.133 113.514 133.123 113.516 133.113 113.522C133.079 113.541 133.079 113.604 133.113 113.66C133.128 113.687 133.148 113.709 133.174 113.725Z" fill="#3A3D3F"/>
<path d="M132.451 113.593C132.449 113.563 132.44 113.535 132.425 113.509C132.411 113.483 132.39 113.462 132.365 113.446C132.318 113.418 132.279 113.446 132.279 113.495C132.281 113.524 132.289 113.553 132.304 113.579C132.319 113.605 132.34 113.627 132.365 113.643C132.412 113.67 132.451 113.647 132.451 113.593Z" fill="#3A3D3F"/>
<path d="M133.311 113.99C133.265 113.963 133.226 113.99 133.226 114.04C133.227 114.069 133.236 114.098 133.251 114.123C133.266 114.149 133.286 114.171 133.311 114.187C133.358 114.215 133.397 114.187 133.397 114.138C133.395 114.108 133.387 114.079 133.372 114.054C133.357 114.028 133.336 114.007 133.311 113.99Z" fill="#3A3D3F"/>
<path d="M134.443 112.702L135.026 114.926L135.852 115.413V113.516L134.443 112.702Z" fill="#32343F"/>
<path d="M135.853 115.412L137.312 114.36L135.853 113.515V115.412Z" fill="#250920"/>
<path d="M143.985 121.363L143.999 121.352L144.035 121.319L144.075 121.277L144.085 121.265L144.113 121.231L144.125 121.216L144.152 121.177L144.16 121.166C144.171 121.149 144.182 121.13 144.194 121.11C144.205 121.09 144.215 121.069 144.224 121.049V121.039C144.232 121.023 144.239 121.005 144.245 120.989V120.974L144.257 120.942C144.257 120.926 144.268 120.908 144.273 120.892L144.283 120.858L144.295 120.814L144.303 120.776L144.311 120.738C144.311 120.724 144.311 120.709 144.318 120.695C144.326 120.682 144.318 120.673 144.318 120.66C144.318 120.648 144.318 120.627 144.318 120.612C144.318 120.597 144.318 120.591 144.318 120.58C144.318 120.568 144.318 120.541 144.318 120.52C144.318 120.5 144.318 120.504 144.318 120.497C144.318 120.468 144.318 120.439 144.318 120.408C144.318 120.379 144.318 120.352 144.318 120.323C144.318 120.313 144.318 120.304 144.318 120.294C144.318 120.284 144.318 120.253 144.318 120.233V120.202C144.318 120.18 144.318 120.159 144.312 120.138C144.306 120.116 144.312 120.12 144.312 120.112C144.312 120.082 144.305 120.052 144.3 120.022V120.01C144.3 119.984 144.291 119.958 144.286 119.931C144.281 119.905 144.286 119.91 144.279 119.898L144.267 119.837L144.258 119.801L144.243 119.742L144.234 119.707L144.216 119.644L144.208 119.614C144.199 119.582 144.189 119.552 144.179 119.522V119.514C144.17 119.487 144.16 119.458 144.148 119.43L144.138 119.402L144.113 119.338L144.101 119.308L144.073 119.241L144.063 119.217L144.023 119.128L144.011 119.105L143.978 119.037L143.953 118.989L143.929 118.944C143.907 118.902 143.884 118.861 143.86 118.818L143.835 118.776L143.805 118.727L143.777 118.683L143.745 118.634L143.724 118.603C143.695 118.559 143.665 118.516 143.633 118.477L143.567 118.389L143.513 118.322L143.502 118.309L143.437 118.232L143.418 118.211L143.37 118.159L143.343 118.13L143.301 118.088L143.271 118.057L143.23 118.018L143.198 117.988L143.157 117.952L143.125 117.923L143.083 117.887L143.05 117.861L143.006 117.826L142.976 117.803L142.926 117.766L142.901 117.749L142.825 117.698L142.747 117.651L142.676 117.613L142.65 117.599L142.597 117.574L142.574 117.562L142.501 117.531L142.428 117.504L142.406 117.497L142.356 117.482L142.329 117.474L142.285 117.463H142.257L142.215 117.455H142.183H142.145H142.111H141.976H141.922H141.92L141.862 117.465H141.847L141.801 117.477L141.78 117.483L141.744 117.494L141.702 117.512L141.682 117.521L141.621 117.552L143.149 116.671L143.208 116.639L143.228 116.631C143.459 116.545 143.712 116.545 143.943 116.631C144.172 116.711 144.385 116.83 144.573 116.982L144.589 116.996L144.622 117.022C145.331 117.613 145.779 118.46 145.867 119.378C145.905 119.698 145.842 120.021 145.687 120.303L145.68 120.314L145.652 120.353L145.641 120.368L145.613 120.402L145.603 120.415L145.563 120.456L145.526 120.489L145.512 120.5L145.479 120.525L145.466 120.536L145.418 120.566L143.892 121.447L143.939 121.417L143.953 121.407L143.985 121.363Z" fill="#40363B"/>
<path d="M142.762 117.638C143.643 118.148 144.36 119.386 144.357 120.402C144.355 121.418 143.636 121.828 142.752 121.318C141.868 120.808 141.154 119.57 141.156 118.553C141.159 117.537 141.878 117.127 142.762 117.638Z" fill="#4E444A"/>
<path d="M142.706 118.352C143.251 118.667 143.698 119.405 143.746 120.046C143.746 120.085 143.746 120.124 143.746 120.161C143.746 120.826 143.274 121.095 142.695 120.761C142.115 120.427 141.648 119.616 141.649 118.951C141.649 118.914 141.649 118.876 141.649 118.84C141.711 118.256 142.161 118.037 142.706 118.352Z" fill="#BBBDBF"/>
<path d="M142.707 118.681C142.916 118.818 143.092 118.999 143.223 119.212C143.353 119.425 143.435 119.664 143.462 119.912C143.462 119.941 143.462 119.969 143.462 119.997C143.462 120.48 143.119 120.676 142.698 120.432C142.477 120.288 142.294 120.094 142.163 119.865C142.031 119.636 141.956 119.38 141.942 119.117C141.942 119.089 141.942 119.062 141.942 119.036C141.983 118.612 142.31 118.452 142.707 118.681Z" fill="#929497"/>
<path d="M141.945 119.034C141.976 118.683 142.205 118.513 142.509 118.594C142.273 118.594 142.105 118.757 142.078 119.054C142.078 119.081 142.078 119.107 142.078 119.135C142.092 119.398 142.167 119.654 142.298 119.883C142.43 120.112 142.613 120.306 142.834 120.451C142.896 120.487 142.962 120.516 143.032 120.535C142.914 120.528 142.8 120.492 142.7 120.43C142.48 120.286 142.296 120.092 142.165 119.863C142.034 119.634 141.958 119.378 141.945 119.115C141.941 119.087 141.942 119.06 141.945 119.034Z" fill="#D0D2D3"/>
<path d="M142.423 119.65C142.414 119.644 142.403 119.642 142.393 119.642C142.382 119.642 142.372 119.644 142.362 119.65C142.328 119.668 142.328 119.731 142.362 119.789C142.377 119.815 142.398 119.838 142.423 119.854C142.432 119.859 142.442 119.862 142.453 119.862C142.464 119.862 142.474 119.859 142.483 119.854C142.516 119.835 142.517 119.772 142.483 119.715C142.469 119.688 142.448 119.666 142.423 119.65Z" fill="#3A3D3F"/>
<path d="M142.753 119.333C142.646 119.272 142.558 119.321 142.558 119.444C142.561 119.511 142.581 119.577 142.614 119.635C142.648 119.694 142.695 119.743 142.752 119.78C142.859 119.842 142.947 119.793 142.947 119.669C142.943 119.602 142.924 119.537 142.89 119.478C142.856 119.42 142.809 119.37 142.753 119.333Z" fill="#3A3D3F"/>
<path d="M142.751 120.001C142.704 119.974 142.665 120.001 142.665 120.05C142.667 120.08 142.675 120.109 142.69 120.134C142.705 120.16 142.726 120.182 142.751 120.198C142.799 120.225 142.836 120.198 142.836 120.149C142.835 120.119 142.826 120.09 142.811 120.065C142.796 120.039 142.776 120.017 142.751 120.001Z" fill="#3A3D3F"/>
<path d="M143.085 120.034C143.076 120.029 143.065 120.026 143.055 120.026C143.044 120.026 143.034 120.029 143.025 120.034C142.991 120.053 142.991 120.116 143.025 120.174C143.039 120.2 143.06 120.221 143.085 120.237C143.094 120.242 143.105 120.245 143.115 120.245C143.126 120.245 143.136 120.242 143.145 120.237C143.179 120.218 143.179 120.155 143.145 120.097C143.131 120.071 143.11 120.05 143.085 120.034Z" fill="#3A3D3F"/>
<path d="M142.423 118.874C142.414 118.869 142.403 118.866 142.393 118.866C142.382 118.866 142.372 118.869 142.362 118.874C142.328 118.893 142.328 118.956 142.362 119.014C142.377 119.04 142.398 119.062 142.423 119.078C142.432 119.084 142.442 119.086 142.453 119.086C142.464 119.086 142.474 119.084 142.483 119.078C142.517 119.059 142.517 118.996 142.483 118.94C142.469 118.913 142.448 118.891 142.423 118.874Z" fill="#3A3D3F"/>
<path d="M142.753 119.111C142.8 119.138 142.838 119.111 142.838 119.062C142.837 119.032 142.828 119.003 142.813 118.978C142.798 118.952 142.777 118.93 142.753 118.914C142.705 118.887 142.667 118.914 142.667 118.963C142.669 118.993 142.677 119.022 142.692 119.047C142.707 119.073 142.728 119.095 142.753 119.111Z" fill="#3A3D3F"/>
<path d="M143.087 119.464C143.096 119.469 143.107 119.472 143.117 119.472C143.128 119.472 143.138 119.469 143.147 119.464C143.181 119.445 143.181 119.382 143.147 119.324C143.133 119.298 143.112 119.276 143.087 119.26C143.078 119.255 143.067 119.252 143.057 119.252C143.046 119.252 143.036 119.255 143.026 119.26C142.992 119.279 142.992 119.342 143.026 119.399C143.041 119.425 143.062 119.448 143.087 119.464Z" fill="#3A3D3F"/>
<path d="M142.366 119.332C142.364 119.303 142.355 119.274 142.34 119.248C142.325 119.223 142.305 119.201 142.28 119.185C142.232 119.157 142.194 119.185 142.194 119.234C142.196 119.264 142.205 119.292 142.219 119.318C142.234 119.344 142.255 119.365 142.28 119.381C142.327 119.408 142.366 119.386 142.366 119.332Z" fill="#3A3D3F"/>
<path d="M143.225 119.731C143.177 119.703 143.14 119.731 143.14 119.78C143.141 119.809 143.15 119.838 143.165 119.864C143.18 119.889 143.2 119.911 143.225 119.927C143.273 119.955 143.311 119.927 143.311 119.878C143.309 119.848 143.301 119.82 143.286 119.794C143.271 119.768 143.25 119.747 143.225 119.731Z" fill="#3A3D3F"/>
<path d="M147.446 123.344L147.46 123.333L147.497 123.3L147.537 123.258L147.548 123.246L147.576 123.212L147.587 123.197L147.615 123.158L147.623 123.146L147.657 123.09C147.668 123.07 147.678 123.049 147.687 123.029V123.019L147.708 122.969V122.954L147.719 122.922C147.719 122.906 147.731 122.889 147.736 122.872L147.746 122.838C147.746 122.824 147.753 122.809 147.757 122.794L147.766 122.756C147.766 122.743 147.766 122.731 147.774 122.718C147.781 122.706 147.774 122.689 147.781 122.674V122.639C147.781 122.623 147.781 122.607 147.781 122.591C147.781 122.575 147.781 122.57 147.781 122.558C147.781 122.547 147.781 122.519 147.781 122.499C147.781 122.479 147.781 122.483 147.781 122.475C147.781 122.446 147.781 122.417 147.781 122.387C147.781 122.357 147.781 122.33 147.781 122.301C147.781 122.291 147.781 122.283 147.781 122.272C147.781 122.262 147.781 122.232 147.781 122.212V122.181C147.781 122.159 147.781 122.138 147.775 122.116C147.769 122.095 147.775 122.1 147.775 122.091C147.775 122.061 147.767 122.031 147.762 122V121.989C147.762 121.963 147.753 121.936 147.748 121.91L147.742 121.877L147.73 121.815L147.721 121.78L147.706 121.721L147.697 121.686L147.679 121.621L147.67 121.591C147.66 121.561 147.651 121.529 147.641 121.499V121.492C147.631 121.463 147.623 121.435 147.611 121.407L147.601 121.38L147.576 121.315L147.563 121.285L147.536 121.218L147.526 121.195L147.485 121.105L147.474 121.084L147.46 121.016L147.435 120.968L147.411 120.921C147.388 120.88 147.366 120.838 147.342 120.795L147.317 120.754L147.286 120.705L147.259 120.661L147.227 120.611L147.206 120.58C147.177 120.536 147.147 120.493 147.115 120.454L147.048 120.366L146.995 120.299L146.984 120.287L146.919 120.21L146.9 120.188L146.852 120.137L146.824 120.108L146.783 120.065L146.752 120.035L146.711 119.996L146.678 119.965L146.638 119.929L146.605 119.9L146.563 119.865L146.531 119.838L146.487 119.803L146.456 119.78L146.407 119.744L146.382 119.726L146.307 119.676L146.228 119.628L146.158 119.59L146.132 119.576L146.079 119.551L146.056 119.54L145.982 119.508L145.909 119.482L145.886 119.474L145.837 119.459L145.809 119.452L145.765 119.44H145.737L145.696 119.433H145.663H145.625H145.591H145.455H145.401H145.386L145.328 119.443H145.313L145.268 119.454L145.246 119.461L145.211 119.472L145.168 119.489L145.148 119.498C145.128 119.508 145.108 119.518 145.089 119.53L146.616 118.648L146.676 118.618L146.696 118.609C146.926 118.523 147.18 118.523 147.411 118.609C147.639 118.689 147.852 118.808 148.041 118.961L148.057 118.974L148.09 119.001C148.799 119.592 149.246 120.438 149.335 121.357C149.372 121.676 149.309 121.999 149.155 122.281L149.147 122.293L149.12 122.332L149.108 122.347L149.081 122.381L149.071 122.393L149.03 122.435L148.994 122.468L148.98 122.479L148.947 122.504L148.933 122.514L148.886 122.544L147.359 123.426L147.407 123.396L147.421 123.386L147.446 123.344Z" fill="#40363B"/>
<path d="M146.224 119.619C147.105 120.129 147.823 121.367 147.819 122.383C147.815 123.4 147.098 123.809 146.214 123.299C145.33 122.789 144.616 121.551 144.618 120.535C144.621 119.519 145.34 119.108 146.224 119.619Z" fill="#4E444A"/>
<path d="M146.17 120.333C146.715 120.648 147.162 121.386 147.21 122.027C147.21 122.066 147.21 122.105 147.21 122.142C147.21 122.807 146.738 123.076 146.158 122.742C145.579 122.408 145.112 121.597 145.113 120.932C145.113 120.895 145.113 120.857 145.113 120.822C145.174 120.237 145.625 120.017 146.17 120.333Z" fill="#BBBDBF"/>
<path d="M146.169 120.66C146.378 120.796 146.554 120.978 146.684 121.191C146.815 121.404 146.897 121.643 146.924 121.891C146.924 121.919 146.924 121.948 146.924 121.975C146.924 122.459 146.58 122.654 146.16 122.411C145.939 122.267 145.756 122.072 145.624 121.844C145.493 121.615 145.418 121.359 145.404 121.095C145.404 121.068 145.404 121.041 145.404 121.015C145.446 120.592 145.772 120.432 146.169 120.66Z" fill="#929497"/>
<path d="M145.408 121.015C145.439 120.664 145.668 120.494 145.972 120.576C145.736 120.576 145.568 120.737 145.541 121.036C145.541 121.062 145.541 121.088 145.541 121.116C145.555 121.379 145.63 121.636 145.761 121.865C145.893 122.093 146.076 122.288 146.297 122.432C146.359 122.469 146.425 122.497 146.494 122.516C146.377 122.51 146.263 122.474 146.163 122.412C145.943 122.268 145.759 122.073 145.628 121.844C145.497 121.616 145.421 121.359 145.408 121.096C145.404 121.068 145.405 121.041 145.408 121.015Z" fill="#D0D2D3"/>
<path d="M145.88 121.63C145.871 121.625 145.86 121.622 145.85 121.622C145.839 121.622 145.829 121.625 145.819 121.63C145.785 121.649 145.785 121.712 145.819 121.77C145.834 121.796 145.855 121.818 145.88 121.834C145.889 121.839 145.9 121.842 145.91 121.842C145.921 121.842 145.931 121.839 145.94 121.834C145.974 121.815 145.974 121.752 145.94 121.694C145.926 121.668 145.905 121.646 145.88 121.63Z" fill="#3A3D3F"/>
<path d="M146.215 121.314C146.108 121.252 146.02 121.301 146.02 121.425C146.023 121.492 146.042 121.557 146.076 121.616C146.11 121.674 146.157 121.724 146.213 121.761C146.321 121.822 146.409 121.773 146.409 121.65C146.405 121.583 146.386 121.517 146.352 121.459C146.318 121.4 146.271 121.351 146.215 121.314Z" fill="#3A3D3F"/>
<path d="M146.214 121.981C146.166 121.953 146.128 121.981 146.128 122.03C146.13 122.059 146.138 122.088 146.153 122.114C146.168 122.139 146.189 122.161 146.214 122.177C146.261 122.205 146.299 122.177 146.299 122.128C146.298 122.098 146.289 122.07 146.274 122.044C146.259 122.018 146.238 121.997 146.214 121.981Z" fill="#3A3D3F"/>
<path d="M146.549 122.015C146.54 122.01 146.529 122.007 146.519 122.007C146.508 122.007 146.498 122.01 146.488 122.015C146.454 122.034 146.454 122.097 146.488 122.153C146.503 122.18 146.523 122.202 146.549 122.217C146.558 122.223 146.568 122.226 146.579 122.226C146.59 122.226 146.6 122.223 146.609 122.217C146.643 122.199 146.643 122.136 146.609 122.078C146.595 122.052 146.574 122.03 146.549 122.015Z" fill="#3A3D3F"/>
<path d="M145.881 120.861C145.872 120.856 145.861 120.854 145.851 120.854C145.84 120.854 145.83 120.856 145.82 120.861C145.786 120.88 145.786 120.943 145.82 121.001C145.835 121.027 145.856 121.05 145.881 121.065C145.89 121.071 145.9 121.074 145.911 121.074C145.922 121.074 145.932 121.071 145.941 121.065C145.975 121.047 145.975 120.984 145.941 120.927C145.927 120.9 145.906 120.878 145.881 120.861Z" fill="#3A3D3F"/>
<path d="M146.216 121.092C146.264 121.12 146.302 121.092 146.302 121.043C146.3 121.014 146.292 120.985 146.277 120.959C146.262 120.934 146.241 120.912 146.216 120.896C146.17 120.868 146.131 120.896 146.131 120.945C146.132 120.974 146.141 121.003 146.156 121.029C146.171 121.054 146.192 121.076 146.216 121.092Z" fill="#3A3D3F"/>
<path d="M146.55 121.443C146.559 121.448 146.569 121.451 146.58 121.451C146.591 121.451 146.601 121.448 146.61 121.443C146.643 121.424 146.644 121.361 146.61 121.303C146.596 121.278 146.575 121.256 146.55 121.241C146.541 121.235 146.53 121.232 146.52 121.232C146.509 121.232 146.499 121.235 146.489 121.241C146.455 121.259 146.455 121.322 146.489 121.379C146.504 121.405 146.524 121.427 146.55 121.443Z" fill="#3A3D3F"/>
<path d="M145.823 121.314C145.821 121.284 145.812 121.255 145.797 121.23C145.783 121.204 145.762 121.182 145.737 121.166C145.69 121.139 145.651 121.166 145.651 121.215C145.653 121.245 145.662 121.274 145.677 121.299C145.692 121.325 145.712 121.347 145.737 121.363C145.789 121.393 145.823 121.368 145.823 121.314Z" fill="#3A3D3F"/>
<path d="M146.687 121.711C146.639 121.683 146.602 121.711 146.602 121.76C146.603 121.79 146.612 121.819 146.627 121.844C146.642 121.87 146.662 121.892 146.687 121.908C146.735 121.935 146.773 121.908 146.773 121.859C146.771 121.829 146.763 121.8 146.748 121.775C146.733 121.749 146.712 121.727 146.687 121.711Z" fill="#3A3D3F"/>
<path d="M151.054 121.445V122.7L155.35 120.215V118.96L151.054 121.445Z" fill="#250920"/>
<path d="M135.239 108.266L141.035 104.987L141.024 109.128L135.228 112.407L135.239 108.266Z" fill="#BBBCBC"/>
<path d="M131.344 106.017L137.141 102.738L141.035 104.987L135.239 108.266L131.344 106.017Z" fill="#E0E4E4"/>
<path d="M154.794 119.613L151.832 121.289L151.828 122.714L150.409 123.516L150.415 121.191L156.213 117.912L156.206 120.237L154.791 121.038L154.794 119.613Z" fill="#383A45"/>
<path d="M135.228 112.407L141.024 109.128L156.213 117.913L150.416 121.192L135.228 112.407Z" fill="#3C3E4A"/>
<g style="mix-blend-mode:multiply" opacity="0.3">
<g style="mix-blend-mode:multiply" opacity="0.3">
<path d="M135.562 112.218L140.907 109.193L155.694 117.784L150.349 120.808L135.562 112.218Z" fill="#404041"/>
</g>
</g>
<path d="M155.87 112.428C155.323 112.176 154.688 112.324 154.172 112.591L154.108 112.625L154.096 112.631L154.033 112.666L140.25 104.65L140.313 104.614L140.326 104.608H140.336L140.39 104.579C140.877 104.327 141.482 104.174 142.012 104.384L142.034 104.393L142.067 104.407L142.087 104.415L142.123 104.433L142.14 104.442L142.191 104.47L155.973 112.486C155.938 112.462 155.904 112.445 155.87 112.428Z" fill="#FCFDFF"/>
<path d="M154.029 112.669L140.248 104.651L138.574 105.617L152.357 113.635L154.029 112.669Z" fill="#FCFDFF"/>
<path d="M135.858 110.261C135.865 109.912 135.912 109.565 135.998 109.227L136.012 109.173L136.02 109.143L136.027 109.114V109.091L136.036 109.061L136.051 109.009L136.06 108.98V108.969L136.075 108.92V108.902L136.099 108.828C136.491 107.658 137.247 106.52 138.265 105.806L138.29 105.788L138.303 105.779L138.334 105.758L138.354 105.744L138.418 105.702L138.48 105.664L138.5 105.652L138.529 105.634L138.556 105.619L152.338 113.637L152.283 113.67L152.263 113.682L152.201 113.72L152.137 113.762L152.117 113.775L152.073 113.806L152.048 113.823L152.007 113.851L151.982 113.87L151.943 113.899L151.918 113.918L151.876 113.949L151.854 113.967L151.808 114.003L151.789 114.018L151.726 114.071L151.714 114.083L151.663 114.125L151.641 114.146L151.601 114.181L151.574 114.205L151.538 114.239L151.511 114.264L151.476 114.298L151.449 114.323L151.415 114.357L151.389 114.384L151.355 114.419L151.33 114.445L151.296 114.481L151.271 114.507L151.235 114.545L151.214 114.569L151.175 114.613L151.157 114.633L151.103 114.696L151.048 114.761L151.028 114.785L150.992 114.828L150.97 114.856L150.938 114.896L150.902 114.944L150.88 114.973L150.837 115.03L150.822 115.05L150.744 115.158L150.729 115.181L150.655 115.289L150.632 115.322L150.604 115.365L150.581 115.401L150.553 115.444L150.53 115.48L150.504 115.523L150.481 115.561L150.455 115.604L150.437 115.634L150.382 115.731L150.374 115.744L150.315 115.851L150.296 115.886L150.274 115.927L150.253 115.969L150.232 116.011L150.209 116.056L150.194 116.086L150.169 116.138L150.156 116.164L150.147 116.184L150.099 116.29L150.089 116.313C150.073 116.351 150.057 116.388 150.04 116.427L150.018 116.483L150.011 116.499L149.981 116.576L149.974 116.596L149.952 116.654L149.942 116.681L149.923 116.733L149.913 116.761L149.893 116.82L149.887 116.839L149.86 116.919V116.936L149.841 116.998L149.832 117.027L149.817 117.078L149.809 117.109L149.795 117.159L149.787 117.189L149.773 117.243L149.767 117.269L149.748 117.348V117.354L149.732 117.426V117.451L149.72 117.504V117.533L149.71 117.585V117.612L149.7 117.67C149.7 117.677 149.7 117.684 149.7 117.69C149.7 117.717 149.693 117.742 149.689 117.767V117.782C149.689 117.803 149.689 117.824 149.68 117.844V117.869V117.922V117.949C149.68 117.967 149.68 117.986 149.68 118.005C149.68 118.024 149.68 118.018 149.68 118.024C149.68 118.049 149.68 118.075 149.68 118.1C149.68 118.1 149.68 118.111 149.68 118.116C149.68 118.121 149.68 118.155 149.68 118.175C149.68 118.195 149.68 118.192 149.68 118.2C149.68 118.209 149.68 118.236 149.68 118.253C149.68 118.271 149.68 118.268 149.68 118.275C149.68 118.281 149.68 118.324 149.68 118.348C149.68 118.372 149.68 118.399 149.68 118.425C149.68 118.425 149.68 118.436 149.68 118.441C149.68 118.446 149.68 118.479 149.68 118.496V118.522C149.68 118.537 149.68 118.553 149.68 118.568C149.68 118.583 149.68 118.586 149.68 118.595C149.717 119.073 149.88 119.602 150.248 119.933L150.259 119.943L150.287 119.967L150.297 119.976L150.335 120.006H150.341L150.374 120.03L150.387 120.039L150.416 120.058L150.428 120.065L150.47 120.091L136.687 112.073L136.645 112.048L136.633 112.04L136.604 112.021L136.591 112.012L136.559 111.989H136.552C136.158 111.689 135.965 111.167 135.914 110.69C135.887 110.548 135.868 110.405 135.858 110.261Z" fill="#FCFDFF"/>
<path d="M152.357 113.635C150.855 114.502 149.63 116.624 149.635 118.351C149.64 120.077 150.873 120.78 152.375 119.912L154.047 118.946C155.55 118.079 156.775 115.957 156.771 114.23C156.767 112.504 155.533 111.801 154.03 112.669L152.357 113.635Z" fill="#E0E4E4"/>
<path d="M140.95 115.931H140.943H140.935H140.929H140.9H140.889H140.735H140.725H140.711H140.7H140.69H140.68H140.667H140.653H140.643H140.633L140.618 115.938L140.603 115.946L140.588 115.953L137.439 114.12L137.455 114.112L137.467 114.106L137.48 114.1H137.49H137.496H137.51H137.523H137.531H137.541H137.548H137.557H137.57H137.58H137.774H137.781H137.791H137.798H137.806H137.813H137.825L140.973 115.933L140.962 115.927L140.95 115.931Z" fill="#838383"/>
<path d="M140.53 115.985L137.379 114.152L136.996 114.373L140.147 116.206L140.53 115.985Z" fill="#A4A7A9"/>
<path d="M139.484 117.514L139.48 117.508L139.523 117.534H139.514H139.508H139.5L139.492 117.527L139.484 117.52V117.514Z" fill="#D0D2D3"/>
<path d="M140.146 116.206C139.965 116.324 139.815 116.483 139.707 116.671C139.599 116.858 139.536 117.068 139.524 117.284C139.524 117.678 139.808 117.839 140.154 117.641L140.532 117.421C140.713 117.303 140.864 117.144 140.972 116.956C141.08 116.769 141.142 116.559 141.154 116.343C141.154 115.949 140.871 115.788 140.524 115.987L140.146 116.206Z" fill="#808080"/>
<path d="M150.816 122.477C150.747 122.522 150.688 122.582 150.645 122.653C150.601 122.723 150.574 122.802 150.564 122.884C150.564 122.893 150.564 122.903 150.564 122.912C150.564 123.072 150.678 123.136 150.816 123.055C150.89 123.008 150.951 122.944 150.995 122.868C151.038 122.792 151.064 122.707 151.068 122.62C151.068 122.611 151.068 122.602 151.068 122.593C151.056 122.455 150.947 122.401 150.816 122.477Z" fill="#A01623"/>
<path d="M151.432 122.128C151.362 122.173 151.303 122.233 151.26 122.303C151.216 122.374 151.189 122.453 151.18 122.535C151.18 122.545 151.18 122.554 151.18 122.563C151.18 122.723 151.293 122.787 151.432 122.708C151.505 122.66 151.566 122.596 151.61 122.52C151.654 122.444 151.679 122.359 151.683 122.272C151.683 122.263 151.683 122.254 151.683 122.245C151.671 122.106 151.562 122.053 151.432 122.128Z" fill="#A01623"/>
<path d="M155.221 120.025C155.151 120.07 155.093 120.129 155.049 120.2C155.005 120.27 154.978 120.349 154.969 120.431C154.969 120.44 154.969 120.45 154.969 120.459C154.969 120.619 155.082 120.683 155.221 120.604C155.294 120.556 155.355 120.492 155.399 120.416C155.443 120.341 155.468 120.256 155.472 120.168C155.472 120.159 155.472 120.151 155.472 120.142C155.46 120.002 155.352 119.949 155.221 120.025Z" fill="#A01623"/>
<path d="M155.836 119.675C155.766 119.72 155.708 119.78 155.664 119.85C155.621 119.921 155.593 120 155.584 120.082C155.584 120.091 155.584 120.101 155.584 120.11C155.584 120.27 155.697 120.334 155.836 120.253C155.909 120.206 155.97 120.141 156.014 120.066C156.058 119.99 156.083 119.905 156.088 119.817C156.088 119.809 156.088 119.8 156.088 119.791C156.075 119.652 155.967 119.6 155.836 119.675Z" fill="#A01623"/>
<path d="M130.538 108.51L131.344 106.018L135.245 108.267L135.234 112.407V113.154L133.597 112.208C133.381 111.97 133.131 111.766 132.855 111.601C131.941 111.074 131.179 111.393 131.021 112.303L130.533 112.02L130.538 108.51Z" fill="#D3D3D3"/>
<path d="M150.416 121.192L150.409 123.516L149.508 122.995V121.411L135.228 113.155V112.407L150.416 121.192Z" fill="#32343F"/>
<path d="M136.611 112.057L136.598 112.049L136.569 112.03L136.557 112.021L136.524 111.997H136.518L136.48 111.967L136.47 111.958L136.442 111.934L136.431 111.924L136.403 111.899L136.394 111.89L136.359 111.855L136.351 111.848L136.325 111.819L136.314 111.806L136.29 111.778L136.28 111.767L136.248 111.727L136.222 111.69L136.213 111.678L136.191 111.646L136.183 111.632V111.625L136.169 111.602L136.157 111.584L136.137 111.55L136.128 111.537L136.102 111.486V111.476L136.083 111.437L136.053 111.369L136.045 111.351L136.024 111.297V111.285V111.273L136.009 111.231L136.001 111.207L135.985 111.155V111.141L135.97 111.084V111.074L135.953 111.006C135.953 110.993 135.953 110.98 135.945 110.966V110.942C135.945 110.923 135.937 110.904 135.933 110.886V110.874C135.933 110.852 135.926 110.83 135.922 110.807V110.786C135.922 110.772 135.922 110.76 135.922 110.746V110.739C135.922 110.731 135.922 110.723 135.922 110.714C135.922 110.705 135.922 110.685 135.922 110.67V110.642V110.616C135.922 110.616 135.922 110.603 135.922 110.597C135.922 110.591 135.922 110.58 135.922 110.571C135.922 110.562 135.922 110.539 135.922 110.524V110.499C135.922 110.499 135.922 110.491 135.922 110.488C135.922 110.484 135.922 110.457 135.922 110.442C135.922 110.427 135.922 110.431 135.922 110.426C135.922 110.421 135.922 110.381 135.922 110.357V110.349C135.922 110.325 135.922 110.3 135.922 110.276C135.922 110.252 135.922 110.261 135.922 110.255C135.922 110.248 135.922 110.237 135.922 110.228C135.922 110.219 135.922 110.211 135.922 110.202C135.922 110.193 135.922 110.185 135.922 110.177C135.922 110.168 135.922 110.138 135.922 110.117C135.922 110.097 135.922 110.106 135.922 110.101C135.922 110.077 135.922 110.053 135.922 110.029C135.922 110.005 135.922 110.017 135.922 110.01C135.922 110.004 135.922 109.984 135.922 109.97C135.922 109.956 135.922 109.959 135.922 109.954C135.922 109.949 135.922 109.936 135.922 109.927C135.922 109.918 135.922 109.892 135.922 109.874C135.922 109.857 135.922 109.858 135.922 109.849V109.837L135.928 109.787V109.771C135.928 109.747 135.934 109.723 135.938 109.699V109.679L135.948 109.622V109.595V109.568V109.543V109.514L135.96 109.461V109.435V109.426C135.96 109.405 135.97 109.383 135.975 109.362V109.355L135.992 109.284V109.277L135.999 109.252L136.013 109.198L136.02 109.168L136.028 109.139V109.116L136.036 109.086L136.052 109.034L136.06 109.005V108.994L136.076 108.945V108.927L136.094 108.868L149.892 116.838V116.847L149.886 116.866L149.859 116.945V116.963L149.841 117.024L149.832 117.053L149.817 117.105L149.808 117.135L149.794 117.186L149.786 117.216L149.773 117.27L149.766 117.295L149.747 117.375V117.381L149.731 117.453V117.478L149.72 117.531V117.56L149.71 117.611V117.639C149.71 117.658 149.703 117.677 149.7 117.697V117.717L149.688 117.794V117.809C149.688 117.829 149.688 117.851 149.679 117.871V117.896V117.949C149.679 117.958 149.679 117.966 149.679 117.975C149.679 117.984 149.679 118.013 149.679 118.032C149.679 118.051 149.679 118.044 149.679 118.051C149.679 118.076 149.679 118.101 149.679 118.126V118.119C149.679 118.139 149.679 118.158 149.679 118.178C149.679 118.198 149.679 118.194 149.679 118.203C149.679 118.212 149.679 118.238 149.679 118.256C149.679 118.274 149.679 118.271 149.679 118.277C149.679 118.284 149.679 118.327 149.679 118.35C149.679 118.374 149.679 118.402 149.679 118.427C149.679 118.427 149.679 118.439 149.679 118.444C149.679 118.449 149.679 118.481 149.679 118.499V118.524C149.679 118.539 149.679 118.556 149.679 118.571C149.679 118.586 149.679 118.588 149.679 118.597C149.679 118.606 149.679 118.626 149.679 118.641C149.679 118.656 149.679 118.66 149.679 118.669V118.713C149.679 118.722 149.679 118.729 149.679 118.738C149.679 118.747 149.679 118.77 149.679 118.786C149.679 118.803 149.679 118.801 149.679 118.808C149.679 118.814 149.686 118.853 149.691 118.876V118.888C149.691 118.907 149.697 118.925 149.701 118.944C149.705 118.962 149.701 118.96 149.701 118.967C149.701 118.975 149.701 118.996 149.71 119.01C149.718 119.024 149.721 119.056 149.726 119.078V119.087C149.726 119.106 149.736 119.125 149.742 119.145V119.161L149.759 119.213L149.766 119.237L149.781 119.28L149.79 119.302L149.812 119.357L149.819 119.374C149.829 119.398 149.839 119.42 149.849 119.442L149.87 119.484V119.493L149.896 119.543L149.905 119.557L149.925 119.591L149.936 119.608L149.955 119.639L149.964 119.653L149.984 119.683L149.993 119.697L150.019 119.734L150.051 119.773L150.061 119.785L150.085 119.812L150.096 119.825L150.123 119.854L150.13 119.862L150.165 119.897L150.174 119.906L150.202 119.931L150.213 119.941L150.241 119.965L150.251 119.974L150.289 120.004H150.295L150.328 120.028L150.34 120.037L150.369 120.055L150.382 120.063L150.424 120.088L136.642 112.07L136.611 112.057Z" fill="#587ABB"/>
<path d="M131.477 106.632C131.449 106.616 131.424 106.622 131.415 106.647L131.002 108.2C130.997 108.226 131.001 108.253 131.012 108.277C131.023 108.302 131.041 108.322 131.064 108.336L133.33 109.647C133.367 109.668 133.396 109.647 133.396 109.609V107.822C133.395 107.8 133.388 107.778 133.377 107.758C133.365 107.739 133.349 107.722 133.33 107.71L131.477 106.632Z" fill="#70565D"/>
<path d="M132.643 105.502C132.835 105.502 132.991 105.596 132.991 105.664V106.192C132.991 106.26 132.835 106.318 132.643 106.318C132.452 106.318 132.296 106.263 132.296 106.192V105.664C132.296 105.596 132.451 105.502 132.643 105.502Z" fill="#FAAF40"/>
<path d="M132.643 106.175C132.835 106.175 132.991 106.119 132.991 106.049V106.19C132.991 106.258 132.835 106.316 132.643 106.316C132.452 106.316 132.296 106.26 132.296 106.19V106.049C132.296 106.119 132.451 106.175 132.643 106.175Z" fill="#404041"/>
<path d="M132.992 105.652C132.983 105.717 132.831 105.769 132.645 105.769C132.46 105.769 132.308 105.717 132.299 105.652C132.29 105.586 132.46 105.497 132.645 105.497C132.831 105.497 132.979 105.59 132.992 105.652Z" fill="#FFC940"/>
<path d="M137.286 102.756C137.477 102.756 137.634 102.85 137.634 102.918V103.446C137.634 103.514 137.477 103.572 137.286 103.572C137.095 103.572 136.938 103.516 136.938 103.446V102.918C136.938 102.855 137.093 102.756 137.286 102.756Z" fill="#FAAF40"/>
<path d="M137.286 103.434C137.477 103.434 137.634 103.378 137.634 103.308V103.449C137.634 103.517 137.477 103.575 137.286 103.575C137.095 103.575 136.938 103.519 136.938 103.449V103.308C136.938 103.379 137.093 103.434 137.286 103.434Z" fill="#404041"/>
<path d="M137.638 102.917C137.629 102.982 137.477 103.034 137.292 103.034C137.107 103.034 136.954 102.982 136.946 102.917C136.937 102.851 137.107 102.761 137.292 102.761C137.477 102.761 137.624 102.85 137.638 102.917Z" fill="#FFC940"/>
<path d="M81.4201 102.032L92.4349 108.442L83.9097 109.493L72.8672 103.069L81.4201 102.032Z" fill="#807689"/>
<path d="M72.8672 103.068V106.978L83.9097 113.404V109.493L72.8672 103.068Z" fill="#D3D3D3"/>
<path d="M83.9102 109.493V113.404L92.4354 108.441L83.9102 109.493Z" fill="#E2E4E5"/>
<path d="M96.7639 93.0732L107.779 99.4829L99.2522 100.534L88.2109 94.1096L96.7639 93.0732Z" fill="#807689"/>
<path d="M88.2109 94.1094V98.0194L99.2522 104.445V100.534L88.2109 94.1094Z" fill="#D3D3D3"/>
<path d="M99.252 100.535V104.446L107.778 99.4834L99.252 100.535Z" fill="#E2E4E5"/>
<path d="M112.113 84.1152L123.128 90.5249L114.602 91.5764L103.561 85.1504L112.113 84.1152Z" fill="#807689"/>
<path d="M103.561 85.1504V89.0617L114.602 95.4877V91.5764L103.561 85.1504Z" fill="#D3D3D3"/>
<path d="M114.603 91.5759V95.4872L123.129 90.5244L114.603 91.5759Z" fill="#E2E4E5"/>
<path d="M140.18 98.1343V94.2998L126.288 102.319V106.212L140.18 98.1343Z" fill="#9B7371"/>
<path d="M133.208 75.8451L132.07 75.1865L126.81 78.2478L127.948 78.9051L133.208 75.8451Z" fill="#5D525B"/>
<path d="M130.93 74.5307L129.791 73.8721L124.531 76.9321L125.67 77.5907L130.93 74.5307Z" fill="#5D525B"/>
<path d="M128.651 73.2162L127.513 72.5576L122.253 75.6176L123.391 76.2762L128.651 73.2162Z" fill="#5D525B"/>
<path d="M126.374 71.9008L125.236 71.2422L119.976 74.3022L121.114 74.9608L126.374 71.9008Z" fill="#5D525B"/>
<path d="M124.096 70.5851L122.959 69.9277L117.697 72.9878L118.836 73.6464L124.096 70.5851Z" fill="#5D525B"/>
<path d="M121.819 69.2719L120.681 68.6133L115.421 71.6733L116.558 72.3319L121.819 69.2719Z" fill="#5D525B"/>
<path d="M119.54 67.9562L118.403 67.2988L113.143 70.3588L114.281 71.0174L119.54 67.9562Z" fill="#5D525B"/>
<path d="M117.263 66.6417L116.124 65.9844L110.864 69.0444L112.003 69.7017L117.263 66.6417Z" fill="#5D525B"/>
<path d="M114.985 65.3263L113.847 64.6689L108.587 67.729L109.725 68.3863L114.985 65.3263Z" fill="#5D525B"/>
<path d="M112.707 64.0118L111.569 63.3545L106.309 66.4145L107.447 67.0719L112.707 64.0118Z" fill="#5D525B"/>
<path d="M110.43 62.6974L109.291 62.04L104.031 65.1L105.17 65.7574L110.43 62.6974Z" fill="#5D525B"/>
<path d="M108.151 61.3829L107.013 60.7256L101.753 63.7843L102.891 64.4429L108.151 61.3829Z" fill="#5D525B"/>
<path d="M105.873 60.0678L104.736 59.4092L99.4756 62.4692L100.613 63.1278L105.873 60.0678Z" fill="#5D525B"/>
<path d="M103.595 58.7533L102.458 58.0947L97.1982 61.1547L98.3354 61.8133L103.595 58.7533Z" fill="#5D525B"/>
<path d="M101.318 57.4389L100.18 56.7803L94.9199 59.8403L96.0583 60.4989L101.318 57.4389Z" fill="#5D525B"/>
</svg>
