<svg width="167" height="146" viewBox="0 0 167 146" fill="none" xmlns="http://www.w3.org/2000/svg">
<g clip-path="url(#clip0)">
<path d="M52.9633 37.8765V47.9311L47.0125 50.6231V46.5851C44.862 45.8469 42.9254 44.5946 41.3721 42.9375C39.3103 40.8512 37.7869 38.297 36.9326 35.4941L41.8984 38.1861C41.8984 38.1861 44.2733 41.7126 46.8236 42.8029V38.7784L52.9633 37.8765Z" fill="#724244"/>
<path d="M167 88.1089L161.387 91.3528L85.0113 59.1027C84.5245 58.8977 84.0014 58.792 83.473 58.792C82.9446 58.792 82.4215 58.8977 81.9347 59.1027L5.53248 91.4066L0 88.257V96.0637C0 96.1445 0 96.2387 0 96.3195V96.804C0.0580239 97.4096 0.259591 97.9927 0.588064 98.5052C0.916537 99.0178 1.3625 99.445 1.88914 99.7518L78.8041 144.735C80.202 145.551 81.7925 145.981 83.4123 145.981C85.032 145.981 86.6226 145.551 88.0204 144.735L164.935 99.7114C165.512 99.3761 165.992 98.8972 166.328 98.3215C166.664 97.7459 166.844 97.0932 166.852 96.4272L167 88.1089Z" fill="#D0B970"/>
<path d="M78.8984 136.619L1.98343 91.6358C1.3525 91.2673 0.836798 90.731 0.494027 90.0868C0.151256 89.4426 -0.00506745 88.716 0.0425445 87.9882C0.0901565 87.2605 0.339826 86.5603 0.763622 85.966C1.18742 85.3717 1.76862 84.9068 2.44222 84.6232L81.0439 41.2553C81.5305 41.0494 82.0537 40.9434 82.5822 40.9434C83.1108 40.9434 83.6339 41.0494 84.1205 41.2553L164.625 84.5828C165.298 84.8664 165.88 85.3314 166.303 85.9256C166.727 86.5199 166.977 87.2201 167.025 87.9479C167.072 88.6756 166.916 89.4022 166.573 90.0464C166.23 90.6906 165.715 91.227 165.084 91.5955L88.1687 136.619C86.7713 137.437 85.1806 137.868 83.5605 137.868C81.9405 137.868 80.3498 137.437 78.9524 136.619" fill="#77B053"/>
<path d="M38.2687 69.9915C38.2687 70.7453 37.1488 71.3375 35.7589 71.3375C34.369 71.3375 33.249 70.7318 33.249 69.9915C33.249 69.2512 34.369 68.6455 35.7589 68.6455C37.1488 68.6455 38.2687 69.2512 38.2687 69.9915Z" fill="#628F41"/>
<path d="M145.396 80.5981L134.804 75.2142L41.5747 73.8682L27.9999 81.9441L25.1527 80.0867L16.5166 80.8539L20.7537 85.0668L16.5166 88.4453L18.1898 89.374L22.9397 86.3455L42.3034 98.2576L29.7676 107.855L46.7159 117.761L49.2932 115.85C51.2768 118.447 53.9756 118.919 56.9172 118.919C58.237 118.963 59.5433 118.642 60.6913 117.991C61.8393 117.34 62.7842 116.384 63.4213 115.231C64.0474 115.131 64.6466 114.906 65.1825 114.568C65.7184 114.23 66.1797 113.787 66.5383 113.265L66.9701 113.535L80.9633 121.718L129.852 93.6274C132.334 96.602 137.449 98.6479 143.345 98.6479C151.698 98.6479 158.472 94.6099 158.472 89.5759C158.472 84.9726 152.764 81.1904 145.369 80.5981" fill="#628F41"/>
<path d="M79.3574 114.073L134.925 81.9849V54.8496L79.3574 84.5422V114.073Z" fill="#C5C2A9"/>
<path d="M103.997 103.816C104.335 104.395 99.1396 108.016 92.4062 111.892C85.6727 115.769 79.9379 118.447 79.614 117.868C79.2901 117.29 84.4718 113.682 91.2052 109.792C97.9387 105.903 103.674 103.237 104.011 103.816" fill="#566F41"/>
<path d="M16.2734 81.998V89.0645C16.2734 89.253 16.7052 89.401 17.2315 89.401C17.7578 89.401 18.1896 89.253 18.1896 89.0645V82.523L16.2734 81.998Z" fill="#76464B"/>
<path d="M24.7207 77.987L12.1444 70.8398C11.9879 70.752 11.807 70.7177 11.6292 70.742C11.4513 70.7663 11.2864 70.8479 11.1593 70.9744L10.2822 71.6608L10.9029 72.3338V77.5698C10.9036 77.7167 10.9425 77.8609 11.0158 77.9883C11.0891 78.1157 11.1944 78.222 11.3213 78.2966L22.3188 84.7305L23.7896 86.3322L24.7611 85.5784C24.8677 85.504 24.9551 85.4054 25.0161 85.2907C25.077 85.1761 25.1099 85.0487 25.112 84.9189V78.7273C25.1123 78.5768 25.0725 78.4289 24.9967 78.2988C24.9208 78.1687 24.8115 78.0611 24.6802 77.987" fill="#B7BD58"/>
<path d="M9.98535 72.3208V78.297C9.98598 78.4439 10.0249 78.5882 10.0982 78.7156C10.1715 78.843 10.2768 78.9492 10.4037 79.0239L22.9395 86.3461C23.0683 86.4219 23.2149 86.4624 23.3645 86.4636C23.5141 86.4648 23.6613 86.4266 23.7914 86.3528C23.9214 86.2791 24.0296 86.1724 24.1051 86.0436C24.1806 85.9148 24.2207 85.7684 24.2214 85.6192V79.4142C24.2194 79.266 24.1784 79.1209 24.1027 78.9933C24.0269 78.8658 23.919 78.7603 23.7896 78.6874L11.2538 71.5805C11.1253 71.508 10.9801 71.4702 10.8325 71.4707C10.6849 71.4712 10.5399 71.5101 10.4119 71.5834C10.2839 71.6567 10.1773 71.7621 10.1025 71.889C10.0277 72.0159 9.98732 72.1601 9.98535 72.3073" fill="#DDE96C"/>
<path d="M122.7 66.9229V80.4635L109.112 87.8127L109.071 74.8911L122.7 66.9229Z" fill="#503335"/>
<path d="M122.794 80.4098L122.713 67.1787L122.052 67.4344V71.3378L116.236 74.5413V70.9071L115.17 71.5666V75.3758L109.125 78.7543V80.033L115.17 76.6545V83.3845L109.3 86.5476V87.8128L122.794 80.4098ZM116.223 76.0488V75.8604L121.62 72.7377V79.7638L116.047 82.9134V76.1834L116.223 76.0488Z" fill="#724244"/>
<path d="M123.024 65.9541L116.277 70.0728L108.842 74.5819V88.513L116.277 84.475L123.024 80.787V65.9541ZM109.422 75.1742L115.589 71.4727V75.9548L109.422 79.5486V75.1742ZM109.422 80.2755L115.589 76.7221V83.8558L109.422 87.0997V80.2755ZM122.39 80.1678L116.223 83.452V76.1837L122.39 72.5764V80.1678ZM122.39 71.8361L116.223 75.3761V71.042L122.39 67.3001V71.8361Z" fill="#FDFDFC"/>
<path d="M65.4187 14.9407C65.5443 14.5758 65.6435 14.2025 65.7156 13.8235C66.876 7.92803 61.4245 1.89797 53.5711 0.363539C45.8796 -1.13051 38.8763 2.12679 37.3515 7.67229C36.0981 8.21411 34.9937 9.04879 34.1317 10.1059C33.2697 11.163 32.6754 12.4114 32.3988 13.7458C32.1223 15.0802 32.1717 16.4614 32.5428 17.7727C32.9139 19.0841 33.596 20.2871 34.5313 21.2803C33.1512 22.5345 32.2062 24.1936 31.8325 26.0182C30.672 31.9136 36.1235 37.9437 43.977 39.4781C51.8304 41.0126 59.1845 37.4726 60.3315 31.5771C60.3315 31.5771 60.3315 31.4829 60.3315 31.4425C62.6041 31.866 64.9527 31.3885 66.8779 30.1116C68.8031 28.8347 70.1531 26.8591 70.6408 24.6049C70.9981 22.6354 70.6696 20.6032 69.71 18.8454C68.7503 17.0877 67.2172 15.7099 65.3647 14.9407" fill="#416850"/>
<path d="M45.6229 20.8096C46.9723 22.1556 46.419 24.9957 44.2735 27.0819C42.128 29.1682 39.3617 29.7739 37.9854 28.4279C36.609 27.0819 37.1892 24.2419 39.3347 22.1556C41.4803 20.0693 44.2465 19.4636 45.6229 20.8096Z" fill="#4B7C63"/>
<path d="M57.2675 6.39328C58.1851 9.77172 54.9061 13.6078 49.9133 14.9673C44.9206 16.3267 40.1438 14.6846 39.2127 11.3062C38.2816 7.92771 41.5876 4.03779 46.5668 2.69179C51.5461 1.3458 56.3364 2.97445 57.2675 6.3529" fill="#4B7C63"/>
<path d="M37.999 57.0705V90.1685L79.3577 114.073V84.5422L56.1078 48.833L37.999 57.0705Z" fill="#EDE8D8"/>
<path d="M31.8594 58.5774L55.7435 48.4421L113.335 13.877L91.3403 21.9125L31.8594 58.5774Z" fill="#815338"/>
<path d="M55.7432 48.4421L80.0726 84.2994L138.204 50.5553L113.335 13.877L55.7432 48.4421Z" fill="#976644"/>
<path d="M31.8594 58.5777V60.2064L55.7435 50.5825V48.4424L31.8594 58.5777Z" fill="#B27753"/>
<path d="M80.0726 84.3131V86.5879L55.7432 50.5825V48.4424L80.0726 84.3131Z" fill="#B27753"/>
<path d="M50.6289 97.45V72.9395L62.2336 79.7636V104.193L50.6289 97.45Z" fill="#724244"/>
<path d="M40.8994 63.127V76.6677L47.6868 80.4364V67.0438L40.8994 63.127Z" fill="#503335"/>
<path d="M41.898 63.7865V67.5957L47.5925 70.7722V72.0509L40.832 68.2821V63.127L41.898 63.7865Z" fill="#724244"/>
<path d="M41.898 68.7531V76.0618L47.5925 78.9826V80.2613L40.832 76.7483V68.0801L41.898 68.7531Z" fill="#724244"/>
<path d="M40.4814 62.1846V76.9905L47.9166 81.0285V66.6936L40.4814 62.1846ZM47.2284 67.259V71.6469L41.0617 68.0531V63.5575L47.2284 67.259ZM41.0617 76.3714V68.753L47.2284 72.3603V79.6287L41.0617 76.3714Z" fill="#FDFDFC"/>
<path d="M50.9526 97.6524V73.6129L61.8556 79.993V103.965L62.5033 104.355V79.4276L50.3184 72.2266V97.2755L50.9526 97.6524Z" fill="#FDFDFC"/>
<path d="M66.457 78.1211V91.6618L73.2444 95.4171V82.0379L66.457 78.1211Z" fill="#503335"/>
<path d="M67.4557 78.7806V82.5898L73.1366 85.7663V87.045L66.3896 83.2628V78.1211L67.4557 78.7806Z" fill="#724244"/>
<path d="M67.4557 83.7482V91.0569L73.1366 93.9777V95.2564L66.3896 91.7434V83.0752L67.4557 83.7482Z" fill="#724244"/>
<path d="M66.1201 77.1797V91.9856L73.5552 96.0236V81.6888L66.1201 77.1797ZM72.867 82.2541V86.642L66.7004 83.0482V78.5526L72.867 82.2541ZM66.7004 91.3665V83.7481L72.867 87.3419V94.6103L66.7004 91.3665Z" fill="#FDFDFC"/>
<path d="M101.702 105.055C103.889 103.079 104.478 100.173 103.017 98.564C101.556 96.9552 98.5989 97.2531 96.4116 99.2293C94.2243 101.206 93.6355 104.112 95.0964 105.721C96.5573 107.329 99.5147 107.031 101.702 105.055Z" stroke="#443C41" stroke-miterlimit="10"/>
<path d="M100.907 100.949C101.167 101.144 101.36 101.414 101.46 101.722C101.561 102.031 101.563 102.362 101.468 102.672C101.372 102.982 101.183 103.255 100.926 103.453C100.669 103.652 100.357 103.766 100.033 103.782C99.7082 103.797 99.3868 103.712 99.1125 103.538C98.8382 103.364 98.6243 103.11 98.5 102.811C98.3757 102.512 98.347 102.181 98.418 101.865C98.4889 101.549 98.6559 101.262 98.8963 101.044C99.1532 100.77 99.507 100.607 99.8824 100.589C100.258 100.572 100.625 100.701 100.907 100.949Z" fill="#443C41"/>
<path d="M99.3821 80.0732V93.6139L92.5947 97.3693V83.9901L99.3821 80.0732Z" fill="#503335"/>
<path d="M98.384 80.7328V84.5285L92.7031 87.705V88.9837L99.4501 85.2149V80.0732L98.384 80.7328Z" fill="#724244"/>
<path d="M98.384 85.6859V93.0081L92.7031 95.9155V97.1942L99.4501 93.6811V85.0264L98.384 85.6859Z" fill="#724244"/>
<path d="M92.3115 83.6263V97.9611L99.7466 93.9231V79.1172L92.3115 83.6263ZM99.0585 80.4901V84.9723L92.8917 88.5795V84.1916L99.0585 80.4901ZM92.9457 96.5613V89.2929L99.1124 85.6991V93.3174L92.9457 96.5613Z" fill="#FDFDFC"/>
<path d="M80.0723 86.5879V84.3132L138.204 50.5557V52.8977L80.0723 86.5879Z" fill="#75464A"/>
<path d="M51.9785 84.502V87.1132" stroke="#503335" stroke-width="0.5" stroke-miterlimit="10" stroke-linecap="round"/>
<path d="M93.7014 105.096L95.3341 98.9443L86.9814 100.236" stroke="#2E607B" stroke-linejoin="round"/>
<path d="M87.3686 113.719C89.7989 111.523 90.4671 108.309 88.8612 106.541C87.2552 104.772 83.9831 105.118 81.5528 107.314C79.1225 109.51 78.4543 112.724 80.0602 114.492C81.6662 116.261 84.9383 115.915 87.3686 113.719Z" stroke="#443C41" stroke-miterlimit="10"/>
<path d="M85.7535 109.349C86.092 109.543 86.3602 109.839 86.5197 110.195C86.6791 110.55 86.7215 110.947 86.6409 111.328C86.5603 111.709 86.3607 112.055 86.0708 112.316C85.781 112.577 85.4157 112.74 85.0274 112.781C84.6391 112.822 84.2476 112.74 83.9093 112.545C83.5709 112.351 83.3029 112.054 83.1438 111.699C82.9847 111.343 82.9426 110.946 83.0236 110.565C83.1045 110.184 83.3044 109.838 83.5945 109.578C83.8567 109.271 84.2267 109.077 84.6283 109.034C85.0299 108.992 85.4325 109.104 85.7535 109.349Z" fill="#443C41"/>
<path d="M93.2158 106.253L99.2341 102.013L95.3344 98.9443" stroke="#489FDD" stroke-linecap="round" stroke-linejoin="round"/>
<path d="M90.0176 98.5V101.73" stroke="#EDE8D8" stroke-miterlimit="10"/>
<path d="M92.3115 96.5078L90.0176 98.4999" stroke="#443C41" stroke-linecap="round" stroke-linejoin="round"/>
<path d="M84.6475 93.9775V97.1945" stroke="#EDE8D8" stroke-miterlimit="10"/>
<path d="M86.6846 101.461L92.5949 105.714" stroke="#2E607B" stroke-miterlimit="10"/>
<path d="M84.458 96.8984L89.95 101.731" stroke="#489FDD" stroke-linecap="round" stroke-linejoin="round"/>
<path d="M94.2955 103.938C94.6798 104.193 94.9744 104.562 95.138 104.993C95.3016 105.424 95.3259 105.895 95.2077 106.34C95.0894 106.786 94.8345 107.183 94.4786 107.476C94.1227 107.77 93.6837 107.945 93.223 107.977C92.7623 108.009 92.3031 107.897 91.9097 107.656C91.5162 107.414 91.2083 107.057 91.029 106.632C90.8498 106.208 90.8081 105.738 90.9099 105.288C91.0117 104.839 91.2519 104.433 91.5968 104.127C91.9357 103.754 92.4055 103.527 92.9083 103.492C93.411 103.457 93.908 103.617 94.2955 103.938Z" fill="#579EDC"/>
<path d="M93.6479 104.53C93.8848 104.684 94.0671 104.909 94.1689 105.173C94.2708 105.436 94.287 105.725 94.2153 105.998C94.1437 106.271 93.9877 106.515 93.7696 106.694C93.5514 106.874 93.2821 106.981 92.9997 107C92.7173 107.019 92.4361 106.948 92.196 106.799C91.9558 106.65 91.7688 106.429 91.6614 106.168C91.5541 105.906 91.5317 105.618 91.5976 105.344C91.6635 105.069 91.8143 104.822 92.0286 104.638C92.2308 104.412 92.5136 104.275 92.8162 104.255C93.1189 104.234 93.4174 104.333 93.6479 104.53Z" fill="#FDFDFC"/>
<path d="M86.1047 92.6182L84.2695 94.3276" stroke="#443C41" stroke-linecap="round" stroke-linejoin="round"/>
<path d="M84.458 110.52L87.2108 99.3076" stroke="#489FDD" stroke-linecap="round" stroke-linejoin="round"/>
<path d="M96.0762 96.5078L95.415 98.7691" stroke="#489FDD" stroke-linecap="round" stroke-linejoin="round"/>
<path d="M97.1557 96.1451C97.3041 96.6296 97.4795 97.0065 95.9952 97.4911C94.5109 97.9756 93.202 97.8949 93.0535 97.4103C92.9051 96.9257 93.9981 96.1854 95.4689 95.7413C96.9398 95.2971 97.0072 95.7413 97.1557 96.1989" fill="#443C41"/>
<path d="M48.1195 99.6842C48.1101 99.1146 47.9731 98.5543 47.7186 98.0443C47.4641 97.5343 47.0986 97.0875 46.6487 96.7365C46.5622 95.5875 46.0248 94.519 45.1532 93.7629C44.2815 93.0069 43.146 92.6244 41.9933 92.6985C41.1438 92.6757 40.3039 92.8826 39.5627 93.2973C38.8215 93.712 38.2066 94.319 37.7832 95.054C33.9645 95.1348 30.9014 97.8537 30.9014 101.192C30.9014 104.53 34.0589 107.343 37.9721 107.343C39.2797 107.371 40.5699 107.04 41.7024 106.388C42.8349 105.735 43.7663 104.785 44.3952 103.641C45.3975 103.521 46.324 103.048 47.0089 102.308C47.6937 101.569 48.0922 100.61 48.133 99.6035" fill="#416850"/>
<path d="M38.6194 98.6208C38.8892 99.7784 37.7827 101.017 36.1635 101.38C34.5442 101.744 33.0194 101.111 32.7495 99.9399C32.4796 98.7689 33.5861 97.5441 35.2054 97.1806C36.8247 96.8172 38.3495 97.4498 38.6194 98.6074" fill="#4B7C63"/>
<path d="M66.1198 110.223C66.1103 109.654 65.9734 109.093 65.7189 108.583C65.4644 108.073 65.0988 107.627 64.649 107.276C64.5625 106.127 64.0251 105.058 63.1534 104.302C62.2818 103.546 61.1463 103.163 59.9936 103.238C59.1269 103.213 58.2701 103.427 57.5177 103.857C56.7654 104.287 56.1466 104.916 55.7295 105.674C51.9108 105.755 48.8477 108.474 48.8477 111.812C48.8477 115.15 52.0052 117.963 55.9184 117.963C57.2314 117.999 58.5292 117.675 59.6694 117.024C60.8095 116.373 61.7481 115.422 62.382 114.275C63.3843 114.154 64.3108 113.682 64.9956 112.942C65.6805 112.202 66.079 111.243 66.1198 110.237" fill="#416850"/>
<path d="M56.5793 109.16C56.8492 110.318 55.7427 111.556 54.1234 111.92C52.5042 112.283 50.9794 111.65 50.7095 110.479C50.4396 109.308 51.5461 108.097 53.1654 107.68C54.7846 107.262 56.3094 107.949 56.5793 109.106" fill="#4B7C63"/>
<path d="M117.977 108.138C117.958 107.953 117.892 107.775 117.786 107.622C117.68 107.469 117.537 107.346 117.37 107.263C117.479 107.119 117.54 106.945 117.545 106.765C117.545 105.998 116.398 105.419 114.995 105.419C114.309 105.398 113.63 105.57 113.038 105.917H112.863C111.513 105.917 110.312 106.536 110.312 107.263C110.312 107.707 110.704 108.097 111.298 108.34C111.178 108.489 111.112 108.673 111.109 108.864C111.109 109.632 112.242 110.21 113.659 110.21C114.477 110.26 115.284 109.995 115.912 109.47C117.086 109.349 117.964 108.784 117.964 108.124" fill="#CB4F50"/>
<path d="M127.152 110.776C127.152 111.543 126.005 112.122 124.602 112.122C123.199 112.122 122.052 111.503 122.052 110.776C122.052 110.049 123.185 109.43 124.602 109.43C126.019 109.43 127.152 110.049 127.152 110.776Z" fill="#628F41"/>
<path d="M115.494 107.679C115.494 108.11 114.9 108.447 114.144 108.447C113.389 108.447 112.795 108.097 112.795 107.679C112.795 107.262 113.389 106.912 114.144 106.912C114.9 106.912 115.494 107.262 115.494 107.679Z" fill="white"/>
<path d="M115.629 114.881C115.629 115.54 114.684 116.078 113.524 116.078C112.364 116.078 111.419 115.54 111.419 114.881C111.419 114.221 112.364 113.683 113.524 113.683C114.684 113.683 115.629 114.221 115.629 114.881Z" fill="#628F41"/>
<path d="M104.942 116.443C104.942 117.089 103.97 117.614 102.769 117.614C101.568 117.614 100.597 117.089 100.597 116.443C100.597 115.796 101.568 115.271 102.769 115.271C103.97 115.271 104.942 115.796 104.942 116.443Z" fill="#628F41"/>
<path d="M30.6712 73.1417C30.6712 73.7878 29.6996 74.3127 28.4987 74.3127C27.2977 74.3127 26.3262 73.7878 26.3262 73.1417C26.3262 72.4956 27.2977 71.9707 28.4987 71.9707C29.6996 71.9707 30.6712 72.4956 30.6712 73.1417Z" fill="#628F41"/>
<path d="M35.8941 75.2547C35.8941 75.7796 35.1115 76.1969 34.1399 76.1969C33.1684 76.1969 32.3857 75.7796 32.3857 75.2547C32.3857 74.7298 33.1684 74.3125 34.1399 74.3125C35.1115 74.3125 35.8941 74.7298 35.8941 75.2547Z" fill="#628F41"/>
<path d="M125.075 103.642C125.075 103.642 126.141 108.353 130.473 108.367C134.804 108.38 136.72 103.4 136.72 103.4C135.656 103.68 134.681 104.227 133.887 104.988C134.287 103.319 134.438 101.6 134.332 99.8868C133.481 100.964 132.845 102.193 132.456 103.508C132.321 101.812 131.107 96.9795 130.675 96.9795C130.416 99.213 130.317 101.462 130.378 103.709C129.987 102.444 126.33 98.5408 126.33 98.5408C126.33 98.5408 127.68 104.423 128.53 105.271C127.427 104.631 126.271 104.086 125.075 103.642Z" fill="#628F41"/>
<path d="M153.345 53.7054C152.333 58.8875 146.395 62.0909 140.094 60.8526C133.792 59.6143 129.541 54.4322 130.527 49.2502C131.512 44.0681 137.476 40.8646 143.778 42.1029C150.079 43.3412 154.37 48.5233 153.345 53.7054Z" fill="#3A5F47"/>
<path d="M140.336 50.6494V65.9534L134.129 63.5037L132.874 66.6667L140.336 69.5606V93.0886C140.336 93.5328 141.092 93.9097 142.036 93.9097C142.981 93.9097 143.737 93.5462 143.737 93.0886V51.6858L140.336 50.6494Z" fill="#76464B"/>
<path d="M128.111 50.879C122.268 49.7349 116.722 52.9249 115.723 57.9859C115.455 59.5665 115.611 61.1897 116.175 62.6909C116.739 64.192 117.691 65.5175 118.935 66.5329C118.652 69.5749 121.161 72.5091 124.832 73.2629C128.502 74.0166 132.348 72.0246 132.928 68.8211C132.999 68.4486 133.026 68.0692 133.009 67.6905C133.986 67.0706 134.829 66.2617 135.487 65.3115C136.145 64.3614 136.606 63.2892 136.841 62.1584C137.84 57.0975 133.9 52.0635 128.057 50.9194" fill="#416850"/>
<path d="M156.124 28.7234C156.596 25.143 153.56 21.6165 149.161 20.7551C145.113 19.9744 141.348 21.6569 140.012 24.6046C138.172 24.4503 136.32 24.55 134.507 24.9008C125.52 26.6505 119.38 33.9324 120.797 41.1873C122.214 48.4422 130.648 52.884 139.688 51.1342H139.837C142.17 53.9378 145.41 55.8418 148.999 56.5182C157.271 58.1334 165.192 53.1128 166.744 45.3195C167.352 41.7363 166.609 38.0553 164.658 34.986C162.707 31.9166 159.686 29.6762 156.178 28.6965" fill="#416850"/>
<path d="M126.747 54.6746C127.139 56.384 125.398 58.2415 122.834 58.8203C120.27 59.3991 117.895 58.4838 117.504 56.7744C117.113 55.065 118.854 53.2075 121.417 52.6287C123.981 52.0499 126.356 52.9652 126.747 54.6746Z" fill="#4B7C63"/>
<path d="M142.468 31.5237C143.818 34.7541 140.822 38.967 135.883 40.9456C130.944 42.9243 125.884 41.9148 124.589 38.6844C123.293 35.454 126.235 31.241 131.174 29.2624C136.113 27.2838 141.173 28.2933 142.468 31.5237Z" fill="#4B7C63"/>
<path d="M151.833 24.0398C152.346 25.8166 150.7 27.8625 148.149 28.5893C145.599 29.3161 143.116 28.4682 142.603 26.6915C142.091 24.9147 143.737 22.8688 146.287 22.142C148.837 21.4152 151.32 22.2631 151.833 24.0398Z" fill="#4B7C63"/>
</g>
<defs>
<clipPath id="clip0">
<rect width="167" height="146" fill="white"/>
</clipPath>
</defs>
</svg>
